ply
format ascii 1.0
comment https://github.com/EricCJoyce
element vertex 229
property float x
property float y
property float z
property uchar red
property uchar green
property uchar blue
end_header
0.125554978848 0.107664339244 0.237597152591 0 255 0
0.126758217812 0.106691963971 0.213144108653 0 255 0
0.12740047276 0.106761172414 0.211538568139 0 255 0
0.0696065053344 0.108188703656 0.212650954723 0 255 0
0.126105889678 0.106787592173 0.210602015257 0 255 0
0.0688354894519 0.108243487775 0.211111068726 0 255 0
0.120588809252 0.106563799083 0.215070798993 0 255 0
0.0700715631247 0.107861950994 0.220966354012 0 255 0
0.127417013049 0.105682812631 0.238662287593 0 255 0
-0.00483278930187 0.109305426478 0.218081504107 0 255 0
0.0696095749736 0.10782135278 0.221890300512 0 255 0
-0.00436965934932 0.109162479639 0.221773743629 0 255 0
0.0867204517126 0.107339799404 0.237597167492 0 255 0
-0.00629386631772 0.109115816653 0.222542971373 0 255 0
-0.0439427904785 0.108786299825 -0.121206380427 0 255 0
0.0656525269151 0.1082585603 0.210063055158 0 255 0
0.0857952535152 0.107405543327 0.235749319196 0 255 0
-0.0470429956913 0.108837366104 -0.123142138124 0 255 0
0.0538197048008 0.105895347893 -0.126274764538 0 255 0
0.0842549651861 0.107300825417 0.238059148192 0 255 0
-0.118456706405 0.108576096594 0.212543159723 0 255 0
0.12850138545 0.105747289956 0.237268581986 0 255 0
0.0664305314422 0.107803680003 0.221666425467 0 255 0
-0.118348196149 0.109435975552 0.2401009202 0 255 0
0.114480257034 0.106308475137 -0.173076018691 0 255 0
0.0765458419919 0.107695624232 0.226509958506 0 255 0
-0.119843043387 0.108656264842 0.210235506296 0 255 0
0.0783960297704 0.107600875199 0.229281753302 0 255 0
0.0758090540767 0.108370505273 0.20938231051 0 255 0
-0.00649552978575 0.10740955919 0.216251522303 0 255 0
0.12140057981 0.107555620372 0.239458277822 0 255 0
-0.119732454419 0.109424412251 0.2401009202 0 255 0
0.0744056403637 0.106422044337 0.208929538727 0 255 0
0.11985193938 0.10757958889 0.238529995084 0 255 0
-0.00668758386746 0.109330236912 0.217067688704 0 255 0
0.078039072454 0.108331315219 0.210836604238 0 255 0
-0.0413145571947 0.108211435378 0.237927287817 0 255 0
-0.0574859455228 0.108755297959 0.220850691199 0 255 0
0.109816946089 0.106362134218 -0.175405561924 0 255 0
0.0702976435423 0.108266621828 0.210836604238 0 255 0
0.0664277002215 0.108142003417 0.21315728128 0 255 0
0.0803997889161 0.107574760914 0.230359688401 0 255 0
0.119077377021 0.1076284796 0.23713760078 0 255 0
0.0959473624825 0.106583595276 0.209394127131 0 255 0
-0.0355766303837 0.109188735485 -0.129569008946 0 255 0
-0.0373586378992 0.109149210155 -0.128949508071 0 255 0
0.0716765075922 0.105868428946 -0.171005278826 0 255 0
-0.0467775352299 0.108480244875 -0.163265615702 0 255 0
-0.0603334754705 0.109140045941 0.210575953126 0 255 0
-0.00835689622909 0.10916878283 0.220777273178 0 255 0
0.11409329623 0.106119990349 -0.168417006731 0 255 0
-0.0367142148316 0.10932136327 -0.133143663406 0 255 0
-0.0459929443896 0.108784131706 -0.121582679451 0 255 0
0.113767072558 0.106413148344 -0.175858438015 0 255 0
-0.0463128574193 0.108576580882 -0.16559073329 0 255 0
0.097497113049 0.106596544385 0.209394127131 0 255 0
-0.121654585004 0.109347231686 0.241637900472 0 255 0
0.128497779369 0.106178283691 0.226428508759 0 255 0
0.0570547133684 0.105912953615 -0.126037627459 0 255 0
0.0665482282639 0.106029264629 -0.17612798512 0 255 0
0.108370602131 0.106378771365 -0.17612798512 0 255 0
-0.0563306473196 0.108697660267 0.222542971373 0 255 0
-0.0372502543032 0.10907100141 -0.126959860325 0 255 0
-0.0612606033683 0.109021671116 0.213358134031 0 255 0
0.0997235551476 0.107497498393 0.236364036798 0 255 0
-0.0448267459869 0.108655773103 -0.167269915342 0 255 0
0.0857876986265 0.107534833252 0.232496246696 0 255 0
0.129271119833 0.10636947304 0.221782758832 0 255 0
0.12850035727 0.105870433152 0.234171420336 0 255 0
0.129274725914 0.105938479304 0.23262283206 0 255 0
0.0847360342741 0.10738209635 0.236116498709 0 255 0
-0.0630238950253 0.1081584692 0.23469658196 0 255 0
-0.039646346122 0.108199886978 0.238568335772 0 255 0
-0.00325338705443 0.109334349632 0.217685967684 0 255 0
-0.0556896626949 0.108766742051 0.220940455794 0 255 0
-0.00557284755632 0.109222777188 0.220004439354 0 255 0
0.0819149240851 0.107748530805 0.226307779551 0 255 0
-0.20683632791 0.151703715324 -0.0549380779266 0 255 0
0.0836208313704 0.10742444545 0.234816923738 0 255 0
-0.0612599365413 0.108941785991 0.215367481112 0 255 0
0.0811358988285 0.108326435089 0.211610168219 0 255 0
-0.0372529327869 0.109391696751 -0.135025665164 0 255 0
-0.0482442118227 0.108337037265 0.233312010765 0 255 0
-0.000931871589273 0.109200105071 0.221550092101 0 255 0
-0.0409366749227 0.109055705369 0.216773837805 0 255 0
0.107921279967 0.106330350041 -0.175004571676 0 255 0
0.103594012558 0.107560604811 0.235590487719 0 255 0
-0.0643515214324 0.10867010802 0.221550107002 0 255 0
0.111330553889 0.10820966959 0.220892861485 0 255 0
0.10513818264 0.108065642416 0.223213538527 0 255 0
-0.00557171320543 0.109081432223 0.223559424281 0 255 0
-0.209068924189 0.145110309124 -0.0370684638619 0 255 0
0.00334268226288 0.107466556132 0.216885656118 0 255 0
0.0989411845803 0.108475230634 0.211610168219 0 255 0
0.116752639413 0.107885874808 0.230175569654 0 255 0
-0.0396543368697 0.109155625105 0.214530318975 0 255 0
0.074613802135 0.108368314803 0.209186211228 0 255 0
0.102038271725 0.108439594507 0.21315728128 0 255 0
0.106021255255 0.106606200337 0.210942700505 0 255 0
-0.20702187717 0.14969907701 -0.0537223517895 0 255 0
-0.0594041869044 0.109000310302 0.214285507798 0 255 0
0.100495897233 0.107719264925 0.230949133635 0 255 0
-0.0390120856464 0.10905649513 0.217158466578 0 255 0
-0.0332335717976 0.108508355916 0.232158184052 0 255 0
0.0749460980296 0.107874847949 0.221666425467 0 255 0
0.0469558350742 0.108923614025 0.238568335772 0 255 0
-0.0334854498506 0.109348349273 -0.133143663406 0 255 0
0.10127209872 0.107479684055 0.23713760078 0 255 0
0.0850061029196 0.108420297503 0.210063055158 0 255 0
0.117527298629 0.107830837369 0.231722682714 0 255 0
0.0973977819085 0.107877925038 0.226307779551 0 255 0
0.0958497524261 0.107834227383 0.227081343532 0 255 0
0.109138444066 0.106439784169 -0.177501007915 0 255 0
0.0538072809577 0.107375882566 -0.163511827588 0 255 0
0.116094894707 0.106659598649 0.211716994643 0 255 0
-0.0380880199373 0.109027512372 0.218081504107 0 255 0
-0.122361667454 0.108707726002 0.208412051201 0 255 0
0.0873305872083 0.108193650842 0.216251522303 0 255 0
-0.0621014684439 0.108330830932 0.230555668473 0 255 0
0.115977212787 0.108033187687 0.226307779551 0 255 0
-0.212893977761 0.15148255229 -0.0506493076682 0 255 0
0.108232438564 0.108368329704 0.216251522303 0 255 0
0.0741709321737 0.107991404831 0.218572199345 0 255 0
0.0927518978715 0.1079621315 0.223213538527 0 255 0
0.104368664324 0.107505559921 0.23713760078 0 255 0
-0.0767281427979 0.108812518418 0.215367481112 0 255 0
0.10513766855 0.10812715441 0.221666425467 0 255 0
-0.0558447800577 0.108833387494 0.219231620431 0 255 0
0.0881090983748 0.107677266002 0.229402020574 0 255 0
0.128495469689 0.106455355883 0.219459891319 0 255 0
-0.209478765726 0.147060275078 -0.0370348468423 0 255 0
-0.0329665094614 0.1085530743 0.2310898453 0 255 0
0.108672983944 0.106076054275 -0.168451339006 0 255 0
-0.00325133209117 0.109088532627 0.223868578672 0 255 0
0.083464756608 0.107576936483 0.230949133635 0 255 0
0.0919808372855 0.107586584985 0.232496246696 0 255 0
0.08500970155 0.107989706099 0.220892876387 0 255 0
0.0325205810368 0.108994141221 0.233760744333 0 255 0
0.094303779304 0.107544481754 0.234043359756 0 255 0
0.0552200265229 0.105919189751 -0.126580029726 0 255 0
-0.0612553022802 0.108387462795 0.229309260845 0 255 0
-0.0486099198461 0.108888469636 -0.124756678939 0 255 0
0.11454539746 0.10661586374 0.212491288781 0 255 0
0.0997196957469 0.107958845794 0.22476066649 0 255 0
0.0780432894826 0.107820756733 0.223677664995 0 255 0
0.0950774103403 0.107612460852 0.232496246696 0 255 0
-0.0713152959943 0.108980670571 0.212276175618 0 255 0
-0.21345885098 0.153416827321 -0.0502535738051 0 255 0
-0.120815105736 0.108751378953 0.207639217377 0 255 0
-0.0705406069756 0.108833491802 0.216140314937 0 255 0
0.0888781026006 0.10829886049 0.213930845261 0 255 0
-0.0274597536772 0.108510732651 0.233311995864 0 255 0
0.0826854705811 0.108185589314 0.215477958322 0 255 0
0.0919746682048 0.108324736357 0.213930845261 0 255 0
0.0325196944177 0.109100334346 0.231089830399 0 255 0
-0.0816783457994 0.108814172447 0.214285507798 0 255 0
0.092756524682 0.107408516109 0.23713760078 0 255 0
-0.211565062404 0.148992389441 -0.0369044654071 0 255 0
0.0912023261189 0.108102977276 0.219345748425 0 255 0
0.0850102156401 0.107928194106 0.222439989448 0 255 0
0.103590153158 0.108021944761 0.223987102509 0 255 0
0.106690838933 0.10755572468 0.236364036798 0 255 0
0.112994365394 0.106756843626 0.208619832993 0 255 0
-0.0482599698007 0.108245313168 0.235615536571 0 255 0
-0.0262842793018 0.108608916402 0.2310898453 0 255 0
0.091202840209 0.108041465282 0.220892876387 0 255 0
0.0702994465828 0.108051322401 0.216251522303 0 255 0
0.033970516175 0.108969047666 0.234696567059 0 255 0
0.00279325782321 0.107597909868 0.213466703892 0 255 0
0.109012238681 0.10769815743 0.233269810677 0 255 0
0.0702989324927 0.108112834394 0.214704394341 0 255 0
-0.0836890935898 0.108785070479 0.214594662189 0 255 0
-0.0343400761485 0.1085460186 0.230978563428 0 255 0
0.0321991927922 0.109055176377 0.232158184052 0 255 0
0.0904261246324 0.108342558146 0.21315728128 0 255 0
-0.0697648823261 0.108563415706 0.223095759749 0 255 0
0.00446661934257 0.107464253902 0.217179775238 0 255 0
-0.0274651218206 0.109152987599 0.217158466578 0 255 0
0.121828325093 0.106781408191 0.209858670831 0 255 0
-0.0821404755116 0.108582906425 0.220004454255 0 255 0
-0.0742545500398 0.108986832201 0.211503356695 0 255 0
-0.0674464479089 0.108797892928 0.217685967684 0 255 0
0.0166071690619 0.107031583786 -0.162671327591 0 255 0
0.0114455204457 0.10896551609 0.230051189661 0 255 0
-0.01670601964 0.108656510711 0.231905966997 0 255 0
-0.0252200979739 0.10921253264 0.216132849455 0 255 0
0.112530745566 0.106592871249 0.212646126747 0 255 0
0.092903137207 0.108387865126 0.212538421154 0 255 0
-0.0169282127172 0.108580902219 0.233760744333 0 255 0
0.109739981592 0.106717325747 0.208929538727 0 255 0
0.0418689958751 0.107788518071 0.216885656118 0 255 0
0.0129938814789 0.108794078231 0.234688147902 0 255 0
0.131591886282 0.106850683689 0.210168406367 0 255 0
0.0120654720813 0.1088231951 0.233760744333 0 255 0
-0.123134568334 0.108639806509 0.209957703948 0 255 0
-0.0813511684537 0.108743451536 0.216132864356 0 255 0
0.0817570537329 0.108110167086 0.217179775238 0 255 0
0.085472933948 0.108141221106 0.217179775238 0 255 0
0.0528807975352 0.105806671083 -0.124241791666 0 255 0
0.0994075015187 0.10825766623 0.217179775238 0 255 0
0.0122503433377 0.108913242817 0.231535002589 0 255 0
-0.014081902802 0.109336048365 0.215367481112 0 255 0
-0.0751813724637 0.108831591904 0.215212911367 0 255 0
0.11520589143 0.10768840462 0.234816923738 0 255 0
-0.119929328561 0.109336107969 0.242280334234 0 255 0
-0.00866135209799 0.108582377434 0.235460981727 0 255 0
0.0226269736886 0.10510199517 0.280406117439 0 255 0
0.103123374283 0.10828872025 0.217179775238 0 255 0
-0.0668295249343 0.109012007713 0.212430730462 0 255 0
-0.0155917853117 0.108592070639 0.233760729432 0 255 0
-0.0662617757916 0.108821459115 -0.126781463623 0 255 0
0.0191814210266 0.108815059066 0.235460981727 0 255 0
-0.0697659105062 0.108686320484 0.220004439354 0 255 0
0.113657608628 0.107675462961 0.234816923738 0 255 0
-0.0573880039155 0.108390279114 0.230051189661 0 255 0
-0.0519720762968 0.108189709485 0.23623380065 0 255 0
0.0966242626309 0.107791490853 0.228319019079 0 255 0
0.0629917085171 0.109236039221 0.234081208706 0 255 0
0.0245534423739 0.105107463896 0.280673474073 0 255 0
0.0151681276038 0.107580266893 0.216511413455 0 255 0
-0.0844619944692 0.108717158437 0.216140314937 0 255 0
-0.0759534463286 0.108665339649 0.219231620431 0 255 0
-0.0357361100614 0.109001435339 0.219231620431 0 255 0
-0.0349647551775 0.109253719449 0.213049009442 0 255 0
0.0905232429504 0.106538265944 0.209394127131 0 255 0
-0.0728595480323 0.108660466969 0.220004454255 0 255 0
0.032557900995 0.107521317899 -0.122475102544 0 255 0
-0.0346271544695 0.1083965078 -0.158605933189 0 255 0
0.118418745697 0.10677138716 0.209394112229 0 255 0
