ply
format ascii 1.0
comment https://github.com/EricCJoyce
element vertex 260
property float x
property float y
property float z
property uchar red
property uchar green
property uchar blue
end_header
0.102315627038 0.0678981989622 0.220352649689 0 255 0
0.102264493704 0.0681886747479 0.230387493968 0 255 0
0.102734342217 0.0679979324341 0.219090640545 0 255 0
0.102027386427 0.0681195110083 0.216987296939 0 255 0
0.100563451648 0.0680929720402 0.216695189476 0 255 0
0.0932435691357 0.0679603144526 0.215234518051 0 255 0
0.0370576754212 0.175404176116 0.121796712279 0 255 0
0.0370620004833 0.175268113613 0.123785495758 0 255 0
0.0921937450767 0.0678068995476 0.21698731184 0 255 0
0.107389397919 0.0675409212708 0.227924704552 0 255 0
0.100582383573 0.0680488198996 0.231648862362 0 255 0
0.0974752306938 0.067964233458 0.217141523957 0 255 0
0.0934037789702 0.0680432096124 0.214098483324 0 255 0
0.103428475559 0.0677961409092 0.236659541726 0 255 0
0.100233644247 0.0679657459259 0.232699990273 0 255 0
0.0963736250997 0.0676200836897 0.235955506563 0 255 0
0.0936409533024 0.0670909583569 0.213812932372 0 255 0
0.101988792419 0.068021543324 0.232700005174 0 255 0
0.0922120437026 0.0672312900424 0.225400701165 0 255 0
0.149536982179 0.0686467662454 0.217041522264 0 255 0
-0.0306248683482 0.171345740557 0.149639889598 0 255 0
0.109123371542 0.0675061568618 0.214937105775 0 255 0
-0.0159160345793 0.174067363143 0.116726972163 0 255 0
0.107880160213 0.0683255717158 0.216695189476 0 255 0
0.109078064561 0.0675033703446 0.229256823659 0 255 0
0.0984899699688 0.0675503835082 0.237955629826 0 255 0
0.10492348671 0.06781488657 0.237079694867 0 255 0
0.114000797272 0.0683733075857 0.233139336109 0 255 0
0.0688739344478 0.0672576203942 0.214183032513 0 255 0
0.0674671381712 0.0670681744814 0.216296255589 0 255 0
0.107058666646 0.0674402788281 0.214940562844 0 255 0
0.0976106151938 0.0675824135542 0.237079694867 0 255 0
0.109020523727 0.067885145545 0.237955614924 0 255 0
0.0370723865926 0.174614682794 0.14763173461 0 255 0
-0.00785712338984 0.173594295979 0.155975729227 0 255 0
-0.00920199695975 0.174395903945 0.157946646214 0 255 0
0.107658937573 0.067978836596 0.235955506563 0 255 0
-0.0306811109185 0.173114582896 0.12378552556 0 255 0
0.13036338985 0.0680363327265 0.217054873705 0 255 0
0.106243938208 0.0680688619614 0.233984187245 0 255 0
0.146599799395 0.0686490163207 0.215645328164 0 255 0
0.112585537136 0.0684729665518 0.231027215719 0 255 0
-0.0172505639493 0.174024939537 0.116726972163 0 255 0
-0.0162654183805 0.174235120416 0.157015711069 0 255 0
0.0568062141538 0.0667518302798 0.230266869068 0 255 0
0.034397508949 0.175433114171 0.12013939023 0 255 0
-0.0336190871894 0.172322049737 0.148294359446 0 255 0
0.0681758970022 0.066994227469 0.217705056071 0 255 0
0.0442750155926 0.174681186676 0.121403850615 0 255 0
0.110761068761 0.0684003904462 0.231240093708 0 255 0
0.0695872977376 0.0670390948653 0.217705056071 0 255 0
0.114828445017 0.0675907433033 0.216350108385 0 255 0
0.0967349037528 0.0674945861101 0.237955629826 0 255 0
0.0509646236897 0.154331296682 0.121350765228 0 255 0
-0.0267004985362 0.173377335072 0.121796742082 0 255 0
-0.0316750258207 0.171270728111 0.150247618556 0 255 0
0.0709971562028 0.067132152617 0.21700066328 0 255 0
-0.0336632244289 0.172815471888 0.126768738031 0 255 0
0.0418593212962 0.175751805305 0.0903495103121 0 255 0
0.0453536957502 0.174000516534 0.131843447685 0 255 0
-0.0227165464312 0.173531219363 0.121398955584 0 255 0
0.043511249125 0.175113961101 0.114730082452 0 255 0
-0.0289100427181 0.172244861722 0.151607200503 0 255 0
-0.032010089606 0.173095032573 0.123454064131 0 255 0
-0.00724303349853 0.174388691783 0.11606092751 0 255 0
0.111262410879 0.0679830759764 0.237566336989 0 255 0
0.110826455057 0.0677990317345 0.225751250982 0 255 0
0.0179393738508 0.174500524998 0.0975170433521 0 255 0
0.101268321276 0.0672755166888 0.214658662677 0 255 0
0.108359672129 0.0681457668543 0.233843386173 0 255 0
0.128189355135 0.0679854527116 0.231088757515 0 255 0
-0.0142025966197 0.200149610639 0.0512784011662 0 255 0
-0.0276262331754 0.173825621605 0.100521162152 0 255 0
0.0344223305583 0.174371615052 0.149950742722 0 255 0
0.117431230843 0.0685844346881 0.231648862362 0 255 0
0.0487467199564 0.182004913688 0.0880407616496 0 255 0
0.058103825897 0.0668664053082 0.229196250439 0 255 0
0.115531437099 0.0677096247673 0.214940562844 0 255 0
0.0442503504455 0.175006300211 0.130945160985 0 255 0
0.0579863898456 0.0669397860765 0.228070259094 0 255 0
-0.0292888693511 0.174508914351 0.104072146118 0 255 0
0.017456497997 0.174813166261 0.0927277952433 0 255 0
0.0346766933799 0.175366327167 0.121244288981 0 255 0
0.0964053571224 0.0678433924913 0.218409463763 0 255 0
-0.0155974049121 0.202133968472 0.0502559803426 0 255 0
0.0374205894768 0.175523266196 0.148826494813 0 255 0
-0.0299600958824 0.173782378435 0.100069105625 0 255 0
-0.0179804749787 0.174500957131 0.095137372613 0 255 0
0.0154670095071 0.174293279648 0.0993955433369 0 255 0
0.113086476922 0.0675342828035 0.23066611588 0 255 0
-0.00985672324896 0.173530727625 0.155975729227 0 255 0
0.102011948824 0.0679343268275 0.233984187245 0 255 0
0.0995094776154 0.0679710134864 0.217986807227 0 255 0
0.0774935334921 0.0672132447362 0.218832105398 0 255 0
0.0469955727458 0.168181791902 0.117468319833 0 255 0
0.0551799759269 0.0667334645987 0.229780226946 0 255 0
0.150142371655 0.068375505507 0.221283495426 0 255 0
0.145327806473 0.0686414018273 0.215166077018 0 255 0
0.109622217715 0.0684076920152 0.230604782701 0 255 0
0.089363694191 0.0671371221542 0.225453525782 0 255 0
0.0791901648045 0.0671745538712 0.22018456459 0 255 0
0.0153747275472 0.199439674616 0.0610738582909 0 255 0
-0.0135946711525 0.199079722166 0.0528826639056 0 255 0
0.0390191040933 0.176803559065 0.0879737511277 0 255 0
-0.0287343915552 0.173809319735 0.100244760513 0 255 0
0.0120957754552 0.19922323525 0.062712110579 0 255 0
0.0563667230308 0.0668120160699 0.214883983135 0 255 0
-0.00138892349787 0.174467593431 0.160526633263 0 255 0
-0.00134668906685 0.175418138504 0.08946621418 0 255 0
-0.0153191005811 0.201171025634 0.0501457042992 0 255 0
0.118231259286 0.0685560107231 0.232435286045 0 255 0
0.10623755306 0.0682711675763 0.231027215719 0 255 0
0.0669035091996 0.0671229660511 0.215234532952 0 255 0
0.134475216269 0.0688209086657 0.221807479858 0 255 0
0.126120865345 0.0680945292115 0.214235782623 0 255 0
0.0141277834773 0.174351170659 0.0979286283255 0 255 0
0.0510111786425 0.15341694653 0.120423264802 0 255 0
-0.000792628503405 0.173505395651 0.160553053021 0 255 0
0.128043368459 0.0680919289589 0.215166077018 0 255 0
-0.0108089176938 0.174892470241 0.0927494987845 0 255 0
0.0999261811376 0.0681965202093 0.214887425303 0 255 0
0.0786229521036 0.0670953914523 0.221077173948 0 255 0
0.109173797071 0.0676040500402 0.213531017303 0 255 0
0.0537110827863 0.0668867304921 0.226860418916 0 255 0
-0.0285436045378 0.173622950912 0.103054590523 0 255 0
0.150422513485 0.0684558451176 0.220240429044 0 255 0
-0.00153944420163 0.184500828385 0.0854543372989 0 255 0
0.131704002619 0.0685313567519 0.224749088287 0 255 0
0.130849853158 0.06873575598 0.221367940307 0 255 0
-0.0287308655679 0.173695862293 0.101902991533 0 255 0
0.054611466825 0.0667322054505 0.215234547853 0 255 0
-0.000544096808881 0.177455753088 0.0886862054467 0 255 0
0.0765982866287 0.0678111091256 0.223986819386 0 255 0
-0.00591144151986 0.174522250891 0.114728838205 0 255 0
0.000267977418844 0.175485238433 0.0892359167337 0 255 0
0.114319384098 0.0685102641582 0.216987296939 0 255 0
0.0181392487139 0.174369096756 0.0995288863778 0 255 0
0.0732289254665 0.0672040134668 0.21698731184 0 255 0
0.0187652241439 0.174871206284 0.092487744987 0 255 0
0.130150109529 0.0681732445955 0.229256808758 0 255 0
0.0771665349603 0.0668323561549 0.224241942167 0 255 0
0.119972288609 0.0682332962751 0.237955614924 0 255 0
0.0537765771151 0.0666329562664 0.216296240687 0 255 0
-0.0187567416579 0.174447074533 0.109863944352 0 255 0
0.13211029768 0.068221218884 0.215166077018 0 255 0
0.130297243595 0.0683419108391 0.226862311363 0 255 0
0.0774509683251 0.0670981481671 0.220492899418 0 255 0
0.077034689486 0.0669216662645 0.222876682878 0 255 0
0.130004838109 0.0686510056257 0.222213238478 0 255 0
0.0265348237008 0.199378907681 0.0671414658427 0 255 0
0.017320279032 0.174891039729 0.0915275886655 0 255 0
-0.0322135090828 0.181575745344 0.171127647161 0 255 0
0.111999586225 0.0676456168294 0.214235797524 0 255 0
0.0653531104326 0.0669044852257 0.217705070972 0 255 0
0.130864560604 0.0682731121778 0.228130236268 0 255 0
-0.0275338534266 0.173706665635 0.102300971746 0 255 0
0.0254720915109 0.200364276767 0.0665601566434 0 255 0
0.113365091383 0.0676589161158 0.22897554934 0 255 0
0.127231270075 0.0680244117975 0.215774998069 0 255 0
0.0464664548635 0.169148176908 0.117412082851 0 255 0
0.0537305064499 0.0675566643476 0.217087224126 0 255 0
0.0504545941949 0.15356554091 0.117995269597 0 255 0
0.0302638933063 0.19686844945 0.062629327178 0 255 0
-0.0490739010274 0.174491196871 0.0951468646526 0 255 0
0.128454044461 0.0679765492678 0.217041522264 0 255 0
-0.012157744728 0.175996184349 0.0903074592352 0 255 0
-0.0158286970109 0.199649378657 0.0578277185559 0 255 0
0.0147888585925 0.174591377378 0.0947281196713 0 255 0
0.0893590971828 0.0672817006707 0.223340302706 0 255 0
-0.0199138298631 0.173757821321 0.119391150773 0 255 0
0.0252009872347 0.20028090477 0.0676516890526 0 255 0
0.0242623612285 0.198936849833 0.0725415274501 0 255 0
0.0504098758101 0.154432877898 0.11961004138 0 255 0
0.0161248538643 0.174633845687 0.0947281196713 0 255 0
-0.00274277874269 0.175341323018 0.0899396687746 0 255 0
0.121011801064 0.0683263316751 0.237079694867 0 255 0
0.0242657419294 0.198829248548 0.0741142258048 0 255 0
-0.0503326505423 0.175534248352 0.0936324372888 0 255 0
-0.00840112473816 0.174478426576 0.0999130904675 0 255 0
0.0897107049823 0.067391268909 0.236203759909 0 255 0
-0.0499953664839 0.175695881248 0.0914288386703 0 255 0
-0.017020329833 0.202176734805 0.0489709191024 0 255 0
0.0134094581008 0.198469460011 0.0600283518434 0 255 0
-0.00990807823837 0.174176245928 0.117925837636 0 255 0
0.136008486152 0.0683219730854 0.215504363179 0 255 0
0.0227188300341 0.174813583493 0.109464548528 0 255 0
0.116253212094 0.0675920248032 0.216992855072 0 255 0
-0.0131579814479 0.173998519778 0.119012407959 0 255 0
-0.0270947795361 0.174542829394 0.0902953371406 0 255 0
-0.0283472295851 0.1743016541 0.107535555959 0 255 0
0.0495999343693 0.153691351414 0.115761473775 0 255 0
-0.0537768043578 0.174339920282 0.12377306819 0 255 0
-0.0138637209311 0.174202173948 0.158611595631 0 255 0
-0.0552406348288 0.174429431558 0.121786467731 0 255 0
0.0219681877643 0.198751717806 0.0741797834635 0 255 0
-0.0566358864307 0.174800798297 0.115716278553 0 255 0
-0.0262726321816 0.175604224205 0.0894788131118 0 255 0
0.0391006357968 0.174600556493 0.105879165232 0 255 0
0.0374087840319 0.174331769347 0.0947184190154 0 255 0
-0.0139742624015 0.176017522812 0.089152738452 0 255 0
0.0506339408457 0.152721092105 0.116108819842 0 255 0
0.0147816063836 0.174819454551 0.0913942456245 0 255 0
0.0186403132975 0.200053662062 0.0679245889187 0 255 0
-0.0347005799413 0.174076423049 0.107875145972 0 255 0
-0.0239019319415 0.173646003008 0.119172669947 0 255 0
-0.0135916592553 0.200065687299 0.0670874193311 0 255 0
-0.0353597030044 0.173896566033 0.110195428133 0 255 0
0.0444016307592 0.174885079265 0.118485383689 0 255 0
0.00123941968195 0.1765011549 0.0891527310014 0 255 0
0.0372834727168 0.174231290817 0.0961273983121 0 255 0
0.0664411857724 0.067497856915 0.223846003413 0 255 0
0.140244871378 0.0684566497803 0.215504363179 0 255 0
0.0249990280718 0.174930736423 0.108812332153 0 255 0
0.0568535886705 0.0670387819409 0.226098954678 0 255 0
0.0752405449748 0.0669775977731 0.221227094531 0 255 0
0.111941441894 0.067999586463 0.223340287805 0 255 0
-0.0545511357486 0.174887135625 0.129723414779 0 255 0
0.112650200725 0.0679256394506 0.224749103189 0 255 0
0.0197469182312 0.198607772589 0.0609505772591 0 255 0
0.0928500294685 0.0674116387963 0.23736359179 0 255 0
-0.0206554103643 0.174392908812 0.109773471951 0 255 0
-0.00872883293778 0.192566916347 0.0787391811609 0 255 0
0.0610886439681 0.0670769810677 0.227507025003 0 255 0
0.0390833094716 0.175145417452 0.0979152545333 0 255 0
-0.0118652191013 0.174265697598 0.158611595631 0 255 0
0.0344402305782 0.186430037022 0.188386678696 0 255 0
0.0432527065277 0.185017317533 0.184505179524 0 255 0
0.0901642143726 0.0674998313189 0.234829038382 0 255 0
0.109118647873 0.0679098516703 0.223340302706 0 255 0
0.0436036884785 0.186037689447 0.184068992734 0 255 0
0.0956078022718 0.068290323019 0.240113452077 0 255 0
0.0345570780337 0.187459349632 0.187711194158 0 255 0
0.0424917563796 0.184934467077 0.185361742973 0 255 0
0.0442217439413 0.174685418606 0.0927169919014 0 255 0
-0.0607229173183 0.070188306272 -0.21766936779 0 255 0
0.0405267626047 0.185819715261 0.185823634267 0 255 0
0.0355510488153 0.186474904418 0.188247218728 0 255 0
-0.0085359448567 0.19042994082 0.0814319849014 0 255 0
-0.0272118039429 0.181610658765 0.172939702868 0 255 0
0.0389497429132 0.185648009181 0.1875988096 0 255 0
0.0180290713906 0.198616310954 0.0600283481181 0 255 0
0.0497038811445 0.0693851858377 0.202818661928 0 255 0
0.0107278050855 0.199933335185 0.0660085231066 0 255 0
0.090051010251 0.0677378699183 0.217000648379 0 255 0
0.072366297245 0.0676765739918 0.223986819386 0 255 0
-0.0552340745926 0.175027340651 0.127359062433 0 255 0
-0.0571854636073 0.0703227892518 -0.217991098762 0 255 0
0.0425006523728 0.185950011015 0.184837415814 0 255 0
0.0514663979411 0.06841506809 0.203502044082 0 255 0
-0.00596790714189 0.176299408078 0.0887531265616 0 255 0
0.109112516046 0.068102620542 0.220522671938 0 255 0
0.0367327257991 0.177793681622 0.0867549702525 0 255 0
0.0706731751561 0.0676323920488 0.223846003413 0 255 0
0.0301439575851 0.174528956413 0.159967586398 0 255 0
0.0935852751136 0.0676669031382 0.219677388668 0 255 0
-0.0153689784929 0.174183696508 0.158182576299 0 255 0
0.0935902222991 0.067512691021 0.221931487322 0 255 0
0.0421881228685 0.174688532948 0.120327912271 0 255 0
0.107696525753 0.0682023316622 0.218409448862 0 255 0
-0.0131169101223 0.174327820539 0.157123625278 0 255 0
