ply
format ascii 1.0
comment https://github.com/EricCJoyce
element vertex 364
property float x
property float y
property float z
property uchar red
property uchar green
property uchar blue
end_header
0.103297032416 0.0381980836391 0.237907931209 0 255 0
0.103950940073 0.0380701012909 0.239593461156 0 255 0
-0.0438040420413 0.0418471172452 -0.214371591806 0 255 0
-0.0426159724593 0.040685210377 -0.211907610297 0 255 0
0.100646615028 0.0384242981672 0.246011212468 0 255 0
0.0623397342861 0.0371927134693 0.226682007313 0 255 0
-0.0449960455298 0.0415925197303 -0.211719617248 0 255 0
-0.045131765306 0.0417022779584 -0.213045582175 0 255 0
0.105289265513 0.0383880808949 0.224736064672 0 255 0
0.115397363901 0.0377734787762 0.234790086746 0 255 0
-0.0441958718002 0.0415303297341 -0.210764884949 0 255 0
0.0623078234494 0.0376796796918 0.232462346554 0 255 0
0.105682909489 0.0382648333907 0.226292803884 0 255 0
0.104052133858 0.0374841429293 0.223491162062 0 255 0
0.110128454864 0.0382002703846 0.23980358243 0 255 0
0.100257478654 0.0375479869545 0.244680717587 0 255 0
0.115091085434 0.0384857617319 0.237849608064 0 255 0
0.097461245954 0.0374525375664 0.245014190674 0 255 0
0.0958170667291 0.0380132570863 0.237972766161 0 255 0
0.0991576686502 0.0376042239368 0.243711546063 0 255 0
0.110175050795 0.038610663265 0.235001474619 0 255 0
0.136871963739 0.0380556434393 0.237519085407 0 255 0
0.0600359402597 0.0374318361282 0.234731346369 0 255 0
0.118140682578 0.037832763046 0.246368959546 0 255 0
0.0962674319744 0.0382284894586 0.235574111342 0 255 0
0.115809030831 0.0379062332213 0.23334826529 0 255 0
0.103578239679 0.0386134497821 0.244616389275 0 255 0
0.096890129149 0.03730103001 0.223625361919 0 255 0
0.113171212375 0.0375921018422 0.224789172411 0 255 0
0.117007806897 0.0385031253099 0.226682007313 0 255 0
0.0954885259271 0.0381435155869 0.236352056265 0 255 0
0.104765258729 0.0380397364497 0.240178748965 0 255 0
0.117114104331 0.0380486026406 0.232044875622 0 255 0
0.0962319001555 0.0374519750476 0.221669182181 0 255 0
0.096481487155 0.0379530824721 0.238865673542 0 255 0
0.115741923451 0.0386123843491 0.236546948552 0 255 0
-0.0438002683222 0.0416556932032 -0.212124526501 0 255 0
0.115751229227 0.0382240228355 0.241106241941 0 255 0
0.110624983907 0.0377969816327 0.221669182181 0 255 0
0.0798057839274 0.19492380321 0.15237018466 0 255 0
-0.0693742260337 0.197490096092 0.149320930243 0 255 0
0.121844813228 0.0382227599621 0.242834895849 0 255 0
0.0852150395513 0.0379771478474 0.223911762238 0 255 0
0.111529275775 0.0386814959347 0.234551280737 0 255 0
-0.0582050569355 0.195403650403 0.130930945277 0 255 0
-0.057017263025 0.17377576232 0.131962791085 0 255 0
-0.05787249282 0.194421038032 0.131050616503 0 255 0
0.0967845320702 0.0398268662393 0.159451022744 0 255 0
0.0954887792468 0.0379048623145 0.239152252674 0 255 0
0.112669989467 0.0382292158902 0.240178734064 0 255 0
0.0988541468978 0.0372925363481 0.224277406931 0 255 0
0.122823126614 0.0381357036531 0.244131445885 0 255 0
-0.0670112445951 0.198305234313 0.140421286225 0 255 0
0.113794654608 0.0384480245411 0.237927749753 0 255 0
0.0584197416902 0.0369787029922 0.239593476057 0 255 0
-0.0876599922776 0.0432330071926 0.136629670858 0 255 0
0.124381020665 0.0383056551218 0.242575570941 0 255 0
0.118320822716 0.0381728187203 0.242429718375 0 255 0
-0.0586855635047 0.173568874598 0.133921042085 0 255 0
-0.0424927249551 0.0408071018755 -0.213303133845 0 255 0
0.136081501842 0.038281083107 0.234651640058 0 255 0
0.141424834728 0.0386046767235 0.232357680798 0 255 0
0.107849173248 0.0386319383979 0.245600655675 0 255 0
0.135927394032 0.0389977395535 0.237702652812 0 255 0
-0.0550290681422 0.0436809621751 -0.204536497593 0 255 0
0.0575855448842 0.0370074138045 0.239021986723 0 255 0
-0.0833363085985 0.0420816205442 0.162857949734 0 255 0
-0.0871498137712 0.0442259423435 0.136625885963 0 255 0
0.117119424045 0.0378265567124 0.234651640058 0 255 0
0.139341518283 0.0387480296195 0.23008979857 0 255 0
0.0365804359317 0.215378075838 0.107273869216 0 255 0
0.124445319176 0.0379184931517 0.235633328557 0 255 0
0.140776947141 0.0389090739191 0.228603944182 0 255 0
0.0575924403965 0.0374549925327 0.222269505262 0 255 0
-0.0639846399426 0.19849960506 0.150494843721 0 255 0
0.0595500431955 0.0376685447991 0.220314443111 0 255 0
0.0963112190366 0.0380401909351 0.226292803884 0 255 0
-0.0840746834874 0.0432494133711 0.160451382399 0 255 0
0.0993624404073 0.0382620655 0.247553542256 0 255 0
0.0627770125866 0.0370649844408 0.22830362618 0 255 0
0.117291048169 0.0387238711119 0.247177451849 0 255 0
-0.0841121301055 0.042233556509 0.160857081413 0 255 0
0.142405301332 0.0384485088289 0.234465762973 0 255 0
-0.0827333703637 0.0430141910911 0.163588508964 0 255 0
-0.0717992335558 0.196447327733 0.149370864034 0 255 0
0.115629032254 0.0378658212721 0.245274722576 0 255 0
0.10486137867 0.0377032868564 0.221147537231 0 255 0
-0.0830979794264 0.0431625060737 0.161745771766 0 255 0
0.0776569023728 0.0376617275178 0.236989855766 0 255 0
0.0762970671058 0.0378216207027 0.234731346369 0 255 0
-0.071650236845 0.196414351463 0.13829664886 0 255 0
0.0665766447783 0.0370178557932 0.229925245047 0 255 0
0.10471188277 0.0384297072887 0.247091084719 0 255 0
0.118754647672 0.0384070426226 0.23980358243 0 255 0
0.0975981205702 0.0399156324565 0.158638358116 0 255 0
-0.0878271237016 0.0431331284344 0.137754544616 0 255 0
-0.0574797987938 0.173521071672 0.134820997715 0 255 0
0.0838124901056 0.0378732718527 0.224736064672 0 255 0
-0.0724164247513 0.195302471519 0.15112696588 0 255 0
0.0641245990992 0.0374428108335 0.224249586463 0 255 0
0.111831568182 0.0380745567381 0.241757571697 0 255 0
0.115151174366 0.0380570925772 0.231393188238 0 255 0
-0.034463185817 0.197130128741 0.186368763447 0 255 0
0.0746776014566 0.0375065393746 0.237972766161 0 255 0
0.0569559782743 0.0370855815709 0.237927764654 0 255 0
0.0682031735778 0.0370798781514 0.229654982686 0 255 0
-0.0729181841016 0.19527707994 0.139780893922 0 255 0
0.115686766803 0.0388198085129 0.245600655675 0 255 0
0.093557022512 0.0372684299946 0.24607630074 0 255 0
0.0456540472806 0.199928551912 0.107049889863 0 255 0
0.143188625574 0.0383677780628 0.235633328557 0 255 0
-0.0696439519525 0.197201535106 0.141127765179 0 255 0
-0.0880952775478 0.0430116578937 0.1391043365 0 255 0
0.09365645051 0.0379653051496 0.237927764654 0 255 0
0.0284616593271 0.20263530314 0.104964636266 0 255 0
0.0822537243366 0.0377032309771 0.226292803884 0 255 0
0.0928696915507 0.0380530282855 0.236677214503 0 255 0
-0.0569887757301 0.196514561772 0.129741489887 0 255 0
-0.0357133448124 0.193286344409 0.185105025768 0 255 0
0.140639930964 0.0391679517925 0.225527957082 0 255 0
-0.0736705958843 0.195405453444 0.138063147664 0 255 0
0.139989748597 0.0389968492091 0.227352693677 0 255 0
-0.0422145612538 0.171556040645 0.173673197627 0 255 0
0.0993351489305 0.0391179583967 0.156983152032 0 255 0
0.0811146646738 0.193195328116 0.150012850761 0 255 0
0.0779953896999 0.037844080478 0.223442539573 0 255 0
0.034875229001 0.215322211385 0.107449732721 0 255 0
0.114445567131 0.038137216121 0.241757556796 0 255 0
-0.0655784979463 0.198167651892 0.142438530922 0 255 0
0.136071026325 0.0387162901461 0.229542374611 0 255 0
-0.0365417823195 0.0399854555726 -0.213491901755 0 255 0
-0.0876631811261 0.0433660820127 0.135067373514 0 255 0
0.0831091403961 0.0374001190066 0.23008979857 0 255 0
-0.0728383883834 0.195536851883 0.13675545156 0 255 0
-0.0537221990526 0.0427701957524 -0.204985782504 0 255 0
0.0531189516187 0.173042654991 0.171539783478 0 255 0
0.115753889084 0.038113065064 0.242408886552 0 255 0
-0.0828625112772 0.0419332794845 0.164731666446 0 255 0
-0.071030780673 0.0410708636045 0.189681023359 0 255 0
0.0353976711631 0.214334711432 0.107680261135 0 255 0
0.1133184582 0.0380909219384 0.230480805039 0 255 0
0.138717755675 0.0383478328586 0.234609931707 0 255 0
-0.0429386720061 0.17163066566 0.172593876719 0 255 0
0.0803920701146 0.0379479192197 0.222898244858 0 255 0
0.0784925222397 0.196956828237 0.151153072715 0 255 0
0.0599333792925 0.0372635312378 0.236677214503 0 255 0
-0.0423082076013 0.0411810725927 -0.21763907373 0 255 0
-0.0864939987659 0.0439646393061 0.139876231551 0 255 0
-0.0892606377602 0.0418808609247 0.140541434288 0 255 0
0.0787509456277 0.0378478243947 0.235114023089 0 255 0
-0.0361408628523 0.0398599356413 -0.211906418204 0 255 0
0.0697859525681 0.0370794273913 0.230105444789 0 255 0
0.0969527885318 0.0396363735199 0.161733418703 0 255 0
0.133248284459 0.0385686457157 0.230480805039 0 255 0
-0.0087013291195 0.197705492377 0.117846034467 0 255 0
-0.0691743940115 0.042109683156 0.189517483115 0 255 0
0.1195121333 0.0377914868295 0.235736042261 0 255 0
0.0347863510251 0.21425062418 0.108494907618 0 255 0
-0.0517721921206 0.0448815748096 -0.206204518676 0 255 0
0.0842789039016 0.0377280935645 0.226570665836 0 255 0
-0.0645892471075 0.198889404535 0.145751297474 0 255 0
0.125092148781 0.0385077930987 0.240403831005 0 255 0
-0.0574565641582 0.197559475899 0.128852859139 0 255 0
0.0443089753389 0.201615557075 0.0983807295561 0 255 0
0.131929293275 0.03856902197 0.230105429888 0 255 0
0.0988362580538 0.0389635562897 0.158654436469 0 255 0
0.098514713347 0.0401280596852 0.156403705478 0 255 0
-0.0680133476853 0.198364153504 0.139448255301 0 255 0
0.0663663372397 0.0373111516237 0.237927749753 0 255 0
0.10654822737 0.0383788309991 0.248204499483 0 255 0
-0.0656502991915 0.198444351554 0.15067474544 0 255 0
0.0927747264504 0.0435749106109 0.160358831286 0 255 0
0.108565405011 0.0379407554865 0.242408886552 0 255 0
0.083760343492 0.0375268161297 0.228786423802 0 255 0
-0.0869558602571 0.0437648110092 0.142090916634 0 255 0
-0.0121832424775 0.198613956571 0.198230862617 0 255 0
0.146610349417 0.0385484136641 0.222973302007 0 255 0
0.111875198781 0.0382562801242 0.228134721518 0 255 0
-0.0147513188422 0.197713792324 0.196567431092 0 255 0
0.0263823065907 0.202766776085 0.102837413549 0 255 0
0.00927490927279 0.200580298901 0.100674323738 0 255 0
0.101468414068 0.0374663472176 0.222973302007 0 255 0
0.117011122406 0.038364995271 0.228303611279 0 255 0
0.149223282933 0.0387777723372 0.221017122269 0 255 0
0.0436995141208 0.202591821551 0.0982574895024 0 255 0
0.0977263897657 0.0401893258095 0.155463159084 0 255 0
0.0542594380677 0.17320805788 0.169919848442 0 255 0
-0.0903407037258 0.040574144572 0.144066557288 0 255 0
0.0799525603652 0.037419103086 0.228979319334 0 255 0
0.136719405651 0.0389628894627 0.22683134675 0 255 0
-0.0860085785389 0.0423901863396 0.158485934138 0 255 0
0.094782307744 0.043308082968 0.152551218867 0 255 0
0.0743375793099 0.0369716212153 0.221147537231 0 255 0
0.143131524324 0.0389388538897 0.228916749358 0 255 0
0.0955798402429 0.0405853651464 0.161715611815 0 255 0
0.102622784674 0.0385621413589 0.244949683547 0 255 0
0.0760027915239 0.0376860722899 0.224736064672 0 255 0
-0.0876169279218 0.0414364598691 0.157720848918 0 255 0
0.118373036385 0.0381480976939 0.231231555343 0 255 0
-0.0150923766196 0.198616862297 0.197378590703 0 255 0
0.0995142534375 0.0412382520735 0.120652996004 0 255 0
0.0686225295067 0.0374611578882 0.236802265048 0 255 0
0.0316800773144 0.20546105504 0.107223853469 0 255 0
0.14719055593 0.0388250872493 0.231393188238 0 255 0
0.0774316489697 0.19420710206 0.160111665726 0 255 0
0.0339324176311 0.203429222107 0.108691096306 0 255 0
-0.035390637815 0.195168361068 0.186119794846 0 255 0
-0.0568094588816 0.0507075935602 -0.206960946321 0 255 0
0.097530066967 0.0412441119552 0.154534965754 0 255 0
0.110563479364 0.0383914671838 0.226179659367 0 255 0
0.100297033787 0.038623239845 0.163058251143 0 255 0
0.129157409072 0.0386052392423 0.240403831005 0 255 0
0.130033940077 0.0384007394314 0.231546863914 0 255 0
0.0827191919088 0.0372907966375 0.231262847781 0 255 0
-0.0645448714495 0.199020653963 0.144223853946 0 255 0
0.07333111763 0.037014182657 0.220365077257 0 255 0
0.0901936590672 0.039131667465 0.17725713551 0 255 0
-0.0133228292689 0.198562428355 0.198514953256 0 255 0
-0.0524631179869 0.049014993012 -0.20888492465 0 255 0
-0.00915732327849 0.192765280604 0.118167094886 0 255 0
-0.054478507489 0.0529375374317 -0.20946367085 0 255 0
0.0329629331827 0.202402427793 0.108963042498 0 255 0
-0.0823014229536 0.042862277478 0.165492400527 0 255 0
0.0989896506071 0.0384248048067 0.165018796921 0 255 0
0.103656865656 0.0389145202935 0.137579739094 0 255 0
0.0963108316064 0.0390643104911 0.16826492548 0 255 0
0.137004941702 0.0390586033463 0.225788637996 0 255 0
-0.0109858242795 0.198628142476 0.198401302099 0 255 0
-0.0524447858334 0.0500575862825 -0.209609702229 0 255 0
-0.0550911575556 0.0538872145116 -0.2092756778 0 255 0
0.0935042202473 0.0380318760872 0.225600942969 0 255 0
0.102318100631 0.0381912887096 0.157191857696 0 255 0
-0.073080278933 0.195672899485 0.135091125965 0 255 0
-0.0554654859006 0.0548425987363 -0.209087640047 0 255 0
0.0935643240809 0.0379284508526 0.22683134675 0 255 0
-0.0687323361635 0.197395175695 0.139112174511 0 255 0
0.0882243812084 0.0397895202041 0.180487528443 0 255 0
-0.0486758165061 0.17297744751 0.132172524929 0 255 0
0.0361821427941 0.213251754642 0.109104372561 0 255 0
0.128730326891 0.0384524166584 0.230573877692 0 255 0
0.0317716598511 0.202373877168 0.108963042498 0 255 0
0.0238340571523 0.173604086041 0.122207529843 0 255 0
-0.0397739596665 0.204735130072 0.107147887349 0 255 0
0.100526586175 0.0401701629162 0.121966786683 0 255 0
0.0314123444259 0.206464111805 0.106882460415 0 255 0
0.132084712386 0.0387820787728 0.239152252674 0 255 0
-0.0481765456498 0.173096016049 0.130921781063 0 255 0
-0.0574237257242 0.0466611161828 -0.205667644739 0 255 0
0.0899076163769 0.0401266701519 0.177005156875 0 255 0
0.0568101890385 0.0373362638056 0.223442554474 0 255 0
0.0888768211007 0.0424261577427 0.172740966082 0 255 0
-0.0601268336177 0.0496915690601 -0.207475721836 0 255 0
-0.14195728302 0.038255866617 -0.0272965319455 0 255 0
-0.0535545609891 0.19568747282 0.128908723593 0 255 0
0.0603415481746 0.0374581739306 0.246011197567 0 255 0
0.0249188393354 0.173660814762 0.121846884489 0 255 0
0.0934206098318 0.0439236499369 0.156448677182 0 255 0
0.0586616843939 0.0374409146607 0.245741248131 0 255 0
0.0344512537122 0.216147512197 0.0861443430185 0 255 0
0.0478529296815 0.199409306049 0.0792517662048 0 255 0
0.0916152372956 0.0404157303274 0.174093812704 0 255 0
0.0473526194692 0.198566257954 0.0774997919798 0 255 0
-0.0841887071729 0.0376939624548 0.179590255022 0 255 0
0.111634939909 0.0388225503266 0.244428917766 0 255 0
-0.0402617156506 0.203729167581 0.107310838997 0 255 0
-0.0466627366841 0.17279972136 0.134823992848 0 255 0
0.065150976181 0.198391839862 0.11906068027 0 255 0
0.0655952841043 0.199424356222 0.118573985994 0 255 0
-0.0478591173887 0.171589493752 0.171693101525 0 255 0
-0.0517187081277 0.0480197779834 -0.208501547575 0 255 0
-0.0529234111309 0.0499130524695 -0.208048462868 0 255 0
-0.0860165432096 0.0427226945758 0.154582366347 0 255 0
-0.0106620956212 0.199769601226 0.10457906872 0 255 0
0.0628151744604 0.037066154182 0.23980358243 0 255 0
-0.0503829605877 0.0439051575959 -0.205860316753 0 255 0
-0.0638639107347 0.0518156029284 -0.21044242382 0 255 0
0.0670995786786 0.198964849114 0.124388478696 0 255 0
-0.0434276387095 0.0412085205317 -0.218275919557 0 255 0
0.149153485894 0.0388165973127 0.232044875622 0 255 0
0.0754757300019 0.196903452277 0.162433683872 0 255 0
0.0202192831784 0.173363745213 0.124010741711 0 255 0
0.12633317709 0.037895642221 0.224929466844 0 255 0
0.0252972692251 0.198665693402 0.196662187576 0 255 0
0.0732878595591 0.0377201288939 0.223572894931 0 255 0
0.0989082530141 0.0418204627931 0.125154331326 0 255 0
0.116166509688 0.0379742756486 0.22114752233 0 255 0
0.0969634950161 0.0391912907362 0.166958630085 0 255 0
0.0706544965506 0.0373650863767 0.238500937819 0 255 0
0.0752196758986 0.0378631018102 0.23394164443 0 255 0
0.114878170192 0.0385282188654 0.225788637996 0 255 0
-0.0647735968232 0.0508429668844 -0.210789173841 0 255 0
-0.0462486222386 0.199442103505 0.109915971756 0 255 0
-0.0339767634869 0.173010602593 0.147420600057 0 255 0
-0.0269905216992 0.194838121533 0.203859835863 0 255 0
0.100948728621 0.0388059578836 0.161097705364 0 255 0
0.027094790712 0.173402771354 0.136989533901 0 255 0
-0.0640079826117 0.0528272017837 -0.21084921062 0 255 0
-0.0520159304142 0.0489365980029 -0.20783932507 0 255 0
-0.0737145468593 0.194778427482 0.133904799819 0 255 0
0.0935375913978 0.037469509989 0.243711546063 0 255 0
0.0739126801491 0.0378317721188 0.23394164443 0 255 0
-0.0129145151004 0.201808705926 0.103026308119 0 255 0
0.145413056016 0.0392251126468 0.237702652812 0 255 0
0.0467589944601 0.200606331229 0.0994081944227 0 255 0
0.0256481990218 0.17337320745 0.136929482222 0 255 0
-0.0863066762686 0.0413014218211 0.159673735499 0 255 0
0.0608710795641 0.037144780159 0.22683134675 0 255 0
-0.0742894411087 0.193852201104 0.144610628486 0 255 0
0.0615275651217 0.0370494313538 0.228134736419 0 255 0
-0.0326631776989 0.198338642716 0.195701315999 0 255 0
0.0824394375086 0.191835969687 0.143329054117 0 255 0
-0.0111246015877 0.200872644782 0.103009812534 0 255 0
0.145226299763 0.0388890877366 0.23008979857 0 255 0
0.104588828981 0.0383318625391 0.248204499483 0 255 0
-0.0200225375593 0.197805941105 0.124986253679 0 255 0
-0.0234935637563 0.194697827101 0.125969097018 0 255 0
-0.0309973079711 0.198235616088 0.197378605604 0 255 0
-0.0684267506003 0.0409768335521 0.191516697407 0 255 0
0.0178586412221 0.173251658678 0.124661922455 0 255 0
0.0161832142621 0.173391655087 0.134051129222 0 255 0
0.130906134844 0.0382831282914 0.221669182181 0 255 0
0.0748817697167 0.196787893772 0.163622498512 0 255 0
-0.0585234835744 0.041419364512 -0.201989606023 0 255 0
0.0153448125347 0.173424884677 0.133425369859 0 255 0
-0.074406594038 0.0426489152014 0.181719094515 0 255 0
0.0817507132888 0.193144381046 0.139286503196 0 255 0
-0.0557567551732 0.198909640312 0.124992251396 0 255 0
-0.0747759640217 0.0428150855005 0.179665505886 0 255 0
0.0917010009289 0.0393605418503 0.174995645881 0 255 0
0.0990164503455 0.0406991504133 0.115335382521 0 255 0
0.0929839387536 0.0395216867328 0.173465758562 0 255 0
-0.0829374417663 0.0447153188288 0.1550745368 0 255 0
0.139411151409 0.038486994803 0.221669182181 0 255 0
-0.0836096480489 0.0455410964787 0.145196557045 0 255 0
-0.0896362289786 0.0411835089326 0.148617893457 0 255 0
0.125016734004 0.0381975322962 0.221017122269 0 255 0
0.0954338759184 0.0434348508716 0.151247113943 0 255 0
0.13286884129 0.0383301749825 0.221669182181 0 255 0
0.0824365243316 0.191957443953 0.141903042793 0 255 0
-0.0736536085606 0.194696605206 0.146384805441 0 255 0
0.0816810429096 0.193051189184 0.140360370278 0 255 0
-0.0258972477168 0.195915490389 0.191526591778 0 255 0
0.0976404994726 0.0421035587788 0.144482046366 0 255 0
-0.0892414823174 0.0410819463432 0.149920538068 0 255 0
0.0956581756473 0.0389373339713 0.169571220875 0 255 0
0.0734781622887 0.196391120553 0.167883172631 0 255 0
0.0929144471884 0.0377462431788 0.228786423802 0 255 0
0.143335193396 0.0386366322637 0.221017122269 0 255 0
0.0646485835314 0.0378574132919 0.21953240037 0 255 0
0.0747022032738 0.195659518242 0.165308564901 0 255 0
0.0988601371646 0.0421314612031 0.132994771004 0 255 0
-0.0455324463546 0.195056259632 0.173079848289 0 255 0
0.101636759937 0.0400641933084 0.123522378504 0 255 0
0.0673964172602 0.0378566272557 0.220314443111 0 255 0
0.0812746882439 0.195003315806 0.140347525477 0 255 0
0.0981440395117 0.0379271395504 0.228134736419 0 255 0
0.077610835433 0.195294797421 0.158902868629 0 255 0
0.101184159517 0.0408337339759 0.125868871808 0 255 0
0.0806397199631 0.193031489849 0.151801541448 0 255 0
0.0787376239896 0.192477747798 0.157763823867 0 255 0
0.0780972316861 0.19437327981 0.158348977566 0 255 0
0.0798661112785 0.193872600794 0.153218179941 0 255 0
-0.0604846216738 0.197033300996 0.145677745342 0 255 0
-0.0598805099726 0.196898177266 0.147433117032 0 255 0
