ply
format ascii 1.0
comment https://github.com/EricCJoyce
element vertex 785
property float x
property float y
property float z
property uchar red
property uchar green
property uchar blue
end_header
0.117340877652 0.246394321322 0.727474570274 0 255 0
0.118931718171 0.246186152101 0.730649411678 0 255 0
0.115606181324 0.250120282173 0.730348229408 0 255 0
0.121513813734 0.242278292775 0.73054933548 0 255 0
0.120670810342 0.242460384965 0.727772831917 0 255 0
0.1125684008 0.246602192521 0.724299788475 0 255 0
0.117195554078 0.249912306666 0.73352009058 0 255 0
-0.125895783305 -0.123084507883 0.369438976049 0 255 0
-0.122727192938 -0.125556781888 0.365897595882 0 255 0
-0.128053471446 -0.124283075333 0.368617415428 0 255 0
-0.124238342047 -0.122006766498 0.367467284203 0 255 0
0.112568311393 0.246498048306 0.725887179375 0 255 0
0.129009231925 0.280273616314 0.771556317806 0 255 0
-0.121507965028 -0.120538063347 0.36930206418 0 255 0
-0.12168764323 -0.120501540601 0.36697435379 0 255 0
-0.130409181118 -0.125687077641 0.36930206418 0 255 0
0.122113376856 0.24597813189 0.733824193478 0 255 0
0.112850189209 0.239305958152 0.716175377369 0 255 0
0.108887799084 0.243189066648 0.716650724411 0 255 0
0.106705673039 0.250806242228 0.71988093853 0 255 0
-0.121918544173 -0.125113472342 0.366303145885 0 255 0
0.122262999415 0.242439672351 0.728090584278 0 255 0
0.122113265097 0.246123939753 0.731601834297 0 255 0
0.107795894146 0.247122526169 0.716362714767 0 255 0
0.124006591737 0.238630801439 0.726480722427 0 255 0
0.112991146743 0.235447660089 0.715316593647 0 255 0
-0.129854127765 0.369824379683 0.549511909485 0 255 0
0.131246343255 0.237460747361 0.731996238232 0 255 0
-0.123048782349 -0.121461413801 0.369833171368 0 255 0
-0.13314910233 0.367792993784 0.547464311123 0 255 0
0.116181701422 0.235113739967 0.720410346985 0 255 0
-0.130088731647 0.371295124292 0.553755581379 0 255 0
-0.129964858294 0.371514111757 0.550418317318 0 255 0
-0.137538179755 0.369921326637 0.549944221973 0 255 0
0.126269310713 0.260886788368 0.745260298252 0 255 0
0.128621846437 0.23920173943 0.728858590126 0 255 0
-0.131513178349 0.371311217546 0.553508341312 0 255 0
-0.132345631719 0.368506461382 0.548281669617 0 255 0
-0.13077288866 0.370132148266 0.552670061588 0 255 0
0.126602947712 0.23157851398 0.725307941437 0 255 0
-0.13624869287 0.36758980155 0.550557255745 0 255 0
0.123564086854 0.246004089713 0.733430504799 0 255 0
-0.127501428127 0.208359271288 0.402981847525 0 255 0
-0.134224563837 0.371614187956 0.553655147552 0 255 0
-0.138318046927 0.36941421032 0.550871968269 0 255 0
0.106069996953 0.250743746758 0.720832526684 0 255 0
-0.13839893043 0.369554042816 0.547779500484 0 255 0
-0.122921399772 -0.123297326267 0.401478886604 0 255 0
0.10952462256 0.244648531079 0.694406569004 0 255 0
-0.132558584213 0.372675895691 0.552031159401 0 255 0
-0.123579755425 -0.123802095652 0.403532743454 0 255 0
-0.126725196838 0.213427066803 0.401326328516 0 255 0
-0.12996481359 0.371108621359 0.556598424911 0 255 0
-0.12554782629 0.212919712067 0.402036517859 0 255 0
0.130206122994 0.23817384243 0.730427384377 0 255 0
-0.123389795423 -0.117189832032 0.370662212372 0 255 0
0.110798440874 0.244565248489 0.695677638054 0 255 0
-0.12686817348 0.371514379978 0.550418317318 0 255 0
-0.125629514456 0.371514469385 0.550418317318 0 255 0
-0.124773025513 0.371863901615 0.543048858643 0 255 0
-0.123387463391 -0.123477697372 0.400000095367 0 255 0
-0.126868158579 0.371311634779 0.553508341312 0 255 0
-0.129163622856 0.211978644133 0.401954203844 0 255 0
-0.125063285232 -0.124660268426 0.403532743454 0 255 0
-0.125809103251 0.372063457966 0.55199611187 0 255 0
0.130219623446 0.234446570277 0.730597853661 0 255 0
0.0900246277452 0.356515705585 0.473281532526 0 255 0
0.11928319186 0.240109190345 0.703940868378 0 255 0
0.112709105015 0.244590431452 0.695296347141 0 255 0
0.0988983586431 0.391370624304 0.546402215958 0 255 0
0.10006955266 0.391354560852 0.546648263931 0 255 0
-0.127405241132 0.375073522329 0.555836141109 0 255 0
0.0980030745268 0.387460261583 0.545698940754 0 255 0
0.0991027504206 0.386910736561 0.544474303722 0 255 0
-0.1224244982 -0.116816319525 0.373725950718 0 255 0
0.117780983448 -0.216413468122 0.547232031822 0 255 0
0.112990990281 0.237202167511 0.688574552536 0 255 0
-0.124759972095 -0.11964289099 0.398179262877 0 255 0
0.125014707446 0.232757389545 0.721641421318 0 255 0
0.0967541262507 -0.222431659698 0.555637061596 0 255 0
-0.131713956594 0.373062342405 0.553724050522 0 255 0
0.122418187559 -0.219258695841 0.54951775074 0 255 0
-0.0968594998121 -0.174153342843 0.427398055792 0 255 0
-0.130155190825 0.373856216669 0.555510640144 0 255 0
-0.141560345888 0.210404351354 0.384091973305 0 255 0
-0.10419049114 0.391928344965 0.537633538246 0 255 0
0.12365180999 0.233546003699 0.721641421318 0 255 0
0.204371809959 0.282524466515 0.64750123024 0 255 0
0.113589353859 0.244093343616 0.702874064445 0 255 0
0.00280717434362 -0.16948248446 0.568539142609 0 255 0
-0.0807362571359 -0.159549996257 0.472497165203 0 255 0
-0.0799326896667 0.423511177301 0.532789409161 0 255 0
0.112709119916 0.244410291314 0.698041856289 0 255 0
-0.0651703849435 0.423620194197 0.503557980061 0 255 0
0.115698091686 -0.215250447392 0.54782730341 0 255 0
0.112990997732 0.237086862326 0.690331816673 0 255 0
-0.1021560058 0.39945718646 0.542216062546 0 255 0
0.100518099964 0.390547841787 0.545398294926 0 255 0
-0.106939315796 0.392815053463 0.538765251637 0 255 0
-0.108231797814 0.391974627972 0.540302813053 0 255 0
-0.105255588889 0.391963124275 0.537102103233 0 255 0
-0.101003669202 -0.174415722489 0.401137948036 0 255 0
-0.101503573358 -0.178897678852 0.404660761356 0 255 0
-0.0985145494342 -0.180751562119 0.406415253878 0 255 0
-0.065823674202 0.107437677681 0.475277304649 0 255 0
-0.0838124528527 -0.157893538475 0.474240005016 0 255 0
-0.14089089632 0.210839658976 0.383295536041 0 255 0
0.110416248441 0.244139894843 0.70216023922 0 255 0
-0.0962300747633 -0.165841236711 0.43257266283 0 255 0
-0.10538829118 0.393823593855 0.536920189857 0 255 0
-0.125686481595 0.211634337902 0.366106361151 0 255 0
-0.131770297885 0.21253849566 0.367688119411 0 255 0
0.115298479795 -0.214948892593 0.546835243702 0 255 0
-0.105255499482 0.392079353333 0.535330712795 0 255 0
0.123349271715 -0.219888582826 0.550803542137 0 255 0
0.07207172364 -0.224250003695 0.520608246326 0 255 0
-0.130676329136 0.213209986687 0.367047339678 0 255 0
-0.0749380737543 -0.330588072538 0.414153039455 0 255 0
-0.12734413147 0.215137541294 0.367047339678 0 255 0
-0.138820067048 0.21208293736 0.382543444633 0 255 0
-0.106107927859 0.392011880875 0.536358058453 0 255 0
-0.128829225898 0.212285667658 0.400071918964 0 255 0
-0.122269064188 -0.122809320688 0.399645090103 0 255 0
-0.107376001775 0.388133049011 0.537282347679 0 255 0
-0.0582122057676 0.44343021512 0.541516304016 0 255 0
0.0924005284905 -0.225595146418 0.566327571869 0 255 0
-0.109315082431 0.357668757439 0.49934092164 0 255 0
0.00502615887672 -0.167736932635 0.567189097404 0 255 0
-0.276850759983 -0.289552867413 -0.494048207998 0 255 0
0.100368566811 0.386139422655 0.545022904873 0 255 0
-0.000652275746688 -0.172258496284 0.572154045105 0 255 0
-0.142120376229 0.201131850481 0.382613688707 0 255 0
0.0985285639763 0.391051769257 0.551261365414 0 255 0
-0.0953622683883 -0.19311593473 0.427540808916 0 255 0
-0.0957411453128 -0.182978108525 0.415187835693 0 255 0
0.115196108818 0.237050965428 0.69088190794 0 255 0
0.0963813215494 -0.221787184477 0.54138302803 0 255 0
-0.0734285861254 0.430965512991 0.539340555668 0 255 0
-0.0973789691925 -0.18593147397 0.406433403492 0 255 0
0.13401542604 0.235969647765 0.730427384377 0 255 0
-0.106426596642 0.392143815756 0.534346580505 0 255 0
0.114910185337 0.244266375899 0.700238347054 0 255 0
0.0971227809787 0.391276329756 0.547836959362 0 255 0
0.100536890328 0.350361675024 0.610189259052 0 255 0
-0.0609890371561 0.423317998648 0.508449733257 0 255 0
0.0957919433713 -0.315807878971 0.521221935749 0 255 0
-0.109723992646 0.352960675955 0.498556405306 0 255 0
0.0900173187256 -0.225038453937 0.53425604105 0 255 0
0.144897580147 0.239216312766 0.659573674202 0 255 0
0.00821745116264 -0.123279511929 0.510435402393 0 255 0
0.212242245674 0.287267029285 0.64392375946 0 255 0
-0.0878887921572 -0.150884568691 0.47242346406 0 255 0
0.124837093055 -0.220790505409 0.551382303238 0 255 0
-0.0114607783034 -0.170414447784 0.570581436157 0 255 0
0.0746210962534 -0.0147960903123 0.415354371071 0 255 0
-0.0625293850899 0.110036239028 0.475514382124 0 255 0
-0.0637501552701 0.425392001867 0.504970550537 0 255 0
-0.0699832960963 -0.332817733288 0.405161172152 0 255 0
0.125754460692 -0.221272483468 0.550693392754 0 255 0
0.160519137979 0.267266720533 0.646632313728 0 255 0
0.102464742959 0.356106668711 0.608350872993 0 255 0
-0.0608051270247 -0.163139089942 0.488008797169 0 255 0
-0.0971092134714 -0.185465276241 0.397653520107 0 255 0
-0.09926802665 -0.174923017621 0.394125759602 0 255 0
-0.0645854845643 0.423838019371 0.505554914474 0 255 0
-0.0900709033012 -0.16196487844 0.455187171698 0 255 0
-0.0806852951646 -0.181096881628 0.457114547491 0 255 0
-0.139139309525 0.216335907578 0.38388979435 0 255 0
-0.0768812000751 -0.215183228254 0.493396103382 0 255 0
-0.100022085011 -0.176226198673 0.418668478727 0 255 0
0.0976996421814 -0.223287716508 0.552985370159 0 255 0
-0.0796022862196 -0.221210122108 0.492302060127 0 255 0
-0.131249845028 0.217108696699 0.371826797724 0 255 0
-0.0887715965509 -0.163211628795 0.462170124054 0 255 0
-0.101121775806 0.406343579292 0.556589186192 0 255 0
-0.0769356191158 -0.215088710189 0.491308182478 0 255 0
-0.0942698568106 -0.198396772146 0.429335385561 0 255 0
0.0686156600714 -0.10467749089 0.456632494926 0 255 0
-0.109068237245 0.391748487949 0.536031901836 0 255 0
-0.109259091318 0.370554447174 0.585882544518 0 255 0
-0.130273774266 0.211594358087 0.397680401802 0 255 0
-0.0578410103917 -0.164977520704 0.489748716354 0 255 0
0.0878111943603 -0.246946305037 0.520952165127 0 255 0
-0.0650473311543 0.421149104834 0.508387863636 0 255 0
-0.0697543472052 0.435067862272 0.536484122276 0 255 0
0.212521374226 -0.326055437326 -0.593114793301 0 255 0
-0.138840407133 0.211964547634 0.384310305119 0 255 0
-0.122722037137 -0.118344195187 0.396193444729 0 255 0
0.11387283355 0.237007543445 0.691542029381 0 255 0
-0.0910477861762 -0.152965813875 0.463783085346 0 255 0
0.0995418354869 0.390647053719 0.551968455315 0 255 0
-0.0681167989969 0.104349948466 0.473768562078 0 255 0
0.0835067331791 -0.327332466841 0.519550979137 0 255 0
0.119523771107 -0.217569559813 0.549315452576 0 255 0
-0.0609561242163 0.423374891281 0.507378518581 0 255 0
-0.106863640249 0.396165281534 0.558857440948 0 255 0
-0.0782393068075 -0.324521422386 0.419304132462 0 255 0
0.153899103403 0.261798352003 0.650241911411 0 255 0
-0.106748595834 0.398554772139 0.555964589119 0 255 0
0.107959717512 0.350796669722 0.599251151085 0 255 0
-0.0970013067126 -0.185278788209 0.394141584635 0 255 0
-0.0624815560877 0.425392121077 0.504970610142 0 255 0
0.00642306776717 -0.166430264711 0.559749901295 0 255 0
0.0289345663041 -0.178227677941 0.520913720131 0 255 0
-0.0160578563809 -0.355091273785 0.342971235514 0 255 0
0.0941078960896 -0.226476609707 0.563505768776 0 255 0
0.00400607148185 -0.170176208019 0.568539142609 0 255 0
0.0915236473083 -0.227918490767 0.54115241766 0 255 0
0.0985655412078 0.376231312752 0.611900389194 0 255 0
0.077166184783 -0.0242496151477 0.400367647409 0 255 0
0.114337362349 -0.214129090309 0.543115019798 0 255 0
-0.129663199186 0.213727384806 0.368185162544 0 255 0
-0.0337467938662 -0.193615198135 0.505712211132 0 255 0
-0.105313926935 -0.139197379351 0.449785858393 0 255 0
0.148359879851 0.232658267021 0.723835647106 0 255 0
-0.108509622514 0.395324379206 0.557014107704 0 255 0
-0.019463814795 -0.353069543839 0.342252463102 0 255 0
-0.0992091372609 -0.163993522525 0.430824011564 0 255 0
-0.0614164434373 0.425613284111 0.506515026093 0 255 0
-0.135043725371 0.221906274557 0.384384900331 0 255 0
-0.0977400243282 -0.289620578289 0.405061066151 0 255 0
-0.00654563866556 -0.168603241444 0.568694710732 0 255 0
-0.0147891091183 -0.355774462223 0.342252463102 0 255 0
-0.0714921951294 -0.160865813494 0.479388892651 0 255 0
-0.0915161594748 -0.308188706636 0.424845010042 0 255 0
-0.0809225812554 -0.318842321634 0.424877762794 0 255 0
-0.0790301784873 -0.220747843385 0.490125417709 0 255 0
-0.080023355782 -0.172675922513 0.46048784256 0 255 0
-0.0791016966105 -0.384407669306 -0.517502903938 0 255 0
-0.0332091487944 -0.167098924518 0.564515650272 0 255 0
0.10211687535 -0.219587549567 0.559913218021 0 255 0
-0.128354802728 -0.212063893676 0.54735648632 0 255 0
0.102242417634 0.365045070648 0.607866048813 0 255 0
0.129832774401 0.225123092532 0.662430644035 0 255 0
-0.105983100832 0.398354381323 0.559019863605 0 255 0
0.0116928443313 -0.174868986011 0.571995556355 0 255 0
-0.0744588077068 -0.15902581811 0.477647542953 0 255 0
-0.0743761211634 -0.325753211975 0.405144482851 0 255 0
-0.131235584617 0.337660580873 0.545893371105 0 255 0
-0.0607196502388 0.425340354443 0.505761742592 0 255 0
-0.109071783721 0.366119384766 0.586289346218 0 255 0
0.072114251554 -0.224176287651 0.519220948219 0 255 0
0.219364404678 0.287466883659 0.646753787994 0 255 0
-0.104998603463 0.363548725843 0.593049943447 0 255 0
-0.107322268188 0.394388079643 0.559805095196 0 255 0
0.0940016135573 -0.226660296321 0.566965103149 0 255 0
-0.109780788422 0.394450008869 0.559318244457 0 255 0
0.0914172753692 -0.228102326393 0.544614613056 0 255 0
-0.10785420239 0.394318372011 0.560866892338 0 255 0
-0.0802814587951 -0.32373714447 0.424910545349 0 255 0
-0.0784579217434 -0.191561609507 0.458988666534 0 255 0
0.120029613376 0.233396396041 0.686924278736 0 255 0
-0.0598387829959 0.425253927708 0.507080197334 0 255 0
-0.0596226900816 -0.18428209424 0.521181225777 0 255 0
-0.0958489626646 -0.183164432645 0.418696850538 0 255 0
0.0435486771166 -0.200560078025 0.581780314445 0 255 0
-0.130601972342 -0.213363796473 0.54735648632 0 255 0
-0.12687844038 0.215290158987 0.368982315063 0 255 0
0.0961975157261 -0.223037481308 0.560340821743 0 255 0
-0.0907129943371 -0.182581856847 0.432342261076 0 255 0
-0.07615519315 -0.325233221054 0.41233214736 0 255 0
-0.0227544251829 -0.168113857508 0.53178358078 0 255 0
-0.0720964372158 -0.0121682025492 0.469917565584 0 255 0
-0.116090871394 0.371527791023 0.579147994518 0 255 0
-0.0622065253556 0.439976483583 0.560460567474 0 255 0
-0.00617720745504 -0.18011072278 0.515075683594 0 255 0
-0.105351030827 0.363412380219 0.591931402683 0 255 0
-0.138037204742 0.216988861561 0.383634030819 0 255 0
0.161117807031 0.26193985343 0.653107047081 0 255 0
-0.125493049622 -0.21496668458 0.548008203506 0 255 0
-0.083755582571 -0.139942109585 0.475676298141 0 255 0
-0.109627731144 0.394260168076 0.561751842499 0 255 0
-0.0154678691179 -0.131050512195 0.511628448963 0 255 0
-0.0838887393475 -0.183272510767 0.450168728828 0 255 0
-0.0904463008046 -0.144754633307 0.470609873533 0 255 0
0.097186692059 -0.333220809698 0.5236120224 0 255 0
-0.0951715633273 -0.146053433418 0.463716685772 0 255 0
-0.104529030621 -0.148455113173 0.446406692266 0 255 0
-0.0275716166943 -0.166582122445 0.535107553005 0 255 0
-0.101193755865 -0.273547858 0.397870153189 0 255 0
0.0882915779948 -0.242891579866 0.523616611958 0 255 0
-0.120365522802 -0.211819395423 0.545005202293 0 255 0
-0.107083320618 -0.14232839644 0.444612085819 0 255 0
-0.0972763523459 -0.189392611384 0.390634596348 0 255 0
-0.0310765001923 -0.189353615046 0.504444122314 0 255 0
0.124476589262 0.236827194691 0.694304943085 0 255 0
0.146112293005 0.238180175424 0.664275765419 0 255 0
-0.0624853670597 -0.166200846434 0.481130242348 0 255 0
0.0965112373233 -0.225783184171 0.534101545811 0 255 0
-0.00643935333937 -0.16841955483 0.565235435963 0 255 0
-0.0696517676115 -0.332244813442 0.394370883703 0 255 0
-0.116750009358 -0.214408174157 0.547678947449 0 255 0
-0.0959805995226 -0.166109532118 0.434321343899 0 255 0
0.0741048678756 -0.00521443597972 0.411969900131 0 255 0
-0.278029680252 -0.279900342226 -0.493022739887 0 255 0
0.114666730165 0.237111568451 0.689957678318 0 255 0
0.206593379378 0.416680604219 0.757439136505 0 255 0
-0.135075137019 -0.211484670639 0.548221290112 0 255 0
-0.124097660184 -0.222142517567 0.529546439648 0 255 0
0.112389743328 -0.124106377363 0.37338745594 0 255 0
0.0975748747587 -0.227454677224 0.571859657764 0 255 0
-0.0454250983894 0.448313176632 0.53908509016 0 255 0
-0.0315661653876 -0.167477488518 0.565693378448 0 255 0
-0.0938216298819 -0.301187396049 0.408679485321 0 255 0
-0.102589815855 0.364753127098 0.596181929111 0 255 0
-0.022270925343 -0.165301635861 0.564701020718 0 255 0
-0.0974511876702 -0.178235635161 0.426031261683 0 255 0
-0.0602782852948 -0.188957899809 0.517497062683 0 255 0
-0.111139371991 0.389100730419 0.56005614996 0 255 0
0.110915727913 -0.123258285224 0.373455375433 0 255 0
0.206191793084 -0.263965040445 -0.477777868509 0 255 0
-0.0680379495025 0.414887309074 0.605410218239 0 255 0
-0.077854283154 -0.324890941381 0.421374112368 0 255 0
0.102814696729 0.369909614325 0.607623636723 0 255 0
-0.0704897269607 -0.169882073998 0.470826596022 0 255 0
-0.0963954403996 -0.294667422771 0.401495635509 0 255 0
0.00790974311531 -0.167314976454 0.560095191002 0 255 0
0.0185251329094 -0.173941373825 0.574753701687 0 255 0
-0.282623648643 -0.277529150248 -0.488972991705 0 255 0
0.0943159237504 0.382553786039 0.616159617901 0 255 0
-0.0477701872587 0.446669965982 0.538675248623 0 255 0
-0.114992342889 0.37210714817 0.580077469349 0 255 0
-0.100390285254 0.374907165766 0.598768174648 0 255 0
-0.112659022212 0.386503756046 0.560636818409 0 255 0
-0.100818194449 -0.174796387553 0.404994636774 0 255 0
0.0727780759335 -0.102608144283 0.45724889636 0 255 0
-0.0784586593509 -0.220526695251 0.491939365864 0 255 0
0.101920172572 0.351161837578 0.610189259052 0 255 0
-0.032770935446 -0.186228394508 0.511296570301 0 255 0
-0.0934121981263 -0.167967498302 0.439567327499 0 255 0
-0.0584065765142 -0.183599635959 0.521529376507 0 255 0
-0.0896415635943 -0.179198890924 0.439659178257 0 255 0
0.207486391068 0.413146704435 0.75674957037 0 255 0
-0.0984132364392 -0.198651924729 0.402967095375 0 255 0
-0.101193740964 0.36556071043 0.596181869507 0 255 0
-0.112284556031 0.388411432505 0.560501039028 0 255 0
0.0209798514843 -0.178407251835 0.522520363331 0 255 0
-0.107896573842 0.387944936752 0.535409629345 0 255 0
0.000840272987261 -0.118889406323 0.508721768856 0 255 0
0.107971690595 -0.121554777026 0.373455375433 0 255 0
0.146490469575 0.238667145371 0.666289448738 0 255 0
-0.0575072690845 -0.34003674984 0.405161172152 0 255 0
0.116629168391 -0.126559436321 0.37338745594 0 255 0
-0.0652717798948 0.418814867735 0.60521709919 0 255 0
0.125271782279 0.232903122902 0.694449543953 0 255 0
0.103593371809 -0.223023071885 0.564930081367 0 255 0
0.0726530104876 -0.102824278176 0.461319357157 0 255 0
0.00608350522816 -0.166910290718 0.56362593174 0 255 0
0.208039298654 0.415173739195 0.755533516407 0 255 0
0.123831562698 -0.212025016546 -0.393411844969 0 255 0
-0.517651319504 -0.278377205133 -0.472097158432 0 255 0
-0.10075173527 -0.269028484821 0.394291818142 0 255 0
0.17492878437 0.277194648981 0.644097566605 0 255 0
-0.113410234451 0.373089671135 0.578962087631 0 255 0
-0.081047296524 -0.322955340147 0.420132100582 0 255 0
0.0978119000793 0.348689049482 0.611785233021 0 255 0
0.206004008651 0.414035022259 0.756318390369 0 255 0
0.0919194296002 -0.244961217046 0.523199737072 0 255 0
-0.103008620441 -0.174373835325 0.416915416718 0 255 0
-0.120083011687 -0.226063653827 0.529650688171 0 255 0
-0.0612961351871 0.43783685565 0.561287939548 0 255 0
-0.0960455685854 -0.161918967962 0.439521402121 0 255 0
-0.0632266327739 0.42452070117 0.507268190384 0 255 0
-0.0589411966503 -0.164094284177 0.486268907785 0 255 0
-0.143187060952 -0.211585387588 0.547014057636 0 255 0
-0.0320438109338 -0.171979472041 0.569317042828 0 255 0
-0.012146987021 -0.129171311855 0.512321233749 0 255 0
-0.0739105865359 -0.327392965555 0.42447924614 0 255 0
-0.0750386342406 -0.326898157597 0.426707446575 0 255 0
-0.0944824591279 -0.193704739213 0.428665548563 0 255 0
0.0177583005279 0.261948227882 0.675062358379 0 255 0
-0.0606225952506 0.441358685493 0.559945762157 0 255 0
0.11943000555 0.236862495542 0.693760156631 0 255 0
0.119518756866 0.233479976654 0.685649752617 0 255 0
-0.11356023699 0.387651115656 0.560871779919 0 255 0
0.0213316921145 -0.171789586544 0.56599855423 0 255 0
-0.118561916053 -0.2273106426 0.525244832039 0 255 0
0.0933439582586 -0.228235602379 0.530765652657 0 255 0
-0.0821682363749 -0.318121552467 0.424877762794 0 255 0
0.140964522958 0.24182535708 0.654871582985 0 255 0
0.0805114656687 -0.101457156241 0.377874642611 0 255 0
0.189372867346 -0.259305655956 -0.491563916206 0 255 0
0.10077406466 0.389717251062 0.555027127266 0 255 0
-0.00504581816494 -0.16947107017 0.568694710732 0 255 0
-0.106306485832 0.35840177536 0.590920746326 0 255 0
0.0803007632494 -0.101142905653 0.37516105175 0 255 0
0.0268112160265 -0.172350332141 0.540623664856 0 255 0
0.0905299261212 -0.225924611092 0.55385529995 0 255 0
-0.114655651152 0.387073397636 0.559944987297 0 255 0
0.0653065443039 -0.103604920208 0.468514949083 0 255 0
0.204914003611 0.415475696325 0.756366848946 0 255 0
0.121799647808 -0.210721328855 -0.395217299461 0 255 0
-0.118287548423 -0.227544695139 0.526307106018 0 255 0
0.0907734856009 -0.225633189082 0.551360785961 0 255 0
0.142083629966 0.236104682088 0.662653982639 0 255 0
-0.113923057914 0.380396902561 0.527837216854 0 255 0
-0.0959693714976 -0.194296777248 0.385362893343 0 255 0
0.103331565857 -0.111869938672 0.402282297611 0 255 0
-0.03110399656 -0.176861867309 0.52182751894 0 255 0
-0.0994578674436 -0.168026551604 0.425962239504 0 255 0
-0.101089350879 0.365380048752 0.60017645359 0 255 0
-0.0757861584425 -0.388177007437 -0.519713282585 0 255 0
0.017441039905 -0.179050073028 0.520264267921 0 255 0
0.204100176692 -0.260429948568 -0.481525599957 0 255 0
-0.109789066017 -0.15421423316 0.443015813828 0 255 0
0.107384547591 -0.111276514828 0.424616068602 0 255 0
0.0996789783239 0.390756160021 0.549309432507 0 255 0
-0.0762104988098 -0.325328588486 0.414129048586 0 255 0
-0.0452766157687 0.446574628353 0.540131807327 0 255 0
-0.330154269934 -0.249306201935 -0.62019020319 0 255 0
0.0729526802897 -0.0965737998486 0.434479087591 0 255 0
-0.0909792780876 -0.161439269781 0.455187171698 0 255 0
-0.0569251291454 -0.182818308473 0.522782742977 0 255 0
-0.112327344716 -0.228450194001 0.523233175278 0 255 0
-0.0956873297691 -0.182884886861 0.41343331337 0 255 0
0.127234429121 0.225473284721 0.688363611698 0 255 0
-0.0970904156566 -0.189774230123 0.394500941038 0 255 0
-0.0530055463314 -0.184806406498 0.518416941166 0 255 0
0.0243940465152 -0.174834132195 0.570922613144 0 255 0
-0.0833746418357 -0.315896421671 0.403332352638 0 255 0
-0.0550290346146 -0.3633441329 0.522390782833 0 255 0
0.00601762859151 -0.16679662466 0.56111073494 0 255 0
-0.0617937743664 0.43821233511 0.560052752495 0 255 0
-0.112782873213 -0.233039274812 0.520029783249 0 255 0
0.11767654866 -0.127194359899 0.373794853687 0 255 0
-0.118280790746 -0.1118991822 0.406848400831 0 255 0
-0.0269182603806 -0.188336148858 0.503071308136 0 255 0
0.0649796277285 -0.0970859751105 0.443002253771 0 255 0
-0.0614388138056 0.440346360207 0.561690509319 0 255 0
-0.101303450763 -0.273737460375 0.40144059062 0 255 0
-0.512431263924 -0.272368848324 -0.47189694643 0 255 0
-0.0660324022174 -0.168305128813 0.475982815027 0 255 0
0.00820552650839 -0.167632997036 0.562167346478 0 255 0
0.142745703459 0.235365778208 0.667674303055 0 255 0
0.208807453513 0.413130819798 0.757663309574 0 255 0
-0.110196426511 -0.216053962708 0.562890589237 0 255 0
0.0683880448341 -0.0942928791046 0.439562797546 0 255 0
-0.048110358417 0.449429452419 0.538936197758 0 255 0
-0.653120696545 -0.394809663296 -0.481198430061 0 255 0
-0.120908677578 -0.223368227482 -0.392111510038 0 255 0
0.0222698841244 -0.169844865799 0.542348921299 0 255 0
0.125933766365 0.233076587319 0.69180649519 0 255 0
0.0756674483418 -0.221791103482 0.520354926586 0 255 0
0.0974844321609 -0.22894525528 0.570770323277 0 255 0
0.217135980725 -0.261937469244 -0.474457114935 0 255 0
-0.143114849925 0.211697474122 0.422647029161 0 255 0
-0.00445136800408 -0.17917573452 0.516125380993 0 255 0
-0.0439629666507 0.446546047926 0.540568768978 0 255 0
0.0967686325312 -0.22603020072 0.535485267639 0 255 0
0.118223667145 -0.127607181668 0.375152856112 0 255 0
0.0723495557904 -0.0534395128489 0.404970109463 0 255 0
-0.0528044551611 -0.364692687988 0.523256063461 0 255 0
-0.111634165049 -0.216910853982 0.563308358192 0 255 0
0.0801655650139 -0.246682018042 0.515847086906 0 255 0
-0.139536336064 -0.213959366083 0.546465754509 0 255 0
0.117417953908 -0.212732225657 -0.394868135452 0 255 0
0.205274745822 0.416849344969 0.754865765572 0 255 0
-0.650977373123 -0.39356982708 -0.481198519468 0 255 0
0.125835746527 0.234176114202 0.69492161274 0 255 0
-0.327699661255 -0.256286174059 -0.630761086941 0 255 0
0.127443760633 0.22929687798 0.686840713024 0 255 0
-0.0584996379912 0.423652291298 0.59116089344 0 255 0
-0.106928147376 -0.214084729552 0.561587035656 0 255 0
-0.329755604267 -0.249163448811 -0.618734180927 0 255 0
-0.119963340461 -0.227400287986 -0.391116738319 0 255 0
0.102609798312 0.378762304783 0.608726024628 0 255 0
0.00754948379472 0.410400420427 0.73356539011 0 255 0
0.130153149366 0.224794849753 0.664446234703 0 255 0
-0.112804748118 -0.217672020197 0.564701020718 0 255 0
-0.059624094516 0.441568940878 0.558776021004 0 255 0
-0.280033409595 -0.283307045698 -0.492393493652 0 255 0
-0.122992508113 -0.222253724933 0.531243026257 0 255 0
-0.0196108408272 -0.167406857014 0.530889093876 0 255 0
0.119359873235 -0.212463065982 -0.393336176872 0 255 0
-0.0366793200374 -0.168056726456 0.547122359276 0 255 0
0.0587862432003 -0.128951132298 0.496589839458 0 255 0
0.0116262696683 0.260955870152 0.675330519676 0 255 0
0.128173783422 0.228746011853 0.688653051853 0 255 0
-0.1084452793 -0.215071246028 0.563391923904 0 255 0
-0.043437499553 0.446442902088 0.542141795158 0 255 0
0.209193214774 0.284265100956 0.64737534523 0 255 0
0.0117165315896 -0.169523581862 0.560178101063 0 255 0
-0.0480149686337 -0.352412253618 0.502273499966 0 255 0
-0.121051855385 -0.224659800529 0.526556789875 0 255 0
-0.110017500818 -0.227417320013 0.528259277344 0 255 0
0.0945296064019 -0.237553521991 0.524964094162 0 255 0
-0.0576177798212 -0.340227723122 0.408757925034 0 255 0
-0.105642274022 -0.208767473698 0.560682892799 0 255 0
-0.514883935452 -0.275327920914 -0.473918288946 0 255 0
-0.055108718574 -0.367962509394 0.524407744408 0 255 0
-0.0685309544206 0.415298968554 0.609241366386 0 255 0
0.0530124045908 -0.130356416106 0.499759703875 0 255 0
0.129421934485 -0.220064893365 -0.38941064477 0 255 0
-0.327116549015 -0.256093710661 -0.628360629082 0 255 0
-0.0867298468947 -0.223515242338 0.462175935507 0 255 0
-0.0793969333172 -0.142833486199 0.480887204409 0 255 0
-0.0964505672455 -0.294762462378 0.40328669548 0 255 0
0.0224594529718 -0.171386405826 0.570128083229 0 255 0
-0.119804628193 -0.222230270505 0.530889630318 0 255 0
0.0982887819409 -0.229631349444 0.573883712292 0 255 0
-0.050519362092 -0.183324635029 0.517694294453 0 255 0
0.0736478045583 -0.102462269366 0.448090344667 0 255 0
0.204142928123 -0.269895672798 -0.474023103714 0 255 0
-0.0494090765715 -0.366510152817 0.521179318428 0 255 0
0.08132661134 -0.102165393531 0.381212413311 0 255 0
-0.118387445807 -0.224391534925 -0.390836894512 0 255 0
-0.0816020518541 -0.322423040867 0.417151153088 0 255 0
-0.10113132 -0.174495920539 0.403311729431 0 255 0
0.00534728448838 0.410496354103 0.732100427151 0 255 0
0.027285201475 -0.178083181381 0.577594578266 0 255 0
0.0830932557583 -0.0987908169627 0.382972240448 0 255 0
0.10707039386 0.350417166948 0.597014725208 0 255 0
-0.00999599974602 -0.12790197134 0.511905550957 0 255 0
-0.0456662587821 -0.184992596507 0.516972243786 0 255 0
-0.0326379612088 0.447720259428 0.56580966711 0 255 0
-0.129932314157 -0.117507480085 0.38809466362 0 255 0
0.119915999472 -0.131473913789 0.41589269042 0 255 0
-0.00818197149783 -0.172847792506 0.525269687176 0 255 0
0.0228364691138 -0.170246064663 0.54338401556 0 255 0
-0.0962208658457 -0.149354889989 0.455069005489 0 255 0
0.0997111871839 -0.24058714509 0.525463521481 0 255 0
0.0140703134239 -0.170707896352 0.557671606541 0 255 0
-0.0621749423444 0.419670879841 0.597720623016 0 255 0
0.100935250521 0.364223301411 0.608953356743 0 255 0
0.11666674912 -0.212356850505 -0.394031494856 0 255 0
-0.0115217342973 -0.166775867343 0.542403399944 0 255 0
-0.514930784702 -0.275408416986 -0.472399950027 0 255 0
-0.100430399179 -0.174126178026 0.392372697592 0 255 0
-0.0591147057712 0.421634227037 0.594520509243 0 255 0
0.0983452126384 -0.226789563894 0.568221867085 0 255 0
-0.0584894567728 -0.345331698656 0.487886488438 0 255 0
0.0128064677119 -0.17002736032 0.558387756348 0 255 0
-0.0789960250258 -0.358596473932 0.523480892181 0 255 0
-0.111852303147 -0.228266388178 0.524740934372 0 255 0
-0.0824560672045 -0.351875603199 0.520698308945 0 255 0
0.0228729620576 -0.171092435718 0.569220423698 0 255 0
-0.0805464610457 -0.324195116758 0.433535695076 0 255 0
-0.328837305307 -0.257119297981 -0.627860486507 0 255 0
-0.0605514161289 -0.337383061647 0.392572522163 0 255 0
-0.142469242215 0.211998865008 0.42384108901 0 255 0
0.0907553434372 -0.228553652763 0.556386232376 0 255 0
-0.521195292473 -0.28078776598 -0.472948640585 0 255 0
-0.0803369283676 -0.168191164732 0.463566690683 0 255 0
0.116523601115 -0.220499128103 -0.390188395977 0 255 0
-0.0753867700696 -0.149927586317 0.484445095062 0 255 0
0.0947394743562 -0.104679711163 0.434774696827 0 255 0
0.126978874207 0.233532384038 0.694671571255 0 255 0
-0.100218810141 -0.208956077695 0.563089668751 0 255 0
-0.0656520500779 0.418748378754 0.6062297225 0 255 0
-0.00136743974872 -0.11763138324 0.508995950222 0 255 0
-0.144230276346 0.202044487 0.422149986029 0 255 0
-0.0571401901543 -0.340121686459 0.403362780809 0 255 0
-0.0953788682818 -0.202340975404 0.557833015919 0 255 0
0.0173291247338 -0.171761766076 0.545936048031 0 255 0
0.101055718958 0.368786752224 0.609369397163 0 255 0
0.0644082203507 -0.101761698723 0.449842512608 0 255 0
-0.0737331733108 -0.190960362554 0.571473002434 0 255 0
-0.516871511936 -0.274075090885 -0.475367933512 0 255 0
-0.599957108498 -0.360225558281 -0.495399266481 0 255 0
-0.0592877902091 -0.339516341686 0.412354677916 0 255 0
-0.0438338629901 -0.183995455503 0.518013596535 0 255 0
0.107816837728 0.22428137064 0.407480597496 0 255 0
0.116709679365 -0.21228286624 -0.395425736904 0 255 0
-0.101714298129 -0.273018926382 0.39465674758 0 255 0
0.0270732585341 -0.171306341887 0.538143992424 0 255 0
0.100282400846 0.372777611017 0.610706627369 0 255 0
0.0962219983339 -0.115019500256 0.44096699357 0 255 0
-0.0396035946906 -0.169958218932 0.550601065159 0 255 0
0.00322582689114 0.410569608212 0.730980873108 0 255 0
-0.0599256120622 0.423339962959 0.595919311047 0 255 0
-0.0585987195373 0.422075748444 0.592149972916 0 255 0
0.103323362768 -0.119032397866 0.439610183239 0 255 0
0.0978978276253 -0.103963203728 0.39888086915 0 255 0
0.00316336844116 0.408598601818 0.733579993248 0 255 0
-0.00610817689449 -0.119446478784 0.509513676167 0 255 0
0.143788129091 0.234401941299 0.671629071236 0 255 0
0.0799661129713 -0.101702205837 0.385784268379 0 255 0
-0.0278661251068 -0.168020710349 0.543150782585 0 255 0
-0.0727459937334 -0.337592273951 0.495079994202 0 255 0
0.131726115942 0.223884686828 0.664446234703 0 255 0
-0.0598197989166 0.423644185066 0.591282784939 0 255 0
-0.0583715252578 0.42230027914 0.590606689453 0 255 0
-0.11276564002 -0.152368068695 0.441268622875 0 255 0
-0.133519977331 0.218414485455 0.377941787243 0 255 0
0.191162422299 -0.25500664115 -0.620537936687 0 255 0
-0.0838565453887 -0.183216661215 0.449117749929 0 255 0
-0.118198141456 -0.221769705415 -0.392618179321 0 255 0
0.194387167692 -0.265650063753 -0.48812943697 0 255 0
0.0788716077805 -0.100219786167 0.373804181814 0 255 0
-0.0600393712521 0.421099334955 0.594520509243 0 255 0
0.0636339783669 -0.102420568466 0.465459406376 0 255 0
-0.0195161383599 -0.170015871525 0.566926777363 0 255 0
-0.0941952764988 -0.162915304303 0.438473075628 0 255 0
0.00309043563902 0.408724665642 0.730791449547 0 255 0
0.180514469743 0.278321504593 0.646392047405 0 255 0
0.0905498042703 -0.225246503949 0.542808413506 0 255 0
0.0149147538468 0.263369143009 0.678229272366 0 255 0
0.0601541399956 -0.13424192369 0.496275871992 0 255 0
0.198226243258 -0.263482421637 -0.487248957157 0 255 0
0.185114517808 -0.241166725755 -0.60832285881 0 255 0
-0.515732169151 -0.269364118576 -0.487342178822 0 255 0
-0.0592918880284 0.423505961895 0.593390345573 0 255 0
0.00378221389838 0.409078091383 0.73156607151 0 255 0
0.0172445978969 -0.169233486056 0.559345722198 0 255 0
0.00526312366128 0.409960716963 0.73113578558 0 255 0
0.00326773920096 0.406514704227 0.733118891716 0 255 0
-0.0624950118363 -0.0256092976779 0.475226789713 0 255 0
-0.114185214043 0.377349197865 0.575830698013 0 255 0
-0.127281919122 -0.236202612519 -0.390289366245 0 255 0
0.112084262073 -0.22425404191 -0.390500754118 0 255 0
-0.330697447062 -0.249732375145 -0.618334949017 0 255 0
-0.00159359164536 -0.185318261385 0.508921384811 0 255 0
0.143788099289 0.234778255224 0.665893375874 0 255 0
-0.10193233192 -0.277870744467 0.401096999645 0 255 0
-0.0680262893438 0.415706753731 0.60732126236 0 255 0
-0.0385290645063 -0.169311448932 0.550183594227 0 255 0
-0.0227218866348 -0.170260757208 0.567673921585 0 255 0
0.0158363673836 -0.167380437255 0.560100913048 0 255 0
0.114608697593 -0.123278468847 0.407385617495 0 255 0
-0.137578830123 0.214683756232 0.426228195429 0 255 0
0.141704797745 0.238980039954 0.661514043808 0 255 0
0.0295159630477 0.260021835566 0.670048236847 0 255 0
0.119147710502 -0.218983128667 0.541378676891 0 255 0
0.0957305133343 -0.108192376792 0.412449717522 0 255 0
-0.10887362808 -0.226882010698 0.530353486538 0 255 0
-0.0103769842535 -0.135239094496 0.512004494667 0 255 0
-0.0973417088389 0.376025676727 0.601029574871 0 255 0
-0.04168811813 0.446272313595 0.544744253159 0 255 0
0.0854988396168 -0.104722157121 0.447018891573 0 255 0
-0.0318267084658 -0.166540145874 0.554595470428 0 255 0
0.108834035695 0.223629891872 0.408368140459 0 255 0
0.104007318616 -0.113413952291 0.418550103903 0 255 0
0.036105915904 -0.17699483037 0.530272006989 0 255 0
-0.134957373142 -0.11558163166 0.382894665003 0 255 0
0.0696859583259 -0.0998091995716 0.443002253771 0 255 0
0.0915483236313 -0.225262388587 0.552643656731 0 255 0
0.130148530006 -0.225194633007 -0.386761307716 0 255 0
-0.517064511776 -0.268631637096 -0.48680010438 0 255 0
-0.509919285774 -0.264986902475 -0.488602817059 0 255 0
-0.0591588318348 0.421024620533 0.589660227299 0 255 0
0.017622416839 -0.174992829561 0.525334239006 0 255 0
0.019172757864 -0.171559169888 0.541484117508 0 255 0
0.0509080402553 -0.189722910523 0.52521520853 0 255 0
-0.111820757389 -0.228320926428 0.525947213173 0 255 0
-0.00911721214652 -0.177485719323 0.518277287483 0 255 0
0.0860462635756 -0.10099761188 0.389999896288 0 255 0
0.0216313246638 0.260025918484 0.670565366745 0 255 0
0.059445541352 -0.198456898332 0.578743994236 0 255 0
0.145321980119 0.233541473746 0.672380745411 0 255 0
0.19809858501 -0.259109258652 -0.486058175564 0 255 0
-0.129948571324 -0.23768389225 -0.391304671764 0 255 0
-0.08202842623 -0.21046847105 0.515693962574 0 255 0
-0.0988018289208 -0.206782445312 0.393264174461 0 255 0
0.113169126213 -0.122373357415 0.406367987394 0 255 0
0.104717381299 0.375639617443 0.605792582035 0 255 0
0.114068031311 -0.224472954869 -0.389289706945 0 255 0
-0.0601474903524 -0.277270644903 -0.488989144564 0 255 0
-0.0211720503867 -0.174993306398 0.523083090782 0 255 0
-0.00573392212391 -0.170906171203 0.530765652657 0 255 0
-0.0278342496604 -0.16796541214 0.542110383511 0 255 0
-0.0180416591465 -0.165808230639 0.538752555847 0 255 0
0.0223275925964 -0.171125516295 0.559946656227 0 255 0
-0.0673512145877 0.414636135101 0.609239280224 0 255 0
0.104614667594 -0.109289780259 0.419198155403 0 255 0
-0.359217196703 -0.240485832095 -0.595646083355 0 255 0
0.0755240172148 0.24139431119 0.429669350386 0 255 0
0.00024037687399 -0.1781565696 0.52049356699 0 255 0
0.0739100724459 -0.0970883816481 0.433923214674 0 255 0
0.10973507911 0.221078827977 0.373210519552 0 255 0
-0.0733297094703 -0.151241078973 0.486183524132 0 255 0
0.0327892787755 0.262443959713 0.67294549942 0 255 0
0.11353854835 0.218878030777 0.373210579157 0 255 0
0.206417918205 -0.241156920791 -0.628925442696 0 255 0
0.0194233283401 0.261658191681 0.665561676025 0 255 0
0.130772829056 0.224197149277 0.66782027483 0 255 0
0.107013463974 0.229693830013 0.401469171047 0 255 0
-0.0791108831763 -0.323484241962 0.411785572767 0 255 0
-0.50534927845 -0.26652431488 -0.484584778547 0 255 0
-0.508115649223 -0.265163838863 -0.485903441906 0 255 0
0.0976874008775 -0.103649437428 0.39617189765 0 255 0
0.118128694594 -0.130487844348 0.416571676731 0 255 0
0.103332273662 0.357412874699 0.595020771027 0 255 0
0.0134609490633 -0.181203305721 0.519342899323 0 255 0
0.0979898199439 -0.103939630091 0.397797256708 0 255 0
0.0959573164582 -0.227764099836 0.566572487354 0 255 0
-0.10151912272 -0.175166130066 0.415933668613 0 255 0
-0.0963436514139 -0.174388259649 0.4265011549 0 255 0
-0.132092133164 -0.120859153569 0.42293381691 0 255 0
-0.0300347171724 0.435784190893 0.489022672176 0 255 0
0.109101332724 0.233380362391 0.396204978228 0 255 0
-0.116122029722 -0.226324617863 0.526517927647 0 255 0
0.0662187412381 -0.0976587161422 0.44096699357 0 255 0
-0.02795564197 0.434276521206 0.488933831453 0 255 0
0.0404240936041 -0.179278239608 0.52723544836 0 255 0
0.069179803133 -0.0997067317367 0.445688664913 0 255 0
-0.139153644443 -0.211378633976 0.544464588165 0 255 0
0.0861565843225 -0.105212286115 0.448564320803 0 255 0
-0.0924104303122 -0.306145429611 0.403317123652 0 255 0
0.0675305500627 -0.098648570478 0.444223374128 0 255 0
0.0705933943391 -0.269730478525 -0.48429608345 0 255 0
-0.0282956175506 -0.352437496185 0.341642469168 0 255 0
-0.0255135875195 0.434307932854 0.488458544016 0 255 0
0.113906696439 0.21860024333 0.374124348164 0 255 0
-0.106208212674 -0.147448867559 0.445918291807 0 255 0
0.01508928556 -0.177762329578 0.521295011044 0 255 0
-0.0336111150682 -0.172155633569 0.569575190544 0 255 0
-0.13762716949 -0.21132299304 0.543618500233 0 255 0
-0.0707194730639 0.0518435351551 0.470297574997 0 255 0
0.187730178237 -0.260246157646 -0.491725206375 0 255 0
0.0390881858766 -0.182516440749 0.520035028458 0 255 0
0.185143366456 -0.24553462863 -0.610548377037 0 255 0
0.0724404901266 -0.0961135104299 0.432166278362 0 255 0
0.110855765641 0.220383733511 0.373868346214 0 255 0
-0.00648980215192 -0.180440992117 0.517552256584 0 255 0
0.104405194521 0.424656510353 0.764019012451 0 255 0
0.107576072216 0.337451040745 0.535182833672 0 255 0
0.0521165318787 -0.190397709608 0.524869859219 0 255 0
-0.135507240891 -0.211276546121 0.542913377285 0 255 0
0.0692735165358 -0.269070923328 -0.482826441526 0 255 0
0.106067419052 0.425549864769 0.765149116516 0 255 0
-0.358521312475 -0.240033328533 -0.596473932266 0 255 0
0.113206639886 -0.122308515012 0.405146837234 0 255 0
-0.0291120298207 0.43629181385 0.489455640316 0 255 0
-0.0110733881593 -0.178627789021 0.518451213837 0 255 0
-0.080721616745 -0.209712535143 0.515693962574 0 255 0
0.0842599347234 -0.100035719573 0.391011893749 0 255 0
0.0730568096042 -0.0963938459754 0.431089967489 0 255 0
-0.0680636242032 -0.333097457886 0.393435657024 0 255 0
0.114944003522 0.218107953668 0.37260144949 0 255 0
0.100231967866 -0.225908309221 0.569285690784 0 255 0
0.10870718956 -0.112377844751 0.429356783628 0 255 0
-0.0906591340899 -0.166031360626 0.453568905592 0 255 0
-0.0281208809465 0.432731747627 0.490065157413 0 255 0
0.140109568834 0.23918877542 0.658330440521 0 255 0
-0.120859198272 -0.224122032523 -0.394947886467 0 255 0
0.107548698783 0.421754956245 0.767351388931 0 255 0
-0.12215782702 0.363579601049 0.577819287777 0 255 0
-0.104327023029 -0.14411893487 0.44737264514 0 255 0
-0.0695717334747 -0.339301556349 0.493281632662 0 255 0
-0.0292308684438 0.449640065432 0.553096592426 0 255 0
0.0561375878751 -0.197702094913 0.580211758614 0 255 0
-0.0277114566416 0.434192627668 0.490213215351 0 255 0
-0.0530067235231 -0.183632925153 0.522108376026 0 255 0
0.0914006903768 -0.225007176399 0.54699909687 0 255 0
-0.0293487738818 -0.16891784966 0.567912936211 0 255 0
0.0626770108938 -0.102444335818 0.473607420921 0 255 0
0.163276523352 0.270298331976 0.645142674446 0 255 0
0.052217669785 -0.199221909046 0.520956158638 0 255 0
0.20395514369 -0.238462924957 -0.622292280197 0 255 0
-0.0965722799301 -0.0335898324847 0.419466674328 0 255 0
0.0706834346056 -0.111604057252 0.473684042692 0 255 0
-0.0708257481456 0.0609350427985 0.470481783152 0 255 0
0.186355471611 -0.240365952253 -0.6096971035 0 255 0
-0.543322622776 -0.247968688607 -0.5141299963 0 255 0
0.145443856716 0.233626633883 0.670184373856 0 255 0
-0.0709795355797 0.434263527393 0.563169360161 0 255 0
0.0756628289819 -0.109477065504 0.466817438602 0 255 0
-0.0577883534133 -0.345558911562 0.485368728638 0 255 0
-0.0711534395814 -0.338437318802 0.494000971317 0 255 0
-0.0923001915216 -0.305954903364 0.399729132652 0 255 0
-0.0257247779518 0.434231936932 0.489616543055 0 255 0
-0.0454133339226 -0.172437295318 0.535990655422 0 255 0
-0.0124613065273 0.404524117708 0.726206541061 0 255 0
-0.0386487953365 0.44890332222 0.564313411713 0 255 0
-0.0325725898147 0.448506057262 0.570376574993 0 255 0
0.0890128612518 -0.10610691458 0.437868237495 0 255 0
-0.0443994291127 -0.172102689743 0.540165066719 0 255 0
0.00244830781594 0.28120097518 0.719798028469 0 255 0
-0.0242056027055 0.434430986643 0.486584573984 0 255 0
-0.0233659446239 0.434614479542 0.488477259874 0 255 0
0.0542160198092 -0.191577285528 0.524372518063 0 255 0
-0.0371297374368 0.44870454073 0.567344963551 0 255 0
-0.542449831963 -0.24751457572 -0.513288617134 0 255 0
-0.00691754790023 -0.167904272676 0.530353486538 0 255 0
-0.542396962643 -0.247605890036 -0.511268794537 0 255 0
0.0908990874887 -0.225371658802 0.548230648041 0 255 0
0.0763519853354 0.012872046791 0.393619686365 0 255 0
-0.0416869334877 0.449499756098 0.555218696594 0 255 0
-0.0969101563096 -0.0334910713136 0.420831680298 0 255 0
-0.0716634988785 -0.0108899958432 0.46999129653 0 255 0
0.0264931693673 -0.172899991274 0.550975263119 0 255 0
-0.0706804990768 -0.0159855429083 0.470064997673 0 255 0
-0.128989085555 -0.117169722915 0.391539245844 0 255 0
-0.127168595791 -0.120737023652 0.39322155714 0 255 0
0.118197701871 0.264614105225 0.748104691505 0 255 0
