ply
format ascii 1.0
comment https://github.com/EricCJoyce
element vertex 108
property float x
property float y
property float z
property uchar red
property uchar green
property uchar blue
end_header
0.10133087635 0.0680371969938 0.217865839601 0 0 255
0.0908338651061 0.0672673285007 0.224234730005 0 0 255
-0.0152748133987 0.174079418182 0.116848543286 0 0 255
-0.0290694590658 0.171524077654 0.147757723927 0 0 255
0.11168128252 0.0680209547281 0.237207636237 0 0 255
0.0907692685723 0.0671576857567 0.225805729628 0 0 255
0.0938668176532 0.0679979771376 0.214973852038 0 0 255
0.0913112089038 0.0676644220948 0.218658089638 0 0 255
0.0995779335499 0.068040728569 0.217000648379 0 0 255
-0.03072732687 0.171962305903 0.12628929317 0 0 255
0.0961969047785 0.0676265209913 0.235779494047 0 0 255
0.101165570319 0.0681077465415 0.216758981347 0 0 255
0.0163247399032 0.174467384815 0.0972514748573 0 0 255
0.0444814674556 0.174183025956 0.128773584962 0 0 255
0.0344510748982 0.175221666694 0.123251892626 0 0 255
0.114624626935 0.0684137716889 0.232838079333 0 0 255
0.149948105216 0.0688278526068 0.214588165283 0 0 255
0.107943512499 0.0681337639689 0.233825445175 0 0 255
0.0690040737391 0.0672163963318 0.214845374227 0 0 255
0.132202595472 0.0682109296322 0.215359151363 0 0 255
0.0441083870828 0.174903154373 0.118085250258 0 0 255
0.0586072653532 0.0668589472771 0.229538872838 0 0 255
0.0446812845767 0.17437979579 0.12599311769 0 0 255
0.0569435730577 0.0667472556233 0.230397447944 0 0 255
0.107433617115 0.0674446672201 0.215050533414 0 0 255
-0.00185692484956 0.174432516098 0.16082149744 0 0 255
0.0557971000671 0.0667367726564 0.230018347502 0 0 255
-0.0159711558372 0.174233943224 0.157169297338 0 0 255
-0.0150660434738 0.201063930988 0.0518269129097 0 0 255
0.112780503929 0.0675130113959 0.216534584761 0 0 255
0.044091835618 0.174982219934 0.131223171949 0 0 255
0.0436206832528 0.175089672208 0.115135520697 0 0 255
-0.0141613380983 0.174078628421 0.117376975715 0 0 255
0.112778037786 0.0684607550502 0.231294944882 0 0 255
-0.0066815209575 0.174471482635 0.115112774074 0 0 255
0.10475089401 0.0678189620376 0.236940175295 0 0 255
0.10672146827 0.0676189213991 0.226475656033 0 0 255
0.129530236125 0.0681189075112 0.229762464762 0 0 255
-0.00883068982512 0.173498228192 0.156926453114 0 0 255
0.147720515728 0.068667113781 0.215901300311 0 0 255
0.101555667818 0.0673543661833 0.227940753102 0 0 255
0.133343890309 0.0688902437687 0.220269903541 0 0 255
0.0786359459162 0.067144908011 0.220360174775 0 0 255
0.114334829152 0.0675617158413 0.216544926167 0 0 255
0.106735751033 0.0682924315333 0.216647922993 0 0 255
-0.014466740191 0.174294248223 0.156987115741 0 0 255
0.0324044302106 0.174174249172 0.123295746744 0 0 255
0.128726303577 0.0680127218366 0.230939775705 0 0 255
-0.0296812150627 0.173809424043 0.0998037680984 0 0 255
0.100764811039 0.0681664571166 0.230015844107 0 0 255
-0.00917262583971 0.174374610186 0.158271282911 0 0 255
0.0587293915451 0.0667685866356 0.216614887118 0 0 255
-0.0290593374521 0.17451633513 0.104070395231 0 0 255
0.0566121190786 0.0668709129095 0.214137941599 0 0 255
-0.00157808244694 0.178462788463 0.0878017470241 0 0 255
0.0773634240031 0.0668629780412 0.223886221647 0 0 255
0.146655231714 0.0686883404851 0.215096801519 0 0 255
0.130952581763 0.0682480484247 0.228537037969 0 0 255
0.0562458671629 0.0671517252922 0.224167689681 0 0 255
0.106648914516 0.0680871531367 0.233905136585 0 0 255
0.0251314342022 0.20035803318 0.0664932057261 0 0 255
0.04997170344 0.182011425495 0.0885142758489 0 0 255
0.0352299064398 0.174677893519 0.145853430033 0 0 255
0.0541223660111 0.0668448060751 0.227663487196 0 0 255
0.054271671921 0.066648028791 0.216305956244 0 0 255
0.0450950600207 0.174973025918 0.131823286414 0 0 255
0.136135861278 0.0683287978172 0.21546381712 0 0 255
0.140119507909 0.0684513524175 0.215523421764 0 0 255
0.10846875608 0.0675494298339 0.21400128305 0 0 255
0.10950165242 0.0680681839585 0.221206218004 0 0 255
-0.00979632884264 0.173525556922 0.156079128385 0 0 255
0.110202208161 0.0678941607475 0.238372519612 0 0 255
-0.00194925267715 0.173508182168 0.159975484014 0 0 255
0.112324781716 0.0676517486572 0.214297249913 0 0 255
0.0377260372043 0.174197986722 0.0968192070723 0 0 255
0.0788161158562 0.067255191505 0.218833506107 0 0 255
0.0146637661383 0.174276977777 0.0992608591914 0 0 255
0.0137871289626 0.200244545937 0.0628845840693 0 0 255
0.128147035837 0.0681460052729 0.214424595237 0 0 255
0.0655944719911 0.0670901536942 0.215106040239 0 0 255
0.0147961778566 0.174816846848 0.0914392396808 0 0 255
0.0601862408221 0.0669001862407 0.229669585824 0 0 255
0.0188283137977 0.174886822701 0.0922891646624 0 0 255
0.1192150563 0.0677229315042 0.230756253004 0 0 255
0.0501134842634 0.156305298209 0.120732076466 0 0 255
0.149784788489 0.0685077831149 0.219185948372 0 0 255
0.111948117614 0.0679970905185 0.22337988019 0 0 255
0.0398230776191 0.176729172468 0.0894331485033 0 0 255
0.0710108876228 0.0671287998557 0.21705596149 0 0 255
0.129477217793 0.0680477097631 0.216477349401 0 0 255
0.0653145089746 0.0674041807652 0.224690869451 0 0 255
0.115267619491 0.0676997825503 0.214961871505 0 0 255
0.112805992365 0.0678941085935 0.225281760097 0 0 255
-0.000834492500871 0.177437901497 0.0888120383024 0 0 255
-0.0548020787537 0.174425378442 0.122049279511 0 0 255
0.107775218785 0.0675294548273 0.228271141648 0 0 255
0.132713600993 0.0679507404566 0.219395577908 0 0 255
0.111922994256 0.0678068250418 0.226146399975 0 0 255
-0.0354757905006 0.174037009478 0.108090870082 0 0 255
0.122294031084 0.0679899826646 0.213986009359 0 0 255
0.115651458502 0.0676170364022 0.216348275542 0 0 255
-0.0616252869368 0.0763289108872 -0.221951201558 0 0 255
0.0347347892821 0.174486219883 0.148422405124 0 0 255
0.131744399667 0.0684404522181 0.226095125079 0 0 255
-0.027307074517 0.176917642355 0.169921085238 0 0 255
0.105523116887 0.0686296224594 0.239761605859 0 0 255
0.0440320745111 0.174708232284 0.149496376514 0 0 255
0.0322020277381 0.172665625811 0.145230427384 0 0 255
