ply
format ascii 1.0
comment https://github.com/EricCJoyce
element vertex 775
property float x
property float y
property float z
property uchar red
property uchar green
property uchar blue
end_header
-0.512196242809 -0.0398941338062 0.958954751492 0 0 255
-0.512593150139 -0.0391905121505 0.943719625473 0 0 255
-0.513553142548 -0.0432354621589 0.946608126163 0 0 255
-0.557706475258 -0.0928191766143 0.918480753899 0 0 255
-0.529936909676 -0.0415002405643 0.908673465252 0 0 255
-0.531572699547 -0.044125020504 0.965432882309 0 0 255
-0.52849060297 -0.0399624295533 0.960048735142 0 0 255
-0.535640239716 -0.049734365195 0.91748213768 0 0 255
-0.555012226105 -0.0962237790227 0.992216825485 0 0 255
-0.559174716473 -0.0821464210749 0.941351354122 0 0 255
-0.0683225616813 -0.0240636542439 0.457618743181 0 0 255
-0.547511696815 -0.0660412535071 0.931596755981 0 0 255
0.067819930613 -0.0698678568006 -0.748080968857 0 0 255
-0.553099155426 -0.0744057819247 0.943230032921 0 0 255
-0.023443704471 -0.0243966113776 0.465880960226 0 0 255
0.0542660430074 -0.0303124729544 0.341871649027 0 0 255
-0.551814138889 -0.0752009451389 0.960466980934 0 0 255
-0.539484381676 -0.0570727549493 0.991569757462 0 0 255
-0.513985097408 -0.041868660599 0.91702157259 0 0 255
-0.511380136013 -0.0404749028385 0.971541285515 0 0 255
-0.539801597595 -0.0532384961843 0.90859234333 0 0 255
-0.541129469872 -0.0513711310923 0.952771008015 0 0 255
0.474378973246 -0.0316804610193 0.127517417073 0 0 255
-0.502628147602 -0.0374191217124 0.905623078346 0 0 255
-0.556067585945 -0.0959941446781 0.987222969532 0 0 255
-0.53621339798 -0.0534217394888 0.997260153294 0 0 255
-0.150783732533 -0.0354016721249 -0.652868449688 0 0 255
-0.53675532341 -0.0530670173466 0.989571511745 0 0 255
-0.144081160426 -0.0373411737382 -0.526123344898 0 0 255
-0.565120100975 -0.0982993021607 0.952273190022 0 0 255
-0.0347143225372 -0.0244112778455 0.465932816267 0 0 255
-0.079016380012 -0.0348507873714 -1.00157058239 0 0 255
-0.125793248415 -0.0353798493743 -0.652751922607 0 0 255
0.0600062645972 -0.0581174232066 -0.579443752766 0 0 255
0.0633499398828 -0.0658766925335 -0.749933600426 0 0 255
-0.506765246391 -0.0377997644246 0.913762450218 0 0 255
-0.538621604443 -0.0565120987594 -0.543667197227 0 0 255
-0.118692412972 -0.0355002805591 -0.649978578091 0 0 255
0.0427549257874 -0.0266465488821 0.177655026317 0 0 255
-0.558202564716 -0.0925696119666 0.913068771362 0 0 255
-0.0720720589161 -0.0248358920217 0.474240928888 0 0 255
-0.514404296875 -0.0419388376176 0.918530285358 0 0 255
-0.0701773539186 -0.0246209651232 0.469634741545 0 0 255
-0.50688880682 -0.0378642454743 0.91515481472 0 0 255
-0.54449903965 -0.0616595372558 0.921469390392 0 0 255
0.0490243174136 -0.0305530168116 0.177717149258 0 0 255
-0.121435150504 -0.0267459284514 0.514409422874 0 0 255
0.0602032318711 -0.0381401367486 0.342159122229 0 0 255
-0.126929208636 -0.0332854688168 -0.528863072395 0 0 255
0.066256865859 -0.0618221946061 -0.583746552467 0 0 255
0.0347275063396 -0.0263342838734 0.339944899082 0 0 255
-0.162231951952 -0.0321635641158 -0.30011767149 0 0 255
-0.510276436806 -0.040138579905 0.964289605618 0 0 255
-0.510111391544 -0.0375025719404 0.991870641708 0 0 255
0.0684129074216 -0.057325810194 -0.427139371634 0 0 255
-0.566905498505 -0.111794695258 0.990405201912 0 0 255
-0.565559923649 -0.116086818278 0.998696625233 0 0 255
-0.452483505011 -0.0648873522878 0.908866286278 0 0 255
-0.139996349812 -0.029746176675 -0.182667776942 0 0 255
-0.158903479576 -0.0347200036049 -0.413956254721 0 0 255
-0.161755219102 -0.0373306423426 -0.526767671108 0 0 255
-0.158501312137 -0.0374270714819 -0.524604380131 0 0 255
-0.128358051181 -0.0349028594792 -0.409279733896 0 0 255
0.0726332813501 -0.0657173097134 -0.583927512169 0 0 255
-0.161017730832 -0.0322228483856 -0.298806190491 0 0 255
-0.158131495118 -0.029677964747 -0.184571102262 0 0 255
0.0670408234 -0.0572750680149 -0.428269684315 0 0 255
-0.557548999786 -0.0819973126054 0.938163161278 0 0 255
0.0371003672481 -0.0392313711345 -0.734806716442 0 0 255
-0.537521898746 -0.0469283536077 0.941336274147 0 0 255
-0.162349566817 -0.0349226482213 -0.409652382135 0 0 255
-0.159269422293 -0.0348310098052 -0.411562770605 0 0 255
0.0692684873939 -0.0570482984185 -0.433124303818 0 0 255
0.0674856901169 -0.057332765311 -0.257774621248 0 0 255
-0.134507670999 -0.0322488211095 -0.297619581223 0 0 255
0.0693746358156 -0.0616475306451 -0.587452709675 0 0 255
0.0716093555093 -0.0700254365802 -0.744581878185 0 0 255
0.360757112503 -0.0238698329777 0.12506146729 0 0 255
0.0385349616408 -0.0265249945223 -0.248165085912 0 0 255
-0.449887603521 -0.0648775845766 0.908716201782 0 0 255
-0.141795560718 -0.0321927405894 -0.299004822969 0 0 255
0.0412100441754 -0.0302723757923 -0.420866250992 0 0 255
-0.128097593784 -0.0321939699352 -0.298655509949 0 0 255
-0.560244679451 -0.0963370651007 0.909926891327 0 0 255
0.0423793420196 -0.0299811121076 -0.257905244827 0 0 255
-0.137555122375 -0.0348076932132 -0.411555796862 0 0 255
0.0472808070481 -0.0340303592384 -0.424021810293 0 0 255
-0.0810030698776 -0.0254621095955 0.487581282854 0 0 255
-0.0753425806761 -0.0362803973258 -1.13978457451 0 0 255
-0.163478448987 -0.0373799093068 -0.5257422328 0 0 255
-0.124006263912 -0.0348833501339 -0.409599363804 0 0 255
-0.567523360252 -0.121107108891 -0.585076272488 0 0 255
0.0646001547575 -0.0532013997436 -0.26262357831 0 0 255
-0.554388403893 -0.09596247226 0.986577153206 0 0 255
-0.558267891407 -0.088970400393 0.835183441639 0 0 255
-0.122570514679 -0.0297987647355 -0.181119278073 0 0 255
-0.532234668732 -0.0448432862759 0.980959832668 0 0 255
-0.0944636240602 -0.0267698783427 0.515563130379 0 0 255
0.0335436612368 -0.0262022335082 -0.255266964436 0 0 255
-0.127991750836 -0.0298053044826 -0.181105479598 0 0 255
-0.124331027269 -0.0332986712456 -0.528516173363 0 0 255
0.0438349470496 -0.0353560596704 -0.564652144909 0 0 255
-0.165077865124 -0.0324148125947 -0.294747889042 0 0 255
0.0547658987343 -0.0518565624952 -1.13813710213 0 0 255
0.475956082344 -0.0317067541182 0.0435054339468 0 0 255
-0.498365521431 -0.037141777575 0.8997220397 0 0 255
-0.160927563906 -0.0325788222253 -0.291101098061 0 0 255
0.0452759675682 -0.0352447070181 -0.567027747631 0 0 255
-0.0758450627327 -0.0361926816404 -1.14169454575 0 0 255
-0.454924702644 -0.0472648739815 0.865946233273 0 0 255
0.036475636065 -0.0299836155027 -0.257990151644 0 0 255
-0.560667574406 -0.0928702652454 0.834898412228 0 0 255
-0.0772911533713 -0.0255189649761 0.488899081945 0 0 255
-0.122347816825 -0.0296304021031 -0.184757217765 0 0 255
-0.073861412704 -0.0362912081182 -1.13951587677 0 0 255
-0.162047445774 -0.0294358730316 -0.189901977777 0 0 255
-0.161754965782 -0.0375609621406 -0.521783709526 0 0 255
-0.128226175904 -0.0325456447899 -0.291048616171 0 0 255
-0.160930022597 -0.0345196314156 -0.418339878321 0 0 255
0.448159456253 -0.0288120098412 -0.189025312662 0 0 255
-0.553778350353 -0.0789628922939 0.957207798958 0 0 255
-0.531464993954 -0.0496491789818 1.00035524368 0 0 255
0.0706299841404 -0.0569026693702 -0.436243534088 0 0 255
0.256939888 -0.0555532723665 0.385126888752 0 0 255
0.349675565958 -0.0177983921021 -0.175816342235 0 0 255
-0.544701099396 -0.0552291795611 0.951553463936 0 0 255
-0.480003833771 -0.03515220806 0.772484064102 0 0 255
-0.0825079977512 -0.0263285972178 0.506295859814 0 0 255
-0.0793553218246 -0.027284514159 0.442437291145 0 0 255
0.0335696674883 -0.0262615215033 -0.25398337841 0 0 255
0.452526956797 -0.0290735568851 -0.183262780309 0 0 255
0.474715590477 -0.0316089950502 0.0413607880473 0 0 255
-0.0857051834464 -0.0349197164178 -1.00023651123 0 0 255
0.443486601114 -0.0277636740357 0.126651823521 0 0 255
0.0373684987426 -0.0393603816628 -0.732008695602 0 0 255
0.00674032745883 -0.047301735729 -1.15321290493 0 0 255
-0.00992348324507 -0.025217436254 0.483961433172 0 0 255
0.0706263035536 -0.0575313307345 -0.253403812647 0 0 255
-0.455729782581 -0.0555303804576 0.96016740799 0 0 255
0.0672370791435 -0.0541463308036 0.180976331234 0 0 255
-0.458731174469 -0.051943987608 0.88249027729 0 0 255
0.0295498501509 -0.0228317026049 0.348648160696 0 0 255
-0.122363582253 -0.0278831832111 0.62361484766 0 0 255
-0.123554952443 -0.0351008996367 -0.404881209135 0 0 255
-0.121826075017 -0.0346921235323 -0.413686007261 0 0 255
-0.521946430206 -0.0461871065199 -0.682079970837 0 0 255
-0.563726663589 -0.113575920463 -0.663337051868 0 0 255
-0.564967811108 -0.101133406162 1.09822225571 0 0 255
-0.392363458872 -0.034776289016 0.766414344311 0 0 255
0.360188007355 -0.023441368714 0.115776494145 0 0 255
-0.39509961009 -0.0352467224002 0.776529550552 0 0 255
0.255715340376 -0.055576145649 0.385592937469 0 0 255
-0.163337945938 -0.0299066286534 -0.179745674133 0 0 255
0.256773024797 -0.0540071129799 0.267047315836 0 0 255
0.349074751139 -0.0296814609319 -0.257163643837 0 0 255
0.137995660305 -0.0517798997462 0.21605399251 0 0 255
-0.455756723881 -0.0603720247746 0.895699560642 0 0 255
-0.554945468903 -0.0819573774934 0.937360286713 0 0 255
0.0445062480867 -0.0389853492379 -0.993810117245 0 0 255
-0.0868174210191 -0.0266696270555 0.513573944569 0 0 255
-0.51734149456 -0.0426015853882 -0.674940943718 0 0 255
-0.53229868412 -0.0433756113052 0.949199140072 0 0 255
-0.47164529562 -0.0384804643691 0.760083436966 0 0 255
0.0386117175221 -0.0387620553374 -0.744926691055 0 0 255
-0.0530884154141 -0.0414446853101 -1.11212778091 0 0 255
-0.530542314053 -0.0445773862302 0.975245893002 0 0 255
0.000832593708765 -0.0434148721397 -1.15284228325 0 0 255
0.0353308282793 -0.0298568159342 -0.260760992765 0 0 255
0.361869305372 -0.0243504978716 0.0508707799017 0 0 255
0.0341058708727 -0.0229192897677 0.350650817156 0 0 255
0.354533165693 -0.0240241307765 0.0436356365681 0 0 255
-0.0837620645761 -0.0349914729595 -0.998638033867 0 0 255
-0.468555897474 -0.0382802225649 0.755823194981 0 0 255
-0.566395699978 -0.105326741934 1.10431075096 0 0 255
-0.564454853535 -0.113492406905 -0.665161311626 0 0 255
0.352013677359 -0.0118627566844 -0.0503489747643 0 0 255
0.261103361845 -0.0587914548814 0.116824090481 0 0 255
-0.117530554533 -0.0238435380161 0.620932400227 0 0 255
0.37633472681 -0.025153208524 0.0685815289617 0 0 255
0.283081948757 -0.0461120456457 -0.495501607656 0 0 255
-0.0531163550913 -0.0414958707988 -1.11102080345 0 0 255
-0.455058336258 -0.064236626029 0.894724488258 0 0 255
-0.126688927412 -0.0300499722362 -0.17578035593 0 0 255
-0.530768454075 -0.0435492061079 0.95299166441 0 0 255
0.368204176426 -0.0180792398751 -0.169302538037 0 0 255
0.340966165066 -0.0269705075771 -0.231399282813 0 0 255
0.0455805324018 -0.060418676585 -1.12231302261 0 0 255
0.357926428318 -0.0241525657475 0.131112888455 0 0 255
-0.078421600163 -0.0413038991392 -1.11577117443 0 0 255
-0.528180837631 -0.0444085039198 0.971647024155 0 0 255
0.0433915071189 -0.06478074193 -1.11259150505 0 0 255
-0.522294104099 -0.0467722862959 -0.669425427914 0 0 255
0.356486618519 -0.0242408607155 0.0483715161681 0 0 255
0.28359028697 -0.0425251796842 -0.488488167524 0 0 255
0.358495295048 -0.0253881756216 0.0732457339764 0 0 255
-0.467736631632 -0.0383527688682 0.75741225481 0 0 255
-0.0739737600088 -0.0378552153707 -1.10567474365 0 0 255
0.0271873176098 -0.0529005974531 -1.11619484425 0 0 255
-0.47965285182 -0.0363829396665 0.799124240875 0 0 255
0.25903943181 -0.0586033388972 0.11270480603 0 0 255
-0.466641664505 -0.0385349355638 0.761380016804 0 0 255
-0.129458025098 -0.0316443778574 -0.310580193996 0 0 255
0.356802076101 -0.024109877646 0.0455445945263 0 0 255
0.352252274752 -0.024910453707 -0.0218569152057 0 0 255
0.27841052413 -0.0435763783753 0.295699477196 0 0 255
0.0384686328471 -0.0304718147963 -0.416615158319 0 0 255
-0.54276317358 -0.0545850917697 0.853043615818 0 0 255
0.462012141943 -0.0338259637356 -0.164819449186 0 0 255
0.0471478179097 -0.0345263183117 -0.413292825222 0 0 255
0.356047153473 -0.0203099362552 -0.0367005877197 0 0 255
-0.0796429887414 -0.0265732277185 0.511656999588 0 0 255
-0.0551862902939 -0.0346927903593 -1.00442802906 0 0 255
0.0269390940666 -0.0225796625018 0.343132734299 0 0 255
0.0333663858473 -0.0269153639674 0.18325074017 0 0 255
-0.0233689546585 -0.0390612818301 -1.16300237179 0 0 255
-0.0785274207592 -0.0377644784749 -1.10774552822 0 0 255
-0.0190421044827 -0.0271967370063 0.611194968224 0 0 255
0.134740665555 -0.0552435293794 0.375545293093 0 0 255
-0.556317150593 -0.0918184742332 0.896859228611 0 0 255
-0.0786513760686 -0.0248034987599 0.558003008366 0 0 255
0.356616914272 -0.0213872417808 -0.182611346245 0 0 255
0.370731621981 -0.0239552818239 0.127145498991 0 0 255
-0.464332550764 -0.0368884243071 0.810423433781 0 0 255
-0.0770218670368 -0.0247528534383 0.556945502758 0 0 255
0.0299355406314 -0.0260127913207 0.332875162363 0 0 255
0.458862602711 -0.0327017046511 -0.189221635461 0 0 255
-0.118852227926 -0.0254272520542 0.57055336237 0 0 255
0.04464642331 -0.0296151991934 -0.265769869089 0 0 255
0.460040837526 -0.0328218452632 0.0672600343823 0 0 255
0.00571765517816 -0.0438351668417 -1.14363241196 0 0 255
0.452388226986 -0.031926728785 0.0477102547884 0 0 255
0.45467042923 -0.0318692289293 0.0465197749436 0 0 255
-0.0768733471632 -0.0411549434066 -1.11895787716 0 0 255
-0.458469390869 -0.0517318993807 0.87790709734 0 0 255
-0.565277040005 -0.113770693541 -0.659158825874 0 0 255
0.465885013342 -0.0328033789992 0.0669981464744 0 0 255
-0.484586119652 -0.0331929735839 0.814598083496 0 0 255
0.0380628444254 -0.0300807096064 -0.425087869167 0 0 255
0.277389019728 -0.0428061112761 0.27900749445 0 0 255
-0.051017884165 -0.0414520613849 -1.11191928387 0 0 255
-0.465309530497 -0.0503275766969 0.931975722313 0 0 255
0.256000757217 -0.0558667443693 0.222651869059 0 0 255
0.361100286245 -0.0202380660921 -0.0381367318332 0 0 255
-0.126444071531 -0.0262686815113 0.588582277298 0 0 255
-0.133836880326 -0.0267846696079 0.514955580235 0 0 255
0.0667557045817 -0.0538775548339 0.175148889422 0 0 255
0.135459259152 -0.0552766695619 0.376279294491 0 0 255
-0.53653305769 -0.0500005073845 0.923220217228 0 0 255
-0.512449324131 -0.0414594560862 0.992821037769 0 0 255
-0.0592519715428 -0.0345475934446 -1.00766575336 0 0 255
0.477744877338 -0.0317955799401 0.13008774817 0 0 255
-0.0104869361967 -0.0252893008292 0.485503256321 0 0 255
-0.457607358694 -0.0518993809819 0.88155156374 0 0 255
-0.0568238198757 -0.0397098138928 -1.14975690842 0 0 255
0.440216273069 -0.0277040526271 0.12528462708 0 0 255
0.3592184484 -0.0241219550371 0.130480915308 0 0 255
-0.53540033102 -0.0503464639187 1.09996914864 0 0 255
-0.436413109303 -0.0594068095088 0.875268876553 0 0 255
-0.458122491837 -0.0536653101444 0.919752597809 0 0 255
-0.125123560429 -0.0318587198853 -0.305839955807 0 0 255
0.0470076873899 -0.0646910369396 -1.11444723606 0 0 255
-0.451750665903 -0.0511890389025 0.86631834507 0 0 255
0.0699467658997 -0.0568650402129 -0.267837792635 0 0 255
-0.514977574348 -0.0354652516544 -0.406218886375 0 0 255
0.00598723022267 -0.0437201783061 -1.14611434937 0 0 255
-0.562016308308 -0.112637080252 -0.59899443388 0 0 255
-0.120265185833 -0.0270996764302 0.606709837914 0 0 255
0.034236703068 -0.0465831980109 -1.16811358929 0 0 255
0.0121044488624 -0.0465005226433 -1.17042410374 0 0 255
-0.0728035122156 -0.0403784699738 -1.13566422462 0 0 255
-0.499338835478 -0.034299287945 0.922808229923 0 0 255
-0.497581005096 -0.0335009172559 0.905573606491 0 0 255
-0.520899116993 -0.0462399274111 -0.680912315845 0 0 255
0.0416950061917 -0.0390434637666 -0.99261879921 0 0 255
0.275940984488 -0.0469406694174 0.368441551924 0 0 255
-0.53096818924 -0.0451651513577 0.903336524963 0 0 255
-0.536190509796 -0.0536650717258 1.00252616405 0 0 255
-0.562229990959 -0.0968717485666 0.836832106113 0 0 255
-0.491193026304 -0.0361741408706 1.04818832874 0 0 255
0.284588962793 -0.0469363592565 -0.646864831448 0 0 255
0.403472810984 -0.011833823286 -0.0497626885772 0 0 255
0.282036811113 -0.0413774289191 -0.344124913216 0 0 255
-0.396856278181 -0.0348738208413 0.768419027328 0 0 255
-0.529496073723 -0.0410786084831 0.814942061901 0 0 255
-0.459555745125 -0.0534376315773 0.914792060852 0 0 255
-0.393243938684 -0.037054374814 0.815689384937 0 0 255
-0.514690518379 -0.0426398999989 -0.674049437046 0 0 255
-0.553157925606 -0.0763165056705 0.815339028835 0 0 255
0.406008988619 -0.0201322771609 -0.0393678359687 0 0 255
-0.561365365982 -0.109465360641 -0.667612195015 0 0 255
-0.00976776890457 -0.0235205739737 0.447246491909 0 0 255
-0.547197401524 -0.0857497602701 1.01960670948 0 0 255
-0.131056427956 -0.0271317716688 0.522532045841 0 0 255
-0.0220137573779 -0.039050694555 -1.16319942474 0 0 255
0.356460660696 -0.0254171267152 0.073824249208 0 0 255
-0.118651151657 -0.0253045987338 0.567903995514 0 0 255
-0.512532413006 -0.0354452989995 -0.406593084335 0 0 255
-0.557625412941 -0.089351773262 1.09730529785 0 0 255
-0.0207943413407 -0.0399400368333 -1.14392614365 0 0 255
0.285000920296 -0.047104306519 -0.643220841885 0 0 255
0.281639665365 -0.0411338880658 -0.349404335022 0 0 255
0.269723951817 -0.0520891882479 0.225850299001 0 0 255
-0.389884710312 -0.0350873954594 0.773204743862 0 0 255
-0.46388977766 -0.043272189796 0.863954842091 0 0 255
0.358245879412 -0.0261337682605 0.0893738269806 0 0 255
-0.541168749332 -0.0510671958327 0.946193158627 0 0 255
0.283194243908 -0.0430165939033 -0.477863699198 0 0 255
-0.486059457064 -0.033199891448 0.814713060856 0 0 255
0.0451394356787 -0.0385920777917 -0.579214930534 0 0 255
-0.138801470399 -0.0293723698705 -0.190728440881 0 0 255
0.067232131958 -0.0534473881125 0.335087805986 0 0 255
-0.457139372826 -0.0588575340807 0.947512805462 0 0 255
-0.504023134708 -0.039590626955 0.95257973671 0 0 255
-0.124316431582 -0.0335641168058 -0.522771775723 0 0 255
0.366952210665 -0.0240323729813 0.12872466445 0 0 255
-0.513922810555 -0.0453036278486 0.991352677345 0 0 255
0.263076633215 -0.0549792163074 0.372849404812 0 0 255
-0.555537343025 -0.087892472744 0.896540462971 0 0 255
-0.397237479687 -0.037190951407 0.818550646305 0 0 255
0.0346517972648 -0.0611290819943 -1.10719799995 0 0 255
0.287074178457 -0.0386430695653 -0.403175324202 0 0 255
0.282945513725 -0.0397957824171 0.38323366642 0 0 255
-0.161490753293 -0.0300042424351 -0.177589848638 0 0 255
0.352916240692 -0.0116922818124 -0.0540166422725 0 0 255
0.0391186289489 -0.0610702708364 -1.10836541653 0 0 255
-0.526002407074 -0.0503985024989 -0.675662755966 0 0 255
0.290221512318 -0.0374287441373 -0.344760119915 0 0 255
0.282045096159 -0.0384231433272 0.268891662359 0 0 255
-0.0832326710224 -0.024805366993 0.557935535908 0 0 255
-0.0619486682117 -0.034510679543 -1.00852811337 0 0 255
0.0501989461482 -0.0264061465859 0.341864436865 0 0 255
-0.120152689517 -0.02513618581 0.564224302769 0 0 255
-0.548744916916 -0.0651686191559 0.828066587448 0 0 255
0.360486984253 -0.0271804835647 0.0274585541338 0 0 255
0.0648424774408 -0.0535844713449 0.168761745095 0 0 255
0.0542440600693 -0.0337149761617 0.330880194902 0 0 255
0.282982379198 -0.0368135161698 0.234082877636 0 0 255
-0.0220752134919 -0.0399310663342 -1.14415049553 0 0 255
0.341150194407 -0.0272401235998 -0.225560665131 0 0 255
0.258821606636 -0.0584273822606 0.108892090619 0 0 255
-0.0606078542769 -0.0344106033444 -1.01066207886 0 0 255
-0.144744694233 -0.0506267771125 0.946002662182 0 0 255
0.280079901218 -0.0426399819553 -0.31685051322 0 0 255
0.0498852841556 -0.0335042737424 -0.266108363867 0 0 255
0.0328414738178 -0.0477144643664 -1.14366686344 0 0 255
-0.444860428572 -0.0621609166265 0.934666335583 0 0 255
0.338158845901 -0.0258663259447 -0.255358934402 0 0 255
0.136716887355 -0.055256344378 0.375869095325 0 0 255
-0.395992070436 -0.0378885641694 0.833675742149 0 0 255
0.0907405465841 -0.0703132078052 0.785221219063 0 0 255
-0.069935284555 -0.026146767661 0.502657473087 0 0 255
-0.555794358253 -0.102587990463 -0.393210798502 0 0 255
-0.529264569283 -0.0397736467421 0.871327280998 0 0 255
0.402333378792 -0.0201596803963 -0.0388614498079 0 0 255
0.143054455519 -0.0538273155689 -0.247230917215 0 0 255
0.0208652541041 -0.0272870976478 0.614090502262 0 0 255
0.274874210358 -0.0497777834535 -0.247135475278 0 0 255
0.27807828784 -0.0399082936347 0.216317504644 0 0 255
-0.0729401931167 -0.0238795373589 0.622761905193 0 0 255
0.283168524504 -0.0390245169401 0.11269517988 0 0 255
-0.476667791605 -0.0348021090031 0.849604845047 0 0 255
-0.0640036761761 -0.0260782819241 0.585933327675 0 0 255
0.48634031415 -0.0335271321237 -0.255330830812 0 0 255
-0.473410606384 -0.0447324961424 0.979948401451 0 0 255
-0.0492152944207 -0.039977915585 -1.14377605915 0 0 255
0.0216010119766 -0.0274350047112 0.617308437824 0 0 255
-0.0473900847137 -0.026224533096 0.589489459991 0 0 255
-0.19683624804 -0.0357166603208 0.875987768173 0 0 255
0.457592993975 -0.0308234971017 0.108577981591 0 0 255
0.41793218255 -0.0118045751005 -0.0500549226999 0 0 255
0.28549516201 -0.0356926359236 0.379123330116 0 0 255
0.281725972891 -0.0391356498003 0.115066029131 0 0 255
-0.0741825476289 -0.0380486622453 -1.10149359703 0 0 255
-0.488683789968 -0.0358758196235 1.0417920351 0 0 255
-0.509146153927 -0.0354589037597 -0.406218886375 0 0 255
-0.390012294054 -0.0378708541393 0.833433389664 0 0 255
0.145388230681 -0.0636783912778 -0.710951924324 0 0 255
-0.0729724764824 -0.0411498993635 -1.11897516251 0 0 255
-0.185949981213 -0.0374801941216 0.91440564394 0 0 255
0.403452694416 -0.0280617494136 0.132158696651 0 0 255
-0.202153608203 -0.0548189021647 0.781509757042 0 0 255
-0.184445559978 -0.0375164188445 0.915224909782 0 0 255
0.346980422735 -0.0175986140966 -0.0955848097801 0 0 255
-0.551894545555 -0.0724492892623 0.816303670406 0 0 255
-0.530234277248 -0.0411337018013 0.816116809845 0 0 255
-0.484208345413 -0.0354747213423 1.03321814537 0 0 255
-0.540714144707 -0.0584823898971 -0.670317292213 0 0 255
-0.0485089123249 -0.0400658734143 -1.14185619354 0 0 255
-0.539024114609 -0.0595931187272 1.04611909389 0 0 255
0.280614852905 -0.0410302355886 0.325273185968 0 0 255
-0.549593448639 -0.0645376369357 0.814392745495 0 0 255
0.421628236771 -0.0241651572287 -0.0363499633968 0 0 255
-0.0601011328399 -0.0380527675152 -1.10107302666 0 0 255
-0.394366025925 -0.0349268838763 0.769625842571 0 0 255
0.368568271399 -0.0265184026212 0.0979401767254 0 0 255
0.436115860939 -0.0288818124682 0.0660556107759 0 0 255
-0.470105260611 -0.0476946122944 0.959505736828 0 0 255
-0.439736783504 -0.0385328456759 0.846586763859 0 0 255
-0.53972452879 -0.0553351566195 -0.569161176682 0 0 255
0.42163464427 -0.0289420951158 0.0670188963413 0 0 255
0.0381851382554 -0.0465542823076 -1.1686463356 0 0 255
-0.0845169126987 -0.0251911915839 0.481636077166 0 0 255
-0.45489898324 -0.0466758869588 1.02243769169 0 0 255
-0.209707081318 -0.0628073886037 0.784959495068 0 0 255
-0.523902833462 -0.0441231802106 -0.557551503181 0 0 255
-0.0712462961674 -0.0260233692825 0.499956339598 0 0 255
0.0366785079241 -0.0357156507671 -0.726275682449 0 0 255
-0.00913443043828 -0.043222848326 -1.15723240376 0 0 255
-0.313664972782 -0.0553381331265 0.790118277073 0 0 255
-0.486941874027 -0.035787820816 1.03992891312 0 0 255
-0.456508666277 -0.0523672997952 0.97632086277 0 0 255
-0.45322701335 -0.0494179278612 0.997194468975 0 0 255
-0.140997111797 -0.0455003865063 0.919778466225 0 0 255
-0.475851714611 -0.0388231687248 0.852018237114 0 0 255
-0.528668582439 -0.0484509393573 -0.548632979393 0 0 255
-0.455128848553 -0.0494411066175 0.997651159763 0 0 255
-0.194575220346 -0.046679995954 0.774805724621 0 0 255
-0.471149414778 -0.0381689034402 0.753353178501 0 0 255
-0.135960385203 -0.0513189695776 0.961188077927 0 0 255
-0.579056560993 -0.132075786591 0.328948974609 0 0 255
0.276064634323 -0.0479077063501 0.389370262623 0 0 255
-0.547853052616 -0.0749617442489 -0.398504912853 0 0 255
-0.528347074986 -0.0399122573435 0.874348342419 0 0 255
0.0384329743683 -0.0228795800358 0.349893480539 0 0 255
-0.494316846132 -0.0341651253402 0.835405290127 0 0 255
0.372308909893 -0.0118535999209 -0.0500689707696 0 0 255
0.143530100584 -0.0629993900657 -0.556452572346 0 0 255
0.283367782831 -0.0475408807397 -0.633812248707 0 0 255
0.0579719431698 -0.0451745167375 -0.26723831892 0 0 255
-0.196643829346 -0.038143850863 0.9285145998 0 0 255
-0.558171153069 -0.0918000116944 0.896416008472 0 0 255
-0.0676870793104 -0.0395529605448 -1.15340697765 0 0 255
-0.554375946522 -0.0968200862408 1.00513541698 0 0 255
0.287524938583 -0.0343490317464 -0.24222971499 0 0 255
-0.370462954044 -0.0367593318224 0.809841573238 0 0 255
-0.537737131119 -0.0501982755959 1.09670746326 0 0 255
0.0494710281491 -0.0473559759557 -1.15103244781 0 0 255
-0.00744620151818 -0.0236403644085 0.44989335537 0 0 255
0.401092886925 -0.0272120311856 0.113715961576 0 0 255
-0.512144327164 -0.0407985560596 0.978526890278 0 0 255
-0.539564073086 -0.053742825985 -0.51899600029 0 0 255
-0.501783311367 -0.0370686948299 0.982678174973 0 0 255
0.279053837061 -0.0407822206616 0.235251456499 0 0 255
-0.441398262978 -0.0460683815181 1.00960993767 0 0 255
0.0483876354992 -0.0473756231368 -1.15063285828 0 0 255
-0.140987545252 -0.0312588773668 -0.403811812401 0 0 255
-0.541288435459 -0.0542538240552 1.09976422787 0 0 255
0.26721405983 -0.0542762726545 -0.234590709209 0 0 255
-0.143132179976 -0.0454869791865 0.919438004494 0 0 255
-0.492754012346 -0.0338652804494 0.828953742981 0 0 255
0.473780721426 -0.0331708416343 -0.178718417883 0 0 255
-0.198986321688 -0.0368993021548 0.901528477669 0 0 255
0.277286708355 -0.0394325070083 0.20600323379 0 0 255
0.456318736076 -0.030765645206 0.107296064496 0 0 255
-0.56317538023 -0.0923532992601 0.823652625084 0 0 255
0.0500457324088 -0.0329831689596 -1.03894340992 0 0 255
-0.449588507414 -0.0467165745795 1.02344334126 0 0 255
-0.459729701281 -0.0492035485804 1.07702040672 0 0 255
-0.202368885279 -0.0473513640463 0.958386063576 0 0 255
0.28139179945 -0.0400317683816 0.219067454338 0 0 255
-0.480075746775 -0.0419859737158 1.00497710705 0 0 255
-0.545900225639 -0.0630105733871 -0.403217405081 0 0 255
-0.170947343111 -0.0311689581722 0.778189480305 0 0 255
-0.184362798929 -0.0323250479996 0.887508273125 0 0 255
0.401002168655 -0.0150617146865 -0.149208322167 0 0 255
0.26902988553 -0.055328104645 0.380539268255 0 0 255
-0.545076429844 -0.063088722527 -0.401506900787 0 0 255
-0.500544667244 -0.0348163731396 1.01858711243 0 0 255
0.266559332609 -0.0607035495341 -0.349379688501 0 0 255
0.339108616114 -0.0259963292629 -0.252523362637 0 0 255
-0.183430701494 -0.0323481075466 0.888029277325 0 0 255
-0.0829560235143 -0.0270699709654 0.522328019142 0 0 255
0.394677609205 -0.0279630031437 0.129815176129 0 0 255
-0.527384400368 -0.0402752198279 0.882225215435 0 0 255
-0.0698409751058 -0.0237413551658 0.619844853878 0 0 255
0.143163636327 -0.058503229171 -0.399899929762 0 0 255
0.406681865454 -0.0278553348035 0.127768158913 0 0 255
-0.465846300125 -0.0368542969227 0.809649288654 0 0 255
-0.534298181534 -0.0468502789736 0.85510468483 0 0 255
0.288222014904 -0.0346841402352 0.780454993248 0 0 255
0.273508161306 -0.050490822643 0.783678650856 0 0 255
-0.504903495312 -0.0370507724583 0.897598743439 0 0 255
-0.387537747622 -0.0378906168044 0.833919346333 0 0 255
-0.0534860566258 -0.0392803624272 -1.15897119045 0 0 255
-0.0452953465283 -0.0233557894826 0.442843675613 0 0 255
-0.517562627792 -0.0406165905297 0.889843583107 0 0 255
0.372823745012 -0.020986309275 -0.190905317664 0 0 255
-0.407127171755 -0.0472932420671 0.867686152458 0 0 255
0.278231948614 -0.0464311055839 -0.234857469797 0 0 255
-0.136189669371 -0.0448678210378 0.906203627586 0 0 255
-0.200109228492 -0.0397595763206 -0.221257120371 0 0 255
-0.561169326305 -0.111991889775 1.07942557335 0 0 255
0.0815241709352 -0.066587895155 0.789009690285 0 0 255
0.400440573692 -0.0274129845202 0.118049032986 0 0 255
-0.344848185778 -0.0353507064283 0.864581763744 0 0 255
0.405054330826 -0.0277952458709 0.126429542899 0 0 255
0.34565782547 -0.0217131748796 -0.175816655159 0 0 255
-0.452631801367 -0.0479824617505 1.05076432228 0 0 255
0.283536672592 -0.0524548515677 -0.781328499317 0 0 255
0.401644736528 -0.0281526334584 0.134082764387 0 0 255
-0.530688405037 -0.0423998348415 0.843504071236 0 0 255
-0.54834407568 -0.0857789069414 1.02021026611 0 0 255
-0.0878774449229 -0.0248312149197 0.558385431767 0 0 255
-0.152441039681 -0.0344768315554 -0.41906607151 0 0 255
-0.0538251660764 -0.0262849889696 0.590646088123 0 0 255
-0.527000486851 -0.0457241460681 -0.522980988026 0 0 255
-0.530489325523 -0.0438595786691 -0.394174665213 0 0 255
-0.497665315866 -0.034506611526 0.842715919018 0 0 255
0.28640204668 -0.0344444997609 -0.240190327168 0 0 255
-0.0343226715922 -0.0256572347134 0.577521502972 0 0 255
0.340584158897 -0.0268671568483 -0.233644679189 0 0 255
-0.346493422985 -0.0352984070778 0.86341124773 0 0 255
0.392316609621 -0.0277036800981 0.124148018658 0 0 255
0.441344112158 -0.028038950637 -0.0366780348122 0 0 255
0.349303305149 -0.0145170940086 -0.0775933787227 0 0 255
0.278544068336 -0.0425650589168 -0.233889847994 0 0 255
0.480162769556 -0.0328453779221 -0.185610815883 0 0 255
-0.347114622593 -0.0391704365611 0.862565875053 0 0 255
0.282391786575 -0.0551522262394 -0.807604730129 0 0 255
-0.52681517601 -0.0394475720823 0.864329040051 0 0 255
0.0649229884148 -0.0542851127684 0.18392495811 0 0 255
0.1478112638 -0.0539568886161 -0.244315013289 0 0 255
0.415518194437 -0.0290044564754 0.0682242512703 0 0 255
-0.520153224468 -0.0381536744535 0.836487233639 0 0 255
-0.545813500881 -0.0650641545653 0.910493314266 0 0 255
0.435080468655 -0.0289934910834 0.0684478655457 0 0 255
-0.472974300385 -0.0481768622994 0.969873666763 0 0 255
-0.0563454665244 -0.0392862893641 -1.15891027451 0 0 255
-0.455336391926 -0.0531608425081 1.07813811302 0 0 255
-0.439421802759 -0.0460719130933 1.00973296165 0 0 255
-0.50798946619 -0.0348543077707 -0.419274508953 0 0 255
-0.16906683147 -0.0307767856866 0.769747555256 0 0 255
-0.51039981842 -0.0436681620777 1.04066371918 0 0 255
0.0611989200115 -0.0460546165705 0.344208776951 0 0 255
-0.185717269778 -0.038704443723 0.940902769566 0 0 255
-0.133270442486 -0.051343947649 0.961791932583 0 0 255
0.39795845747 -0.0275345519185 0.120621174574 0 0 255
0.0032643689774 -0.0470475330949 -1.15879547596 0 0 255
-0.166685700417 -0.0303981956095 0.761611282825 0 0 255
0.413707405329 -0.00758562190458 -0.0568308159709 0 0 255
-0.358844399452 -0.0366321206093 0.807362616062 0 0 255
0.475138902664 -0.0321663320065 0.138049140573 0 0 255
0.408826619387 -0.026902532205 0.107200853527 0 0 255
0.388486891985 -0.0290420688689 0.0684012696147 0 0 255
-0.538695454597 -0.0465848483145 1.10311162472 0 0 255
-0.0964932590723 -0.0269365049899 0.603739023209 0 0 255
-0.461951225996 -0.0369050055742 0.810838401318 0 0 255
-0.0664684921503 -0.039677221328 -1.15068936348 0 0 255
0.481115996838 -0.0342702306807 -0.0701377540827 0 0 255
0.290769010782 -0.0312699601054 -0.224163591862 0 0 255
-0.198791995645 -0.0422384142876 -0.336822330952 0 0 255
-0.183518141508 -0.0386745929718 0.940308690071 0 0 255
-0.139766454697 -0.0540212057531 0.934954345226 0 0 255
-0.551168382168 -0.0747538581491 0.950807571411 0 0 255
-0.104400768876 -0.026969762519 0.604272425175 0 0 255
-0.078261397779 -0.0344277732074 -1.01070642471 0 0 255
-0.197418481112 -0.0422488488257 -0.336564213037 0 0 255
-0.083434484899 -0.0274527687579 0.445982068777 0 0 255
-0.460752099752 -0.0566738806665 0.900175392628 0 0 255
-0.403365403414 -0.0379974395037 0.835857987404 0 0 255
-0.445125102997 -0.0473321229219 1.03686833382 0 0 255
-0.456160753965 -0.0531298927963 1.07744896412 0 0 255
0.477288305759 -0.0312593765557 0.0338559634984 0 0 255
0.461578637362 -0.0331465378404 0.0743223726749 0 0 255
-0.52054131031 -0.0471833199263 1.03187155724 0 0 255
-0.545837819576 -0.063109703362 -0.570307016373 0 0 255
-0.489272594452 -0.0407259948552 0.977495610714 0 0 255
-0.368644714355 -0.0366262719035 0.807005107403 0 0 255
-0.500940561295 -0.0357304289937 1.03835713863 0 0 255
0.290731579065 -0.0358702503145 -0.378472477198 0 0 255
-0.545722484589 -0.0588333383203 -0.408986896276 0 0 255
0.00810372829437 -0.0263335295022 0.593155503273 0 0 255
-0.485106736422 -0.0348827913404 0.851151943207 0 0 255
-0.197028234601 -0.0311487056315 0.861754894257 0 0 255
-0.0565925203264 -0.0394277945161 -1.15585410595 0 0 255
-0.139180004597 -0.0539222806692 0.932827472687 0 0 255
-0.44608733058 -0.0564814731479 1.06559348106 0 0 255
-0.546127319336 -0.0733520910144 1.00521147251 0 0 255
-0.0428586490452 -0.0261416900903 0.587803602219 0 0 255
-0.514190137386 -0.0424868799746 0.930394470692 0 0 255
0.281340450048 -0.0411283448339 0.327413231134 0 0 255
-0.0672400146723 -0.0262899715453 0.505819797516 0 0 255
-0.455866158009 -0.0440285429358 1.04974687099 0 0 255
-0.513940572739 -0.0423019602895 0.926398813725 0 0 255
-0.387851566076 -0.0375482663512 0.826503753662 0 0 255
-0.197778701782 -0.0447911806405 -0.450794965029 0 0 255
-0.527021408081 -0.0403725430369 0.884339749813 0 0 255
-0.499609559774 -0.0373872034252 0.820385456085 0 0 255
0.277087569237 -0.0444505400956 0.314584374428 0 0 255
0.379326194525 -0.0178251825273 -0.174538061023 0 0 255
0.400276988745 -0.0149331009015 -0.152008473873 0 0 255
0.382772833109 -0.0253497809172 0.0729868784547 0 0 255
0.291002243757 -0.0428285114467 -0.650985777378 0 0 255
0.491228699684 -0.0331335663795 -0.263732075691 0 0 255
-0.520305335522 -0.0380872264504 0.83504575491 0 0 255
-0.508466005325 -0.0409341864288 0.896930396557 0 0 255
0.260116249323 -0.0557132549584 0.388663589954 0 0 255
0.281620383263 -0.0372124649584 0.327301710844 0 0 255
-0.138825327158 -0.0312416981906 -0.404132634401 0 0 255
-0.201251924038 -0.0457748062909 -0.683446288109 0 0 255
-0.556577086449 -0.0852231308818 1.09260797501 0 0 255
0.0548173747957 -0.0308220367879 0.352911114693 0 0 255
0.288667947054 -0.0395909287035 -0.551863133907 0 0 255
-0.365464389324 -0.0365414693952 0.805244982243 0 0 255
0.00336858956143 -0.0468354001641 -1.16338336468 0 0 255
-0.52639323473 -0.0391118861735 0.941693127155 0 0 255
-0.556373894215 -0.0864203870296 -0.573841035366 0 0 255
-0.314948558807 -0.059125136584 0.7874173522 0 0 255
-0.0967890918255 -0.0268821101636 0.602555036545 0 0 255
-0.465968579054 -0.0370381958783 0.813625812531 0 0 255
-0.105408452451 -0.0314067080617 0.86949634552 0 0 255
-0.186044842005 -0.0310617368668 0.860131680965 0 0 255
0.0672025233507 -0.0621573105454 -0.576472699642 0 0 255
0.372999340296 -0.0160794593394 -0.0432268865407 0 0 255
0.274669408798 -0.0481477379799 0.225295349956 0 0 255
-0.0608037449419 -0.0264274124056 0.593563556671 0 0 255
0.456289380789 -0.0311770495027 0.0315797626972 0 0 255
-0.436269342899 -0.0447984188795 0.9822499156 0 0 255
0.093901053071 -0.0706325173378 -0.815538048744 0 0 255
0.285859972239 -0.036048963666 0.386842519045 0 0 255
-0.141084894538 -0.0480387508869 0.974704384804 0 0 255
-0.522905945778 -0.0395913235843 -0.40173920989 0 0 255
-0.519234657288 -0.0395629368722 0.867004096508 0 0 255
0.408728301525 -0.0162135735154 -0.039482999593 0 0 255
0.483152478933 -0.0327800884843 -0.186953231692 0 0 255
-0.506506919861 -0.036369279027 0.798195958138 0 0 255
0.477661311626 -0.0310372933745 0.0290590822697 0 0 255
0.255780041218 -0.0562656112015 0.231277778745 0 0 255
0.279949456453 -0.0557855218649 -0.793958306313 0 0 255
-0.490657567978 -0.0356664471328 1.03721499443 0 0 255
0.293631702662 -0.033486392349 -0.345370680094 0 0 255
-0.0300273671746 -0.0233131274581 0.442280232906 0 0 255
0.0569463819265 -0.0367789566517 -1.04126143456 0 0 255
-0.547162890434 -0.0705229640007 -0.409921824932 0 0 255
-0.0206637345254 -0.0268636923283 0.603949964046 0 0 255
-0.199008494616 -0.0447687990963 -0.45130828023 0 0 255
-0.490771472454 -0.0360546596348 0.791758596897 0 0 255
0.496969848871 -0.0345132090151 -0.233742550015 0 0 255
0.372739285231 -0.0108417663723 -0.071953997016 0 0 255
-0.438945233822 -0.0514785535634 0.957503020763 0 0 255
-0.188881322742 -0.0389072336257 -0.831763029099 0 0 255
0.434191673994 -0.029089378193 0.0705018341541 0 0 255
-0.204436346889 -0.0485910102725 0.985162198544 0 0 255
-0.508078753948 -0.0378544218838 0.830296099186 0 0 255
0.26243057847 -0.0697249099612 -0.661971151829 0 0 255
-0.472491443157 -0.0378008335829 0.82997494936 0 0 255
-0.505297541618 -0.0367645770311 0.891396403313 0 0 255
0.429576605558 -0.0310830492526 0.0289163235575 0 0 255
0.468498826027 -0.0320381224155 -0.0341177694499 0 0 255
0.275145024061 -0.0443970672786 0.313381493092 0 0 255
-0.302198022604 -0.0706597268581 -0.824281394482 0 0 255
-0.522368013859 -0.036733135581 0.805695831776 0 0 255
0.241206213832 -0.0587249286473 -0.308174610138 0 0 255
-0.33545640111 -0.0509682036936 0.779661476612 0 0 255
-0.29929998517 -0.0747478306293 -0.820368230343 0 0 255
0.344553768635 -0.0169583521783 -0.109496697783 0 0 255
-0.498942345381 -0.0354210324585 1.03170919418 0 0 255
0.354132860899 -0.0238164626062 0.0391324609518 0 0 255
-0.0356782227755 -0.0232569742948 0.52555000782 0 0 255
-0.333767205477 -0.0502567365766 0.764305770397 0 0 255
0.304803401232 -0.0466131269932 -0.822619140148 0 0 255
-0.547506570816 -0.0697740837932 -0.510753154755 0 0 255
-0.53324341774 -0.0471767298877 -0.407077431679 0 0 255
0.496625214815 -0.0366252437234 -0.272666186094 0 0 255
-0.521562159061 -0.0368613339961 0.80848890543 0 0 255
0.474615424871 -0.0334092639387 -0.00430342601612 0 0 255
0.453025847673 -0.0311103127897 0.114676788449 0 0 255
-0.518149137497 -0.0364482961595 0.88424962759 0 0 255
-0.182743489742 -0.0362993329763 -0.803433001041 0 0 255
-0.447404384613 -0.0570675656199 1.07824492455 0 0 255
-0.0574486590922 -0.0265980418772 0.597334861755 0 0 255
0.142613425851 -0.0633130520582 -0.549686789513 0 0 255
-0.0932480469346 -0.027255570516 0.526101708412 0 0 255
-0.334204167128 -0.0472161211073 0.783117353916 0 0 255
-0.551188349724 -0.0774968490005 -0.51296210289 0 0 255
-0.531101584435 -0.0443456321955 0.885599732399 0 0 255
-0.197555199265 -0.0384189598262 0.93444621563 0 0 255
0.499312400818 -0.034704901278 -0.229539334774 0 0 255
-0.520343661308 -0.0433382056653 1.03328943253 0 0 255
0.264313429594 -0.055335521698 0.380588680506 0 0 255
-0.434640258551 -0.0446243174374 0.978520929813 0 0 255
-0.507715582848 -0.039103846997 0.94195920229 0 0 255
0.433829933405 -0.0240138433874 -0.0393368080258 0 0 255
-0.388596475124 -0.0648377612233 0.909298300743 0 0 255
-0.504965901375 -0.0364736057818 0.800489842892 0 0 255
0.474910736084 -0.0350360572338 -0.138330221176 0 0 255
-0.485378921032 -0.0366058200598 0.888430356979 0 0 255
-0.128498643637 -0.0344134569168 -0.419873356819 0 0 255
0.0912272855639 -0.0698400884867 -0.832748472691 0 0 255
-0.362632274628 -0.0391736403108 0.862269580364 0 0 255
-0.509193480015 -0.0376745536923 -0.442893356085 0 0 255
-0.50612860918 -0.0366367548704 0.888610899448 0 0 255
-0.2094976753 -0.0353006310761 0.866686999798 0 0 255
-0.0810962766409 -0.0362603738904 -1.05573546886 0 0 255
-0.298965334892 -0.0749189332128 -0.816657841206 0 0 255
-0.334131866693 -0.0510872527957 0.782268822193 0 0 255
-0.072380580008 -0.042454842478 -1.17534148693 0 0 255
0.0466249920428 -0.0394671931863 -0.983333528042 0 0 255
-0.0532849468291 -0.0231841821223 0.52356004715 0 0 255
0.14582657814 -0.0535106658936 -0.254017680883 0 0 255
-0.131571114063 -0.0509571507573 1.03808009624 0 0 255
0.524610459805 -0.0361800156534 0.818393707275 0 0 255
-0.436169087887 -0.0448738820851 0.983885288239 0 0 255
-0.50744509697 -0.0377060100436 0.827099561691 0 0 255
-0.504805207253 -0.0375180058181 0.823093473911 0 0 255
-0.5231077075 -0.040913593024 0.896139800549 0 0 255
-0.499314457178 -0.0336343124509 0.823801219463 0 0 255
-0.439261198044 -0.051431093365 0.956468522549 0 0 255
-0.518333375454 -0.0402634255588 0.966801345348 0 0 255
-0.140526995063 -0.0403109639883 0.892113089561 0 0 255
0.361098647118 -0.0265635289252 0.0141225988045 0 0 255
-0.330412715673 -0.0350640229881 0.858718276024 0 0 255
0.429575562477 -0.0109561402351 -0.0681399852037 0 0 255
0.523296654224 -0.0361115261912 0.816880702972 0 0 255
0.262169629335 -0.0635462999344 -0.541822731495 0 0 255
-0.144024953246 -0.0436690449715 1.04931461811 0 0 255
0.331070870161 -0.0254004336894 -0.26560741663 0 0 255
-0.501657783985 -0.0398297049105 0.957808852196 0 0 255
-0.540003538132 -0.0595705881715 1.04560852051 0 0 255
-0.48660799861 -0.0353581123054 0.946020126343 0 0 255
-0.521656453609 -0.0458382293582 1.00273883343 0 0 255
0.409704327583 -0.0278188046068 0.127048879862 0 0 255
0.233126908541 -0.0521248057485 0.310376793146 0 0 255
-0.518765151501 -0.050324857235 -1.10017621517 0 0 255
0.41334810853 -0.0177141688764 -0.176138758659 0 0 255
-0.324992954731 -0.0350921340287 0.859454274178 0 0 255
-0.560568392277 -0.105458460748 1.02268016338 0 0 255
0.33681216836 -0.0275716502219 -0.218488946557 0 0 255
0.414829999208 -0.00974383018911 -0.0947207137942 0 0 255
0.293950736523 -0.0366268791258 -0.53126001358 0 0 255
-0.0785525515676 -0.0359554700553 -1.06227338314 0 0 255
0.362685829401 -0.0148991970345 -0.0690097287297 0 0 255
0.489766508341 -0.0351513810456 1.0491682291 0 0 255
-0.0877830684185 -0.0363034009933 -1.05496191978 0 0 255
-0.0833910629153 -0.0366029106081 -1.04837727547 0 0 255
-0.557125210762 -0.0974229946733 -1.09733474255 0 0 255
-0.311389744282 -0.101512491703 0.943163573742 0 0 255
0.34225410223 -0.0192032158375 -0.145592063665 0 0 255
0.0611797310412 -0.0495298877358 0.165555968881 0 0 255
-0.268938034773 -0.0460011325777 0.927599906921 0 0 255
-0.522895038128 -0.0395089387894 0.865749359131 0 0 255
0.521884143353 -0.035931520164 0.812952280045 0 0 255
0.146832108498 -0.0576466470957 -0.756821453571 0 0 255
0.426144629717 -0.0265586562455 0.10016772151 0 0 255
-0.138940468431 -0.0311304870993 0.86272919178 0 0 255
-0.264853417873 -0.042157381773 0.92913877964 0 0 255
-0.131147161126 -0.0356725938618 0.876581966877 0 0 255
-0.158905059099 -0.0357974097133 -0.644496381283 0 0 255
-0.519400954247 -0.0427579320967 1.02075517178 0 0 255
-0.463679820299 -0.0503695234656 0.932921767235 0 0 255
-0.520408987999 -0.0501375421882 -1.10426819324 0 0 255
-0.572809994221 -0.129131123424 -0.665422558784 0 0 255
-0.524925708771 -0.0484781563282 1.05978739262 0 0 255
-0.524285912514 -0.0394750498235 -0.404287785292 0 0 255
0.468208432198 -0.0323158428073 -0.0281150639057 0 0 255
0.416248261929 -0.0291868168861 0.0721875503659 0 0 255
-0.268090635538 -0.0688486397266 -0.524195849895 0 0 255
-0.546466290951 -0.0704363659024 -0.665633499622 0 0 255
0.426245838404 -0.0278054773808 0.0425321236253 0 0 255
0.0526438578963 -0.0381631962955 -0.249846503139 0 0 255
0.429507046938 -0.0328024029732 -0.0184980742633 0 0 255
0.429153263569 -0.0200821328908 -0.0399076342583 0 0 255
0.361271202564 -0.0264874454588 0.0124803036451 0 0 255
0.33579325676 -0.0848421752453 1.02077066898 0 0 255
-0.199117153883 -0.0434054434299 -0.565430760384 0 0 255
0.356757968664 -0.0210905149579 -0.189028933644 0 0 255
0.489363193512 -0.0366149768233 0.996211588383 0 0 255
-0.515765190125 -0.0389910638332 -0.414560049772 0 0 255
-0.482349306345 -0.0407899133861 0.979041814804 0 0 255
0.281959354877 -0.0551402457058 -0.72325605154 0 0 255
0.283416569233 -0.0373180322349 0.414246469736 0 0 255
-0.432566821575 -0.0521509833634 1.05682206154 0 0 255
0.178941428661 -0.0603764392436 -0.104668170214 0 0 255
-0.505508005619 -0.0395433530211 0.951521754265 0 0 255
-0.52058249712 -0.0417606197298 0.91452819109 0 0 255
