ply
format ascii 1.0
comment https://github.com/EricCJoyce
element vertex 624
property float x
property float y
property float z
property uchar red
property uchar green
property uchar blue
end_header
-0.0764885693789 -0.00864244718105 -0.361252993345 255 255 0
-0.338615715504 -0.00244573759846 -0.0591106191278 255 255 0
0.21982486546 -0.00444559426978 -0.0981457307935 255 255 0
-0.0128790950403 -0.00189274793956 0.13057564199 255 255 0
0.18201854825 -0.00358508341014 -0.0975499227643 255 255 0
-0.0447565279901 -0.000847372226417 0.130791261792 255 255 0
0.157585814595 -0.00525816669688 -0.118889249861 255 255 0
0.164945185184 -0.0048380647786 -0.0806542038918 255 255 0
0.161312177777 -0.00526840705425 -0.0734691172838 255 255 0
0.164184674621 -0.00507266912609 -0.0759813040495 255 255 0
0.259066611528 -0.00329169281758 -0.0991344600916 255 255 0
0.260280221701 -0.0032575239893 -0.0991317555308 255 255 0
-0.307068049908 -0.00348865427077 -0.0595844648778 255 255 0
-0.309932440519 -0.00356187601574 -0.0597536154091 255 255 0
0.202664718032 -0.00590555462986 -0.119652368128 255 255 0
-0.290778338909 -0.0030051972717 -0.0600926801562 255 255 0
-0.104267701507 -0.00808130018413 -0.347880780697 255 255 0
0.269780874252 -0.00397595064715 -0.0774929523468 255 255 0
0.279071122408 -0.00431021442637 -0.0644078925252 255 255 0
0.438327133656 -0.00132952164859 0.183338031173 255 255 0
-0.313882082701 -0.00361289363354 -0.0610819794238 255 255 0
0.245625898242 -0.00294912070967 -0.0720862150192 255 255 0
0.509336471558 -0.00984198693186 0.113772898912 255 255 0
0.277741074562 -0.00371533120051 -0.078275680542 255 255 0
0.433245718479 -0.000166281897691 0.197570875287 255 255 0
0.27450466156 -0.00382228544913 -0.0779356732965 255 255 0
-0.0096393590793 -0.00204812781885 0.135989785194 255 255 0
0.284094065428 -0.00187014602125 0.0996363610029 255 255 0
0.208981588483 -0.00562115525827 -0.121974624693 255 255 0
0.159994989634 -0.00450283102691 -0.0910716503859 255 255 0
0.43874117732 -0.00162386079319 0.190048411489 255 255 0
0.202108949423 -0.00402240315452 -0.0755139067769 255 255 0
0.171881496906 -0.00498191080987 -0.0732027366757 255 255 0
-0.291826367378 -0.00282688066363 -0.0646518468857 255 255 0
-0.291152328253 -0.00291128340177 -0.0623835846782 255 255 0
0.167276576161 -0.00409304071218 -0.095545604825 255 255 0
0.253224611282 -0.00354179251008 -0.0972700566053 255 255 0
0.211522951722 -0.00518506905064 -0.0870750620961 255 255 0
0.199982717633 -0.00370538281277 -0.0837823972106 255 255 0
0.204687103629 -0.00354751432315 -0.0843292847276 255 255 0
-0.0499809980392 -0.00943329464644 -0.370376467705 255 255 0
0.204013928771 -0.00372978346422 -0.0807498171926 255 255 0
-0.197744369507 0.00899956189096 -0.265676319599 255 255 0
-0.104060612619 -0.00904666259885 -0.369472295046 255 255 0
0.463293015957 -0.00186076143291 0.339114785194 255 255 0
0.434887290001 0.00134414422791 0.208356395364 255 255 0
0.288630008698 0.000679592601955 0.132313430309 255 255 0
0.198940113187 -0.00437223026529 -0.112693585455 255 255 0
0.509170114994 -0.0105909956619 0.13009300828 255 255 0
0.517284631729 -0.00878938194364 -0.376138985157 255 255 0
0.519378960133 -0.00708322878927 0.316826164722 255 255 0
0.444684863091 -0.00434485496953 0.167619079351 255 255 0
0.505798876286 -0.017061309889 -0.416314572096 255 255 0
0.507425010204 -0.0170418787748 -0.415733158588 255 255 0
-0.0378519035876 -0.0081255491823 -0.348649293184 255 255 0
0.165134966373 -0.00476843304932 -0.0820634141564 255 255 0
0.465379834175 -0.00340714957565 0.331427752972 255 255 0
-0.0430282913148 -0.00953916925937 -0.363747417927 255 255 0
-0.0664863884449 -0.0085995523259 -0.355996638536 255 255 0
0.275373876095 -0.001101467642 0.120266184211 255 255 0
0.21159902215 -0.00403286144137 -0.112291909754 255 255 0
0.506735920906 -0.00774636399001 0.323533415794 255 255 0
0.446995645761 -0.00411290396005 0.206851765513 255 255 0
0.118142172694 0.00142012815922 -0.0753242373466 255 255 0
0.271978467703 -0.00126401241869 0.121726587415 255 255 0
0.258146345615 -0.00326028675772 -0.0575063116848 255 255 0
0.252091318369 -0.00439688051119 -0.122109979391 255 255 0
0.191151961684 -0.00394301302731 -0.0840431079268 255 255 0
-0.00447264779359 0.0163224693388 -0.177839562297 255 255 0
-0.222993910313 0.010218154639 -0.265152424574 255 255 0
0.160797536373 -0.0058840145357 -0.103176727891 255 255 0
0.271994054317 -0.00337472115643 -0.0893046706915 255 255 0
-0.278407216072 -0.00320865679532 -0.04796692729 255 255 0
0.15713943541 -0.00392794422805 -0.105446107686 255 255 0
0.111216031015 -0.000362727674656 -0.0834103599191 255 255 0
-0.00164901744574 0.0142467552796 -0.17346380651 255 255 0
0.415793478489 -0.00182952207979 0.180340513587 255 255 0
0.48999980092 -0.0084320679307 0.285312712193 255 255 0
-0.27473410964 -0.00234196009114 -0.0646949335933 255 255 0
0.508410513401 -0.0110058775172 0.0958324372768 255 255 0
0.258045017719 -0.00400836952031 -0.0840531289577 255 255 0
0.520417809486 -0.0123245744035 -0.339570045471 255 255 0
-0.0943009331822 -0.00914306752384 -0.36131182313 255 255 0
-0.129002079368 0.0181370861828 -0.16611982882 255 255 0
-0.0696009024978 0.00804087892175 -0.251037746668 255 255 0
0.275714695454 -0.00535523286089 -0.129347547889 255 255 0
0.275100618601 -0.00524376798421 -0.132172048092 255 255 0
-0.245620623231 -0.000508892873768 -0.301285028458 255 255 0
0.503143966198 -0.02014118433 -0.393315285444 255 255 0
0.262542635202 -0.00504020508379 -0.101528920233 255 255 0
0.163460642099 -0.00538772391155 -0.112408742309 255 255 0
0.447360605001 -0.00434644334018 0.212198585272 255 255 0
0.301768630743 0.000293519347906 0.148918777704 255 255 0
0.253048211336 -0.00516632571816 -0.104645825922 255 255 0
0.177760019898 -0.00599146913737 -0.133198365569 255 255 0
0.214950993657 -0.00440196553245 -0.102121986449 255 255 0
-0.0267903786153 0.0156912971288 -0.220714077353 255 255 0
-0.34240758419 -0.00321652158163 -0.0445592366159 255 255 0
0.0279584564269 0.00933806039393 -0.176150277257 255 255 0
-0.1000315696 -0.00770145887509 -0.353584885597 255 255 0
-0.0234459545463 -0.00212148553692 0.129044339061 255 255 0
0.456050366163 -0.00798732694238 0.0400929562747 255 255 0
0.0948741957545 0.00754188420251 -0.0953083708882 255 255 0
0.255881339312 -0.00369966612197 -0.0492755249143 255 255 0
-0.211534366012 0.0104429423809 -0.262981444597 255 255 0
-0.255112886429 0.00192329566926 -0.0602871179581 255 255 0
0.294736623764 0.00226963614114 0.144119530916 255 255 0
0.0962804034352 -0.00244738603942 -0.304275900126 255 255 0
0.158224523067 -0.00416049500927 -0.0996747985482 255 255 0
0.151523187757 -0.00303659774363 -0.08558293432 255 255 0
0.459127813578 -0.00273378542624 0.269902795553 255 255 0
-0.241167381406 0.00256274174899 -0.0656679868698 255 255 0
0.302023023367 -0.000178257439984 0.116533912718 255 255 0
0.260477870703 -0.00413283333182 -0.122703701258 255 255 0
-0.0295546576381 0.0157235786319 -0.223134502769 255 255 0
-0.0367856957018 -0.00853454135358 -0.381907850504 255 255 0
0.0131883528084 0.00741479266435 -0.143130481243 255 255 0
0.457231372595 -0.00502042705193 0.147318378091 255 255 0
0.266279816628 -0.00479972036555 -0.104486525059 255 255 0
0.216746896505 -0.00415247585624 -0.106479778886 255 255 0
0.151993140578 -0.00439392914996 -0.0984170809388 255 255 0
0.23643656075 -0.00456231413409 -0.0852946266532 255 255 0
0.452039837837 -0.000417774601374 0.343390017748 255 255 0
0.515813112259 -0.00710199680179 0.143480762839 255 255 0
0.222530186176 -0.00405953126028 -0.104934684932 255 255 0
0.211812868714 -0.00455816695467 -0.100641265512 255 255 0
0.215641140938 -0.00376733229496 -0.0727228149772 255 255 0
-0.201580390334 0.0119711207226 -0.118774451315 255 255 0
0.443924248219 -0.002828147728 0.219665497541 255 255 0
-0.20325614512 0.0559329465032 -0.183119475842 255 255 0
0.48880442977 -0.00872665736824 0.333918362856 255 255 0
0.308965921402 0.000672063033562 0.145077720284 255 255 0
0.459686279297 -0.00221492093988 0.301758795977 255 255 0
0.0345984436572 0.00669106189162 -0.242657601833 255 255 0
0.300579667091 -0.000120093274745 0.114364355803 255 255 0
-0.0332281030715 -0.000815161096398 0.137227460742 255 255 0
0.503112375736 -0.0183188375086 -0.433292627335 255 255 0
0.447764247656 -0.00505220238119 0.142149701715 255 255 0
0.0457793213427 0.00829436909407 -0.270885467529 255 255 0
0.454853147268 -0.00455003045499 0.178417682648 255 255 0
0.280228286982 -0.00554514722899 -0.122386962175 255 255 0
0.454123347998 -0.0109553523362 -0.110456936061 255 255 0
-0.325629115105 -0.00218889256939 -0.0566964522004 255 255 0
0.251242369413 -0.00315005006269 -0.0642008185387 255 255 0
0.45765542984 -0.00453419843689 0.179806694388 255 255 0
0.444905012846 -0.00511293765157 0.141709968448 255 255 0
-0.0267290063202 -0.00186388602015 0.121362030506 255 255 0
0.451205551624 -0.00601781951264 0.122567526996 255 255 0
0.447019606829 -0.00460610771552 0.217680871487 255 255 0
0.458512663841 -0.0025768482592 0.223193660378 255 255 0
0.446466773748 -0.00771553395316 -0.100464865565 255 255 0
0.0334594324231 0.00733889546245 -0.214681133628 255 255 0
0.453822821379 -0.010926569812 -0.154161170125 255 255 0
0.521684885025 0.0151246078312 0.131521522999 255 255 0
0.525510370731 -0.00194946455304 0.122285239398 255 255 0
-0.231393814087 0.00273817148991 -0.0634592995048 255 255 0
0.521387338638 0.0134216407314 0.1257904917 255 255 0
0.191147297621 -0.00526983151212 -0.0978403314948 255 255 0
0.455633789301 -0.00719117745757 0.0223780181259 255 255 0
-0.490862995386 -0.00243257009424 0.232257544994 255 255 0
0.176803693175 -0.00442021992058 -0.0824691206217 255 255 0
0.292631536722 -0.00494875432923 -0.0848923996091 255 255 0
0.260898649693 -0.0029492052272 -0.0626220628619 255 255 0
0.230934351683 -0.0044311969541 -0.134465411305 255 255 0
0.151844725013 -0.00378268188797 -0.111911579967 255 255 0
0.266156554222 -0.00470555061474 -0.106627725065 255 255 0
0.458690881729 -0.00314920255914 0.23585383594 255 255 0
0.433037102222 -0.00240446045063 0.160743385553 255 255 0
0.457243800163 -0.00617400370538 0.129733145237 255 255 0
0.454706370831 -0.0110378796235 -0.194060012698 255 255 0
0.446309328079 -0.0115142613649 -0.274590849876 255 255 0
-0.00631484761834 0.00928552635014 -0.153345614672 255 255 0
0.511727690697 -0.00726408325136 0.31605130434 255 255 0
-0.340911656618 -0.00229056528769 0.236272990704 255 255 0
0.443898767233 -0.00318291573785 0.141654700041 255 255 0
0.00631090532988 0.0109717873856 -0.268271058798 255 255 0
0.453227102757 -0.0129010714591 -0.282783865929 255 255 0
-0.213015064597 0.0534752346575 -0.178163439035 255 255 0
0.48100951314 -0.00552421016619 0.344644159079 255 255 0
0.459409326315 -0.00643155351281 0.0938350632787 255 255 0
0.184867173433 -0.00341774779372 -0.0565672144294 255 255 0
-0.304717153311 -0.00303670042194 -0.0680377557874 255 255 0
0.511304080486 -0.00740963313729 0.318980306387 255 255 0
0.458952814341 -0.00208814605139 0.255637735128 255 255 0
0.512196302414 -0.00861130002886 0.302994579077 255 255 0
0.480818063021 -0.0068390625529 0.244694977999 255 255 0
0.454301476479 -0.00992615241557 -0.132913395762 255 255 0
0.450384497643 -0.00585367530584 0.0326858796179 255 255 0
0.447506010532 -0.00306868739426 0.227158784866 255 255 0
0.300651431084 -0.00190660415683 0.0678070262074 255 255 0
0.447050243616 -0.00867564044893 -0.121938444674 255 255 0
0.457264244556 -0.0072913793847 0.111359111965 255 255 0
0.521243929863 -0.00254392647184 0.132676467299 255 255 0
0.456955999136 -0.00676897913218 0.0568267554045 255 255 0
0.460624217987 -0.0064201313071 0.0943373143673 255 255 0
0.511463880539 -0.00974368862808 0.155822515488 255 255 0
0.454427659512 -0.0087773501873 -0.0722506716847 255 255 0
-0.260780513287 0.00232991506346 -0.115601204336 255 255 0
0.235792070627 -0.00320436386392 -0.072582192719 255 255 0
-0.0193655807525 -0.0015238734195 0.118468761444 255 255 0
0.447960406542 -0.0088500007987 -0.203325271606 255 255 0
0.199559941888 -0.00460970355198 -0.10710260272 255 255 0
0.235767424107 -0.00529289385304 -0.112577006221 255 255 0
0.453952342272 -0.0099149858579 -0.0904876366258 255 255 0
-0.227482572198 -0.000924943014979 0.233718082309 255 255 0
0.0211065839976 0.00888836942613 -0.170535191894 255 255 0
0.455246686935 -0.012021583505 -0.215042918921 255 255 0
0.522794663906 0.0153616312891 0.127011984587 255 255 0
0.297528415918 -0.004700738471 -0.0872966647148 255 255 0
-0.0436613969505 -0.00899790320545 -0.376007795334 255 255 0
0.410628408194 0.00300593790598 0.328436940908 255 255 0
0.165900290012 -0.00357736065052 -0.0648184716702 255 255 0
0.525647163391 0.0153154125437 0.129792690277 255 255 0
0.44851487875 -0.00859695579857 -0.0798694118857 255 255 0
0.510435581207 -0.00950998812914 0.150061175227 255 255 0
0.452385902405 -0.0127459643409 -0.329592913389 255 255 0
0.447782874107 -0.00545260682702 0.193827673793 255 255 0
0.423857808113 0.00257020420395 0.346187412739 255 255 0
-0.0490161068738 0.0152951804921 -0.2686855793 255 255 0
0.0434777438641 0.0096167428419 -0.172645792365 255 255 0
0.450848400593 -0.00516799790785 0.103712573647 255 255 0
0.509103953838 -0.00898939184844 0.180708199739 255 255 0
-0.259977310896 0.00249456032179 -0.11871368438 255 255 0
0.525893509388 -0.00543638411909 0.156091883779 255 255 0
0.0197483729571 0.00872385781258 -0.167769521475 255 255 0
-0.0368095375597 -0.00970376469195 -0.356285572052 255 255 0
0.449165254831 -0.004648540169 0.0912798568606 255 255 0
0.447048813105 -0.00875928066671 -0.162992328405 255 255 0
0.511230766773 -0.00926943961531 0.231053292751 255 255 0
0.452660024166 -0.0138703975827 -0.304768115282 255 255 0
-0.0198671314865 -0.00144472904503 0.116422660649 255 255 0
0.459324270487 -0.00362361222506 0.289535373449 255 255 0
0.493393033743 -0.0101498719305 0.11064594239 255 255 0
0.449795097113 -0.00695385970175 0.0135570755228 255 255 0
0.278763055801 -0.00431647477672 -0.107348412275 255 255 0
-0.089246943593 -0.00749338930473 -0.351465463638 255 255 0
-0.0395496897399 -0.00123241008259 0.142459750175 255 255 0
-0.223752826452 0.0130121838301 -0.112451501191 255 255 0
0.227248802781 -0.00621829554439 -0.140450775623 255 255 0
-0.0131729440764 0.0089063718915 -0.149281039834 255 255 0
-0.205962717533 0.0132726728916 -0.107141181827 255 255 0
0.538326382637 -0.000994230504148 0.323715031147 255 255 0
0.419521003962 0.00295464624651 0.335071057081 255 255 0
0.509315788746 -0.00940834730864 0.147138789296 255 255 0
0.251108556986 -0.00548299495131 -0.141790986061 255 255 0
0.0288940295577 0.00713018514216 -0.127159506083 255 255 0
0.0582257658243 -0.00295675592497 -0.316684067249 255 255 0
0.51005589962 -0.00961693003774 0.195057749748 255 255 0
0.458094805479 -0.00388710270636 0.208777248859 255 255 0
-0.0739061757922 -0.00730252685025 -0.346146017313 255 255 0
-0.0183664895594 0.0102934036404 -0.140024647117 255 255 0
-0.100437752903 -0.00116658781189 0.231953814626 255 255 0
0.44605538249 -0.0140844192356 -0.432828068733 255 255 0
0.234891310334 -0.00358597235754 -0.107659816742 255 255 0
-0.306769132614 -0.0045905848965 -0.0781246349216 255 255 0
0.456013143063 -0.00826574582607 0.00328772049397 255 255 0
0.0348941683769 0.00613419292495 -0.14449031651 255 255 0
-0.306286603212 -0.00265712314285 -0.0773329511285 255 255 0
0.185155943036 -0.00349668343551 -0.054657522589 255 255 0
0.494809120893 -0.00728216115385 0.348852664232 255 255 0
0.231077834964 -0.00464961118996 -0.0867005288601 255 255 0
0.189991235733 -0.00367673882283 -0.0906007215381 255 255 0
-0.01120352 0.0191124081612 -0.20029656589 255 255 0
0.046081200242 0.0094825560227 -0.168090552092 255 255 0
0.445749759674 -0.0067466055043 -0.122154384851 255 255 0
0.297291010618 -0.00500057125464 -0.0808694586158 255 255 0
0.456526637077 -0.00287609244697 0.2285246104 255 255 0
-0.0564265027642 -0.00121416011825 0.131603494287 255 255 0
-0.224301040173 0.0551014207304 -0.177925422788 255 255 0
0.453946471214 -0.00993495434523 -0.175827264786 255 255 0
0.506409466267 -0.0118632651865 -0.10104238987 255 255 0
0.449097633362 -0.00669111637399 0.0502508096397 255 255 0
0.0528402626514 0.0094804149121 -0.120969079435 255 255 0
0.506533503532 -0.0181561335921 -0.348966747522 255 255 0
0.180307403207 -0.00428764941171 -0.0832052007318 255 255 0
-0.141334980726 0.0165988616645 -0.268693506718 255 255 0
-0.0114970244467 0.0183729920536 -0.184265553951 255 255 0
-0.016567196697 -0.000631338683888 0.143519207835 255 255 0
0.262516468763 -0.00464688520879 -0.110169291496 255 255 0
0.223798260093 -0.00438980292529 -0.139794230461 255 255 0
0.0355116799474 0.00909184385091 -0.123185038567 255 255 0
0.451159000397 -0.0162925440818 -0.424136400223 255 255 0
0.425508260727 0.00312315556221 0.335085630417 255 255 0
0.299886226654 -0.00409367820248 -0.013372791931 255 255 0
0.446942269802 -0.0116944648325 -0.313134402037 255 255 0
0.455299735069 -0.0128446752205 -0.239849418402 255 255 0
0.236693441868 -0.00592872453853 -0.140948623419 255 255 0
0.447007387877 -0.0107664130628 -0.290556132793 255 255 0
0.433585226536 -0.00185853580479 0.149112731218 255 255 0
-0.0167292971164 -0.000565008842386 0.141964390874 255 255 0
0.0174198504537 0.00872061122209 -0.126254051924 255 255 0
0.485673487186 -0.00903585739434 0.252984434366 255 255 0
0.454372853041 -0.00859291944653 -0.0334416516125 255 255 0
0.476031959057 -0.00539090950042 0.209976688027 255 255 0
0.505377948284 -0.0145245678723 -0.214875891805 255 255 0
0.255342781544 -0.00444769207388 -0.076094456017 255 255 0
0.506694853306 -0.0162061732262 -0.348735809326 255 255 0
0.45414942503 -0.00787586718798 -0.0493025705218 255 255 0
0.197098270059 -0.00516145629808 -0.139416605234 255 255 0
0.54001969099 -0.000958425400313 0.323979049921 255 255 0
0.176923140883 -0.00391307007521 -0.0506282560527 255 255 0
0.444073915482 -0.00309925503097 0.0970419049263 255 255 0
0.478831112385 -0.00881034322083 0.158026635647 255 255 0
-0.0164976008236 0.0113045508042 -0.246811598539 255 255 0
0.538326978683 -0.00167943094857 0.338739484549 255 255 0
-0.0173794254661 0.0130571974441 -0.242900550365 255 255 0
0.506486713886 -0.0142810381949 -0.133754879236 255 255 0
0.0270090121776 0.00788128934801 -0.144796520472 255 255 0
0.223290845752 -0.00589395174757 -0.150014698505 255 255 0
-0.0295496080071 -0.00170559738763 0.116143792868 255 255 0
0.506947398186 -0.0112890684977 -0.0704123228788 255 255 0
0.0464419648051 0.00822474155575 -0.140287488699 255 255 0
-0.0159477591515 0.00963380653411 -0.252724170685 255 255 0
0.476251363754 -0.0131399426609 -0.0917337685823 255 255 0
-0.20322676003 0.010277075693 -0.254197537899 255 255 0
-0.224158346653 0.0119077684358 -0.0884866937995 255 255 0
0.516287982464 -0.00761456601322 0.155013889074 255 255 0
0.448302149773 -0.00968765467405 -0.184746667743 255 255 0
0.45433601737 -0.00337216164917 0.195157587528 255 255 0
0.104420416057 0.00175837113056 -0.0912421196699 255 255 0
-0.333318382502 -0.00382068636827 -0.0685676410794 255 255 0
0.446310818195 -0.00765440892428 -0.0590148344636 255 255 0
0.0462983995676 0.00874167215079 -0.151710942388 255 255 0
0.462046742439 -0.00469117518514 0.185969308019 255 255 0
-0.307083070278 -0.00298585183918 -0.0706185176969 255 255 0
0.444113701582 -0.0017519290559 0.239072009921 255 255 0
-0.263710230589 0.00140718696639 -0.140070974827 255 255 0
0.451894789934 -0.0145277213305 -0.376603215933 255 255 0
0.537455618382 -0.00159335508943 0.336312294006 255 255 0
0.452337414026 -0.0172639861703 -0.444992810488 255 255 0
0.458758741617 -0.00478561921045 0.186003059149 255 255 0
0.189590781927 -0.00455974601209 -0.0714875012636 255 255 0
0.184228777885 -0.00551759265363 -0.139581099153 255 255 0
0.500125825405 -0.010476609692 0.164868429303 255 255 0
-0.0720095038414 -0.00780093157664 -0.376929521561 255 255 0
0.510738134384 -0.00864779483527 0.217117533088 255 255 0
-0.112351037562 0.0187206994742 -0.168600261211 255 255 0
-0.471578121185 0.00011312609422 0.231274098158 255 255 0
0.534385919571 0.00306515977718 0.146491333842 255 255 0
0.452787607908 -0.00254114554264 0.218863844872 255 255 0
0.0140775581822 0.0100090363994 -0.156575530767 255 255 0
0.471350103617 -0.00993602816015 0.0923003032804 255 255 0
0.0421462580562 0.0082673560828 -0.143883287907 255 255 0
-0.0341584347188 0.0491268970072 -0.186442494392 255 255 0
-0.321665912867 -0.00271359877661 -0.0427360273898 255 255 0
-0.220232993364 0.00976915564388 -0.253596901894 255 255 0
0.242651671171 -0.00355366640724 -0.103560216725 255 255 0
0.457444489002 -0.00761760398746 0.0757368430495 255 255 0
-0.106279566884 -0.00472218729556 -0.294120311737 255 255 0
-0.105978146195 -0.00761524401605 -0.359159499407 255 255 0
0.487186431885 -0.00977427139878 0.270112663507 255 255 0
-0.305680811405 -0.00282906275243 -0.0731875747442 255 255 0
0.480009704828 -0.0075704487972 0.174457103014 255 255 0
0.110284432769 -0.00247054803185 -0.29509177804 255 255 0
0.190999954939 -0.00474055996165 -0.109536737204 255 255 0
0.178920894861 -0.0034531604033 -0.0594747848809 255 255 0
0.188829392195 -0.00494647445157 -0.0634795948863 255 255 0
0.442331790924 -0.00382579118013 0.154779925942 255 255 0
-0.191843599081 0.0152288870886 -0.184173643589 255 255 0
0.432883501053 0.0014324139338 0.333840250969 255 255 0
0.439072668552 0.00172115769237 0.331343621016 255 255 0
0.297290146351 -0.00366825400852 -0.0671962201595 255 255 0
-0.188355639577 -0.00177825533319 0.233782619238 255 255 0
-0.0460099130869 0.0167071409523 -0.169121742249 255 255 0
0.0439966991544 -0.00420521851629 -0.298125237226 255 255 0
0.452654957771 -0.0158455446362 -0.390123814344 255 255 0
0.44059419632 -0.00166477623861 0.234980523586 255 255 0
0.519962728024 -0.00795954652131 0.164854809642 255 255 0
-0.148786887527 0.0108330585063 -0.275546818972 255 255 0
0.297843426466 -0.00240885582753 0.0770799815655 255 255 0
0.440006703138 0.00170203577727 0.332341551781 255 255 0
0.458929210901 -0.00554630951956 0.159901067615 255 255 0
0.298564016819 -0.00359558942728 -0.0680002644658 255 255 0
-0.107699401677 -0.00106266641524 -0.289466887712 255 255 0
-0.0447753369808 0.0167340543121 -0.168946996331 255 255 0
0.0243008285761 0.00840262882411 -0.157905563712 255 255 0
0.47435772419 -0.00895307958126 0.115497902036 255 255 0
-0.246711447835 -0.000468601414468 -0.217070475221 255 255 0
0.446753770113 -0.0124014047906 -0.383524268866 255 255 0
0.438715666533 0.0017867902061 0.329683303833 255 255 0
-0.306488007307 -0.00618944736198 -0.300214409828 255 255 0
-0.0548305548728 0.0458327457309 -0.169907480478 255 255 0
0.0720497816801 -0.00353608559817 -0.295416623354 255 255 0
0.322897076607 -3.42287967214e-05 0.126308485866 255 255 0
0.543287158012 0.0013061510399 0.147688269615 255 255 0
0.298998206854 -0.00370269990526 -0.0653826966882 255 255 0
0.299545556307 -0.00319495634176 -0.0332897379994 255 255 0
0.516494989395 -0.00882170535624 0.224497482181 255 255 0
0.452691048384 -0.0136952186003 -0.35147690773 255 255 0
0.439479887486 0.00148822006304 0.336703419685 255 255 0
-0.237442970276 -0.000963588361628 0.228394433856 255 255 0
-0.331579715014 -0.00349555327557 -0.0746195092797 255 255 0
0.517505228519 -0.00773611618206 0.201320126653 255 255 0
0.453472524881 -0.0137572390959 -0.349632829428 255 255 0
0.0709333047271 -0.00352657586336 -0.296316862106 255 255 0
0.543547868729 -0.000987415551208 0.155252933502 255 255 0
0.395508676767 0.00320383836515 0.314730167389 255 255 0
0.0529462099075 0.00901838298887 -0.153659582138 255 255 0
0.507000744343 -0.0104270614684 0.168041408062 255 255 0
0.0464497618377 0.00790787953883 -0.219108790159 255 255 0
0.29677477479 -0.00224077911116 0.0727325379848 255 255 0
-0.0926955938339 -0.00807079765946 -0.340941518545 255 255 0
-0.180217370391 0.0112772257999 -0.0903241559863 255 255 0
0.520262539387 -0.0055571324192 0.112363867462 255 255 0
-0.0809051096439 0.0163513626903 -0.26871407032 255 255 0
-0.310222417116 -0.00623520929366 -0.301524698734 255 255 0
0.43213185668 -0.00215686392039 0.154753595591 255 255 0
-0.173320651054 0.00648802798241 -0.281249016523 255 255 0
0.210613593459 -0.00474653672427 -0.140140891075 255 255 0
-0.112402759492 -0.00767395365983 -0.361852586269 255 255 0
-0.0864967629313 0.017453212291 -0.167677387595 255 255 0
-0.196081846952 0.0112265627831 -0.227702975273 255 255 0
-0.203621476889 0.0125065036118 -0.0888912007213 255 255 0
-0.0839347317815 0.0175421331078 -0.168039828539 255 255 0
-0.158675208688 0.0502751022577 -0.245876654983 255 255 0
-0.0435918457806 -0.00844702776521 -0.388043493032 255 255 0
0.266331672668 -0.00504236808047 -0.142020896077 255 255 0
0.506040215492 -0.0125464471057 -0.0862912833691 255 255 0
0.297353386879 -0.00803696829826 -0.228687644005 255 255 0
0.504950344563 -0.0172270964831 -0.284544408321 255 255 0
-0.459852129221 -0.00148488220293 0.230690911412 255 255 0
-0.225562542677 0.00291672442108 -0.063761562109 255 255 0
-0.100821353495 0.0114974770695 -0.0888503268361 255 255 0
-0.204426899552 0.0104905366898 -0.0880738794804 255 255 0
0.518733561039 -0.00751963583753 0.111560627818 255 255 0
0.0203396193683 0.00798513926566 -0.15120562911 255 255 0
0.52024692297 -0.00785430427641 0.162723302841 255 255 0
0.458699911833 -0.00522843236104 0.195675998926 255 255 0
0.0553986653686 -0.004118621815 -0.292959868908 255 255 0
0.109141558409 0.000492376624607 -0.146332040429 255 255 0
0.0556591264904 0.00874928105623 -0.146078303456 255 255 0
0.484926402569 -0.00706952530891 0.209406644106 255 255 0
-0.241772443056 -0.000298533122987 -0.217739507556 255 255 0
0.402943372726 0.00206484552473 0.344310581684 255 255 0
-0.0767342448235 0.0121835358441 -0.0889699757099 255 255 0
0.529534995556 0.00298742740415 0.14519032836 255 255 0
0.0528609491885 0.00919493474066 -0.15758356452 255 255 0
0.29670420289 -0.00211388687603 0.0699064955115 255 255 0
0.521416127682 -0.00632300740108 0.258532375097 255 255 0
-0.0222450233996 -0.00413531716913 -0.297811329365 255 255 0
0.442765474319 -0.00209948141128 0.245857328176 255 255 0
0.291384130716 -0.00714052235708 -0.123381122947 255 255 0
0.0125852990896 0.0102372998372 -0.119618169963 255 255 0
0.259783297777 -0.000548435957171 0.227141648531 255 255 0
0.0942835435271 0.00589566025883 -0.274012863636 255 255 0
0.445918619633 -0.0112541960552 -0.323422193527 255 255 0
0.503959536552 -0.0180337764323 -0.353244364262 255 255 0
0.499637931585 -0.0197288710624 -0.404528051615 255 255 0
0.226061716676 -0.00426738383248 -0.0553022883832 255 255 0
0.480176955462 -0.00820865947753 0.188554480672 255 255 0
0.524146974087 -0.00514180073515 0.191437512636 255 255 0
-0.324969679117 -0.00231343577616 -0.0535570830107 255 255 0
-0.390745192766 -0.00178187969141 0.237131610513 255 255 0
0.448476731777 -0.00842576939613 -0.0407596454024 255 255 0
0.274857521057 -0.00406685983762 -0.115241296589 255 255 0
-0.330673009157 -0.00335165858269 -0.0772128626704 255 255 0
0.0846157670021 -0.00138551101554 -0.29189914465 255 255 0
-0.0071611776948 0.00351846776903 -0.284739673138 255 255 0
0.31382766366 0.00110195600428 0.138663753867 255 255 0
0.0343261212111 0.00875403638929 -0.202286437154 255 255 0
0.543262481689 -0.000903488253243 0.15323586762 255 255 0
-0.101431980729 0.00940342526883 -0.0862001776695 255 255 0
0.0169735979289 0.00793398171663 -0.152169346809 255 255 0
0.101037181914 -0.00206958316267 -0.309612751007 255 255 0
-0.480673193932 -0.00235805637203 0.236936852336 255 255 0
-0.0660281777382 -0.000194267035113 0.231952741742 255 255 0
-0.0249820500612 0.046892490238 -0.174651309848 255 255 0
0.506835281849 -0.0100777791813 0.0316195599735 255 255 0
0.49845507741 -0.00967017561197 0.231924816966 255 255 0
0.293605029583 -0.0115696657449 -0.453758448362 255 255 0
-0.0376992821693 -0.00088481977582 0.135984703898 255 255 0
0.117735527456 7.55023720558e-05 -0.131866976619 255 255 0
0.507676422596 -0.0106872757897 0.0455048494041 255 255 0
-0.09473285079 -0.00799482967705 -0.386756360531 255 255 0
0.480996966362 -0.0145689267665 -0.100347809494 255 255 0
-0.090673327446 0.00340621941723 -0.0766972079873 255 255 0
-0.212307408452 0.0510942749679 -0.168405607343 255 255 0
0.520753085613 -0.00739349471405 0.238706767559 255 255 0
-0.30935305357 -0.00537562556565 -0.191173017025 255 255 0
-0.165208294988 0.0125437136739 -0.194568812847 255 255 0
0.439026236534 0.0010419456521 0.346207618713 255 255 0
-0.0656027272344 0.00622169580311 -0.0800114348531 255 255 0
0.0563743896782 -0.00404713768512 -0.293922752142 255 255 0
0.0240373518318 0.00731240166351 -0.262824624777 255 255 0
0.483046978712 -0.0115705039352 0.0496117435396 255 255 0
0.189977705479 -0.00588340265676 -0.127998366952 255 255 0
-0.324276059866 -0.00297409575433 -0.0386413484812 255 255 0
-0.0542108416557 -0.00876247137785 -0.387705951929 255 255 0
-0.0518711209297 -0.00892648473382 -0.339773207903 255 255 0
-0.175503224134 0.00696591800079 -0.0786451399326 255 255 0
0.518350064754 -0.00678832968697 0.309722602367 255 255 0
0.48116093874 -0.00660154502839 0.325473308563 255 255 0
0.297859162092 -0.00535190617666 -0.0728138759732 255 255 0
0.462826043367 -0.00754006300122 0.0773707926273 255 255 0
-0.114689163864 0.0173905845731 -0.269544750452 255 255 0
0.0981917232275 0.00224177353084 -0.277248173952 255 255 0
-0.324471771717 -0.0017853792524 0.235381364822 255 255 0
-0.0572253987193 0.00864277034998 -0.0850201845169 255 255 0
0.261627852917 -0.000510947837029 0.227462470531 255 255 0
0.195034787059 -0.00424895109609 -0.0749293193221 255 255 0
0.505153119564 -0.0162729024887 -0.305340945721 255 255 0
0.49696880579 -0.00971455592662 0.231977120042 255 255 0
-0.10867485404 0.0106175597757 -0.117309346795 255 255 0
0.0171123407781 0.00897885486484 -0.217880800366 255 255 0
0.506978332996 -0.0112325381488 -0.0287457499653 255 255 0
0.146663635969 0.00207039527595 0.228296682239 255 255 0
-0.1654073596 0.012456565164 -0.192781284451 255 255 0
-0.32115894556 -0.00305745215155 -0.0348824113607 255 255 0
0.448092579842 -0.00962075591087 -0.229230284691 255 255 0
-0.0783336535096 -0.00936537887901 -0.389431625605 255 255 0
0.479698896408 -0.00776558788493 0.307204037905 255 255 0
-0.0658612176776 0.00420470442623 -0.0788327977061 255 255 0
0.474175035954 -0.0107655953616 0.0693531557918 255 255 0
-0.124938294291 7.9535660916e-05 -0.0678703486919 255 255 0
0.508224785328 -0.011297329329 0.0592209845781 255 255 0
0.544284164906 -0.00203489884734 0.307337582111 255 255 0
0.387663453817 0.00327907735482 0.308219909668 255 255 0
-0.216207191348 0.0580983497202 -0.195736289024 255 255 0
0.298473507166 -0.00638493290171 -0.13555637002 255 255 0
-0.0865312591195 -0.00775752868503 -0.343991279602 255 255 0
0.296502232552 -0.0060302587226 -0.187441393733 255 255 0
0.48486238718 -0.00713465549052 0.210795074701 255 255 0
0.192805573344 -0.00488363532349 -0.105280905962 255 255 0
-0.154756367207 0.0530763231218 -0.261983007193 255 255 0
0.506015896797 -0.0130810616538 -0.117471024394 255 255 0
0.0321841612458 0.00512801622972 -0.0812203809619 255 255 0
-0.0492901466787 0.00467109819874 -0.0787925422192 255 255 0
0.165889903903 -0.00612431298941 -0.137639731169 255 255 0
0.43580442667 0.000604819622822 0.225135460496 255 255 0
0.21410804987 -0.00442692125216 -0.0592101216316 255 255 0
-0.191292434931 0.0128555446863 -0.174679800868 255 255 0
0.506926834583 -0.0142619535327 -0.176787570119 255 255 0
0.481037944555 -0.0148414392024 -0.137234091759 255 255 0
-0.223593011498 0.0124187106267 -0.142226561904 255 255 0
-0.221117407084 0.00569127453491 -0.0789570137858 255 255 0
0.20585565269 -0.00640888232738 -0.149526074529 255 255 0
0.523122787476 -0.0130462963134 -0.407843112946 255 255 0
0.0320297218859 0.00312058557756 -0.0801869109273 255 255 0
0.529215872288 -0.00405926350504 0.256615459919 255 255 0
0.286666601896 -0.00692659011111 -0.130994707346 255 255 0
-0.0798802003264 -0.0095791965723 -0.38570150733 255 255 0
0.294122070074 -0.0113782230765 -0.371861964464 255 255 0
-0.0713942497969 0.0493055470288 -0.170542418957 255 255 0
0.482146084309 -0.0121003258973 0.0177838504314 255 255 0
0.44706183672 -0.0124969528988 -0.338351428509 255 255 0
0.296238183975 -0.00877717230469 -0.256035327911 255 255 0
0.507323205471 -0.0155996698886 -0.190097391605 255 255 0
0.147815212607 -0.00425031129271 -0.10415456444 255 255 0
0.482543736696 -0.0098351566121 0.139910504222 255 255 0
0.526795983315 -0.00537531077862 0.112424954772 255 255 0
-0.142532765865 0.0172062888741 -0.239867478609 255 255 0
0.508859097958 -0.00997702497989 0.0735511183739 255 255 0
-0.112530983984 -0.00753560848534 -0.364965468645 255 255 0
0.00961933284998 0.0107214506716 -0.174958437681 255 255 0
-0.0395945981145 0.00914335437119 -0.0850730389357 255 255 0
-0.0581204071641 0.052354414016 -0.186282798648 255 255 0
0.422281771898 0.00258938362822 0.344790428877 255 255 0
-0.187825292349 0.010529906489 -0.250199228525 255 255 0
0.480890870094 -0.0133474664763 -0.0843090638518 255 255 0
-0.201827839017 -0.00176704139449 0.225189983845 255 255 0
0.525338768959 -0.00541108613834 0.112306557596 255 255 0
0.467162370682 -0.0194871332496 -0.42994889617 255 255 0
0.287586182356 -0.00330002233386 0.090265288949 255 255 0
0.48064276576 -0.0158979780972 -0.157199561596 255 255 0
0.504854798317 -0.0161987654865 -0.264264434576 255 255 0
0.311961680651 0.00135325384326 0.131997600198 255 255 0
0.295658022165 -0.00890323054045 -0.33940461278 255 255 0
0.477443218231 -0.0118946488947 0.0103603871539 255 255 0
0.128088578582 -0.000121286117064 -0.121137812734 255 255 0
-0.318853408098 -0.00130751240067 0.228384271264 255 255 0
0.294895499945 -0.0103622749448 -0.350772112608 255 255 0
-0.0904466062784 -0.0081488173455 -0.337837427855 255 255 0
0.486705243587 -0.00831607729197 0.280728250742 255 255 0
0.248663917184 -0.00127200270072 0.150344073772 255 255 0
0.18226416409 -0.00474360957742 -0.0719952359796 255 255 0
-0.315654575825 -0.00271414755844 -0.0389996506274 255 255 0
0.346366465092 -0.000425605976488 0.149430587888 255 255 0
0.433897763491 -0.00114703539293 0.133705586195 255 255 0
-0.109593182802 0.0483965165913 -0.174276769161 255 255 0
-0.0827260091901 0.0533680655062 -0.18086630106 255 255 0
0.459780305624 -0.00349536561407 0.244118988514 255 255 0
0.300561636686 -0.00211726152338 0.0294834710658 255 255 0
0.432885676622 -0.00109265197534 0.13188610971 255 255 0
0.22284296155 -0.00451613357291 -0.0947291776538 255 255 0
0.0700640529394 -0.0027408900205 -0.314082801342 255 255 0
-0.0378003232181 -0.00190089643002 0.115314267576 255 255 0
-0.084502749145 0.0534017831087 -0.18270637095 255 255 0
0.44458347559 0.00164211820811 0.336490899324 255 255 0
0.474545627832 -0.0134128062055 -0.0439206883311 255 255 0
0.271603316069 -0.00485948240384 -0.0998779609799 255 255 0
-0.140761375427 0.0191707592458 -0.238957196474 255 255 0
0.473651647568 -0.00818877108395 0.141188710928 255 255 0
0.205720946193 -0.000178795162356 0.228429064155 255 255 0
-0.0664782300591 0.00213534268551 -0.0767279863358 255 255 0
-0.114320725203 -0.00775344157591 -0.361297994852 255 255 0
0.481786519289 -0.00996438693255 0.0993880331516 255 255 0
0.508885502815 -0.0084379222244 0.254254847765 255 255 0
0.51189404726 -0.00845442246646 0.213593676686 255 255 0
0.523816287518 -0.0100705185905 -0.386888235807 255 255 0
0.511151075363 -0.0135726705194 -0.360831737518 255 255 0
0.098626896739 -0.00174309138674 0.153491258621 255 255 0
-0.424200206995 -0.00045442613191 0.230184823275 255 255 0
-0.0302740521729 0.00325165665708 -0.0787744820118 255 255 0
0.47180134058 -0.00817344710231 0.139706328511 255 255 0
0.0159775745124 -0.00926807057112 -0.333134382963 255 255 0
0.311335116625 7.34258064767e-05 0.116784721613 255 255 0
-0.0229225941002 0.00129124487285 -0.0741216689348 255 255 0
0.20722669363 -0.0062672519125 -0.151782125235 255 255 0
0.292266130447 -0.00524504249915 -0.0786222144961 255 255 0
0.517362117767 -0.00686822878197 0.267975479364 255 255 0
-0.329469650984 -0.00261706928723 -0.049687422812 255 255 0
-0.163863614202 0.00951376091689 -0.0844123214483 255 255 0
0.0058382996358 0.00857777241617 -0.0874105542898 255 255 0
0.476372927427 -0.010038420558 0.0547704100609 255 255 0
0.469932854176 -0.0189547501504 -0.39701884985 255 255 0
-0.214713454247 0.0025847570505 -0.0497610643506 255 255 0
0.481201171875 -0.0156942233443 -0.118434339762 255 255 0
0.295174449682 -0.00891389418393 -0.29658344388 255 255 0
-0.0183866936713 0.0093072745949 -0.118414722383 255 255 0
-0.0571284107864 -0.00747658731416 -0.331934720278 255 255 0
0.0170908663422 0.00979693327099 -0.192944839597 255 255 0
-0.0862320289016 -0.00798860564828 -0.381626099348 255 255 0
-0.197922348976 0.00185125961434 -0.0661619082093 255 255 0
0.44772040844 -0.0134452441707 -0.360037565231 255 255 0
