ply
format ascii 1.0
comment https://github.com/EricCJoyce
element vertex 852
property float x
property float y
property float z
property uchar red
property uchar green
property uchar blue
end_header
0.123160608113 0.24969278276 0.736874043941 255 255 0
0.115201897919 0.253767997026 0.734416127205 255 255 0
0.115508899093 0.249971717596 0.732612550259 255 255 0
-0.124688483775 -0.122289448977 0.367836654186 255 255 0
-0.135624915361 0.371007323265 0.550288081169 255 255 0
0.121883802116 -0.218851074576 0.548129320145 255 255 0
0.09957613796 0.390922755003 0.547798454762 255 255 0
-0.140881001949 0.210963010788 0.381346106529 255 255 0
-0.0825332999229 0.426484465599 0.547961294651 255 255 0
-0.12767162919 -0.229566559196 0.523364841938 255 255 0
-0.0732176378369 0.412749916315 0.502210438251 255 255 0
-0.0854413658381 0.402951210737 0.488982081413 255 255 0
-0.139218539 0.211881622672 0.382059842348 255 255 0
0.112892434001 0.244149059057 0.702023863792 255 255 0
-0.086011081934 -0.223877519369 0.475069612265 255 255 0
-0.0830645486712 0.426409572363 0.549102187157 255 255 0
-0.0740275532007 0.433804392815 0.549425065517 255 255 0
-0.0144561678171 0.448059588671 0.545013666153 255 255 0
-0.0861053839326 0.411676883698 0.575680196285 255 255 0
-0.104310132563 0.398420065641 0.545969665051 255 255 0
-0.0869347527623 0.411274015903 0.574406027794 255 255 0
-0.0751094520092 0.433107107878 0.550609230995 255 255 0
-0.123968631029 -0.123810470104 0.399943590164 255 255 0
-0.118530295789 0.368861049414 0.525069713593 255 255 0
-0.132733359933 -0.218668729067 0.536254644394 255 255 0
-0.138814002275 -0.213360190392 0.543460726738 255 255 0
-0.0691039711237 0.434906035662 0.538792192936 255 255 0
-0.137644350529 -0.212712660432 0.543942451477 255 255 0
-0.101667828858 -0.248611345887 0.510208249092 255 255 0
-0.0849866718054 0.417033046484 0.572682440281 255 255 0
-0.108056202531 0.36352750659 0.489204466343 255 255 0
-0.0890854597092 0.398027390242 0.473765105009 255 255 0
-0.0692850276828 0.415546894073 0.597904026508 255 255 0
-0.127731800079 -0.116542764008 0.393201977015 255 255 0
0.12642391026 -0.213524848223 -0.393414288759 255 255 0
-0.0892792418599 0.39802595973 0.471931368113 255 255 0
-0.100099153817 0.382269173861 0.479556679726 255 255 0
-0.0172321293503 0.448574960232 0.549556493759 255 255 0
-0.0676693096757 0.422343820333 0.500754535198 255 255 0
-0.077070876956 0.413082093 0.489227443933 255 255 0
-0.0861288234591 0.413075327873 0.573337674141 255 255 0
-0.0668842121959 0.421672552824 0.501991152763 255 255 0
-0.0666427910328 0.421741098166 0.500946700573 255 255 0
-0.0691694393754 0.415464013815 0.596618235111 255 255 0
-0.100142098963 0.38427990675 0.520709693432 255 255 0
0.220923393965 -0.261962860823 -0.474065005779 255 255 0
0.222263172269 -0.263224512339 -0.474623143673 255 255 0
-0.0732891708612 0.411366254091 0.599403858185 255 255 0
0.122908048332 -0.212450563908 -0.393522173166 255 255 0
-0.6018435359 -0.392005175352 -0.478180170059 255 255 0
-0.12399931252 -0.229702681303 -0.391651540995 255 255 0
-0.104378603399 0.391915380955 0.537831127644 255 255 0
-0.103017479181 0.395695596933 0.539881885052 255 255 0
-0.466341406107 -0.237429723144 -0.57559388876 255 255 0
-0.121164977551 0.376324236393 0.536780893803 255 255 0
-0.0700175389647 -0.02013605088 0.472116053104 255 255 0
-0.100547008216 0.374962896109 0.596342086792 255 255 0
-0.0753464773297 0.407425045967 0.599806010723 255 255 0
-0.281913757324 -0.234182536602 -0.595991671085 255 255 0
-0.0810196325183 -0.322837769985 0.41824734211 255 255 0
0.113947860897 -0.124973274767 0.372898191214 255 255 0
-0.0208031553775 0.446528345346 0.540869235992 255 255 0
-0.097053989768 0.380310624838 0.595386087894 255 255 0
0.102331638336 0.365068793297 0.608328282833 255 255 0
0.0747380852699 -0.201120153069 0.555267512798 255 255 0
-0.541927576065 -0.246161848307 -0.605585992336 255 255 0
-0.0111016333103 -0.178652793169 0.518594741821 255 255 0
0.0945813730359 -0.237589612603 0.525050580502 255 255 0
-0.102679096162 0.369186073542 0.596750199795 255 255 0
-0.0165995825082 0.44655418396 0.540481209755 255 255 0
-0.30770868063 -0.241095796227 -0.613816082478 255 255 0
0.128301560879 0.228568837047 0.690109729767 255 255 0
-0.00419044168666 0.406693309546 0.730386912823 255 255 0
-0.141780793667 0.216896191239 0.424169152975 255 255 0
-0.0566181913018 -0.175837978721 0.559820711613 255 255 0
-0.511778414249 -0.267494767904 -0.48724681139 255 255 0
0.120428286493 0.233452320099 0.686072349548 255 255 0
-0.0923653319478 0.409238189459 0.572148084641 255 255 0
-0.510699689388 -0.238096386194 -0.600133419037 255 255 0
-0.0646370202303 -0.0332345850766 0.472710490227 255 255 0
-0.0964228510857 0.384150892496 0.596520662308 255 255 0
-0.0985564738512 0.404637008905 0.57298541069 255 255 0
-0.510876834393 -0.265014022589 -0.488190501928 255 255 0
-0.0759821534157 -0.166733711958 0.471246004105 255 255 0
0.109381772578 0.216908574104 0.371138721704 255 255 0
-0.0941127687693 0.407164633274 0.573696196079 255 255 0
-0.0722524747252 -0.00901798345149 0.341330170631 255 255 0
-0.0495062842965 -0.366587251425 0.523060560226 255 255 0
-0.0633541122079 0.418413549662 0.596955239773 255 255 0
-0.00741532258689 0.407446891069 0.726142466068 255 255 0
0.108132183552 0.399635404348 0.615303218365 255 255 0
0.101154513657 0.417170137167 0.632261753082 255 255 0
-0.121118351817 0.225442245603 0.405733048916 255 255 0
0.0423022732139 0.414847940207 0.606155455112 255 255 0
-0.00715975370258 0.407714009285 0.724165797234 255 255 0
0.103141978383 -0.223331823945 -0.406697183847 255 255 0
-0.046674977988 -0.198257312179 0.502465009689 255 255 0
-0.119653686881 -0.228292986751 -0.391039669514 255 255 0
-0.0541265383363 -0.185425117612 0.517924249172 255 255 0
-0.0305856596678 0.386173844337 0.386772990227 255 255 0
-0.106777027249 0.39836370945 0.558876335621 255 255 0
-0.0387347452343 0.448713421822 0.542613387108 255 255 0
-0.0522217787802 -0.196842774749 0.500736773014 255 255 0
-0.523742556572 -0.279218256474 -0.474297255278 255 255 0
-0.422494351864 -0.23028922081 -0.547462165356 255 255 0
-0.101174898446 -0.228471532464 -0.38829395175 255 255 0
0.12479468435 0.231402561069 0.717320382595 255 255 0
-0.0542752370238 -0.197912022471 0.498771339655 255 255 0
0.0791259557009 0.356753200293 0.49511218071 255 255 0
-0.000414722657297 0.411389410496 0.72791659832 255 255 0
0.114281058311 0.385564684868 0.607881128788 255 255 0
0.11591706425 -0.368866920471 -0.515449464321 255 255 0
0.0986646190286 -0.12110619992 0.443108618259 255 255 0
-0.088716186583 -0.274563580751 -0.358397930861 255 255 0
-0.0500343777239 -0.174882531166 0.565766394138 255 255 0
-0.0936982706189 -0.224999755621 -0.403774380684 255 255 0
-0.324929326773 -0.233556702733 -0.606442809105 255 255 0
-0.605156004429 -0.382722020149 -0.484221756458 255 255 0
-0.091214671731 -0.200288936496 0.558678984642 255 255 0
0.0293541885912 0.425683051348 0.626642286777 255 255 0
-0.103813119233 0.373552113771 0.513525724411 255 255 0
-0.0917654186487 -0.199791938066 0.544967889786 255 255 0
0.0833732560277 -0.0993321090937 0.388323485851 255 255 0
-0.0892293155193 -0.270447969437 -0.356634140015 255 255 0
-0.0831792652607 -0.356178075075 0.523511588573 255 255 0
-0.115776538849 0.37649834156 0.574676156044 255 255 0
-0.511224269867 -0.267369151115 -0.488496720791 255 255 0
-0.0245765782893 0.434479892254 0.485838890076 255 255 0
0.106271997094 -0.239367961884 0.582289278507 255 255 0
-0.0497140102088 -0.182853966951 0.517614722252 255 255 0
0.0831868201494 -0.101304754615 0.41767770052 255 255 0
-0.325595855713 -0.25503385067 -0.631347060204 255 255 0
-0.413793057203 -0.229714855552 -0.54875600338 255 255 0
-0.133526310325 -0.1172336936 0.423990994692 255 255 0
0.206157997251 -0.257492780685 -0.482550501823 255 255 0
-0.599497139454 -0.36638006568 -0.494629710913 255 255 0
-0.0372322648764 -0.183358564973 0.517045080662 255 255 0
-0.0931063145399 -0.223595365882 -0.402938723564 255 255 0
-0.0715839341283 0.424654632807 0.575865983963 255 255 0
0.113432496786 -0.26817882061 -0.498797237873 255 255 0
0.103047072887 -0.108909450471 0.426629722118 255 255 0
-0.0252659469843 0.434152960777 0.486883610487 255 255 0
-0.0422137342393 -0.18296213448 0.516420245171 255 255 0
-0.335166960955 -0.25234028697 -0.617962121964 255 255 0
-0.117325536907 -0.110717147589 0.396417230368 255 255 0
0.205820903182 0.41278603673 0.757132411003 255 255 0
-0.544708430767 -0.24425624311 -0.514050841331 255 255 0
0.0228823162615 -0.172012120485 0.567927122116 255 255 0
0.0848484188318 -0.102688699961 0.42363858223 255 255 0
-0.307397514582 -0.261163890362 -0.486939311028 255 255 0
-0.419271588326 -0.228298351169 -0.54956060648 255 255 0
0.103740245104 0.449659585953 0.672307908535 255 255 0
0.0758009031415 0.362342476845 0.507192730904 255 255 0
0.076386615634 0.366502344608 0.507513523102 255 255 0
-0.109269991517 0.329580277205 0.515934765339 255 255 0
0.0872035771608 -0.103471554816 0.415456682444 255 255 0
0.206240832806 0.276348352432 0.655587077141 255 255 0
0.0456692688167 -0.178125023842 0.529862582684 255 255 0
0.108458168805 -0.241203844547 0.526549458504 255 255 0
-0.0418549850583 0.439887791872 0.522722601891 255 255 0
-0.00810878351331 -0.165536448359 0.554581046104 255 255 0
-0.419745504856 -0.229927092791 -0.545529007912 255 255 0
-0.12275415659 -0.402288228273 -0.515098035336 255 255 0
0.107016593218 0.229897409678 0.398571312428 255 255 0
-0.0915690362453 -0.256995290518 0.221750602126 255 255 0
0.0122785707936 -0.169819116592 0.559759497643 255 255 0
-0.627642273903 -0.378917127848 -0.482578277588 255 255 0
0.0841625332832 -0.101653598249 0.41463381052 255 255 0
0.0213867351413 -0.172012120485 0.570214092731 255 255 0
-0.124344304204 0.224016711116 0.411898612976 255 255 0
-0.0416315346956 -0.182573214173 0.515556335449 255 255 0
-0.101653702557 -0.226007893682 -0.388443887234 255 255 0
-0.0233858115971 0.434702306986 0.48739990592 255 255 0
-0.306639522314 -0.259355932474 -0.48552146554 255 255 0
-0.0894509851933 0.401100456715 0.517186105251 255 255 0
-0.345316469669 -0.249627530575 -0.61044049263 255 255 0
-0.103955328465 0.392420619726 0.573907077312 255 255 0
-0.118182688951 -0.107883021235 0.416119873524 255 255 0
-0.0951536148787 -0.267882704735 0.218040853739 255 255 0
-0.0911097377539 -0.38455337286 -0.515297532082 255 255 0
-0.603458940983 -0.36285763979 -0.493469208479 255 255 0
-0.0519934892654 -0.248594611883 -0.436721324921 255 255 0
0.0542460605502 0.304053634405 0.357262820005 255 255 0
-0.0974261164665 -0.272313058376 0.494334638119 255 255 0
0.0130347618833 -0.167058989406 0.557840168476 255 255 0
-0.112468414009 0.222983121872 0.36800134182 255 255 0
0.200938612223 0.274928361177 0.655114233494 255 255 0
-0.0917163714767 -0.252435147762 0.219654291868 255 255 0
0.114258989692 0.381890505552 0.555365562439 255 255 0
0.101463548839 -0.225132673979 -0.408631831408 255 255 0
-0.098841547966 -0.383826047182 -0.516933500767 255 255 0
0.00770047493279 -0.186539977789 -0.311266690493 255 255 0
-0.109353512526 0.356814444065 0.588016688824 255 255 0
-0.134753376245 0.203791707754 0.409156501293 255 255 0
-0.141040205956 -0.215105608106 0.541601717472 255 255 0
-0.0896277949214 -0.384526222944 -0.515709519386 255 255 0
-0.130248397589 -0.132491379976 0.408717393875 255 255 0
0.0582825094461 -0.192860037088 0.262465059757 255 255 0
-0.0649845972657 -0.335849374533 0.40712583065 255 255 0
0.227070882916 -0.227230504155 -0.511357963085 255 255 0
-0.0914789587259 0.395143032074 0.498619943857 255 255 0
0.102785684168 -0.221581146121 -0.405739843845 255 255 0
-0.543375253677 -0.247647896409 -0.514259696007 255 255 0
-0.128624036908 0.368405222893 0.538138687611 255 255 0
-0.0174214374274 0.404955655336 0.411842346191 255 255 0
0.0696539953351 -0.269138842821 -0.484974443913 255 255 0
-0.0428752303123 -0.173012003303 0.569845438004 255 255 0
-0.00720471236855 -0.213317513466 -0.442202359438 255 255 0
-0.280381470919 -0.287836879492 -0.489434540272 255 255 0
-0.0800701603293 0.426303267479 0.558312654495 255 255 0
0.113800488412 0.387396872044 0.606989502907 255 255 0
0.0395257659256 -0.180826321244 0.556411266327 255 255 0
-0.062249623239 -0.179513707757 0.539448440075 255 255 0
-0.347412496805 -0.250887721777 -0.609649896622 255 255 0
-0.120154500008 -0.222062215209 0.566998541355 255 255 0
0.0360050573945 -0.179939180613 0.572637438774 255 255 0
0.0055936044082 0.283557683229 0.724663376808 255 255 0
-0.0391057804227 -0.357840269804 0.506123840809 255 255 0
-0.111387342215 0.393489718437 0.559831559658 255 255 0
-0.0488572195172 0.271666973829 0.332412272692 255 255 0
-0.644288599491 -0.375360816717 -0.494176834822 255 255 0
-0.0668123438954 -0.155155941844 0.48821118474 255 255 0
-0.628617167473 -0.380545556545 -0.482685625553 255 255 0
0.00170512415934 -0.167474716902 0.5310074687 255 255 0
-0.0635949894786 -0.194014415145 0.269952893257 255 255 0
-0.625803351402 -0.377724587917 -0.484059512615 255 255 0
-0.115479163826 0.221851557493 0.369523346424 255 255 0
0.198572173715 -0.258661180735 -0.488943845034 255 255 0
-0.0587028414011 -0.267568558455 -0.48614987731 255 255 0
-0.00595935760066 -0.187593743205 -0.332351416349 255 255 0
-0.0935670509934 0.0988400876522 0.446408092976 255 255 0
-0.040658634156 0.448994219303 0.542696177959 255 255 0
0.0961296781898 -0.227891340852 0.566960513592 255 255 0
0.0214476604015 -0.16982473433 0.534549057484 255 255 0
0.219683125615 -0.224383339286 -0.509850084782 255 255 0
-0.529160737991 -0.241954043508 -0.509264409542 255 255 0
-0.0141249643639 -0.167549341917 0.551907658577 255 255 0
-0.00889509916306 -0.169382691383 0.535896539688 255 255 0
0.224921539426 -0.221168458462 -0.515545964241 255 255 0
-0.131250813603 0.363245666027 0.571071743965 255 255 0
0.12691219151 0.206578835845 0.437559098005 255 255 0
-0.404608994722 -0.25857591629 -0.506335556507 255 255 0
-0.0829777270555 -0.242047205567 -0.360350847244 255 255 0
0.193012133241 0.433753311634 0.711765885353 255 255 0
-0.106379628181 -0.209090158343 0.5589620471 255 255 0
-0.12319444865 -0.254779845476 0.256299942732 255 255 0
-0.0703085139394 0.434100717306 0.559988319874 255 255 0
-0.0118464445695 -0.18013061583 0.519432127476 255 255 0
0.0733505263925 -0.217776656151 0.291245996952 255 255 0
-0.0597081296146 -0.263662278652 -0.485634624958 255 255 0
-0.283568263054 -0.267670869827 -0.492763251066 255 255 0
-0.0327314585447 0.447816073895 0.563325345516 255 255 0
-0.0278704799712 -0.115030951798 0.5016913414 255 255 0
-0.544210791588 -0.239070177078 -0.525668203831 255 255 0
-0.0408526211977 0.44651645422 0.541024148464 255 255 0
0.20175807178 0.284297585487 0.643822550774 255 255 0
0.0628132149577 -0.126304164529 0.490162193775 255 255 0
-0.402668625116 -0.256525099277 -0.507023096085 255 255 0
-0.532050490379 -0.243976026773 -0.510544359684 255 255 0
-0.0190428514034 -0.183856442571 0.503161907196 255 255 0
-0.120570451021 -0.226996362209 0.569892942905 255 255 0
0.103359460831 -0.112366296351 0.409057736397 255 255 0
0.183297887444 0.433726847172 0.695753455162 255 255 0
-0.0673233792186 0.437258154154 0.556457400322 255 255 0
-0.622737824917 -0.372597396374 -0.483154654503 255 255 0
0.205311015248 -0.26194730401 -0.48183631897 255 255 0
-0.00348673551343 -0.164804279804 0.553916990757 255 255 0
-0.0859470441937 -0.237247869372 0.222829669714 255 255 0
0.0771902054548 -0.0967057272792 0.401745557785 255 255 0
-0.019632788375 -0.168915435672 0.552352786064 255 255 0
0.104863107204 0.228705257177 0.400405019522 255 255 0
-0.632190525532 -0.278985738754 -0.514061868191 255 255 0
-0.00779178272933 -0.185287714005 -0.313246488571 255 255 0
0.129505544901 0.209718987346 0.435877233744 255 255 0
-0.405921041965 -0.259228557348 -0.506121814251 255 255 0
0.0357445627451 0.263154178858 0.702593028545 255 255 0
0.0434478037059 0.433411866426 0.681208074093 255 255 0
-0.0012639623601 -0.16917386651 0.530703186989 255 255 0
-0.0628761053085 -0.170115530491 0.475757926702 255 255 0
0.014051316306 -0.170496374369 0.554842412472 255 255 0
0.0682633295655 -0.0934763848782 0.429060906172 255 255 0
0.041810464114 -0.180058091879 0.524905860424 255 255 0
0.00773058924824 -0.172722890973 0.525968372822 255 255 0
0.109152391553 0.413653939962 0.624442398548 255 255 0
0.0831003412604 -0.103057481349 0.443112969398 255 255 0
0.0337670557201 -0.219361975789 -0.447738707066 255 255 0
-0.125573769212 0.3733266294 0.533319115639 255 255 0
-0.00635487493128 -0.185735747218 -0.339442253113 255 255 0
-0.547217488289 -0.240492880344 -0.525582849979 255 255 0
-0.634405255318 -0.278130590916 -0.512996137142 255 255 0
-0.106857471168 -0.253473550081 0.241489365697 255 255 0
-0.0451027229428 0.434332311153 0.518411040306 255 255 0
-0.0974298715591 -0.247328191996 0.443769305944 255 255 0
-0.404065191746 -0.259875684977 -0.506701350212 255 255 0
-0.0818126425147 -0.238244697452 -0.35864007473 255 255 0
-0.53052854538 -0.24088512361 -0.513179063797 255 255 0
0.202774092555 -0.264964997768 -0.482343018055 255 255 0
-0.0424516759813 -0.172654807568 0.536225199699 255 255 0
0.181182637811 0.277942508459 0.646284520626 255 255 0
-0.632618367672 -0.28161495924 -0.513010442257 255 255 0
-0.127586334944 -0.235672205687 0.571525990963 255 255 0
0.0710780844092 -0.194607168436 -0.376263916492 255 255 0
-0.0213510598987 -0.167267426848 0.543128788471 255 255 0
0.0392930209637 0.429780304432 0.676887571812 255 255 0
-0.537366092205 -0.244744315743 -0.510463297367 255 255 0
-0.478933542967 -0.268076837063 -0.501132071018 255 255 0
-0.353625237942 -0.25021469593 -0.605473577976 255 255 0
0.00781073886901 -0.185583949089 -0.329641729593 255 255 0
-0.533681511879 -0.239917725325 -0.512736082077 255 255 0
-0.107154235244 0.364434957504 0.479347765446 255 255 0
0.0177899673581 -0.216972231865 -0.444075316191 255 255 0
-0.0517440401018 -0.100982241333 0.489338338375 255 255 0
0.0357798449695 0.263369590044 0.699265778065 255 255 0
0.19870878756 -0.272797435522 -0.478028595448 255 255 0
0.0722787380219 -0.126275017858 0.47626978159 255 255 0
0.13474920392 -0.216349422932 -0.549118638039 255 255 0
-0.0928293392062 -0.204281434417 0.436807543039 255 255 0
0.0717907249928 -0.0712625011802 0.405819535255 255 255 0
-0.122590303421 -0.114742189646 0.412650674582 255 255 0
-0.0253064278513 -0.166107475758 0.559054255486 255 255 0
-0.045995991677 -0.238361567259 -0.473922848701 255 255 0
-0.109604455531 -0.218661114573 0.536884307861 255 255 0
-0.0443730205297 0.434878319502 0.516357421875 255 255 0
-0.0882174894214 -0.19609542191 0.442834466696 255 255 0
-0.123902983963 0.219703748822 0.399250507355 255 255 0
-0.0846281275153 0.415567219257 0.52537125349 255 255 0
-0.641515314579 -0.374280720949 -0.493597745895 255 255 0
-0.0971156284213 0.0737449973822 0.378945887089 255 255 0
0.00774155277759 0.449759215117 0.551328957081 255 255 0
-0.0844417586923 -0.237175777555 0.221732914448 255 255 0
0.117226749659 -0.144992008805 0.373396664858 255 255 0
0.213842868805 -0.209598407149 -0.524548530579 255 255 0
-0.605870068073 -0.370436131954 -0.49248290062 255 255 0
-0.371467322111 -0.251715600491 -0.601866006851 255 255 0
-0.0772338286042 -0.328550606966 0.467943310738 255 255 0
0.208050459623 0.412632972002 0.759392857552 255 255 0
0.0968244373798 0.390454441309 0.620030462742 255 255 0
-0.475745469332 -0.268951028585 -0.500645935535 255 255 0
0.0872954651713 0.338072925806 0.523411691189 255 255 0
0.124012634158 0.212336629629 0.443788379431 255 255 0
-0.0226430930197 -0.221669465303 -0.432200521231 255 255 0
0.0947331786156 0.391591578722 0.620158791542 255 255 0
0.0216538794339 -0.174551963806 -0.37463542819 255 255 0
0.028598902747 0.263524025679 0.691916704178 255 255 0
-0.084927238524 -0.217340528965 -0.400372475386 255 255 0
-0.0204991679639 0.448734790087 0.566905975342 255 255 0
-0.0695510953665 -0.339927017689 0.501937866211 255 255 0
-0.115682035685 0.347103238106 0.463624149561 255 255 0
-0.0161366630346 0.448916465044 0.564142823219 255 255 0
-0.0637321919203 -0.338415712118 0.433109819889 255 255 0
-0.0747725740075 0.130911782384 0.469518899918 255 255 0
0.0919071882963 -0.259830951691 -0.160027235746 255 255 0
0.130648732185 -0.247302398086 -0.504559576511 255 255 0
-0.0146342786029 -0.184588238597 0.208659663796 255 255 0
0.129748061299 -0.213519945741 -0.548210799694 255 255 0
-0.108870744705 0.236323669553 0.417701780796 255 255 0
0.185412496328 0.280003011227 0.64647513628 255 255 0
0.125371322036 0.207124561071 0.442439079285 255 255 0
-0.0173729173839 0.448823690414 0.565555274487 255 255 0
-0.0882588848472 -0.1547780931 0.466584384441 255 255 0
-0.093387760222 -0.273334354162 0.17553986609 255 255 0
-0.0360850468278 -0.190818369389 0.293956875801 255 255 0
0.077151067555 -0.219429507852 -0.346876531839 255 255 0
-0.0466595515609 -0.18159390986 0.269609689713 255 255 0
0.11524450779 -0.22928775847 -0.37556797266 255 255 0
-0.243426024914 -0.222366169095 -0.541206002235 255 255 0
-0.074511654675 -0.198205903172 0.520516335964 255 255 0
-0.574034810066 -0.250475615263 -0.590533733368 255 255 0
0.182308092713 -0.263408124447 -0.491302788258 255 255 0
-0.117480479181 0.376192241907 0.56341445446 255 255 0
-0.0718906149268 -0.332238942385 0.412565946579 255 255 0
0.0185952279717 -0.186322972178 -0.342683851719 255 255 0
-0.244990214705 -0.222226262093 -0.552100241184 255 255 0
-0.0597231686115 -0.248259887099 -0.504294395447 255 255 0
-0.0805892944336 -0.1124124825 0.477128565311 255 255 0
0.195688664913 0.414594054222 0.641260921955 255 255 0
-0.0946408063173 -0.104588113725 0.362535536289 255 255 0
-0.0963281095028 -0.145167261362 0.344857305288 255 255 0
-0.0831865146756 -0.318101525307 0.432908385992 255 255 0
-0.112354695797 -0.222644403577 0.536322414875 255 255 0
0.1322363168 -0.25089776516 -0.504644811153 255 255 0
-0.107558399439 -0.112653702497 0.372366815805 255 255 0
0.0716357305646 -0.216104626656 -0.337894678116 255 255 0
0.125431030989 -0.218979820609 -0.532667696476 255 255 0
0.0726485028863 -0.140350073576 0.480453073978 255 255 0
0.207233771682 -0.211877778172 -0.521475076675 255 255 0
-0.11430568248 0.315694391727 0.473118066788 255 255 0
0.0245379339904 -0.169224575162 0.554227352142 255 255 0
-0.622968614101 -0.26351198554 -0.570734083652 255 255 0
-0.121557489038 0.374596118927 0.563120484352 255 255 0
-0.0525761581957 -0.172192573547 0.538157105446 255 255 0
0.187475994229 0.27868232131 0.648262619972 255 255 0
-0.0245055109262 -0.223259598017 -0.443292409182 255 255 0
0.0202607382089 -0.121125765145 0.509316802025 255 255 0
0.0392261408269 -0.191378980875 -0.360669106245 255 255 0
-0.05393929407 -0.172469824553 0.529684364796 255 255 0
0.116083651781 -0.226234123111 -0.384859681129 255 255 0
-0.0393390208483 0.431617558002 0.589113712311 255 255 0
0.109692953527 -0.117863923311 0.434917896986 255 255 0
-0.0168374069035 -0.185823440552 0.512909293175 255 255 0
0.123265340924 0.203349664807 0.449097812176 255 255 0
-0.0987351536751 0.232230961323 0.358028739691 255 255 0
-0.0947531014681 -0.244948446751 0.452135056257 255 255 0
-0.061415348202 -0.250086814165 -0.502312660217 255 255 0
0.0191681813449 0.44116833806 0.57192158699 255 255 0
0.152794227004 -0.216115310788 -0.572150588036 255 255 0
-0.0932999998331 -0.223182275891 0.243902206421 255 255 0
-0.070593893528 -0.217191904783 0.215492352843 255 255 0
-0.06937610358 -0.340138167143 0.503488481045 255 255 0
-0.017971875146 -0.174544796348 -0.374796837568 255 255 0
-0.036739166826 0.435438334942 0.586031258106 255 255 0
0.0383209325373 -0.192187085748 -0.35595485568 255 255 0
0.0335583686829 -0.190861299634 -0.348694294691 255 255 0
-0.0949238613248 0.0616641454399 0.375500380993 255 255 0
-0.0918383523822 -0.222425967455 0.245380401611 255 255 0
-0.0423091948032 0.431625694036 0.590043962002 255 255 0
-0.0936423912644 -0.227770596743 0.241770729423 255 255 0
0.0802622586489 -0.226712539792 -0.355198532343 255 255 0
0.0985110998154 -0.268943101168 -0.340555816889 255 255 0
-0.0669256970286 -0.229572877288 -0.52065962553 255 255 0
0.0643993541598 -0.18926627934 -0.37902367115 255 255 0
0.141729265451 0.235311418772 0.717431128025 255 255 0
-0.00494008697569 -0.183778136969 0.512824594975 255 255 0
0.0801493898034 -0.249486759305 -0.503140330315 255 255 0
-0.0196146573871 -0.189176291227 -0.330787181854 255 255 0
0.0295005328953 0.26376247406 0.681191682816 255 255 0
0.0965816304088 0.390388429165 0.621036291122 255 255 0
-0.0982545018196 -0.255868911743 0.443413823843 255 255 0
-0.0367571786046 -0.358725786209 0.499444007874 255 255 0
-0.0469818525016 -0.180974766612 -0.385973036289 255 255 0
-0.0188593193889 -0.174376085401 -0.375509798527 255 255 0
0.00879165623337 -0.168471947312 0.569219112396 255 255 0
-0.0328726135194 0.449532628059 0.554728925228 255 255 0
0.189930438995 -0.24703374505 -0.61470156908 255 255 0
0.15663254261 -0.218031719327 -0.576447784901 255 255 0
-0.0851438120008 0.396052271128 0.619168460369 255 255 0
0.132431045175 -0.219188541174 -0.529477059841 255 255 0
-0.126155644655 0.222348645329 0.37765404582 255 255 0
0.171785131097 0.386518865824 0.620448291302 255 255 0
-0.0854192078114 0.399258553982 0.604932308197 255 255 0
0.0624084062874 -0.125802725554 0.486392199993 255 255 0
-0.128389492631 0.371384114027 0.538518249989 255 255 0
-0.33586153388 -0.236763447523 -0.50832682848 255 255 0
-0.0601247996092 -0.0824405103922 0.476158410311 255 255 0
-0.0641411542892 -0.357554376125 0.515093266964 255 255 0
0.114874765277 0.220233246684 0.406975448132 255 255 0
0.0313502810895 0.434405118227 0.576122403145 255 255 0
0.0676088556647 -0.212377682328 -0.335038900375 255 255 0
-0.0324472151697 -0.166129171848 0.555749058723 255 255 0
0.116039074957 0.22626760602 0.439920216799 255 255 0
-0.0543636567891 0.367506802082 0.713309943676 255 255 0
0.115411050618 0.226543605328 0.441153287888 255 255 0
-0.0358691103756 0.43579402566 0.585127830505 255 255 0
0.0154719427228 0.444596856833 0.570356845856 255 255 0
0.226171895862 0.43663457036 0.687475502491 255 255 0
-0.379170000553 -0.242990896106 -0.595631599426 255 255 0
-0.113848797977 0.383565723896 0.55092227459 255 255 0
0.075774140656 0.3812238276 0.522027790546 255 255 0
-0.0823250263929 -0.246049419045 -0.320346593857 255 255 0
0.0223208889365 -0.172706261277 -0.374615341425 255 255 0
-0.335001021624 -0.231980606914 -0.514117777348 255 255 0
-0.0545372329652 -0.121140509844 0.497077614069 255 255 0
-0.0917743891478 0.40815705061 0.528960466385 255 255 0
0.0803052484989 -0.101326555014 0.4415102005 255 255 0
0.0605849809945 -0.199162051082 0.579390883446 255 255 0
0.0948808044195 -0.102857552469 0.407911986113 255 255 0
-0.0603780113161 0.431030541658 0.522233963013 255 255 0
-0.0473530143499 -0.178601920605 0.245123922825 255 255 0
0.069793574512 -0.100093908608 0.446140676737 255 255 0
-0.0597595609725 0.387963891029 0.697002053261 255 255 0
-0.018385797739 -0.176247358322 -0.375094980001 255 255 0
0.071416914463 -0.101088963449 0.44692710042 255 255 0
-0.0714664459229 -0.195408686996 0.519984006882 255 255 0
-0.318804085255 -0.222284346819 -0.526488900185 255 255 0
-0.107507959008 -0.130650058389 0.446425259113 255 255 0
-0.0623313710093 -0.198947504163 0.513589918613 255 255 0
-0.009172745049 -0.183642536402 0.181550353765 255 255 0
-0.0459042154253 -0.179989352822 0.245154052973 255 255 0
-0.0483919009566 -0.181003138423 -0.399020045996 255 255 0
-0.0651374980807 -0.228545516729 -0.520542740822 255 255 0
-0.0469626933336 -0.197240784764 0.183315351605 255 255 0
-0.35287553072 -0.258406639099 -0.612303435802 255 255 0
-0.0620516575873 -0.245719760656 -0.505896627903 255 255 0
-0.0461361072958 -0.180807635188 -0.398709923029 255 255 0
0.0765478536487 -0.222356051207 -0.308191984892 255 255 0
-0.0279262624681 -0.168383255601 0.561556100845 255 255 0
-0.0217714142054 -0.185273945332 0.226464003325 255 255 0
-0.0842769294977 0.411552876234 0.5203769207 255 255 0
-0.0971534326673 -0.258469283581 0.471113443375 255 255 0
-0.255660951138 -0.222612559795 -0.573104262352 255 255 0
0.196578115225 0.306548863649 0.627345263958 255 255 0
0.075746871531 -0.0901606306434 0.384978324175 255 255 0
-0.3326638937 -0.228197067976 -0.521299183369 255 255 0
-0.108842238784 -0.122408919036 0.446835905313 255 255 0
-0.0725187286735 -0.218118086457 0.209420010448 255 255 0
-0.0637644901872 -0.337958812714 0.426927059889 255 255 0
0.0146031826735 0.44300788641 0.570433497429 255 255 0
-0.115858688951 0.378808885813 0.535598516464 255 255 0
-0.326197117567 -0.221277058125 -0.522547841072 255 255 0
-0.0710797533393 -0.213222488761 0.216971263289 255 255 0
-0.00718192989007 -0.185268193483 0.146664351225 255 255 0
-0.0462931506336 -0.185729652643 -0.375459849834 255 255 0
0.124847486615 0.20275734365 0.444538414478 255 255 0
-0.0545619279146 -0.191035449505 -0.381466567516 255 255 0
-0.0875624641776 -0.218973204494 0.242620378733 255 255 0
0.0574146397412 -0.197325333953 0.579358875751 255 255 0
0.08581302315 -0.119152270257 0.45666539669 255 255 0
0.111945971847 0.221151188016 0.417934536934 255 255 0
-0.0442191623151 -0.186197638512 -0.376220017672 255 255 0
-0.237618342042 -0.222853407264 -0.545925199986 255 255 0
0.108980752528 0.446199834347 0.665381073952 255 255 0
0.18379932642 0.37988486886 0.619560480118 255 255 0
-0.0789263173938 -0.209429442883 -0.3801689744 255 255 0
-0.036562319845 -0.133893400431 0.506297051907 255 255 0
-0.122179888189 -0.256846368313 -0.373705774546 255 255 0
0.0936269238591 0.357014775276 0.533043444157 255 255 0
0.0532282777131 -0.201693162322 -0.31891015172 255 255 0
-0.100501596928 0.39713793993 0.528840124607 255 255 0
-0.0456761531532 -0.171822562814 0.48701274395 255 255 0
0.105782225728 0.424507528543 0.638008773327 255 255 0
0.161774754524 0.439264893532 0.711485922337 255 255 0
-0.0841154828668 0.40345749259 0.48126706481 255 255 0
0.219017699361 0.421165764332 0.748760104179 255 255 0
0.0949737131596 0.4431681633 0.711571514606 255 255 0
0.107768781483 -0.212877467275 0.260108083487 255 255 0
-0.0607052408159 -0.227502956986 -0.522337496281 255 255 0
-0.070291608572 -0.219483107328 -0.0479193776846 255 255 0
-0.320900291204 -0.219383060932 -0.527109742165 255 255 0
-0.0187504552305 -0.186859354377 0.224169835448 255 255 0
-0.525967717171 -0.263091593981 -0.492279618979 255 255 0
-0.0769743844867 -0.188933834434 0.537391066551 255 255 0
0.148347452283 0.436366319656 0.656769871712 255 255 0
0.0744504630566 0.285583406687 0.389118611813 255 255 0
0.0240815337747 -0.171764910221 0.554648816586 255 255 0
-0.0826023593545 -0.320976018906 0.404901325703 255 255 0
-0.619353234768 -0.342747181654 -0.496066093445 255 255 0
0.00337772606872 -0.216854989529 -0.565215110779 255 255 0
0.0249225851148 -0.17221608758 0.554148256779 255 255 0
-0.0440367609262 -0.181664720178 -0.385643392801 255 255 0
0.180131480098 0.386775374413 0.619983494282 255 255 0
0.1635222435 0.439264953136 0.711487174034 255 255 0
-0.0441092252731 -0.18212069571 -0.378693550825 255 255 0
0.0719498619437 -0.189851284027 -0.380045205355 255 255 0
-0.0994315966964 0.396512687206 0.527432441711 255 255 0
-0.100772805512 -0.249212890863 0.378984123468 255 255 0
0.0729803144932 0.250338613987 0.388034641743 255 255 0
0.219314903021 0.425395518541 0.743957519531 255 255 0
-0.109408274293 0.304435819387 0.481982529163 255 255 0
0.0015220962232 -0.214583367109 -0.562226772308 255 255 0
-0.0638320893049 -0.335977256298 0.463315367699 255 255 0
0.228740274906 -0.247456818819 -0.494790673256 255 255 0
-0.0582717694342 -0.260896503925 -0.490686297417 255 255 0
0.0125910155475 0.41509771347 0.725468933582 255 255 0
0.101505495608 0.231710925698 0.414255261421 255 255 0
0.0892922207713 -0.2370403409 -0.332643836737 255 255 0
0.103177033365 -0.111413687468 0.397106558084 255 255 0
-0.0902896001935 -0.274602770805 -0.0732861086726 255 255 0
0.0733230412006 -0.192590385675 -0.382857531309 255 255 0
-0.0601147562265 -0.27764543891 -0.482464164495 255 255 0
-0.10266213119 -0.242890298367 0.405867934227 255 255 0
-0.0445094369352 -0.193385794759 0.142948284745 255 255 0
-0.0926125645638 -0.276054918766 0.00339703634381 255 255 0
0.0413838662207 0.415506660938 0.611058413982 255 255 0
0.0864791795611 -0.259921252728 0.14073947072 255 255 0
-0.097809009254 -0.241175279021 0.423847198486 255 255 0
-0.0779685154557 -0.0647398978472 0.461089909077 255 255 0
-0.0481901653111 -0.179180502892 0.246687084436 255 255 0
0.148385778069 0.43649789691 0.654600560665 255 255 0
-0.0692881345749 -0.254710167646 -0.501165151596 255 255 0
-0.0619633346796 -0.194836303592 -0.374763280153 255 255 0
0.136497244239 0.392517507076 0.606644392014 255 255 0
-0.0832942798734 -0.226931944489 0.327072054148 255 255 0
-0.0590291805565 -0.247509121895 -0.505124926567 255 255 0
0.199905589223 -0.245077908039 -0.626375615597 255 255 0
-0.361213773489 -0.246763080359 -0.600422441959 255 255 0
-0.0966285541654 -0.181890323758 0.407084941864 255 255 0
0.0111741479486 -0.183659881353 0.290907680988 255 255 0
0.0935393944383 0.225782737136 0.375268548727 255 255 0
0.101485230029 0.231785178185 0.413123369217 255 255 0
0.11978905648 0.191452100873 0.453957438469 255 255 0
0.108393892646 -0.231059774756 -0.381584852934 255 255 0
0.0471243113279 -0.229422107339 -0.433276951313 255 255 0
0.057756498456 0.0221412312239 0.35085773468 255 255 0
0.0337534546852 0.431237369776 0.576769053936 255 255 0
-0.128056615591 -0.268667757511 -0.383910775185 255 255 0
0.0104140304029 0.261358916759 0.679540634155 255 255 0
0.0826873034239 -0.230514675379 0.522332072258 255 255 0
-0.0979355797172 -0.255735993385 0.364510029554 255 255 0
0.13421151042 0.389378845692 0.605794131756 255 255 0
-0.0844840854406 0.41153177619 0.518740475178 255 255 0
-0.459582656622 -0.250197559595 -0.51442438364 255 255 0
-0.0475914925337 -0.121744096279 0.498777240515 255 255 0
0.0102199865505 -0.215917542577 -0.431689172983 255 255 0
-0.374011456966 -0.247580111027 -0.515069782734 255 255 0
-0.0592858456075 -0.227561607957 -0.521441578865 255 255 0
-0.615232288837 -0.270752310753 -0.601244986057 255 255 0
-0.083147265017 -0.234917581081 -0.362931847572 255 255 0
0.116948001087 0.225133866072 0.384701251984 255 255 0
0.069820009172 -0.190549358726 -0.383055984974 255 255 0
-0.0683670789003 0.415811449289 0.483209997416 255 255 0
0.0790785998106 -0.240795761347 -0.507658839226 255 255 0
-0.0254456363618 -0.183381512761 0.229759797454 255 255 0
-0.0921474546194 -0.242123290896 0.34418040514 255 255 0
0.116340689361 -0.116470016539 0.424774169922 255 255 0
-0.0840204060078 -0.211883053184 -0.378596395254 255 255 0
0.251192897558 -0.22648859024 -0.591166853905 255 255 0
0.135302677751 0.231682240963 0.716615080833 255 255 0
-0.0300852060318 -0.187076225877 0.293525785208 255 255 0
0.164637356997 -0.222199693322 -0.582992196083 255 255 0
0.170526504517 -0.215876936913 -0.568175911903 255 255 0
-0.0664969757199 -0.212498530746 -0.363973379135 255 255 0
0.00555553799495 -0.182848438621 0.223599031568 255 255 0
0.0678011998534 -0.253265589476 -0.438626348972 255 255 0
0.0895104780793 -0.263629376888 0.040721103549 255 255 0
0.062628544867 0.0233654063195 0.357605397701 255 255 0
-0.0587019659579 -0.189675793052 -0.38289219141 255 255 0
-0.0252640452236 -0.175182923675 -0.397754311562 255 255 0
0.128257915378 -0.391738623381 -0.509536862373 255 255 0
-0.083322390914 -0.207591995597 0.248154729605 255 255 0
0.214059457183 0.421180665493 0.749495208263 255 255 0
-0.056809104979 0.432414412498 0.576945006847 255 255 0
0.0363667719066 -0.177445173264 0.534496366978 255 255 0
-0.057840295136 0.43247872591 0.576795756817 255 255 0
-0.0689127370715 -0.213876843452 0.105299681425 255 255 0
0.00805458053946 -0.123017430305 0.508067309856 255 255 0
0.247849106789 -0.218857079744 -0.543952584267 255 255 0
0.0667993053794 -0.104631192982 0.470807790756 255 255 0
0.0750825926661 -0.0806679427624 0.384057700634 255 255 0
-0.13621494174 -0.120863258839 0.383479624987 255 255 0
-0.0661316365004 -0.214046090841 -0.0963783413172 255 255 0
-0.321486353874 -0.254788845778 -0.492545127869 255 255 0
0.0893613025546 0.301687896252 0.422935813665 255 255 0
-0.273047745228 -0.225029870868 -0.560311973095 255 255 0
-0.0425034090877 -0.18479976058 -0.376507222652 255 255 0
-0.324638962746 -0.252940386534 -0.492970496416 255 255 0
0.0953438878059 -0.258378326893 -0.272374093533 255 255 0
-0.0895937755704 0.132224068046 0.455465108156 255 255 0
-0.0910863354802 -0.266812235117 0.0146313589066 255 255 0
-0.0863434523344 -0.202818959951 0.572221159935 255 255 0
-0.505648910999 -0.281013906002 -0.469088166952 255 255 0
0.132451251149 0.201455384493 0.40083116293 255 255 0
0.0362823270261 0.12160551548 0.334921002388 255 255 0
-0.56010478735 -0.236990705132 -0.557388424873 255 255 0
-0.129717677832 0.222216010094 0.376762896776 255 255 0
-0.0676427781582 -0.214025899768 0.188346460462 255 255 0
-0.104442380369 0.122122034431 0.405646681786 255 255 0
-0.152058020234 -0.280674993992 0.558512508869 255 255 0
0.0652467310429 -0.192998215556 -0.374963760376 255 255 0
-0.655914008617 -0.292841881514 -0.550275981426 255 255 0
0.0292017180473 0.235273733735 0.320045113564 255 255 0
-0.118174485862 -0.253946483135 -0.505593240261 255 255 0
-0.0942247062922 -0.253546506166 0.288912564516 255 255 0
-0.0364419817924 -0.19515568018 -0.359005391598 255 255 0
0.172744691372 -0.212928816676 -0.565167665482 255 255 0
-0.0156710669398 0.421011328697 0.69113779068 255 255 0
0.0860603824258 -0.251127898693 0.0200924184173 255 255 0
-0.0544403120875 -0.226003319025 -0.527041614056 255 255 0
0.0691840723157 0.426448434591 0.727711379528 255 255 0
-0.0291667375714 -0.177098557353 -0.402659803629 255 255 0
0.112273082137 0.220706373453 0.421539962292 255 255 0
-0.336757361889 -0.251528978348 -0.496880471706 255 255 0
0.022383004427 0.263461619616 0.679748952389 255 255 0
-0.10304260999 0.127429261804 0.406000554562 255 255 0
-0.076455630362 0.0239469967782 0.464158892632 255 255 0
-0.110744804144 -0.216466277838 0.56446659565 255 255 0
0.148867189884 0.435158222914 0.654728770256 255 255 0
0.0108023164794 -0.183988913894 0.292795807123 255 255 0
0.0485791303217 0.118489444256 0.342290252447 255 255 0
-0.375717282295 -0.245858952403 -0.515004098415 255 255 0
-0.0391895398498 -0.170665323734 0.545318186283 255 255 0
-0.0700455456972 -0.214856907725 0.179084375501 255 255 0
0.0708722323179 -0.00483676185831 0.369237631559 255 255 0
-0.0875172242522 -0.310932099819 0.430904775858 255 255 0
-0.0921196117997 -0.156627655029 0.460404038429 255 255 0
-0.114770390093 -0.251390337944 -0.505654335022 255 255 0
-0.522784948349 -0.231036648154 -0.587760925293 255 255 0
-0.0456331372261 -0.181713700294 0.243448540568 255 255 0
-0.0691235587001 -0.210154145956 0.184875443578 255 255 0
-0.083370231092 -0.0302366670221 0.455759972334 255 255 0
0.179924145341 -0.244453072548 -0.502335071564 255 255 0
-0.379389345646 -0.2331956774 -0.579667329788 255 255 0
-0.025536255911 0.434831082821 0.473054677248 255 255 0
0.0431332662702 -0.218965247273 -0.540034770966 255 255 0
0.103961832821 -0.22912594676 -0.372686266899 255 255 0
0.0767742469907 -0.0145342117175 0.394081324339 255 255 0
-0.0243162568659 -0.175728917122 -0.397788643837 255 255 0
-0.208330839872 -0.252132236958 -0.505134940147 255 255 0
0.115464881063 0.436224520206 0.757766067982 255 255 0
0.0730548575521 -0.0045488527976 0.411151349545 255 255 0
-0.465741246939 -0.23195463419 -0.560005843639 255 255 0
0.0906022042036 0.435428231955 0.677851438522 255 255 0
-0.293606102467 -0.267089396715 -0.482813566923 255 255 0
-0.0238982345909 -0.172014132142 -0.389818757772 255 255 0
-0.335521817207 -0.255431413651 -0.495251953602 255 255 0
-0.654627740383 -0.292038410902 -0.551261246204 255 255 0
0.0820045694709 0.0546946935356 0.395340114832 255 255 0
-0.0944510698318 0.06246618554 0.441627770662 255 255 0
-0.0619937479496 -0.207599282265 -0.0500405728817 255 255 0
-0.0384352989495 0.380683898926 0.722519159317 255 255 0
0.0437426790595 0.413607567549 0.74002879858 255 255 0
-0.115387998521 -0.247300729156 0.256682425737 255 255 0
0.134026423097 0.226668938994 0.670148611069 255 255 0
0.248890385032 -0.219419017434 -0.544525027275 255 255 0
0.222395732999 0.423592090607 0.742834568024 255 255 0
-0.0826786532998 -0.105535157025 0.343128979206 255 255 0
-0.480324119329 -0.266455203295 -0.50249171257 255 255 0
0.0990673303604 0.419947654009 0.64111083746 255 255 0
-0.0812685415149 -0.240283161402 -0.148568615317 255 255 0
0.0160072185099 0.262406259775 0.682895839214 255 255 0
-0.0649347528815 -0.21241773665 -0.0959353968501 255 255 0
-0.0866114422679 -0.250991642475 0.0200106967241 255 255 0
-0.0563158243895 0.444398134947 0.54365503788 255 255 0
-0.527745604515 -0.232572123408 -0.589393138885 255 255 0
-0.0246727447957 0.431959360838 0.472812414169 255 255 0
0.109239846468 0.37458267808 0.571858823299 255 255 0
-0.10949601233 0.36243635416 0.450140088797 255 255 0
0.0954535752535 0.422014325857 0.647106528282 255 255 0
-0.365126341581 -0.244747206569 -0.596922755241 255 255 0
0.251403152943 -0.222095355392 -0.591073155403 255 255 0
0.0959835499525 -0.223409429193 0.564453542233 255 255 0
-0.00589341018349 0.432094395161 0.641556680202 255 255 0
-0.100062415004 -0.271111130714 0.374257683754 255 255 0
-0.395064294338 -0.24971114099 -0.601950228214 255 255 0
0.0446156188846 0.414071261883 0.74071264267 255 255 0
-0.0829593613744 -0.1911277771 0.560689508915 255 255 0
-0.152361154556 -0.223295629025 -0.545052409172 255 255 0
0.058403275907 -0.182184368372 -0.377587944269 255 255 0
-0.0676678344607 -0.346085608006 0.509660661221 255 255 0
0.104135505855 0.435733944178 0.652745723724 255 255 0
-0.0980791896582 -0.271819859743 0.330128312111 255 255 0
0.113447569311 0.434642314911 0.760103583336 255 255 0
0.173855945468 -0.216342523694 -0.572801470757 255 255 0
-0.386820286512 -0.234404072165 -0.586609840393 255 255 0
-0.0432511717081 -0.234573990107 -0.47420501709 255 255 0
-0.0143519174308 0.431497365236 0.635516405106 255 255 0
-0.0244837813079 0.431491047144 0.61338108778 255 255 0
-0.0895473361015 -0.255865931511 0.297302037477 255 255 0
-0.111094333231 -0.256138771772 -0.503822147846 255 255 0
0.180282384157 -0.245951414108 -0.500467002392 255 255 0
-0.109585925937 -0.249712735415 -0.507854700089 255 255 0
0.227250054479 -0.207541435957 -0.536978363991 255 255 0
-0.0842900201678 -0.317214727402 0.493200153112 255 255 0
-0.0575550422072 -0.211630612612 -0.346590667963 255 255 0
-0.37270450592 -0.236536741257 -0.587102413177 255 255 0
-0.0550107732415 -0.200470760465 -0.36451330781 255 255 0
0.0406987965107 0.426346510649 0.724399805069 255 255 0
-0.0540530085564 0.440893054008 0.567051589489 255 255 0
-0.207324877381 -0.256197065115 -0.502844691277 255 255 0
-0.118810378015 0.341366052628 0.52871131897 255 255 0
-0.13754285872 0.201896041632 0.413830667734 255 255 0
0.0739340186119 -0.228938817978 0.215728104115 255 255 0
0.103412307799 -0.223358124495 -0.385783880949 255 255 0
-0.0331378020346 0.433135181665 0.589125156403 255 255 0
-0.574376821518 -0.248071610928 -0.585457742214 255 255 0
0.218870252371 0.425514221191 0.742147684097 255 255 0
0.0652769729495 -0.213103502989 0.213023111224 255 255 0
0.0056508560665 -0.206950932741 -0.424472391605 255 255 0
-0.0278030820191 0.381804913282 0.730978369713 255 255 0
-0.0789710059762 0.222346365452 0.486639946699 255 255 0
-0.0997034981847 -0.256773918867 0.364762634039 255 255 0
-0.368727833033 -0.228388413787 -0.568914055824 255 255 0
-0.0228283237666 0.432308763266 0.615699350834 255 255 0
-0.0579966083169 -0.211746513844 -0.344824671745 255 255 0
-0.0826225727797 -0.234368771315 0.119284264743 255 255 0
-0.0709796100855 -0.215153545141 0.100159630179 255 255 0
0.109372287989 -0.231784746051 -0.516359269619 255 255 0
-0.0341879799962 0.425040841103 0.45672416687 255 255 0
0.0732007995248 -0.228730604053 0.21255338192 255 255 0
-0.0398287251592 -0.230644509196 -0.47442650795 255 255 0
-0.036988556385 -0.226638972759 -0.475808262825 255 255 0
0.106836482882 -0.238033920527 -0.511993646622 255 255 0
-0.0614797696471 -0.209926709533 -0.344709724188 255 255 0
-0.0914897918701 0.406802386045 0.529957592487 255 255 0
-0.0927295833826 0.406062334776 0.53033643961 255 255 0
-0.612166523933 -0.338895112276 -0.495902717113 255 255 0
-0.601227104664 -0.287870407104 -0.497935026884 255 255 0
-0.430197060108 -0.259897321463 -0.505070984364 255 255 0
0.0779012218118 0.0118995187804 0.394693315029 255 255 0
-0.0860037654638 -0.250706881285 -0.203542545438 255 255 0
-0.0408525727689 0.442556887865 0.572629392147 255 255 0
0.0878378972411 0.293861925602 0.418200671673 255 255 0
0.116522699594 0.36300650239 0.548141777515 255 255 0
-0.0966898724437 -0.232962980866 0.426432073116 255 255 0
0.0220003984869 0.428251087666 0.588476777077 255 255 0
-0.646207034588 -0.289531260729 -0.586972773075 255 255 0
-0.0792967006564 -0.232110455632 -0.0344664938748 255 255 0
-0.205786645412 -0.253150165081 -0.503310322762 255 255 0
-0.0608905777335 -0.209497854114 -0.346168667078 255 255 0
-0.102727815509 -0.105693429708 0.378215223551 255 255 0
0.188704028726 -0.236281007528 -0.505105912685 255 255 0
0.0167072620243 -0.174646496773 0.283134758472 255 255 0
-0.367325812578 -0.243508830667 -0.596438527107 255 255 0
-0.597337424755 -0.280179560184 -0.498132169247 255 255 0
-0.25593200326 -0.23508746922 -0.593628883362 255 255 0
-0.0700170248747 -0.218018263578 -0.12991297245 255 255 0
-0.0780888199806 -0.324771076441 0.485392451286 255 255 0
-0.0803582668304 -0.236395820975 -0.148151084781 255 255 0
-0.137142643332 0.203356251121 0.393468856812 255 255 0
-0.358420878649 -0.225650697947 -0.550961911678 255 255 0
0.0995493680239 -0.226173326373 0.569552898407 255 255 0
-0.619386315346 -0.262408316135 -0.568587481976 255 255 0
0.0329955257475 0.420015841722 0.605692982674 255 255 0
-0.0987240672112 -0.271711438894 0.479386597872 255 255 0
-0.109348997474 -0.225177675486 -0.401084691286 255 255 0
-0.0813625752926 -0.328971982002 0.50759524107 255 255 0
0.244261443615 -0.212405204773 -0.541898310184 255 255 0
0.0296840984374 0.422632783651 0.605467736721 255 255 0
-0.0249338913709 0.424606084824 0.451102882624 255 255 0
0.07407245785 -0.0214107651263 0.385571062565 255 255 0
0.009401448071 0.218977496028 0.309881687164 255 255 0
-0.0718774273992 -0.218093365431 -0.159274235368 255 255 0
-0.0568349286914 -0.201197847724 0.227034538984 255 255 0
-0.367764055729 -0.259935826063 -0.50573682785 255 255 0
0.0428580828011 0.428200423717 0.676271677017 255 255 0
-0.0248331092298 -0.12707722187 0.50577890873 255 255 0
0.0764620676637 -0.224825397134 -0.0856329128146 255 255 0
-0.647690176964 -0.294534742832 -0.593159198761 255 255 0
0.0124312825501 -0.185052007437 0.199282795191 255 255 0
-0.0999157056212 -0.209518238902 0.403361558914 255 255 0
0.222956284881 0.433732271194 0.676560640335 255 255 0
0.00541253946722 -0.183799117804 -0.361108422279 255 255 0
-0.0858645439148 -0.250788420439 -0.200856730342 255 255 0
0.0228504911065 -0.182738676667 0.287149727345 255 255 0
-0.0628190934658 -0.211324036121 -0.0348468013108 255 255 0
0.078886128962 0.374456435442 0.602435171604 255 255 0
-0.0544425658882 -0.22996018827 -0.425209224224 255 255 0
0.0738180875778 -0.0165091268718 0.382284790277 255 255 0
0.120396852493 -0.391861975193 -0.507413566113 255 255 0
0.0248007383198 -0.176482945681 -0.371378153563 255 255 0
-0.0986632928252 0.192285329103 0.346715718508 255 255 0
0.0697574913502 -0.22636140883 0.314112991095 255 255 0
-0.0450028628111 0.386408030987 0.714474141598 255 255 0
0.0750736221671 -0.232479035854 0.090688675642 255 255 0
-0.0920994728804 -0.275170922279 0.14343868196 255 255 0
0.0275451596826 -0.174575567245 -0.376678287983 255 255 0
-0.0618947185576 -0.210367947817 -0.127174332738 255 255 0
-0.113363854587 -0.248252749443 -0.506492257118 255 255 0
-0.0939665138721 -0.0636982619762 0.440240323544 255 255 0
-0.0901168957353 -0.25101146102 0.21139395237 255 255 0
0.113162390888 -0.218938931823 -0.533307015896 255 255 0
-0.081834718585 -0.208238050342 0.258003950119 255 255 0
-0.0990172177553 -0.273620277643 0.350972115993 255 255 0
-0.0656431242824 -0.214289262891 -0.012779279612 255 255 0
0.0883259400725 -0.240035519004 -0.218701288104 255 255 0
-0.0855583101511 -0.251080811024 -0.193075448275 255 255 0
-0.146334767342 -0.219518989325 -0.549868285656 255 255 0
0.046782143414 0.425438284874 0.722880482674 255 255 0
0.051783952862 -0.203298687935 0.302228331566 255 255 0
-0.532357096672 -0.26472851634 -0.492570668459 255 255 0
-0.611188650131 -0.258304476738 -0.565824329853 255 255 0
0.0381763242185 -0.191856384277 0.14890024066 255 255 0
-0.0888879075646 -0.200092881918 0.53691726923 255 255 0
