ply
format ascii 1.0
comment https://github.com/EricCJoyce
element vertex 424
property float x
property float y
property float z
property uchar red
property uchar green
property uchar blue
end_header
-0.0769402235746 -0.00889497157186 -0.361003488302 255 0 0
-0.0756895393133 -0.00838271807879 -0.360490649939 255 0 0
-0.0784180834889 -0.0087209045887 -0.360728144646 255 0 0
-0.338341623545 -0.00297977915034 -0.0593807063997 255 0 0
0.15836173296 -0.00502707483247 -0.11926098913 255 0 0
-0.0280573070049 -0.00141448900104 0.131223484874 255 0 0
0.214982405305 -0.00484110927209 -0.0986146703362 255 0 0
-0.0291990377009 -0.0015063273022 0.131178826094 255 0 0
-0.312896758318 -0.00430350005627 -0.0598389618099 255 0 0
-0.0157053172588 -0.00196444429457 0.130396693945 255 0 0
0.220342367887 -0.00405547348782 -0.0983688980341 255 0 0
-0.0439635328948 -0.000793215178419 0.130095094442 255 0 0
0.217373386025 -0.00451016891748 -0.0982486605644 255 0 0
0.163051828742 -0.00536563480273 -0.0751669704914 255 0 0
-0.0470852963626 -0.000858217361383 0.126438528299 255 0 0
0.162293091416 -0.00384610262699 -0.0742479339242 255 0 0
-0.0383209362626 -0.0091089848429 -0.370263427496 255 0 0
-0.0392078571022 -0.00824602879584 -0.369932681322 255 0 0
-0.0386795960367 -0.010110068135 -0.370515227318 255 0 0
0.159704566002 -0.0047396235168 -0.0917405411601 255 0 0
0.278465211391 -0.00429770862684 -0.0650575086474 255 0 0
0.159423977137 -0.00441483827308 -0.0933547988534 255 0 0
-0.291395813227 -0.00375171052292 -0.0630535334349 255 0 0
0.157571002841 -0.00546432752162 -0.106452591717 255 0 0
0.160434350371 -0.00528446398675 -0.0925930738449 255 0 0
-0.103052996099 -0.00761653715745 -0.346767425537 255 0 0
0.438163071871 -0.00261368369684 0.183612421155 255 0 0
-0.104467876256 -0.00807038228959 -0.346529275179 255 0 0
0.277634978294 -0.00387360760942 -0.0760779604316 255 0 0
0.278404742479 -0.00363649637438 -0.0701624378562 255 0 0
-0.314736485481 -0.0021386553999 -0.0611664503813 255 0 0
0.21593080461 -0.00445465091616 -0.0936799272895 255 0 0
0.203864485025 -0.0051228092052 -0.120600476861 255 0 0
0.202906370163 -0.00452441163361 -0.120320558548 255 0 0
0.158306211233 -0.0057117738761 -0.10523571074 255 0 0
0.260939270258 -0.00439356220886 -0.116700939834 255 0 0
0.279473185539 -0.00401907972991 -0.0705423802137 255 0 0
0.438228011131 -0.00138930021785 0.18458737433 255 0 0
0.272543251514 -0.00442437268794 -0.0782133042812 255 0 0
0.171856001019 -0.00492746615782 -0.0899863094091 255 0 0
0.438713312149 -0.00322632980533 0.184414476156 255 0 0
0.245420768857 -0.00295620062388 -0.0720580667257 255 0 0
-0.0165805071592 -0.0017848405987 0.12591637671 255 0 0
0.277323365211 -0.0036983625032 -0.0789065361023 255 0 0
0.259275257587 -0.00438234442845 -0.116501450539 255 0 0
0.278195351362 -0.00509158615023 -0.0815000757575 255 0 0
0.277363091707 -0.00478227296844 -0.0787351951003 255 0 0
0.210073277354 -0.00462420191616 -0.12221224606 255 0 0
0.277327805758 -0.00385570432991 -0.0812460482121 255 0 0
0.213692829013 -0.00543924607337 -0.123044393957 255 0 0
0.281767606735 -0.00150299665984 0.100104793906 255 0 0
0.197524100542 -0.00499490788206 -0.0994243472815 255 0 0
0.211457967758 -0.00468733999878 -0.122515164316 255 0 0
0.196377545595 -0.00533548463136 -0.124188654125 255 0 0
-0.3004540205 -0.00244999839924 -0.062950976193 255 0 0
-0.322349429131 -0.00376025983132 -0.0630967244506 255 0 0
-0.0253366809338 -0.00249203993008 0.123488359153 255 0 0
0.158214852214 -0.00448374217376 -0.0847452878952 255 0 0
-0.0174507964402 -0.000950424058829 0.126074016094 255 0 0
-0.305701434612 -0.0033183763735 -0.0624713897705 255 0 0
-0.331172853708 -0.00301038799807 -0.0629703253508 255 0 0
0.250955671072 -0.00335823046044 -0.0981195271015 255 0 0
-0.333630472422 -0.00439984956756 -0.0559478998184 255 0 0
0.508475959301 -0.0106627466157 0.113216631114 255 0 0
-0.010042373091 -0.00204878230579 0.135754436255 255 0 0
0.27418550849 -0.00384824979119 -0.072460219264 255 0 0
0.268702685833 -0.00380323617719 -0.0819479897618 255 0 0
0.261935681105 -0.00348078925163 -0.0932106673717 255 0 0
0.432195276022 4.56311827293e-05 0.1973426193 255 0 0
-0.091478317976 -0.0093462234363 -0.348456382751 255 0 0
-0.0235996153206 -0.000478782952996 0.135817214847 255 0 0
0.16438934207 -0.00424928637221 -0.0892378613353 255 0 0
0.197963312268 -0.00573407765478 -0.126325041056 255 0 0
-0.0217474326491 -0.000624466745649 0.135977104306 255 0 0
-0.342129915953 -0.00283468863927 -0.0639588907361 255 0 0
-0.322397470474 -0.002211650135 -0.0625581666827 255 0 0
0.25254842639 -0.00365486578085 -0.0991563796997 255 0 0
-0.106070160866 -0.00809974968433 -0.370424449444 255 0 0
-0.0485389232635 -0.00920681282878 -0.370817989111 255 0 0
-0.334574401379 -0.0031010620296 -0.0557208955288 255 0 0
0.160260036588 -0.00469392351806 -0.0867174342275 255 0 0
0.529467761517 0.0101974830031 0.135319158435 255 0 0
0.174800992012 -0.00506312213838 -0.0749676451087 255 0 0
-0.104047089815 -0.0080399196595 -0.371525228024 255 0 0
0.269739001989 -0.00419150805101 -0.0727924630046 255 0 0
0.199130028486 -0.0037238849327 -0.0837980359793 255 0 0
-0.199258208275 0.0106308581308 -0.265657871962 255 0 0
0.200259551406 -0.00503609748557 -0.0840350985527 255 0 0
-0.0919261425734 -0.00771400611848 -0.348288029432 255 0 0
0.208918169141 -0.00373354484327 -0.077628903091 255 0 0
0.454412668943 -0.00250376178883 0.316093534231 255 0 0
-0.100038595498 -0.00923281162977 -0.347049683332 255 0 0
0.203768566251 -0.00337169435807 -0.0887535065413 255 0 0
0.250483423471 -0.00427055545151 -0.0826145634055 255 0 0
0.201887056231 -0.00510683609173 -0.0999232903123 255 0 0
0.206869646907 -0.0044371066615 -0.106358297169 255 0 0
0.529272437096 0.0112456250936 0.135501384735 255 0 0
0.288381397724 -0.00134711351711 0.129460245371 255 0 0
0.246780648828 -0.00570354564115 -0.128584101796 255 0 0
0.169915154576 -0.00390397291631 -0.0701896101236 255 0 0
0.251200437546 -0.00380135769956 -0.0819725617766 255 0 0
0.209220841527 -0.00491922022775 -0.0942175611854 255 0 0
0.261994421482 -0.00462798727676 -0.0930948629975 255 0 0
0.209503009915 -0.00380798242986 -0.094072625041 255 0 0
-0.0376680865884 -0.00272855092771 0.128174468875 255 0 0
0.288827449083 -0.000658905657474 0.130286768079 255 0 0
0.166452199221 -0.00414361385629 -0.0949474573135 255 0 0
0.461779713631 -0.00185267697088 0.337999939919 255 0 0
0.201967954636 -0.00451346533373 -0.0777472704649 255 0 0
0.257166177034 -0.00470415502787 -0.112228341401 255 0 0
0.256348729134 -0.00406340230256 -0.112171463668 255 0 0
-0.199003830552 0.00905310362577 -0.265997558832 255 0 0
-0.0717735737562 -0.00286906422116 -0.313374608755 255 0 0
0.505548357964 -0.0174466837198 -0.415005207062 255 0 0
0.167170390487 -0.00496408436447 -0.083147495985 255 0 0
0.210779622197 -0.00520340213552 -0.0871336236596 255 0 0
0.446472734213 -0.00303396303207 0.207281798124 255 0 0
-0.0267277285457 -0.0019376561977 0.12265586108 255 0 0
-0.0714059472084 -0.00813529640436 -0.352163761854 255 0 0
0.243185520172 -0.00440320977941 -0.127488806844 255 0 0
0.120853148401 0.000776529370341 -0.0820258334279 255 0 0
0.44651427865 -0.00415191007778 0.207408815622 255 0 0
0.248418718576 -0.0040218308568 -0.120556250215 255 0 0
0.173266068101 -0.00389935728163 -0.0760698392987 255 0 0
-0.0201798900962 -0.00205092644319 0.129520714283 255 0 0
0.250301152468 -0.00434670923278 -0.0814322382212 255 0 0
0.254179269075 -0.00547757884488 -0.12431935221 255 0 0
0.461272269487 -0.00150385359302 0.339310228825 255 0 0
0.241654410958 -0.00465197861195 -0.0942635163665 255 0 0
0.459783941507 -0.00272061792202 0.312907516956 255 0 0
0.517362952232 -0.00938259251416 -0.377345770597 255 0 0
0.211787998676 -0.00444647669792 -0.0871266946197 255 0 0
-0.081242211163 -0.0020509804599 -0.311539828777 255 0 0
0.274092853069 -0.00507164187729 -0.0819611996412 255 0 0
0.210318461061 -0.00359050254337 -0.0869650691748 255 0 0
0.203930467367 -0.00512328743935 -0.0896369367838 255 0 0
0.46033936739 -0.0036755730398 0.31261202693 255 0 0
0.513604998589 -0.0084042167291 0.319779992104 255 0 0
0.43462562561 0.00137888581958 0.207432493567 255 0 0
0.256413698196 -0.00510659534484 -0.111699469388 255 0 0
0.454779624939 -2.17148335651e-05 0.336403220892 255 0 0
0.122262507677 0.00206953426823 -0.0870107114315 255 0 0
0.459785938263 -0.0036814850755 0.313528329134 255 0 0
0.445622414351 -0.00431636814028 0.167575314641 255 0 0
0.123067975044 0.00130811042618 -0.0870185792446 255 0 0
0.513668477535 -0.00742816878483 0.318888455629 255 0 0
0.51396048069 -0.00728168804199 0.317820668221 255 0 0
-0.0376512296498 -0.00813912786543 -0.348227232695 255 0 0
0.252501428127 -0.0047059841454 -0.121649511158 255 0 0
-0.00368776242249 0.0149627225474 -0.173970237374 255 0 0
0.524600982666 0.000180083297892 0.1252823174 255 0 0
0.291139423847 0.000765410077292 0.13198646903 255 0 0
0.204316675663 -0.00465107942 -0.103248305619 255 0 0
0.291099101305 -0.000714175461326 0.13180936873 255 0 0
0.508087456226 -0.0106299454346 0.130276292562 255 0 0
0.432655870914 0.00222903606482 0.207214310765 255 0 0
-0.0742350295186 -0.00902988854796 -0.394248455763 255 0 0
-0.123926773667 0.0380049496889 -0.191677629948 255 0 0
-0.22030825913 0.0103172250092 -0.265660792589 255 0 0
0.439249455929 -0.00267210882157 0.144497767091 255 0 0
0.454523175955 -0.000920408288948 0.335556000471 255 0 0
0.251483887434 -0.00459153298289 -0.11649876833 255 0 0
0.526670575142 -0.00608921144158 0.170887574553 255 0 0
-0.0375297814608 -0.00966464355588 -0.347842991352 255 0 0
0.201575875282 -0.00458012474701 -0.106955617666 255 0 0
-0.140481904149 0.0172915365547 -0.220132857561 255 0 0
-0.00749708851799 -0.00181450229138 0.128816202283 255 0 0
-0.149528369308 0.0214282535017 -0.208114087582 255 0 0
0.273882061243 -0.00362948700786 -0.0825488120317 255 0 0
0.510256767273 -0.0112312249839 0.105468437076 255 0 0
0.248268991709 -0.00338166370057 -0.103851422668 255 0 0
0.506785571575 -0.011093210429 0.0967406108975 255 0 0
0.225510179996 -0.00494200037792 -0.106091164052 255 0 0
0.301442593336 -0.000168793369085 0.115966796875 255 0 0
0.20106524229 -0.00576587766409 -0.121885381639 255 0 0
0.226427912712 -0.00478834379464 -0.10496854037 255 0 0
-0.0753607451916 -0.00904207862914 -0.39466047287 255 0 0
-0.00180884974543 0.0132746621966 -0.173943713307 255 0 0
-0.0717185884714 -0.00893164705485 -0.39436981082 255 0 0
-0.00201236223802 0.0142520451918 -0.17380489409 255 0 0
0.457289069891 -0.00628988211975 0.178200438619 255 0 0
0.251736223698 -0.00487490929663 -0.111848436296 255 0 0
-0.0543173104525 -0.00855448283255 -0.365395188332 255 0 0
0.301598310471 -0.00111397588626 0.115440234542 255 0 0
-0.117103710771 -0.00818165764213 -0.361000567675 255 0 0
0.200254753232 -0.00495463702828 -0.093072399497 255 0 0
0.459790855646 -0.00220101629384 0.301518708467 255 0 0
0.249006867409 -0.00487304944545 -0.12489426136 255 0 0
0.199829161167 -0.00407033739612 -0.121678039432 255 0 0
0.248636379838 -0.00574985519052 -0.103755861521 255 0 0
-0.296871542931 -0.00237483065575 -0.0670322924852 255 0 0
0.505989909172 -0.0101808104664 0.0977345630527 255 0 0
0.256696015596 -0.00324598001316 -0.10160548985 255 0 0
-0.294473856688 -0.0027830065228 -0.067146345973 255 0 0
0.170171052217 -0.00482967821881 -0.0740193128586 255 0 0
0.510648369789 -0.00687078107148 0.315830975771 255 0 0
0.254265844822 -0.00500563532114 -0.107414826751 255 0 0
0.203721299767 -0.00429513771087 -0.111421763897 255 0 0
-0.0281727351248 -0.00225177034736 0.128972545266 255 0 0
0.507106125355 -0.0106972241774 0.128434091806 255 0 0
0.226244211197 -0.00399227114394 -0.104108422995 255 0 0
0.456634521484 -0.00482140062377 0.178990319371 255 0 0
-0.258328914642 0.00170742871705 -0.0591457001865 255 0 0
0.191373467445 -0.003871739842 -0.0847904607654 255 0 0
-0.295955389738 -0.00283114123158 -0.0671165809035 255 0 0
0.245197698474 -0.00366818765178 -0.0994717553258 255 0 0
0.207913771272 -0.004701691214 -0.0999099686742 255 0 0
0.156138703227 -0.00539303477854 -0.130246430635 255 0 0
-0.0636099874973 -0.00774270761758 -0.356672018766 255 0 0
0.245837420225 -0.00447647552937 -0.0990320146084 255 0 0
0.192072540522 -0.00502246432006 -0.0846327766776 255 0 0
0.518592655659 -0.00726937828586 0.104261562228 255 0 0
0.301945030689 0.0022435602732 0.133111506701 255 0 0
0.418373256922 -0.00187879335135 0.183019176126 255 0 0
0.511299133301 -0.00824293959886 0.302799671888 255 0 0
0.0113768326119 0.00924590881914 -0.143401637673 255 0 0
-0.0948291569948 -0.00915619824082 -0.361351191998 255 0 0
0.45697286725 -0.00494152400643 0.145428150892 255 0 0
0.527756929398 -0.00185923685785 0.121698714793 255 0 0
0.25019595027 -0.00432186340913 -0.124929122627 255 0 0
0.459521621466 -0.00327521353029 0.269818067551 255 0 0
0.417425066233 -0.00162423227448 0.183792814612 255 0 0
-0.0359747037292 -0.0096662659198 -0.356590539217 255 0 0
-0.0519947260618 -0.0097789876163 -0.366524606943 255 0 0
-0.333735466003 -0.0038275027182 -0.066064581275 255 0 0
0.238875567913 -0.0043914844282 -0.114035226405 255 0 0
0.274557709694 -0.00114799896255 0.120780795813 255 0 0
-0.0982752889395 -0.00862311758101 -0.375174880028 255 0 0
0.457378089428 -0.00689943227917 0.145598530769 255 0 0
0.458355724812 -0.00394239136949 0.208049461246 255 0 0
0.209618583322 -0.00484210439026 -0.0999529510736 255 0 0
0.166412323713 -0.0053090765141 -0.0683307051659 255 0 0
0.438799858093 -0.00238420045935 0.163869485259 255 0 0
0.260538548231 -0.00323181436397 -0.0995354428887 255 0 0
-0.275550752878 -0.00420952169225 -0.0655527561903 255 0 0
-0.0562714785337 -0.00171007460449 0.131193876266 255 0 0
0.454468369484 -0.0034369896166 0.283015429974 255 0 0
0.211219012737 -0.00427557528019 -0.113300278783 255 0 0
-0.33031052351 -0.00263916398399 -0.0589783005416 255 0 0
0.509980082512 -0.00766811752692 0.32545337081 255 0 0
0.454046815634 -0.0015152086271 0.282922565937 255 0 0
0.0126433381811 0.0074204406701 -0.143591985106 255 0 0
0.456503868103 -0.00583273358643 0.144945919514 255 0 0
0.247316047549 -0.00453741149977 -0.124640502036 255 0 0
0.456696629524 -0.00779101997614 0.039472963661 255 0 0
0.259297400713 -0.00332776387222 -0.0852038040757 255 0 0
0.260814666748 -0.00439604744315 -0.0851231515408 255 0 0
0.282120764256 0.00169109296985 0.1362991184 255 0 0
0.168278813362 -0.00474893720821 -0.0742584019899 255 0 0
0.454450905323 -0.00293538835831 0.229739591479 255 0 0
0.439063280821 -0.00459254765883 0.163890480995 255 0 0
-0.352421492338 -0.00254058814608 -0.0576724037528 255 0 0
0.501580834389 -0.0201561730355 -0.393955081701 255 0 0
-0.0574103631079 -0.000516141182743 0.131012827158 255 0 0
0.243923678994 -0.00459211412817 -0.122889459133 255 0 0
0.457573890686 -0.00558204483241 0.15984493494 255 0 0
-0.0944528356194 -0.00820205081254 -0.361118644476 255 0 0
0.248088091612 -0.00511270388961 -0.108894638717 255 0 0
0.274536818266 -0.00227556773461 0.120168507099 255 0 0
0.517628073692 -0.00602874346077 0.143223464489 255 0 0
0.456186890602 -0.00880773551762 0.0212167706341 255 0 0
-0.125173062086 0.0437237843871 -0.181713059545 255 0 0
0.277838379145 -0.00419125054032 -0.122296199203 255 0 0
0.439723134041 -6.85438062646e-05 0.198966190219 255 0 0
-0.0865050703287 -0.0082915276289 -0.375153243542 255 0 0
0.456964820623 -0.00726766698062 0.110653668642 255 0 0
-0.31203481555 -0.00417969375849 -0.0832553580403 255 0 0
0.457696855068 -0.00615023402497 0.127513065934 255 0 0
-0.327431708574 -0.00317532522604 -0.0585411824286 255 0 0
0.515531480312 -0.00890814326704 -0.388674288988 255 0 0
-0.0196601804346 -0.00291748251766 0.115198105574 255 0 0
0.45326307416 -0.00204792548902 0.229779571295 255 0 0
0.443957597017 -0.00319300335832 0.215327948332 255 0 0
0.455032020807 -0.00217699515633 0.295925438404 255 0 0
0.509964466095 -0.00928916130215 0.230701163411 255 0 0
-0.00650100875646 0.0160398539156 -0.178396970034 255 0 0
-0.0263344533741 -0.00139087077696 0.154121801257 255 0 0
0.510522007942 -0.00971248373389 0.283215522766 255 0 0
0.458456069231 -0.00596962403506 0.159528151155 255 0 0
0.211868271232 -0.00538428779691 -0.113194398582 255 0 0
0.454412609339 -0.0087612438947 -0.0726131573319 255 0 0
0.206035912037 -0.00359329511411 -0.082489810884 255 0 0
0.454384833574 -0.0100209452212 -0.153938889503 255 0 0
0.457151919603 -0.00704049598426 0.127771005034 255 0 0
0.49991697073 -0.0201017651707 -0.395835936069 255 0 0
-0.016598533839 0.0101798307151 -0.253077596426 255 0 0
0.454257935286 -0.0110044069588 -0.133293256164 255 0 0
-0.0560191906989 -0.00792059581727 -0.36439883709 255 0 0
-0.274868935347 -0.00267363502644 -0.0650074854493 255 0 0
-0.113191716373 0.0207845903933 -0.169712811708 255 0 0
0.454051375389 -0.0122469794005 -0.193954229355 255 0 0
0.454741865396 -0.00990981608629 -0.0726728364825 255 0 0
0.453781813383 -0.0109201446176 -0.154327452183 255 0 0
-0.0526672825217 -0.00892458390445 -0.376151233912 255 0 0
0.301522552967 0.00035422941437 0.147435173392 255 0 0
0.175530582666 -0.00477217929438 -0.134025916457 255 0 0
0.458458125591 -0.00273932982236 0.26961132884 255 0 0
-0.241651713848 0.00196486175992 -0.0667553320527 255 0 0
-0.0625833645463 -0.00862615555525 -0.376119762659 255 0 0
0.454059571028 -0.0108562204987 -0.110905498266 255 0 0
0.302336782217 0.00129912223201 0.147485673428 255 0 0
0.483293771744 -0.00851339753717 0.165442600846 255 0 0
-0.315010815859 -0.00414188671857 -0.0841875001788 255 0 0
0.443141788244 -0.00244675716385 0.19870249927 255 0 0
-0.0385705381632 -0.00182415579911 0.113154411316 255 0 0
0.508306622505 -0.00858250726014 0.20800575614 255 0 0
-0.0216576494277 -0.000760748516768 0.113950267434 255 0 0
-0.313977509737 -0.00295109930448 -0.0327650643885 255 0 0
-0.34201413393 -0.00353557802737 -0.0446911677718 255 0 0
-0.0443814955652 -0.00937983486801 -0.363894283772 255 0 0
0.245068088174 -0.00503330258653 -0.123557068408 255 0 0
0.203871876001 -0.00499719195068 -0.0936838015914 255 0 0
0.502469480038 -0.0202212780714 -0.393100231886 255 0 0
-0.315059185028 -0.00344374100678 -0.0335636474192 255 0 0
-0.340444654226 -0.0022361651063 0.235637485981 255 0 0
0.256878435612 -0.00340483640321 -0.0551223754883 255 0 0
-0.342228293419 -0.00113126006909 0.235649123788 255 0 0
0.301926225424 0.00184819742572 0.141069546342 255 0 0
0.177216038108 -0.00597061682492 -0.133992612362 255 0 0
-0.259400159121 0.00179926888086 -0.0602238178253 255 0 0
0.256970822811 -0.00331506296061 -0.0640106722713 255 0 0
0.509160757065 -0.0106036961079 0.148406788707 255 0 0
-0.00274505629204 -0.00145556463394 0.12726829946 255 0 0
0.458567619324 -0.00355773465708 0.234444051981 255 0 0
0.456569820642 -0.00678289169446 0.056892555207 255 0 0
-0.131179094315 0.0188733153045 -0.169418513775 255 0 0
0.257848978043 -0.00303575163707 -0.0626138299704 255 0 0
0.455661386251 -0.00820755120367 0.00179379922338 255 0 0
-0.00509238848463 -0.000421322998591 0.131016492844 255 0 0
0.453587472439 -0.0119549781084 -0.281996518373 255 0 0
0.454345226288 -0.0113839656115 -0.21400859952 255 0 0
0.469844728708 -0.00593906035647 0.343363970518 255 0 0
0.258939564228 -0.0043226974085 -0.119493700564 255 0 0
0.25840306282 -0.00419954583049 -0.0633795559406 255 0 0
0.280842214823 0.00105577288195 0.136577889323 255 0 0
0.454138487577 -0.011811427772 -0.177450597286 255 0 0
0.273016989231 -0.000867833092343 0.121566079557 255 0 0
0.211130335927 -0.00363248866051 -0.0734386518598 255 0 0
-0.0373075194657 -0.0088785206899 -0.38221257925 255 0 0
0.522145748138 0.0144642125815 0.129317879677 255 0 0
0.446710973978 -0.00415573082864 0.164727509022 255 0 0
-0.123748712242 0.042158909142 -0.178045287728 255 0 0
0.509248435497 -0.00962784234434 0.194796770811 255 0 0
0.215111404657 -0.0046475045383 -0.0966387763619 255 0 0
0.520417928696 -0.012307590805 -0.339942365885 255 0 0
0.460159540176 -0.00282908976078 0.254292100668 255 0 0
-0.0231222752482 0.0206860657781 -0.180368646979 255 0 0
0.45928093791 -0.00201213988476 0.254174441099 255 0 0
0.452076017857 -0.0060001090169 0.122718498111 255 0 0
0.301180303097 0.00259271683171 0.14102768898 255 0 0
0.295113652945 0.000954609655309 0.143684431911 255 0 0
-0.0538752898574 -0.00839991588145 -0.362457722425 255 0 0
0.192152202129 -0.00523285381496 -0.0980285406113 255 0 0
0.300585031509 0.00128155259881 0.148050040007 255 0 0
-0.0250920746475 -0.0019020041218 0.152931854129 255 0 0
-0.312371224165 -0.00366999465041 -0.0342307649553 255 0 0
0.443185091019 -0.0027675665915 0.217879205942 255 0 0
0.220825344324 -0.00586661789566 -0.152141556144 255 0 0
0.299697935581 0.00331996846944 0.14082467556 255 0 0
0.280837327242 0.00222576013766 0.136470213532 255 0 0
0.442709267139 -0.0027642918285 0.142706513405 255 0 0
0.293989658356 0.00198962236755 0.143549308181 255 0 0
-0.0411920845509 -0.00887665245682 -0.368048071861 255 0 0
0.509105324745 -0.0109254615381 0.180273488164 255 0 0
0.300243556499 -0.00262442114763 0.0684480294585 255 0 0
0.520437777042 -0.0135648008436 -0.340274304152 255 0 0
0.264709621668 -0.00389531045221 -0.102394618094 255 0 0
0.50934523344 -0.0108472807333 0.194846600294 255 0 0
0.455105781555 -0.0070620640181 0.0395886786282 255 0 0
0.4471116364 -0.00928861275315 -0.23712079227 255 0 0
0.454714328051 -0.00260050059296 0.263989955187 255 0 0
0.27285015583 -0.00453774305061 -0.133052438498 255 0 0
0.448193103075 -0.0107955047861 -0.247486665845 255 0 0
-0.124091476202 0.046763010323 -0.183649882674 255 0 0
0.45946380496 -0.00350304390304 0.244091242552 255 0 0
-0.0167348757386 -0.0014684869675 0.142948463559 255 0 0
0.186371058226 -0.00384960626252 -0.0890532284975 255 0 0
-0.45783752203 -0.00173722021282 0.237471982837 255 0 0
0.245815843344 -0.00379063165747 -0.109061948955 255 0 0
0.458275467157 -0.00222342275083 0.253931432962 255 0 0
0.514120101929 -0.00702551659197 0.143972367048 255 0 0
-0.0749276578426 -0.00818168651313 -0.347866475582 255 0 0
0.219800874591 -0.00550446333364 -0.151423841715 255 0 0
0.259186446667 -0.00489943334833 -0.104964762926 255 0 0
0.44677978754 -0.0108439177275 -0.275152236223 255 0 0
0.212513417006 -0.00380802387372 -0.116655312479 255 0 0
0.447535783052 -0.00476634316146 0.164600208402 255 0 0
0.238529384136 -0.0045047737658 -0.0852596759796 255 0 0
-0.0258199106902 -0.000299155362882 0.152997627854 255 0 0
0.163194641471 -0.00491870660335 -0.0799705609679 255 0 0
0.275724977255 -0.00567842647433 -0.130997881293 255 0 0
0.299722015858 -0.00406323326752 -0.0141420736909 255 0 0
-0.23836004734 -0.00092831836082 -0.306633800268 255 0 0
0.521986246109 -0.00375048583373 0.125894099474 255 0 0
-0.0432006455958 -0.00848706252873 -0.368019551039 255 0 0
0.160552680492 -0.00543410517275 -0.113193400204 255 0 0
0.202774778008 -0.00514707155526 -0.0933281928301 255 0 0
0.278407514095 -0.00508695514873 -0.127461522818 255 0 0
0.236003220081 -0.00475260289386 -0.121344193816 255 0 0
0.452925890684 -0.00981893669814 -0.154211983085 255 0 0
0.454972803593 -0.00904808286577 -0.0920342206955 255 0 0
-0.260959595442 0.00340913468972 -0.060255266726 255 0 0
0.459269106388 -0.00299485400319 0.223378702998 255 0 0
0.508206903934 -0.00982506386936 0.180205911398 255 0 0
0.288431674242 -0.00180982227903 0.0956498011947 255 0 0
-0.0337012782693 -0.000734988716431 0.135176405311 255 0 0
0.256245821714 -0.00431884778664 -0.121247030795 255 0 0
0.455611050129 -0.00828271172941 0.020541170612 255 0 0
0.449385970831 -0.0062935478054 -0.0011747846147 255 0 0
0.217702031136 -0.00572182936594 -0.149378433824 255 0 0
0.451815932989 -0.0116225825623 -0.268804103136 255 0 0
0.267052233219 -0.00462800497189 -0.103165753186 255 0 0
-0.335496902466 -0.00365325273015 -0.05078586936 255 0 0
0.198416814208 -0.00505085429177 -0.118921644986 255 0 0
0.501948297024 -0.0118967583403 0.11948698014 255 0 0
-0.0968997851014 -0.00911808293313 -0.375873655081 255 0 0
0.249520048499 -0.00326374894939 -0.0652728527784 255 0 0
0.271978408098 -0.00342446984723 -0.0882235467434 255 0 0
0.484402447939 -0.00828341487795 0.19281154871 255 0 0
0.448986560106 -0.0089825168252 -0.204249039292 255 0 0
-0.33961558342 -0.00318947434425 -0.0597843825817 255 0 0
-0.323678970337 -0.00283906166442 -0.0666005685925 255 0 0
-0.0744623765349 -0.00918608624488 -0.348077535629 255 0 0
0.191389605403 -0.00518050696701 -0.109157808125 255 0 0
