ply
format ascii 1.0
comment https://github.com/EricCJoyce
element vertex 308
property float x
property float y
property float z
property uchar red
property uchar green
property uchar blue
end_header
0.0619209073484 0.0373157151043 0.227564513683 255 0 0
0.105643361807 0.0377723500133 0.232060045004 255 0 0
0.105411790311 0.0381662398577 0.233754634857 255 0 0
0.134789332747 0.0382261201739 0.228064268827 255 0 0
0.0618691965938 0.0369987413287 0.228825554252 255 0 0
-0.150531426072 -0.00908881891519 0.202421888709 255 0 0
-0.0439256280661 0.0416892915964 -0.212553992867 255 0 0
0.0969927310944 0.0397517979145 0.158299446106 255 0 0
-0.0846542939544 0.0433419719338 0.159202337265 255 0 0
-0.0879552066326 0.0433349013329 0.140249878168 255 0 0
0.0814797580242 0.0379467494786 0.225735843182 255 0 0
0.100092664361 0.0384211912751 0.245891854167 255 0 0
-0.0880118831992 0.0430634617805 0.138519987464 255 0 0
0.124473690987 0.0383290015161 0.230167478323 255 0 0
0.010668403469 0.169932886958 0.173082053661 255 0 0
0.0952819213271 0.0370601527393 0.235806763172 255 0 0
0.0168436076492 0.170139804482 0.173345044255 255 0 0
0.114155955613 0.0382702834904 0.227590441704 255 0 0
-0.0603510551155 0.173375442624 0.140324041247 255 0 0
0.0791029781103 0.19510294497 0.154531389475 255 0 0
0.081750638783 0.193670630455 0.141924411058 255 0 0
0.0970476269722 0.0372668132186 0.222769498825 255 0 0
0.137790992856 0.0387870632112 0.229195713997 255 0 0
-0.00672880187631 0.16999527812 0.174112379551 255 0 0
0.0903026685119 0.0413495190442 0.174271374941 255 0 0
0.070305146277 0.176890745759 0.124794460833 255 0 0
0.0993813574314 0.0412397794425 0.120597682893 255 0 0
-0.15058670938 0.0157584324479 0.192601159215 255 0 0
0.0407223887742 0.198712199926 0.0750834196806 255 0 0
0.110415585339 0.0382262505591 0.239579498768 255 0 0
0.0837723240256 0.0377150289714 0.224138110876 255 0 0
0.029604671523 0.169150337577 0.160898819566 255 0 0
-0.0657962784171 0.198501721025 0.149960592389 255 0 0
0.00801041349769 0.0396045185626 -0.10446882993 255 0 0
0.117869019508 0.0378711745143 0.245841905475 255 0 0
0.046035271138 0.104051530361 0.0644089356065 255 0 0
0.0204102862626 0.200464501977 0.0923791155219 255 0 0
0.1362747401 0.0380408763885 0.237524375319 255 0 0
0.123334780335 0.0383261702955 0.224724560976 255 0 0
0.0902355611324 0.0395170599222 0.177209436893 255 0 0
0.096408508718 0.0379940457642 0.238364517689 255 0 0
0.153355121613 0.0382489785552 0.228991016746 255 0 0
-0.149892672896 -0.0336926355958 0.199361085892 255 0 0
0.158432453871 0.0336226783693 0.237068817019 255 0 0
-0.153040617704 -0.0626794546843 -0.235293403268 255 0 0
-0.0261118132621 0.199592977762 0.0795659199357 255 0 0
-0.109230324626 0.036165162921 0.23724001646 255 0 0
0.115565367043 0.0384656377137 0.238219097257 255 0 0
0.155244976282 0.0374852791429 0.238376915455 255 0 0
0.0929402112961 0.0439828932285 0.155618444085 255 0 0
0.0789554566145 0.196727484465 0.149792954326 255 0 0
-0.150632023811 0.00888474471867 0.220716863871 255 0 0
0.0746933147311 0.0371875427663 0.235617890954 255 0 0
0.010967397131 0.199925079942 0.0938019752502 255 0 0
0.0786047056317 0.196754530072 0.151626676321 255 0 0
0.0204710382968 0.194734916091 0.209004670382 255 0 0
-0.0705462694168 0.0408566147089 0.189367800951 255 0 0
-0.121875010431 0.0359871610999 0.216429889202 255 0 0
0.114456355572 0.0385038517416 0.225955888629 255 0 0
0.114580832422 0.0374033935368 0.226212710142 255 0 0
0.0408214181662 0.199529230595 0.0758671909571 255 0 0
0.0258554089814 0.201612368226 0.104731082916 255 0 0
0.151273056865 0.0381496734917 0.230357438326 255 0 0
0.122825019062 0.0388659723103 0.243314340711 255 0 0
-0.0841856524348 0.0452806688845 0.144718289375 255 0 0
-0.150942549109 0.0130716562271 0.223362281919 255 0 0
0.0804203301668 0.19349399209 0.151979327202 255 0 0
-0.0237746015191 0.198966488242 0.0801496207714 255 0 0
0.0467699840665 0.200219348073 0.103951819241 255 0 0
0.0443992763758 0.173100963235 0.189098283648 255 0 0
0.0232768058777 0.199774563313 0.0680542513728 255 0 0
-0.0468054823577 0.19602099061 0.172905430198 255 0 0
0.0440564751625 0.111531682312 0.204244673252 255 0 0
-0.0695837810636 0.0414623208344 0.189152225852 255 0 0
-0.00660656346008 0.198362752795 0.202746793628 255 0 0
-0.040409475565 0.107584506273 0.202179834247 255 0 0
0.141660064459 0.0385464243591 0.233107313514 255 0 0
-0.0084974411875 0.192777350545 0.117946952581 255 0 0
0.0682121366262 0.0374580584466 0.236723214388 255 0 0
0.0305883660913 0.214849129319 0.0926487445831 255 0 0
-0.0691112577915 0.197460591793 0.149741023779 255 0 0
-0.0525119043887 0.0450302399695 -0.206271111965 255 0 0
-0.0319780670106 0.197950303555 0.1889475137 255 0 0
-0.0287519264966 0.198828577995 0.191052854061 255 0 0
0.0690338909626 0.0368091203272 0.237041324377 255 0 0
-0.0666443109512 0.198439493775 0.142557695508 255 0 0
0.0351373441517 0.218544557691 0.0927212610841 255 0 0
-0.0267985034734 0.207383424044 0.102730378509 255 0 0
-0.0604422725737 0.0441637858748 0.0679016262293 255 0 0
0.0934060737491 0.0377785600722 0.228545501828 255 0 0
-0.0201021526009 0.19928753376 0.199603587389 255 0 0
-0.0717161521316 0.195952549577 0.149205565453 255 0 0
0.0918923467398 0.0419643186033 0.164761587977 255 0 0
0.118399053812 0.0379376001656 0.221857711673 255 0 0
-0.0477329008281 0.17170470953 0.170376777649 255 0 0
-0.0265856273472 0.206333771348 0.102267831564 255 0 0
-0.0595594570041 0.197585180402 0.11474622786 255 0 0
0.118239864707 0.0384897068143 0.241502359509 255 0 0
0.0824305266142 0.0373589172959 0.23038238287 255 0 0
0.0399439632893 0.214376047254 0.104339197278 255 0 0
-0.033043153584 0.170981392264 0.168827325106 255 0 0
0.158902198076 0.0328216142952 0.230702757835 255 0 0
0.0360479429364 0.217601254582 0.104045204818 255 0 0
0.0987459719181 0.0419350638986 0.135792806745 255 0 0
0.127934321761 0.0381848216057 0.221986800432 255 0 0
0.139993324876 0.0390143655241 0.22714817524 255 0 0
-0.0212611854076 0.173449382186 0.184933871031 255 0 0
0.037291623652 0.218031942844 0.104048870504 255 0 0
-0.100612387061 0.0368413627148 0.161968946457 255 0 0
0.130453705788 0.0382477194071 0.22195738554 255 0 0
0.103052780032 0.0388942174613 0.137648060918 255 0 0
-0.0399835593998 0.198331952095 0.182218044996 255 0 0
-0.0867896303535 0.0414279475808 0.158053383231 255 0 0
0.027011603117 0.197118505836 0.114783197641 255 0 0
0.0799864307046 0.194934770465 0.151023879647 255 0 0
-0.0686623826623 0.197462677956 0.13935726881 255 0 0
-0.0965955704451 0.0370768532157 0.166699916124 255 0 0
-0.0287213437259 0.197287455201 0.19090680778 255 0 0
-0.0216997954994 0.198451071978 0.19885456562 255 0 0
-0.0164424721152 0.198636084795 0.196773424745 255 0 0
0.038851082325 0.215599179268 0.105318322778 255 0 0
-0.00487693212926 0.198872715235 0.201883465052 255 0 0
-0.15086235106 -0.0169711969793 0.198051288724 255 0 0
-0.0127668464556 0.203566506505 0.110940620303 255 0 0
-0.0516716092825 0.198497563601 0.170109182596 255 0 0
-0.151156499982 0.00591420428827 0.210851550102 255 0 0
-0.149570509791 -0.0431481599808 0.219562217593 255 0 0
0.136847674847 0.0386250801384 0.224477574229 255 0 0
-0.0300299525261 0.198579654098 0.190981522202 255 0 0
-0.15105548501 -0.000668783555739 0.207875519991 255 0 0
-0.0634717717767 0.198837518692 0.147468298674 255 0 0
-0.0284591205418 0.206641048193 0.102517962456 255 0 0
0.0196930542588 0.17322537303 0.136989250779 255 0 0
-0.0245293248445 0.171739757061 0.153485700488 255 0 0
-0.012311805971 0.202469676733 0.106943637133 255 0 0
0.0931325778365 0.0373187921941 0.245366021991 255 0 0
0.021971700713 0.173451557755 0.122365444899 255 0 0
0.101548336446 0.0376233235002 0.179025322199 255 0 0
-0.0118257533759 0.201349005103 0.109320268035 255 0 0
0.115227736533 0.0384816862643 0.233119338751 255 0 0
0.0664276182652 0.0373121313751 0.233346641064 255 0 0
-0.0285154152662 0.208643555641 0.105727262795 255 0 0
-0.0335422791541 0.19790917635 0.186877325177 255 0 0
0.0199786871672 0.173080056906 0.138615950942 255 0 0
-0.0414240658283 0.171221926808 0.177815720439 255 0 0
-0.0096005005762 0.19864295423 0.118096590042 255 0 0
-0.0220412909985 0.193238809705 0.207626134157 255 0 0
0.0766695812345 0.0370772667229 0.22481893003 255 0 0
0.035680603236 0.0400477573276 0.222366556525 255 0 0
0.0464711040258 0.199763983488 0.189730897546 255 0 0
-0.0403838083148 0.203081801534 0.114872127771 255 0 0
-0.0424564667046 0.199109941721 0.117795623839 255 0 0
0.0184559579939 0.20024998486 0.106651172042 255 0 0
-0.0396126247942 0.17250661552 0.160237938166 255 0 0
-0.0592438094318 0.0440445095301 0.0660826563835 255 0 0
0.104851014912 0.0385535620153 0.176659494638 255 0 0
0.0932227224112 0.0371708609164 0.234702050686 255 0 0
0.0547527484596 0.173788502812 0.159336477518 255 0 0
-0.116441883147 0.0367298796773 0.148508146405 255 0 0
0.149944797158 0.0386018939316 0.234786555171 255 0 0
-0.0408129617572 0.203941330314 0.113527692854 255 0 0
0.162723109126 0.0264676213264 0.253205835819 255 0 0
-0.0830050334334 0.0445116870105 0.157444730401 255 0 0
-0.0740671604872 0.194900512695 0.14440664649 255 0 0
-0.15100069344 -0.0104748243466 0.20182210207 255 0 0
-0.0157274901867 0.172423481941 0.139879494905 255 0 0
0.0254740137607 0.198820397258 0.1962107867 255 0 0
-0.0218554735184 0.196059003472 0.125565946102 255 0 0
0.157579943538 0.0357113070786 0.243869721889 255 0 0
0.0169637482613 0.199513450265 0.0655945241451 255 0 0
0.124897755682 0.0381129011512 0.225604221225 255 0 0
0.065691947937 0.174119383097 0.127933785319 255 0 0
-0.0151274912059 0.198261499405 0.196613878012 255 0 0
-0.01374147553 0.202934205532 0.103567160666 255 0 0
0.0775808021426 0.037289801985 0.232811033726 255 0 0
-0.0513286665082 0.197627127171 0.126394987106 255 0 0
-0.151064321399 0.00618553813547 0.222465738654 255 0 0
-0.150832638144 0.0119426585734 0.195386752486 255 0 0
-0.0240876488388 0.197646573186 0.125712886453 255 0 0
-0.150692611933 0.00411349069327 0.193939968944 255 0 0
0.0331325940788 0.214053615928 0.107642918825 255 0 0
0.0536889322102 0.0376562662423 0.230313017964 255 0 0
0.0665812045336 0.174231186509 0.138374969363 255 0 0
-0.0488166958094 0.199046373367 0.0992602482438 255 0 0
0.0695480704308 0.199302047491 0.104018077254 255 0 0
0.104098506272 0.0377013385296 0.243961662054 255 0 0
0.138568162918 0.0389029718935 0.224867984653 255 0 0
-0.0438745506108 0.0416992194951 -0.218283459544 255 0 0
0.0038082418032 0.198810130358 0.0629144459963 255 0 0
0.0622770562768 0.177523568273 0.170109897852 255 0 0
-0.0581288971007 0.0516462177038 -0.20778799057 255 0 0
0.0985502079129 0.0417083315551 0.139501541853 255 0 0
-0.0571355633438 0.0534304194152 -0.208157673478 255 0 0
-0.0321136824787 0.197251915932 0.187133386731 255 0 0
-0.0495051406324 0.19835087657 0.0987977534533 255 0 0
0.0800189971924 0.0374992229044 0.234478518367 255 0 0
-0.0509614646435 0.0511390268803 -0.221520081162 255 0 0
-0.0183894988149 0.20341745019 0.119318157434 255 0 0
0.11260291934 0.0387791059911 0.238008856773 255 0 0
-0.15096335113 0.00725129060447 0.195665493608 255 0 0
-0.0542547702789 0.0539051182568 -0.219795674086 255 0 0
0.0375813283026 0.171770781279 0.153745085001 255 0 0
0.0634865015745 0.0375621803105 0.236417427659 255 0 0
0.0425164699554 0.202197059989 0.102556534111 255 0 0
0.0770450606942 0.19757643342 0.151988819242 255 0 0
0.050169672817 0.20048956573 0.106230907142 255 0 0
0.0789470374584 0.037277508527 0.229076772928 255 0 0
-0.133606061339 0.0385398305953 -0.0190515462309 255 0 0
0.0400525704026 0.202718213201 0.107251793146 255 0 0
-0.142221644521 0.0363603830338 0.167412802577 255 0 0
0.150528565049 0.0381307080388 0.222694098949 255 0 0
-0.0645666271448 0.0508482158184 -0.210792511702 255 0 0
-0.0514842048287 0.0441266186535 -0.206430211663 255 0 0
-0.0320784263313 0.170710816979 0.186441019177 255 0 0
0.05847954005 0.0372062362731 0.245596781373 255 0 0
-0.0345467105508 0.173078894615 0.145538747311 255 0 0
-0.055776130408 0.055730573833 -0.219593718648 255 0 0
-0.0129688829184 0.192488834262 0.210371792316 255 0 0
0.149146258831 0.0389038510621 0.219516158104 255 0 0
0.0130449421704 0.196581676602 0.115150056779 255 0 0
-0.064072445035 0.195819839835 0.0947326496243 255 0 0
0.0220274142921 0.191454529762 0.211334317923 255 0 0
0.0682872459292 0.200125381351 0.122608810663 255 0 0
-0.115524806082 0.0388998351991 -0.213757485151 255 0 0
0.0632520541549 0.194344192743 0.120006360114 255 0 0
-0.121308945119 0.0381283275783 -0.00602692458779 255 0 0
-0.0322384908795 0.173316553235 0.131572157145 255 0 0
0.111272625625 0.0380885712802 0.241435930133 255 0 0
-0.0561625920236 0.0481656379998 -0.206473246217 255 0 0
0.146779626608 0.0388518571854 0.219460591674 255 0 0
-0.0576979853213 0.050715342164 -0.207301720977 255 0 0
-0.122494481504 0.038640152663 -0.23581816256 255 0 0
-0.151161238551 -0.00618922198191 0.204380124807 255 0 0
-0.0322987511754 0.197765097022 0.194964244962 255 0 0
0.1332244277 0.0385216511786 0.219522595406 255 0 0
0.0325373336673 0.21740436554 0.104244068265 255 0 0
-0.113560974598 0.0384802296758 -0.233449310064 255 0 0
-0.0343518704176 0.0399782769382 -0.223447293043 255 0 0
0.0461141951382 0.20012357831 0.187852203846 255 0 0
0.137198582292 0.0384315699339 0.226031571627 255 0 0
0.0275106858462 0.0392480306327 -0.232836812735 255 0 0
0.0761971920729 0.197564557195 0.154879853129 255 0 0
-0.0494634024799 0.193871557713 0.168979763985 255 0 0
0.0277216378599 0.0401269569993 -0.231587097049 255 0 0
0.0722005814314 0.0369547978044 0.240964531898 255 0 0
0.0848374441266 0.0413154922426 0.07845030725 255 0 0
0.0596746578813 0.173556372523 0.128250673413 255 0 0
0.0829467028379 0.187181174755 0.144690915942 255 0 0
0.111021973193 0.0384569391608 0.244274541736 255 0 0
-0.0730137079954 0.0464824214578 0.0911202579737 255 0 0
-0.150988519192 -0.0198014602065 0.203764230013 255 0 0
0.064069069922 0.198767930269 0.118476040661 255 0 0
-0.041422765702 0.172843962908 0.138975903392 255 0 0
0.0704879462719 0.0370645523071 0.22535854578 255 0 0
0.0882692337036 0.0464402586222 0.102466419339 255 0 0
0.135706216097 0.0387148745358 0.228958234191 255 0 0
0.0109690725803 0.173130854964 0.143252149224 255 0 0
0.0831174850464 0.18598651886 0.144514128566 255 0 0
0.0698127225041 0.0370302833617 0.229847118258 255 0 0
-0.0321117080748 0.190680846572 0.205185547471 255 0 0
0.119407624006 0.0375849790871 0.21963724494 255 0 0
0.084231197834 0.0415939837694 0.077672123909 255 0 0
-0.0548627823591 0.0552554652095 -0.213584497571 255 0 0
0.127930313349 0.0379834696651 0.224348187447 255 0 0
0.0687710344791 0.199185341597 0.122444808483 255 0 0
-0.038301486522 0.171808749437 0.160305693746 255 0 0
-0.0528591312468 0.0499632768333 -0.209322422743 255 0 0
-0.151278465986 6.72131354804e-05 0.197008416057 255 0 0
0.0806245580316 0.195401057601 0.141963794827 255 0 0
0.0402608625591 0.212882608175 0.103079892695 255 0 0
-0.0032718766015 0.0390864871442 0.0249683000147 255 0 0
0.0796384140849 0.191327512264 0.155986785889 255 0 0
-0.0666154548526 0.198330909014 0.140231400728 255 0 0
0.0970633551478 0.0389940626919 0.169300809503 255 0 0
-0.0511491559446 0.0467496477067 -0.20797072351 255 0 0
0.0788213387132 0.037223175168 0.219457075 255 0 0
0.0978098139167 0.0383978933096 0.168362438679 255 0 0
0.150237306952 0.0385956466198 0.23170670867 255 0 0
0.0775940716267 0.197634011507 0.148009389639 255 0 0
0.0594467781484 0.173890843987 0.117355890572 255 0 0
0.0879131779075 0.0373610369861 0.231899470091 255 0 0
0.0897514373064 0.0440125018358 0.165877133608 255 0 0
-0.00291958032176 0.0393216833472 0.0231941454113 255 0 0
0.0432979017496 0.0500699579716 0.0587337426841 255 0 0
0.0940085276961 0.0423108749092 0.160442069173 255 0 0
-0.0643632188439 0.0526493191719 -0.210594251752 255 0 0
-0.0293011236936 0.191838368773 0.205328300595 255 0 0
-0.00174439291004 0.0391261801124 0.0202872864902 255 0 0
-0.0479035079479 0.172894716263 0.131949111819 255 0 0
0.158686682582 0.0345450602472 0.250086665154 255 0 0
0.0159310549498 0.173961743712 0.133074909449 255 0 0
0.0673180371523 0.196059763432 0.178395166993 255 0 0
-0.139862060547 0.0382250584662 -0.0263457950205 255 0 0
0.0896580666304 0.0430148765445 0.166689172387 255 0 0
0.0622229240835 0.0372240953147 0.237783864141 255 0 0
0.134194031358 0.0387108661234 0.240581035614 255 0 0
0.144656658173 0.0388898849487 0.23777332902 255 0 0
0.108481571078 0.0378715023398 0.245718792081 255 0 0
-0.0743247866631 0.189703166485 0.158772945404 255 0 0
0.0967694073915 0.037276789546 0.223875850439 255 0 0
0.144582599401 0.0388302654028 0.223659649491 255 0 0
-0.0421048365533 0.172887191176 0.147535294294 255 0 0
0.134751453996 0.0381058417261 0.232133314013 255 0 0
0.0951964855194 0.0437996610999 0.149086162448 255 0 0
0.13122600317 0.0381614677608 0.234689503908 255 0 0
0.031910713762 0.206048771739 0.0837202891707 255 0 0
0.0789501368999 0.0370776876807 0.223342895508 255 0 0
0.0146644711494 0.196396827698 0.209714919329 255 0 0
