ply
format ascii 1.0
comment https://github.com/EricCJoyce
element vertex 85
property float x
property float y
property float z
property uchar red
property uchar green
property uchar blue
end_header
-0.124934658408 -0.122399948537 0.367307960987 255 0 0
-0.135722503066 0.370980888605 0.549790501595 255 0 0
-0.129023909569 0.212176829576 0.400009155273 255 0 0
-0.127814024687 0.210383817554 0.366434812546 255 0 0
-0.125833854079 -0.120258659124 0.398089259863 255 0 0
-0.0859284102917 -0.223856002092 0.475505501032 255 0 0
-0.103076554835 0.399136960506 0.545915067196 255 0 0
-0.0770496577024 0.432096511126 0.548757135868 255 0 0
-0.0701128616929 0.420990586281 0.499755829573 255 0 0
-0.019384495914 0.447673410177 0.543863832951 255 0 0
-0.113534003496 0.362883806229 0.522246778011 255 0 0
-0.137051194906 -0.212448388338 0.545248985291 255 0 0
-0.0840545669198 0.417580544949 0.572391271591 255 0 0
0.0552380718291 -0.187605857849 0.554047703743 255 0 0
-0.0688347071409 0.415794700384 0.598114490509 255 0 0
-0.64269310236 -0.389125645161 -0.625204801559 255 0 0
-0.112945444882 0.373428076506 0.577809214592 255 0 0
-0.110132947564 0.370068520308 0.585558712482 255 0 0
-0.0701001733541 -0.0201745778322 0.471962362528 255 0 0
-0.140843763947 0.212986126542 0.423062801361 255 0 0
-0.0626060813665 0.439792722464 0.559675931931 255 0 0
-0.11433365196 -0.229639261961 0.523705422878 255 0 0
-0.0992167517543 0.371279269457 0.59525257349 255 0 0
-0.517959535122 -0.271752536297 -0.475941002369 255 0 0
-0.0964319109917 0.405878841877 0.572772562504 255 0 0
0.103118896484 0.35656940937 0.606953024864 255 0 0
-0.132213503122 -0.12839192152 0.396829873323 255 0 0
0.150693267584 -0.214382112026 -0.558414757252 255 0 0
-0.0336470007896 0.389692544937 0.394471108913 255 0 0
0.0955743566155 -0.223720505834 0.565686047077 255 0 0
-0.124137163162 -0.229723215103 -0.392632693052 255 0 0
-0.423475712538 -0.23008556664 -0.560244619846 255 0 0
-0.0637704133987 -0.0302720032632 0.475315451622 255 0 0
-0.0533820018172 -0.184962451458 0.517394185066 255 0 0
-0.543976485729 -0.243061482906 -0.601719558239 255 0 0
0.186531111598 -0.214666649699 -0.584581851959 255 0 0
-0.0116153154522 -0.183245331049 0.514891088009 255 0 0
-0.0603331886232 -0.281837165356 -0.489979654551 255 0 0
-0.651547789574 -0.393930852413 -0.480683326721 255 0 0
-0.11064978689 0.389458686113 0.558817327023 255 0 0
0.0976655110717 0.34860882163 0.611711740494 255 0 0
0.216443091631 -0.235193714499 -0.631643533707 255 0 0
0.093196503818 -0.224645853043 0.558226406574 255 0 0
-0.132787659764 0.200798079371 0.402724146843 255 0 0
0.0209070108831 -0.219502732158 -0.519534289837 255 0 0
0.007280071266 -0.171070978045 0.569160759449 255 0 0
-0.512215137482 -0.26772621274 -0.487597376108 255 0 0
-0.029053658247 -0.167427659035 0.534912526608 255 0 0
-0.211520731449 -0.220714405179 -0.555854320526 255 0 0
-0.0571627952158 -0.187324225903 0.520289719105 255 0 0
0.00310384877957 0.40874004364 0.730665206909 255 0 0
-0.00550027983263 0.408532589674 0.726508498192 255 0 0
-0.00621759425849 -0.18012163043 0.514869272709 255 0 0
-0.083486944437 -0.211210101843 0.51400244236 255 0 0
-0.123700603843 0.223933130503 0.405988037586 255 0 0
0.101923778653 0.364757835865 0.609571397305 255 0 0
0.105591788888 -0.212804228067 0.555698215961 255 0 0
-0.0566365756094 -0.175911411643 0.560861349106 255 0 0
-0.123811259866 -0.228804692626 0.568793356419 255 0 0
-0.0754758045077 -0.0201521310955 0.345171928406 255 0 0
-0.313390851021 -0.244331255555 -0.616823017597 255 0 0
-0.11877258122 -0.111544534564 0.396256893873 255 0 0
0.204481482506 -0.260263115168 -0.48063492775 255 0 0
-0.0885332971811 -0.278938829899 -0.359024882317 255 0 0
0.116405755281 0.421892613173 0.775089561939 255 0 0
-0.0948994606733 -0.225661605597 -0.404321283102 255 0 0
-0.136306360364 0.334538727999 0.549018859863 255 0 0
-0.105417758226 0.381957471371 0.583509266376 255 0 0
-0.0688935294747 0.128714770079 0.337626218796 255 0 0
-0.0400457344949 -0.170219302177 0.550689339638 255 0 0
-0.0459808818996 -0.197817638516 0.501832544804 255 0 0
-0.545485556126 -0.244706213474 -0.51404350996 255 0 0
-0.0416223108768 -0.104458667338 0.494205713272 255 0 0
-0.132008224726 -0.135646253824 0.369243144989 255 0 0
0.0753217414021 0.385097384453 0.616584300995 255 0 0
0.201273530722 0.411322176456 0.640527367592 255 0 0
0.0269874799997 -0.178208425641 0.576815843582 255 0 0
0.102359473705 -0.219055891037 0.553428292274 255 0 0
-0.0931504890323 -0.200632184744 0.545614898205 255 0 0
-0.133737161756 0.371532022953 0.55968952179 255 0 0
-0.123804062605 0.377212166786 0.560779392719 255 0 0
-0.0197797715664 -0.174945518374 -0.374896854162 255 0 0
-0.12937258184 -0.237960398197 0.517436027527 255 0 0
-0.333229243755 -0.251201808453 -0.618253707886 255 0 0
-0.0685713812709 -0.20258410275 0.514037072659 255 0 0
