ply
format ascii 1.0
comment https://github.com/EricCJoyce
element vertex 500
property float x
property float y
property float z
property uchar red
property uchar green
property uchar blue
end_header
-0.511430442333 -0.0399333164096 0.959820687771 255 0 0
-0.503086745739 -0.0373933911324 0.905055522919 255 0 0
-0.558656394482 -0.0928612351418 0.919368565083 255 0 0
-0.564928114414 -0.0983210280538 0.952747821808 255 0 0
-0.535384654999 -0.0491237826645 0.988893806934 255 0 0
-0.535786271095 -0.0496022477746 0.914619803429 255 0 0
-0.534788906574 -0.0430478416383 0.942047834396 255 0 0
0.0520220771432 -0.030271038413 0.340922147036 255 0 0
-0.560629665852 -0.108141578734 0.996121048927 255 0 0
-0.558694720268 -0.0858978554606 0.937922298908 255 0 0
0.0516085475683 -0.0305154602975 0.176965355873 255 0 0
0.0588838458061 -0.0542165599763 -0.579263389111 255 0 0
0.0590073429048 -0.0621522404253 -0.746011674404 255 0 0
-0.148400843143 -0.0372828692198 -0.527486801147 255 0 0
-0.076538644731 -0.0347686633468 -1.00328922272 255 0 0
-0.140476837754 -0.0353942811489 -0.652785539627 255 0 0
-0.547107994556 -0.0670355856419 0.953122913837 255 0 0
-0.148668423295 -0.0321585200727 -0.299907207489 255 0 0
0.0593279376626 -0.0494990795851 -0.427480846643 255 0 0
0.409414410591 -0.00703837815672 -0.0687738284469 255 0 0
0.0216984357685 -0.047014977783 -1.15906572342 255 0 0
0.0541259758174 -0.0518761761487 -1.13772773743 255 0 0
0.0552526563406 -0.041628267616 -0.259422004223 255 0 0
-0.149385496974 -0.0297202151269 -0.183450743556 255 0 0
-0.517991662025 -0.0452340617776 0.989751458168 255 0 0
-0.146582484245 -0.0348394550383 -0.411081194878 255 0 0
-0.506372749805 -0.0394334979355 0.949124217033 255 0 0
-0.119950890541 -0.0267169792205 0.513817965984 255 0 0
-0.537830770016 -0.0556781366467 -0.646312892437 255 0 0
0.47338744998 -0.0315879806876 0.125492796302 255 0 0
-0.0682942420244 -0.0376759320498 -1.10942041874 255 0 0
-0.541008174419 -0.0564546845853 -0.544965803623 255 0 0
-0.522435843945 -0.0400555022061 0.962205350399 255 0 0
-0.452599555254 -0.0609432272613 0.908134281635 255 0 0
-0.513790607452 -0.0409369431436 -0.541642606258 255 0 0
-0.0914801731706 -0.026707932353 0.514292955399 255 0 0
-0.0747609362006 -0.0363445132971 -1.13838350773 255 0 0
-0.560739398003 -0.0928613394499 0.834703624249 255 0 0
-0.404225438833 -0.0374318026006 0.823597788811 255 0 0
0.457897543907 -0.02951288037 -0.173629656434 255 0 0
-0.53712284565 -0.0498113147914 -0.434776723385 255 0 0
-0.50662779808 -0.0369617789984 0.895632386208 255 0 0
-0.00900927558541 -0.0431751012802 -1.15826272964 255 0 0
-0.0627798289061 -0.0231762453914 0.523164629936 255 0 0
-0.545024633408 -0.0595699585974 0.960858464241 255 0 0
0.272088825703 -0.0511776357889 0.290798872709 255 0 0
-0.26331076026 -0.0715496093035 0.719016313553 255 0 0
-0.554798424244 -0.0882769078016 1.07411289215 255 0 0
0.271848678589 -0.0516106747091 0.130927622318 255 0 0
-0.0949412882328 -0.0265985857695 0.596463322639 255 0 0
0.281269311905 -0.0426074750721 -0.486762076616 255 0 0
-0.0182443875819 -0.0273147784173 0.613768100739 255 0 0
-0.434417515993 -0.0554250478745 0.873772144318 255 0 0
-0.455372780561 -0.0512016713619 0.866506397724 255 0 0
0.376154839993 -0.0250990968198 0.0674063637853 255 0 0
-0.0101301753893 -0.0447180829942 -1.12490034103 255 0 0
0.136364385486 -0.0517375804484 0.215099811554 255 0 0
0.0389305725694 -0.0608248822391 -1.11367976665 255 0 0
0.283180326223 -0.0469451770186 -0.646707177162 255 0 0
0.279284417629 -0.0457211062312 -0.334814488888 255 0 0
-0.507644176483 -0.0363166555762 0.797030448914 255 0 0
0.280223995447 -0.0405152142048 0.314119338989 255 0 0
-0.0368987135589 -0.0223070383072 0.504965543747 255 0 0
-0.395212650299 -0.0350320413709 0.771881461143 255 0 0
-0.0228818245232 -0.0429130196571 -1.16426074505 255 0 0
-0.456518232822 -0.0603900514543 0.896071732044 255 0 0
0.270429849625 -0.0507095493376 0.365248858929 255 0 0
0.0476810522377 -0.0472975596786 -1.15233874321 255 0 0
0.35806402564 -0.025382231921 0.0731069296598 255 0 0
0.270718693733 -0.0505693368614 0.362221598625 255 0 0
0.134928300977 -0.0551941432059 0.374481022358 255 0 0
-0.512445807457 -0.0353895239532 -0.407797932625 255 0 0
-0.457669764757 -0.0536953732371 0.920413732529 255 0 0
0.255544632673 -0.0555426515639 0.384864151478 255 0 0
-0.51222205162 -0.0411399155855 0.985911726952 255 0 0
0.417699098587 -0.0289505049586 0.0671081617475 255 0 0
0.456792294979 -0.0289297346026 0.0675797462463 255 0 0
0.469372451305 -0.0320839732885 -0.0331050232053 255 0 0
0.442102283239 -0.0276925321668 0.125079751015 255 0 0
0.387168467045 -0.0290189757943 0.0678705275059 255 0 0
-0.213061839342 -0.0623790211976 0.775610983372 255 0 0
-0.490167856216 -0.0360373929143 1.04525339603 255 0 0
0.433996111155 -0.0289203990251 0.0668406710029 255 0 0
-0.511237084866 -0.0436672866344 1.04062509537 255 0 0
0.370016366243 -0.0243052188307 -0.203771278262 255 0 0
-0.138804376125 -0.031218400225 -0.404636234045 255 0 0
0.346628725529 -0.0262005049735 -0.247928023338 255 0 0
0.175282433629 -0.0613947063684 0.594224572182 255 0 0
-0.490567207336 -0.0340123586357 0.832187950611 255 0 0
-0.537062942982 -0.0495074205101 0.827919721603 255 0 0
-0.0388198010623 -0.0393221341074 -1.15772175789 255 0 0
0.406847298145 -0.0161817036569 -0.0402169674635 255 0 0
0.271330595016 -0.0511221699417 0.204962700605 255 0 0
0.282996088266 -0.0488833189011 -0.604771852493 255 0 0
-0.0625862777233 -0.0262670386583 0.590051233768 255 0 0
0.268875390291 -0.0552832558751 0.379565179348 255 0 0
-0.55983287096 -0.11039352417 -0.393637239933 255 0 0
-0.459192752838 -0.051824580878 0.879895567894 255 0 0
0.370665371418 -0.0239545423537 0.127127975225 255 0 0
0.0382155701518 -0.0389458090067 -0.994813978672 255 0 0
-0.566799402237 -0.117714062333 -0.65848171711 255 0 0
0.454485833645 -0.0306466072798 0.104677021503 255 0 0
-0.0543913282454 -0.0414250083268 -1.11258423328 255 0 0
0.474873632193 -0.0312152486295 -0.136391967535 255 0 0
-0.118816778064 -0.0252884719521 0.567551136017 255 0 0
0.0210073348135 -0.0272853765637 0.614056646824 255 0 0
0.281509876251 -0.0398600883782 0.384591311216 255 0 0
-0.467295378447 -0.046371512115 0.930941224098 255 0 0
0.338946133852 -0.0260043088347 -0.25235453248 255 0 0
0.371119737625 -0.0119230821729 -0.0485934466124 255 0 0
0.470285385847 -0.0295273866504 -0.0884058400989 255 0 0
-0.492158293724 -0.0359654948115 0.789796471596 255 0 0
0.473546892405 -0.0316254533827 0.041689440608 255 0 0
0.279144763947 -0.0418627336621 -0.249073401093 255 0 0
0.282004207373 -0.0367624945939 0.232955738902 255 0 0
0.472113758326 -0.0343588516116 -0.153050243855 255 0 0
-0.457396745682 -0.0549294427037 0.947124421597 255 0 0
0.400065988302 -0.0275956690311 0.121993355453 255 0 0
-0.508958518505 -0.0357947349548 0.785705626011 255 0 0
-0.553078472614 -0.0763031616807 0.815052032471 255 0 0
-0.189369559288 -0.0388904549181 -0.832137584686 255 0 0
-0.198798984289 -0.0433586500585 0.956689476967 255 0 0
0.341750651598 -0.0270389858633 -0.229898974299 255 0 0
0.255129128695 -0.0558506846428 0.222283825278 255 0 0
-0.524475216866 -0.0394710414112 -0.404378980398 255 0 0
-0.539631783962 -0.0602180473506 -1.14044213295 255 0 0
-0.0644907951355 -0.033802062273 -1.02392184734 255 0 0
0.281744331121 -0.0529733076692 -0.770151793957 255 0 0
0.470913231373 -0.0335257649422 -0.255723834038 255 0 0
-0.194421470165 -0.0317621715367 0.875091135502 255 0 0
0.142800584435 -0.0537723340094 -0.248426645994 255 0 0
-0.532105267048 -0.0462853983045 0.84293282032 255 0 0
0.283669352531 -0.0379810221493 0.343980848789 255 0 0
0.357960045338 -0.0260878503323 0.0883734598756 255 0 0
0.258876502514 -0.0585711710155 0.11200491339 255 0 0
0.359081506729 -0.024989778176 -0.0199795085937 255 0 0
-0.408091038465 -0.0421528555453 1.09490227699 255 0 0
-0.452746152878 -0.0454635135829 0.996253788471 255 0 0
-0.196033492684 -0.0368898399174 0.901393353939 255 0 0
-0.509145796299 -0.0352971144021 0.774933099747 255 0 0
0.278170377016 -0.0425449796021 -0.234333142638 255 0 0
-0.538439571857 -0.0540691837668 1.09583592415 255 0 0
-0.187158942223 -0.0374616831541 0.913976550102 255 0 0
0.258142054081 -0.0539769679308 0.266427308321 255 0 0
0.365114271641 -0.0265409667045 0.0983470678329 255 0 0
-0.531451642513 -0.0438970737159 0.875885009766 255 0 0
-0.102457024157 -0.0252722874284 0.482968240976 255 0 0
0.143802762032 -0.0629192441702 -0.558180451393 255 0 0
0.358106553555 -0.0241181999445 0.130373477936 255 0 0
-0.453280895948 -0.0466475971043 1.02186369896 255 0 0
0.454270392656 -0.0307299308479 0.106474995613 255 0 0
-0.198769763112 -0.0422552414238 -0.336457639933 255 0 0
-0.195538461208 -0.0381307639182 0.928257465363 255 0 0
-0.538924634457 -0.050326757133 1.09945976734 255 0 0
0.265750467777 -0.0531339719892 0.248364880681 255 0 0
0.406638473272 -0.0269035939127 0.10717228055 255 0 0
-0.187602654099 -0.0362692475319 0.888162910938 255 0 0
0.467692017555 -0.032246042043 0.0549804344773 255 0 0
-0.501185834408 -0.0370340533555 0.981942653656 255 0 0
-0.476692825556 -0.0348021872342 0.849605977535 255 0 0
-0.199423119426 -0.0397890843451 -0.220602437854 255 0 0
-0.168393403292 -0.0308341756463 0.771005272865 255 0 0
-0.136566728354 -0.0512761548162 0.960247278214 255 0 0
-0.0224653426558 -0.0398928038776 -1.14498758316 255 0 0
0.300273299217 -0.0335959680378 -0.512079179287 255 0 0
-0.203614473343 -0.0485613122582 0.984538912773 255 0 0
-0.35225725174 -0.0397643074393 0.79067748785 255 0 0
0.0944770872593 -0.0506234765053 0.359240829945 255 0 0
0.281286984682 -0.042132075876 -0.412430733442 255 0 0
-0.53523850441 -0.0475592426956 -0.398847162724 255 0 0
-0.520304441452 -0.0380656905472 0.834579765797 255 0 0
0.145808413625 -0.0635558888316 -0.713592886925 255 0 0
0.281759142876 -0.0358980968595 0.214245140553 255 0 0
-0.187351852655 -0.0310939382762 0.860797703266 255 0 0
0.425818443298 -0.0276800766587 0.0398085303605 255 0 0
-0.496700137854 -0.0350369811058 0.938833355904 255 0 0
-0.188380822539 -0.0387259721756 0.941305935383 255 0 0
0.0490892268717 -0.0331693850458 -1.03493642807 255 0 0
0.289713352919 -0.0297101028264 0.249765977263 255 0 0
-0.143817186356 -0.0506311878562 0.946119964123 255 0 0
-0.24590484798 -0.0697470754385 -0.758086025715 255 0 0
0.301063627005 -0.0465527921915 -0.824012875557 255 0 0
-0.442949712276 -0.0460617057979 1.00942897797 255 0 0
-0.462694495916 -0.0385936014354 0.847360551357 255 0 0
-0.5159689188 -0.0438384786248 -0.648143291473 255 0 0
0.0356659963727 -0.0610582195222 -1.10870742798 255 0 0
-0.0776171013713 -0.0365393906832 -1.04961574078 255 0 0
-0.495269089937 -0.0354827791452 0.948513746262 255 0 0
0.335980117321 -0.0151057923213 -0.0651683807373 255 0 0
-0.17893075943 -0.0315848775208 -0.313033372164 255 0 0
-0.104649320245 -0.0278644561768 0.53900885582 255 0 0
0.412773877382 -0.00756276259199 -0.0573474727571 255 0 0
-0.446327656507 -0.038321621716 0.841860771179 255 0 0
-0.511141002178 -0.0399805009365 0.876230478287 255 0 0
0.288814783096 -0.0385787263513 -0.404526680708 255 0 0
-0.0954257771373 -0.0377442464232 -1.10858130455 255 0 0
0.143407136202 -0.0584349557757 -0.401371598244 255 0 0
0.455880761147 -0.0311306025833 0.030565040186 255 0 0
0.418393969536 -0.0151920262724 -0.145978733897 255 0 0
0.371437340975 -0.026343068108 0.00959558226168 255 0 0
-0.485292226076 -0.0351079627872 0.856020092964 255 0 0
-0.484371304512 -0.0379689671099 1.00256943703 255 0 0
-0.522183299065 -0.0433239713311 1.03293812275 255 0 0
-0.165820792317 -0.0376967191696 0.91956526041 255 0 0
-0.198782220483 -0.0447924844921 -0.450790405273 255 0 0
0.289648115635 -0.0358301773667 -0.379365175962 255 0 0
0.239941224456 -0.053052470088 0.330611228943 255 0 0
-0.0578838139772 -0.0266540981829 0.42930150032 255 0 0
-0.448617398739 -0.0488097928464 0.98414349556 255 0 0
0.239361688495 -0.0530975088477 0.331572204828 255 0 0
0.422108650208 -0.0279063824564 0.0446181632578 255 0 0
-0.447800278664 -0.0582519620657 0.934628784657 255 0 0
-0.141904309392 -0.0454696416855 0.919091820717 255 0 0
0.41431415081 -0.0129725635052 -0.109483994544 255 0 0
-0.179039075971 -0.0289340335876 -0.201161667705 255 0 0
0.280928879976 -0.0552598200738 -0.720692932606 255 0 0
-0.536618411541 -0.0546630807221 -0.668249249458 255 0 0
-0.135999083519 -0.0346059836447 -0.66973811388 255 0 0
0.422047883272 -0.0301215406507 0.0925508067012 255 0 0
-0.17843413353 -0.0351060442626 -0.659916996956 255 0 0
-0.473395466805 -0.0480872802436 0.967925190926 255 0 0
0.297041773796 -0.0327673815191 -0.360849112272 255 0 0
0.441567838192 -0.0193255320191 -0.140605404973 255 0 0
0.299228131771 -0.0381327271461 -0.667786598206 255 0 0
-0.136209875345 -0.0361985452473 -0.635281443596 255 0 0
-0.522174954414 -0.0370101481676 0.811694741249 255 0 0
-0.522400915623 -0.0367294549942 0.805615365505 255 0 0
-0.522957265377 -0.0466129928827 -0.672888040543 255 0 0
-0.237369254231 -0.0339689776301 1.09106874466 255 0 0
-0.204944580793 -0.0469274148345 1.03376960754 255 0 0
0.257976859808 -0.054179944098 0.186197578907 255 0 0
0.0833965390921 -0.054516762495 -1.07989811897 255 0 0
-0.452459275723 -0.0479581281543 1.05024182796 255 0 0
0.231128409505 -0.057270091027 0.2524330616 255 0 0
0.523027777672 -0.0361170358956 0.81699359417 255 0 0
-0.44829967618 -0.0525679290295 1.06547379494 255 0 0
0.232998967171 -0.0520809292793 0.30942440033 255 0 0
0.242498546839 -0.0559534318745 0.139591485262 255 0 0
-0.204434975982 -0.0375347286463 1.08438634872 255 0 0
-0.143847152591 -0.0342072248459 -0.509315729141 255 0 0
0.280673265457 -0.0471033267677 -0.558725953102 255 0 0
-0.441346257925 -0.0514924414456 0.95774692297 255 0 0
-0.519773840904 -0.0427964664996 1.02158021927 255 0 0
-0.483504086733 -0.0407079271972 0.977240562439 255 0 0
0.241016328335 -0.0552424900234 0.293408632278 255 0 0
-0.0953700840473 -0.0243747550994 0.463713437319 255 0 0
-0.489016026258 -0.0342324078083 0.583131968975 255 0 0
-0.488868355751 -0.0357117280364 0.53052854538 255 0 0
-0.0247492883354 -0.0232281722128 0.52518427372 255 0 0
0.0432381331921 -0.0232208501548 0.357391506433 255 0 0
0.241331294179 -0.0587373375893 -0.307903081179 255 0 0
0.341658473015 -0.0204579886049 -0.0338358655572 255 0 0
-0.485589623451 -0.0362619794905 0.28865852952 255 0 0
0.0914468765259 -0.0527773573995 0.151923343539 255 0 0
-0.339110851288 -0.0428398288786 0.77292072773 255 0 0
0.455389469862 -0.0293059255928 0.0756871327758 255 0 0
0.303820431232 -0.0302877184004 -0.329729050398 255 0 0
0.108396731317 -0.0598672479391 -0.794293224812 255 0 0
-0.142188921571 -0.0500298179686 0.933145225048 255 0 0
0.0675618499517 -0.0642704516649 -1.12306427956 255 0 0
-0.486506462097 -0.0344632640481 0.249714329839 255 0 0
0.429573237896 -0.0109180705622 -0.0689638331532 255 0 0
0.428685694933 -0.0163411404938 -0.1208704561 255 0 0
0.303014963865 -0.0288299843669 -0.276674032211 255 0 0
-0.000266819726676 -0.0277611725032 0.623851239681 255 0 0
0.281455427408 -0.0496279075742 -0.842550039291 255 0 0
-0.0979774594307 -0.0376108586788 -1.02690982819 255 0 0
0.0318188332021 -0.0471707992256 -1.0708373785 255 0 0
-0.388794749975 -0.0648422539234 0.909390985966 255 0 0
0.233692914248 -0.0548735558987 0.285252660513 255 0 0
-0.341032534838 -0.0426154844463 0.768020808697 255 0 0
-0.182793453336 -0.0399782322347 -0.808444082737 255 0 0
-0.197936668992 -0.0408396497369 1.07143700123 255 0 0
-0.142895206809 -0.036503944546 -0.544212341309 255 0 0
0.00287115527317 -0.0395240075886 -1.06775295734 255 0 0
-0.141992911696 -0.0479649864137 0.973086774349 255 0 0
0.101174011827 -0.0538193881512 -0.248389214277 255 0 0
-0.490772783756 -0.0326313748956 0.717681765556 255 0 0
-0.540448367596 -0.0589902698994 -0.997793197632 255 0 0
-0.534717321396 -0.0505299605429 -0.249933063984 255 0 0
-0.267999589443 -0.0460237450898 0.928111255169 255 0 0
0.290304303169 -0.0395545884967 -0.552610993385 255 0 0
-0.142045781016 -0.0436312817037 1.04854416847 255 0 0
0.398363023996 -0.0118679525331 -0.0491445399821 255 0 0
0.250681608915 -0.057391256094 0.763224005699 255 0 0
0.0536737367511 -0.0342378020287 0.765270590782 255 0 0
-0.416587263346 -0.0425567030907 1.0188229084 255 0 0
-0.485288709402 -0.0354296900332 0.270655572414 255 0 0
0.379711776972 -0.0261922907084 0.0911459475756 255 0 0
-0.135155513883 -0.0316318646073 -0.395603299141 255 0 0
0.062480520457 -0.0667574703693 -0.730894804001 255 0 0
-0.0499144978821 -0.0239497553557 0.20173355937 255 0 0
0.102049179375 -0.0586956031621 -0.565941929817 255 0 0
0.396675020456 -0.0309410300106 -0.228786215186 255 0 0
0.425058484077 -0.029572956264 -0.00386723200791 255 0 0
0.188495099545 -0.029527515173 0.835756719112 255 0 0
0.246402680874 -0.0560517348349 -0.281279683113 255 0 0
0.233399227262 -0.0526880174875 0.153334528208 255 0 0
-0.0636812821031 -0.0363398939371 -0.968986332417 255 0 0
0.112868137658 -0.0686569139361 -0.180896982551 255 0 0
0.063150241971 -0.0626816228032 -0.565222501755 255 0 0
0.455259621143 -0.0347230881453 -0.230183631182 255 0 0
0.270832508802 -0.0566781274974 -0.52100366354 255 0 0
0.399368911982 -0.00725968694314 -0.0642215833068 255 0 0
0.4634129107 -0.033139154315 0.0742058008909 255 0 0
0.00243643089198 -0.0244736094028 0.46815687418 255 0 0
0.0638546869159 -0.0626332834363 -0.56625187397 255 0 0
0.400153338909 -0.0291281826794 -0.267932683229 255 0 0
0.20995144546 -0.0675146952271 -0.795652627945 255 0 0
-0.381496310234 -0.0485404543579 1.0645147562 255 0 0
-0.534704744816 -0.0503889210522 1.01628625393 255 0 0
0.268327146769 -0.0532723665237 0.336038351059 255 0 0
-0.0544876754284 -0.0406047962606 -1.13033521175 255 0 0
-0.536694169044 -0.0506311953068 1.02148199081 255 0 0
0.146443501115 -0.0493380576372 -0.598148882389 255 0 0
-0.136317238212 -0.0448189154267 0.905142307281 255 0 0
0.281202733517 -0.0470700077713 -0.39019832015 255 0 0
-0.493154227734 -0.0349918864667 0.768705070019 255 0 0
-0.391635537148 -0.0713375732303 0.965258896351 255 0 0
-0.328701019287 -0.0352325662971 0.862405717373 255 0 0
0.232522502542 -0.0744690895081 -0.813870131969 255 0 0
-0.398350298405 -0.0488187670708 1.07014012337 255 0 0
0.456936120987 -0.0313674882054 0.120333977044 255 0 0
0.0477321632206 -0.0498727448285 -0.758140444756 255 0 0
-0.552252292633 -0.0876522883773 -0.631704747677 255 0 0
-0.390593886375 -0.0472590588033 0.86733597517 255 0 0
-0.346747219563 -0.0353277027607 0.864039242268 255 0 0
0.241157650948 -0.0632010251284 -0.465171068907 255 0 0
0.272688448429 -0.0491130240262 0.415372759104 255 0 0
-0.139201551676 -0.0345326438546 -0.417546421289 255 0 0
0.0370001122355 -0.0252142585814 0.569616258144 255 0 0
-0.148499235511 -0.028920352459 -0.200738206506 255 0 0
-0.100108608603 -0.0347053334117 -1.00521492958 255 0 0
0.263601839542 -0.0583583936095 -0.230960413814 255 0 0
0.090389765799 -0.0532112568617 -0.431038796902 255 0 0
0.453261435032 -0.0285196714103 0.143241241574 255 0 0
0.429868817329 -0.0327876098454 -0.0188096538186 255 0 0
0.22958470881 -0.0602290816605 -0.360517919064 255 0 0
0.0418912321329 -0.0255255457014 0.322613269091 255 0 0
0.422837823629 -0.01047251001 -0.0787640586495 255 0 0
0.396134734154 -0.0246854238212 -0.194928616285 255 0 0
-0.134359538555 -0.0469990037382 1.03698170185 255 0 0
0.148209676147 -0.0576632544398 -0.756429612637 255 0 0
0.163729846478 -0.0582884512842 -0.488681048155 255 0 0
0.155610591173 -0.0642735213041 -0.105506464839 255 0 0
0.0390951633453 -0.0606554672122 -1.11734187603 255 0 0
0.150142788887 -0.0488877817988 -0.438569128513 255 0 0
0.435780912638 -0.0139315994456 -0.088225543499 255 0 0
0.206037148833 -0.0628773346543 -0.726857244968 255 0 0
0.243803456426 -0.0676841810346 -0.621951460838 255 0 0
0.269464403391 -0.0539585873485 0.18167822063 255 0 0
-0.486590862274 -0.0366204306483 0.88871794939 255 0 0
-0.0426974780858 -0.0234447326511 0.529447615147 255 0 0
-0.363063901663 -0.0392220951617 0.863307952881 255 0 0
0.440421253443 -0.025287732482 -0.180851817131 255 0 0
-0.489234298468 -0.0351540222764 0.603069722652 255 0 0
-0.318452954292 -0.0489868223667 1.07565903664 255 0 0
0.115899048746 -0.046542365104 -0.320892542601 255 0 0
0.397398799658 -0.026086403057 0.0892713144422 255 0 0
-0.497842639685 -0.0354219935834 1.03175592422 255 0 0
-0.522093653679 -0.0460344143212 1.00697374344 255 0 0
0.0266838092357 -0.0263156034052 0.593205332756 255 0 0
0.303921699524 -0.0316494591534 -0.384877860546 255 0 0
-0.337189942598 -0.0489567145705 1.07456612587 255 0 0
-0.386933684349 -0.0374630764127 0.824681937695 255 0 0
-0.24781472981 -0.0352137759328 0.863904833794 255 0 0
-0.072035625577 -0.0424013584852 -1.17649066448 255 0 0
-0.489921212196 -0.0321662463248 0.623018801212 255 0 0
-0.526823461056 -0.0403949134052 0.8848285079 255 0 0
-0.174493193626 -0.0414280928671 1.00010454655 255 0 0
0.0544238463044 -0.0424671731889 -0.410524517298 255 0 0
0.2956353724 -0.0244032144547 0.219687178731 255 0 0
0.00491246161982 -0.0263209268451 0.592807590961 255 0 0
0.382003217936 -0.0254056882113 0.0741785168648 255 0 0
-0.00821476057172 -0.0267961937934 0.77201884985 255 0 0
0.254863530397 -0.0815443694592 1.03212034702 255 0 0
0.280451804399 -0.0478357262909 -0.542882680893 255 0 0
-0.143623009324 -0.0305633600801 -0.165070086718 255 0 0
0.304220795631 -0.0310442782938 -0.482584476471 255 0 0
0.232389375567 -0.0607701800764 -0.517979085445 255 0 0
-0.0740683823824 -0.0255298260599 0.573828041553 255 0 0
0.116009436548 -0.0584043897688 -0.487296581268 255 0 0
-0.14381672442 -0.0340037941933 -0.429098963737 255 0 0
-0.296228647232 -0.0748667642474 -0.817722201347 255 0 0
-0.0517397746444 -0.022921923548 0.602539479733 255 0 0
-0.0956994518638 -0.0269793514162 0.773921012878 255 0 0
0.306134045124 -0.0423381216824 -0.745859026909 255 0 0
-0.137385979295 -0.0577177740633 1.01500093937 255 0 0
0.232082128525 -0.0505965575576 1.03884482384 255 0 0
-0.113942578435 -0.0310776922852 0.862175703049 255 0 0
0.247324690223 -0.0577051192522 -0.330098211765 255 0 0
0.378463894129 -0.0257049202919 -0.00404780171812 255 0 0
-0.0358565226197 -0.0377245396376 -0.93836826086 255 0 0
-0.213086605072 -0.0449112690985 1.07456815243 255 0 0
0.0489080660045 -0.0369187965989 -0.276862204075 255 0 0
-0.377222210169 -0.038730468601 0.85233604908 255 0 0
-0.100126668811 -0.0235823150724 0.615689814091 255 0 0
-0.202647000551 -0.0458050519228 1.00953674316 255 0 0
0.0415098704398 -0.0274353716522 0.194695085287 255 0 0
-0.110855273902 -0.0396293476224 -1.06815302372 255 0 0
0.268582761288 -0.065106227994 -0.677152276039 255 0 0
-0.316923886538 -0.035871963948 0.876519203186 255 0 0
0.487649142742 -0.035132586956 1.04871165752 255 0 0
-0.268556654453 -0.0664217174053 -0.407487213612 255 0 0
-0.383978396654 -0.0551338419318 1.03789520264 255 0 0
-0.540591537952 -0.0554765984416 0.533913910389 255 0 0
-0.19733184576 -0.0451707951725 0.995937168598 255 0 0
0.307077556849 -0.0431936532259 -0.727323830128 255 0 0
-0.539703965187 -0.0520623140037 0.629288911819 255 0 0
0.247157350183 -0.0604427047074 -0.440099358559 255 0 0
-0.4741320014 -0.0360157676041 0.791309058666 255 0 0
0.491567015648 -0.0322494283319 0.0556162446737 255 0 0
-0.142240464687 -0.0379483290017 1.09480154514 255 0 0
0.485948622227 -0.0326873399317 0.995758593082 255 0 0
-0.53374671936 -0.049470692873 0.827203035355 255 0 0
-0.546177506447 -0.0641611889005 0.890945374966 255 0 0
-0.415795534849 -0.0628147497773 0.949499368668 255 0 0
-0.353721052408 -0.053270611912 0.9982894063 255 0 0
-0.292982637882 -0.0388100966811 -0.83631759882 255 0 0
0.399912983179 -0.0277491081506 0.12531003356 255 0 0
-0.534727990627 -0.0481008514762 0.628301620483 255 0 0
0.488736599684 -0.0312242768705 0.117984227836 255 0 0
0.402080953121 -0.0213603451848 -0.182122215629 255 0 0
0.0179334972054 -0.0444402545691 -1.13025105 255 0 0
-0.158369511366 -0.0460255369544 1.01535105705 255 0 0
0.288689434528 -0.0451747141778 -0.684888601303 255 0 0
0.165425673127 -0.0628635585308 -0.728112101555 255 0 0
0.115907914937 -0.0589572638273 -0.644571363926 255 0 0
0.243598386645 -0.0857164189219 1.03751635551 255 0 0
0.495550841093 -0.0345896184444 -0.232122570276 255 0 0
-0.541839718819 -0.0573710128665 0.828732192516 255 0 0
-0.26858022809 -0.0687993466854 -0.525274097919 255 0 0
-0.241272896528 -0.0712465047836 0.966830849648 255 0 0
0.0143633000553 -0.0441944859922 -1.13565337658 255 0 0
0.235128358006 -0.0689971446991 -0.678362607956 255 0 0
-0.140224158764 -0.0402907133102 0.891681969166 255 0 0
0.422072172165 -0.0246412176639 -0.19527412951 255 0 0
0.170273274183 -0.0583775863051 -0.571216166019 255 0 0
0.0431589595973 -0.030731767416 -0.241643384099 255 0 0
0.45194208622 -0.0322172828019 -0.0306310243905 255 0 0
0.440295010805 -0.0331782959402 -0.0101099777967 255 0 0
0.0446618460119 -0.0436449274421 -0.723741173744 255 0 0
-0.226345390081 -0.0481361374259 1.05942106247 255 0 0
-0.425329685211 -0.0486701242626 1.06628799438 255 0 0
-0.101387992501 -0.0399616286159 0.885475873947 255 0 0
0.0421683527529 -0.0257414858788 0.158056423068 255 0 0
-0.484093844891 -0.0315223522484 0.186132416129 255 0 0
-0.43476292491 -0.0586972348392 0.944571256638 255 0 0
-0.124074548483 -0.0665214434266 0.95196390152 255 0 0
-0.0762141346931 -0.0268663167953 0.602698028088 255 0 0
0.0589702017605 -0.038800213486 0.271795451641 255 0 0
-0.455159783363 -0.0376511663198 0.827144682407 255 0 0
0.1791536659 -0.0317174606025 0.967543184757 255 0 0
-0.00927629973739 -0.0364713668823 -0.964859545231 255 0 0
0.177289664745 -0.0268216207623 0.861557602882 255 0 0
0.15787230432 -0.063482105732 0.0466574206948 255 0 0
0.198290809989 -0.0523096881807 0.144320696592 255 0 0
0.427789956331 -0.0310260411352 -0.226213604212 255 0 0
0.46368598938 -0.0302268080413 0.0958096832037 255 0 0
0.0586068443954 -0.0433147065341 0.115622363985 255 0 0
-0.484310030937 -0.0359018445015 0.87322217226 255 0 0
-0.0323946066201 -0.0278839264065 0.625750541687 255 0 0
-0.500891327858 -0.0380266830325 1.00342917442 255 0 0
0.416036427021 -0.0652556046844 -0.924300134182 255 0 0
-0.0157865658402 -0.0267174132168 0.516281485558 255 0 0
0.428323417902 -0.0311553720385 0.0304518043995 255 0 0
0.248605400324 -0.0732225701213 -0.755846619606 255 0 0
-0.0848173201084 -0.0363550856709 0.892441928387 255 0 0
-0.555319011211 -0.0865467488766 0.0212445575744 255 0 0
-0.273091137409 -0.035215139389 0.863338768482 255 0 0
-0.157676443458 -0.0373634472489 -0.525961697102 255 0 0
0.445069164038 -0.0293121486902 0.0755786523223 255 0 0
0.247932955623 -0.0622026212513 -0.486616104841 255 0 0
-0.349341928959 -0.0404027104378 0.889178752899 255 0 0
0.00887869484723 -0.0229490231723 0.858408272266 255 0 0
-0.267944812775 -0.0614139549434 -0.177364036441 255 0 0
-0.566170573235 -0.116341941059 -0.349686264992 255 0 0
0.484019249678 -0.0329346470535 0.916446626186 255 0 0
-0.488367587328 -0.0328571386635 0.553387582302 255 0 0
-0.178605571389 -0.0332187898457 -0.446905404329 255 0 0
-0.0657208263874 -0.0447798222303 0.905959606171 255 0 0
0.437518566847 -0.0323218144476 -0.0287088379264 255 0 0
-0.361862838268 -0.066749162972 0.95128929615 255 0 0
-0.477783709764 -0.03855817765 0.930856645107 255 0 0
-0.508174777031 -0.0369097515941 0.809852063656 255 0 0
0.293675392866 -0.0268375836313 0.103082485497 255 0 0
0.403730541468 -0.0295941978693 -0.00391007494181 255 0 0
0.149182111025 -0.0444103069603 -0.281626224518 255 0 0
0.170213326812 -0.0390146672726 0.956001460552 255 0 0
0.251348733902 -0.07065384835 -0.642130851746 255 0 0
-0.166119411588 -0.030377779156 0.67656481266 255 0 0
-0.478009104729 -0.0369522422552 0.811482191086 255 0 0
-0.0742040351033 -0.0258887410164 0.581591486931 255 0 0
-0.132459193468 -0.035689689219 0.876920938492 255 0 0
-0.294064193964 -0.0414523147047 1.08242964745 255 0 0
0.203678026795 -0.0317217670381 0.968214154243 255 0 0
0.541204273701 -0.0448284633458 -0.00948739796877 255 0 0
-0.0818090736866 -0.0387906730175 -1.08561682701 255 0 0
0.268334358931 -0.0540572851896 0.0991692319512 255 0 0
0.236719146371 -0.0580214709044 -0.238884419203 255 0 0
