ply
format ascii 1.0
comment https://github.com/EricCJoyce
element vertex 370
property float x
property float y
property float z
property uchar red
property uchar green
property uchar blue
end_header
0.117220781744 0.108144834638 0.223761349916 255 255 0
0.124202020466 0.107754833996 0.235036939383 255 255 0
0.0721032768488 0.10812637955 0.21474301815 255 255 0
-0.00537360226735 0.1092479527 0.219413146377 255 255 0
-0.0984471589327 0.110205307603 0.22493545711 255 255 0
0.0697895437479 0.105998106301 -0.174663111567 255 255 0
0.111186251044 0.106268711388 -0.17276827991 255 255 0
0.0866758525372 0.107932820916 0.222673624754 255 255 0
-0.0451326817274 0.108940042555 -0.125323042274 255 255 0
0.0399854816496 0.106479689479 -0.1438780725 255 255 0
-0.0335974022746 0.109807580709 -0.144716620445 255 255 0
-0.0300502702594 0.109826289117 -0.144441738725 255 255 0
0.0367992632091 0.106423154473 -0.143125966191 255 255 0
-0.061135660857 0.109074555337 0.212054520845 255 255 0
-0.0612000524998 0.108950413764 0.215163081884 255 255 0
0.0897712558508 0.113178066909 -0.203553959727 255 255 0
-0.0400002710521 0.109092570841 0.216043442488 255 255 0
0.051398139447 0.105950020254 -0.128158554435 255 255 0
-0.0368521548808 0.109285742044 -0.132276877761 255 255 0
0.0684752985835 0.107822559774 0.221621409059 255 255 0
0.0872534960508 0.107483170927 0.234103441238 255 255 0
0.00195714016445 0.108297780156 -0.148434087634 255 255 0
-0.0141581119969 0.10924179852 0.217721685767 255 255 0
-0.0437155850232 0.108489260077 -0.16284866631 255 255 0
-0.0408874191344 0.108234807849 0.237429246306 255 255 0
-0.0422665886581 0.108411043882 -0.1605771631 255 255 0
-0.0491003394127 0.108365193009 0.232424005866 255 255 0
-0.214036494493 0.153473034501 -0.0517884604633 255 255 0
0.0762590169907 0.107565909624 0.229712054133 255 255 0
-0.210433349013 0.15160779655 -0.0532820671797 255 255 0
-0.212773784995 0.153543427587 -0.0532933473587 255 255 0
0.0321933627129 0.109041407704 0.232503160834 255 255 0
0.0957532078028 0.106526978314 0.210777148604 255 255 0
-0.0636656284332 0.108268558979 0.231793150306 255 255 0
-0.173606067896 0.103170320392 0.0419413000345 255 255 0
-0.0623025149107 0.10825560987 0.232405200601 255 255 0
0.15857103467 0.106310240924 0.180269896984 255 255 0
-0.0275867022574 0.108522772789 0.232982516289 255 255 0
-0.0775437355042 0.108933545649 -0.131971463561 255 255 0
0.0878160819411 0.108418084681 0.210709154606 255 255 0
-0.0302953906357 0.108523398638 0.232397481799 255 255 0
0.0411165729165 0.107800856233 0.216417267919 255 255 0
0.0463058464229 0.108943462372 0.237932428718 255 255 0
-0.057448297739 0.108724325895 0.221637502313 255 255 0
0.00319077936001 0.107470273972 0.21676030755 255 255 0
0.0817928686738 0.106631457806 0.2052154392 255 255 0
-0.170506447554 0.105851009488 -0.123146116734 255 255 0
-0.15334738791 0.107457719743 0.18417622149 255 255 0
0.0967592298985 0.106041833758 -0.170094534755 255 255 0
-0.027385333553 0.109191797674 0.216199204326 255 255 0
0.0172540657222 0.107558600605 0.217494562268 255 255 0
-0.210287556052 0.149074673653 -0.0387051515281 255 255 0
0.177453950047 0.102533116937 -0.114053040743 255 255 0
-0.0163841955364 0.108588308096 0.233688741922 255 255 0
-0.0185296759009 0.107582129538 0.209382161498 255 255 0
-0.01976791583 0.107516303658 0.210777416825 255 255 0
-0.0921121537685 0.117517195642 -0.203425705433 255 255 0
0.0973165929317 0.108235500753 0.217297762632 255 255 0
-0.0760807991028 0.108415804803 -0.167803585529 255 255 0
-0.0795466080308 0.109942369163 0.235520422459 255 255 0
0.0454694665968 0.109083123505 0.234244376421 255 255 0
0.0645158216357 0.107375189662 0.232040420175 255 255 0
0.0627687424421 0.107943698764 0.217375576496 255 255 0
-0.0340154320002 0.108513250947 0.231870859861 255 255 0
-0.17290982604 0.100598849356 0.106758706272 255 255 0
0.102938942611 0.106216169894 -0.17318020761 255 255 0
-0.175442948937 0.105256490409 0.038249772042 255 255 0
-0.182843819261 0.108623996377 0.0503246188164 255 255 0
-0.0407430380583 0.108644984663 0.227143898606 255 255 0
0.103027097881 0.106822222471 0.20488062501 255 255 0
-0.124402239919 0.104106359184 -0.118739835918 255 255 0
0.246055617929 0.103043809533 0.280805706978 255 255 0
-0.182609781623 0.106670238078 0.0503490678966 255 255 0
-0.0245823003352 0.10921690613 -0.127966761589 255 255 0
0.0143430875614 0.107033737004 0.279243320227 255 255 0
-0.0268950201571 0.109147891402 -0.126717224717 255 255 0
0.0144315864891 0.107094764709 -0.164717674255 255 255 0
0.115319557488 0.103878952563 0.281485766172 255 255 0
-0.0895853638649 0.117244899273 -0.196046575904 255 255 0
-0.00627466570586 0.108907327056 -0.165493786335 255 255 0
-0.033793322742 0.107447147369 0.209568932652 255 255 0
0.176629245281 0.100355230272 -0.0594537481666 255 255 0
-0.120771355927 0.106134809554 -0.119830548763 255 255 0
0.121559083462 0.106925562024 0.206176608801 255 255 0
-0.173172369599 0.10249876976 0.108082212508 255 255 0
-0.235495463014 0.109664797783 -0.0852379202843 255 255 0
0.0917690470815 0.108418278396 0.211535096169 255 255 0
0.0846617296338 0.106534205377 -0.135859549046 255 255 0
0.112077124417 0.107269637287 0.244691103697 255 255 0
-0.0746844112873 0.108927682042 0.212900683284 255 255 0
0.229406356812 0.102889500558 0.281187206507 255 255 0
0.0280450712889 0.107878193259 0.211724966764 255 255 0
0.0375192277133 0.107454702258 -0.119756937027 255 255 0
-0.206102058291 0.105174869299 0.279661506414 255 255 0
0.0178274940699 0.10791348666 0.208689942956 255 255 0
-0.0791906490922 0.108836434782 0.214248478413 255 255 0
-0.042816054076 0.10972956568 -0.144692108035 255 255 0
0.0455169267952 0.1074347049 0.226550579071 255 255 0
-0.0689999982715 0.108791485429 -0.126603066921 255 255 0
0.108503587544 0.10718023777 0.246188297868 255 255 0
-0.200746446848 0.109428428113 0.0754914432764 255 255 0
0.0177241563797 0.107867628336 0.209821581841 255 255 0
0.097844094038 0.108058206737 0.221867606044 255 255 0
-0.21273380518 0.15053935349 -0.0760552734137 255 255 0
-0.174470335245 0.102205358446 0.0660279393196 255 255 0
-0.0676224753261 0.10884091258 -0.127556607127 255 255 0
-0.0945312827826 0.109067164361 0.205221548676 255 255 0
0.232977077365 0.102908171713 0.281468212605 255 255 0
-0.0327314324677 0.106453299522 0.185626238585 255 255 0
0.132443964481 0.106203980744 0.226611733437 255 255 0
-0.109972849488 0.110320299864 -0.173663273454 255 255 0
-0.0345323868096 0.107772216201 0.201238259673 255 255 0
-0.108652673662 0.110226079822 -0.171016186476 255 255 0
-0.206822618842 0.109337411821 0.0765034928918 255 255 0
-0.172392189503 0.106011264026 0.16739051044 255 255 0
-0.0211028177291 0.108355388045 0.238554865122 255 255 0
-0.214934125543 0.151820033789 -0.059565551579 255 255 0
0.0308078937232 0.107555538416 -0.123703435063 255 255 0
0.0209672115743 0.109161198139 0.227131158113 255 255 0
0.0870464742184 0.105917863548 -0.119857549667 255 255 0
0.022849066183 0.109237000346 0.225620210171 255 255 0
-0.214836746454 0.148772791028 -0.0812297686934 255 255 0
0.133696839213 0.106199510396 0.22698751092 255 255 0
-0.25758382678 0.107832200825 -0.191273137927 255 255 0
-0.175463587046 0.102675162256 0.103164434433 255 255 0
-0.214004844427 0.109946079552 -0.0877952948213 255 255 0
-0.213357567787 0.111648321152 -0.0321487262845 255 255 0
-0.0730706080794 0.108551427722 -0.170581772923 255 255 0
-0.199220716953 0.109896689653 -0.0834460407495 255 255 0
0.0961555019021 0.107527025044 0.234871551394 255 255 0
0.0772671923041 0.106036633253 -0.174060434103 255 255 0
-0.245195031166 0.111764349043 -0.336721122265 255 255 0
0.0248438138515 0.107967801392 0.208798602223 255 255 0
0.000262309156824 0.106930531561 0.278879582882 255 255 0
-0.0773217603564 0.108536839485 -0.17110837996 255 255 0
-0.0328445360065 0.108991071582 -0.124023742974 255 255 0
-0.162926495075 0.104138880968 0.167308658361 255 255 0
-0.10134549439 0.108766846359 0.211342126131 255 255 0
0.0504560805857 0.108122766018 0.210284352303 255 255 0
0.0788471475244 0.105988644063 -0.123360961676 255 255 0
0.0273954458535 0.107255205512 -0.166027992964 255 255 0
0.180201500654 0.105196721852 0.163659989834 255 255 0
-0.0196818020195 0.108679160476 -0.162573486567 255 255 0
-0.074125982821 0.107804171741 0.241273671389 255 255 0
0.114018879831 0.108317650855 0.218742087483 255 255 0
-0.25796610117 0.107099875808 0.269508808851 255 255 0
-0.216339305043 0.152323171496 -0.072514615953 255 255 0
0.00390900904313 0.108839392662 -0.161644950509 255 255 0
0.000367614207789 0.108943089843 0.228286921978 255 255 0
0.036249794066 0.109431736171 0.223539203405 255 255 0
0.0690510943532 0.106478191912 0.206392064691 255 255 0
0.07149451226 0.105805419385 -0.120298348367 255 255 0
-0.0959452390671 0.110486343503 -0.174890980124 255 255 0
-0.0218254774809 0.108663417399 -0.162628099322 255 255 0
0.00598884979263 0.109166294336 0.223854914308 255 255 0
-0.112853303552 0.108922019601 0.205021053553 255 255 0
0.0685334205627 0.109015971422 0.24078053236 255 255 0
-0.0927672460675 0.110162638128 -0.166081979871 255 255 0
0.0890551656485 0.107811585069 0.226222679019 255 255 0
0.0519732348621 0.10822545737 0.208020463586 255 255 0
0.0227645635605 0.106983266771 -0.160162165761 255 255 0
-0.173087075353 0.102231256664 0.0656672939658 255 255 0
0.0222941972315 0.107919543982 0.209476411343 255 255 0
-0.18162471056 0.108010061085 0.016860364005 255 255 0
-0.139186382294 0.10612193495 -0.12337705493 255 255 0
-0.0974692627788 0.110055848956 -0.164384573698 255 255 0
-0.172818988562 0.100828975439 0.100990243256 255 255 0
-0.210672408342 0.109351255 0.0753461942077 255 255 0
-0.0581475347281 0.107446298003 0.253632247448 255 255 0
-0.191759869456 0.108956739306 0.089242823422 255 255 0
-0.100711554289 0.110305577517 -0.171346530318 255 255 0
-0.0307239703834 0.109011240304 -0.173245713115 255 255 0
-0.209000512958 0.150452971458 -0.0730982348323 255 255 0
-0.183160483837 0.108197502792 0.0118235014379 255 255 0
0.0195652917027 0.108846850693 0.234742060304 255 255 0
0.053138140589 0.106700137258 -0.146657928824 255 255 0
0.0195520669222 0.108779847622 0.236424446106 255 255 0
0.0712499171495 0.105260774493 -0.155812680721 255 255 0
0.00482060620561 0.107818871737 0.208335742354 255 255 0
0.0449160039425 0.107153020799 -0.159775748849 255 255 0
-0.0522000156343 0.10810109973 0.238414347172 255 255 0
-0.0169127564877 0.10827358067 0.241492927074 255 255 0
-0.0741372928023 0.109863236547 0.238647535443 255 255 0
-0.0319097451866 0.108903281391 0.222504407167 255 255 0
-0.0984477773309 0.107382133603 0.246775999665 255 255 0
0.108313508332 0.10410990566 -0.119079343975 255 255 0
-0.19018663466 0.10849570483 0.0520076788962 255 255 0
0.0218267552555 0.105122774839 0.279715418816 255 255 0
-0.178122773767 0.105757400393 0.025088917464 255 255 0
-0.0331083983183 0.108766272664 -0.118425577879 255 255 0
-0.182115480304 0.108259402215 0.108807556331 255 255 0
-0.0959355309606 0.11022362113 -0.168281495571 255 255 0
-0.158826306462 0.110376238823 -0.136177212 255 255 0
0.0987422391772 0.107566200197 0.234430029988 255 255 0
-0.0617650561035 0.10774307698 0.245408192277 255 255 0
0.0641025677323 0.106473073363 0.254641294479 255 255 0
0.0416550524533 0.108125209808 0.208373203874 255 255 0
-0.173970684409 0.104078628123 0.0190213918686 255 255 0
-0.189985051751 0.108711913228 -0.00254793115892 255 255 0
0.00415755016729 0.108770161867 -0.159851670265 255 255 0
0.0977112278342 0.107559293509 0.234386965632 255 255 0
-0.173657059669 0.102558247745 0.0573238953948 255 255 0
0.0339033678174 0.106305204332 0.20335547626 255 255 0
0.118086002767 0.108036458492 0.226668700576 255 255 0
0.0743641778827 0.106891348958 0.246278658509 255 255 0
-0.238575965166 0.111466303468 -0.327834367752 255 255 0
-0.0598982647061 0.108718492091 -0.122854396701 255 255 0
0.0597678087652 0.10624525696 0.259459644556 255 255 0
0.0600852109492 0.108926251531 0.241261467338 255 255 0
0.0794755220413 0.105219721794 -0.153051421046 255 255 0
0.17428304255 0.100317202508 -0.00982992444187 255 255 0
0.136074662209 0.106265291572 0.225832745433 255 255 0
-0.114530026913 0.109235592186 0.245943024755 255 255 0
-0.0845378264785 0.1106024459 -0.175413295627 255 255 0
-0.0894653499126 0.110400885344 -0.171379908919 255 255 0
-0.219587877393 0.151995539665 -0.064957678318 255 255 0
-0.182066857815 0.108203098178 0.110233731568 255 255 0
0.1972245574 0.0998451858759 -0.337261110544 255 255 0
0.0677560418844 0.107060648501 -0.152652233839 255 255 0
0.0054980115965 0.106222234666 0.199472233653 255 255 0
0.0571848042309 0.106471993029 0.204054057598 255 255 0
0.0502200648189 0.107390113175 -0.164623811841 255 255 0
0.100199379027 0.112760812044 -0.190868601203 255 255 0
0.0545937381685 0.106758035719 0.245476052165 255 255 0
-0.0824565961957 0.107522577047 0.246604710817 255 255 0
0.0100019890815 0.108342990279 0.245403975248 255 255 0
0.204088583589 0.102660059929 0.281636506319 255 255 0
0.179656386375 0.105101689696 0.165935337543 255 255 0
0.0645193830132 0.105260506272 -0.157220557332 255 255 0
-0.232399448752 0.110512465239 -0.0567450858653 255 255 0
0.090314604342 0.107048608363 0.24567592144 255 255 0
0.0424500182271 0.106558680534 0.198776930571 255 255 0
-0.027403915301 0.10856346786 -0.161286696792 255 255 0
-0.173225492239 0.101239465177 0.139741793275 255 255 0
0.0182844121009 0.107452295721 -0.172899618745 255 255 0
0.0406044386327 0.108112201095 0.208479464054 255 255 0
-0.126871466637 0.104465670884 0.166667893529 255 255 0
0.0883263647556 0.108135767281 0.217916622758 255 255 0
0.032893396914 0.105181418359 0.280566394329 255 255 0
-0.0678235217929 0.108670085669 0.220821097493 255 255 0
-0.0994807109237 0.107338152826 0.247664883733 255 255 0
-0.0331437923014 0.106762059033 -0.117188625038 255 255 0
-0.138987839222 0.105713367462 0.280224055052 255 255 0
0.0569601841271 0.106517761946 0.202855706215 255 255 0
-0.0440509952605 0.107070073485 0.266056805849 255 255 0
0.0026102012489 0.108429946005 0.241663500667 255 255 0
0.0252815019339 0.10764811188 -0.127193048596 255 255 0
-0.232875347137 0.111150145531 -0.318685054779 255 255 0
0.00918717123568 0.107707120478 0.21206407249 255 255 0
0.0834469944239 0.108184613287 -0.177621677518 255 255 0
-0.127458497882 0.109825544059 0.228388786316 255 255 0
-0.221806615591 0.151749953628 -0.0592475943267 255 255 0
0.050752799958 0.109304197133 0.229794815183 255 255 0
-0.0209623984993 0.107500068843 0.260095208883 255 255 0
0.0189939979464 0.107473887503 -0.124132931232 255 255 0
-0.0160259548575 0.104799956083 0.279878497124 255 255 0
-0.175579562783 0.104531489313 0.0564544461668 255 255 0
0.0947867110372 0.107098117471 0.245370641351 255 255 0
-0.0913465023041 0.109635166824 0.240766391158 255 255 0
-0.173592865467 0.101579859853 0.081943333149 255 255 0
-0.0213113538921 0.108825996518 0.226675495505 255 255 0
-0.0701986327767 0.108394011855 0.227265000343 255 255 0
-0.173673570156 0.104266263545 -0.0839562937617 255 255 0
-0.105524808168 0.104629054666 0.167045339942 255 255 0
-0.10442520678 0.11009413749 -0.16680945456 255 255 0
0.177372142673 0.103180550039 0.115449696779 255 255 0
-0.00532611925155 0.106980487704 -0.116835594177 255 255 0
0.0583667382598 0.107079185545 -0.155091792345 255 255 0
-0.182271018624 0.107979848981 0.115805372596 255 255 0
-0.027021676302 0.107755169272 0.203245460987 255 255 0
-0.182373538613 0.107829488814 0.119565293193 255 255 0
0.0504550300539 0.106380969286 -0.139194890857 255 255 0
0.102791011333 0.10751824826 0.236486986279 255 255 0
-0.0213973782957 0.106887646019 -0.117878481746 255 255 0
0.0515989586711 0.106103986502 -0.181149080396 255 255 0
-0.195038631558 0.108885578811 0.0903433486819 255 255 0
-0.105032242835 0.104582317173 0.168324261904 255 255 0
-0.16300649941 0.103545561433 0.280534684658 255 255 0
-0.0442574955523 0.107856437564 0.246236816049 255 255 0
-0.258075594902 0.106488980353 0.0882074832916 255 255 0
-0.203191384673 0.114704169333 -0.0577044077218 255 255 0
-0.213261082768 0.15205848217 -0.0652108937502 255 255 0
-0.217589393258 0.153944328427 -0.0643878430128 255 255 0
0.102958023548 0.107476375997 0.237575039268 255 255 0
-0.00942754652351 0.107856221497 0.20440196991 255 255 0
-0.0124248052016 0.107152581215 -0.171816125512 255 255 0
0.118311397731 0.108341671526 0.219040244818 255 255 0
0.173788681626 0.0992709621787 0.016378460452 255 255 0
-0.0571021921933 0.107925780118 0.241793200374 255 255 0
-0.0440202951431 0.107904076576 0.245088517666 255 255 0
-0.0823347941041 0.107235297561 0.204694807529 255 255 0
-0.128018960357 0.103836685419 0.280566513538 255 255 0
0.253458857536 0.102094657719 -0.33285471797 255 255 0
-0.259532213211 0.10431407392 0.191759571433 255 255 0
-0.00246404763311 0.109244324267 -0.124007791281 255 255 0
0.197200849652 0.101760029793 -0.336262881756 255 255 0
0.175313219428 0.105020150542 0.167073115706 255 255 0
0.01531457901 0.108639135957 0.23907263577 255 255 0
-0.12054168433 0.110078409314 0.22348305583 255 255 0
0.0119518060237 0.106155365705 0.202510252595 255 255 0
-0.0551839247346 0.108027935028 0.239627286792 255 255 0
-0.0653606802225 0.10739351809 0.204283088446 255 255 0
-0.15654706955 0.110289625823 -0.133519858122 255 255 0
-0.0223568063229 0.108839660883 -0.118011586368 255 255 0
-0.0898498222232 0.108899541199 0.210421025753 255 255 0
-0.0464880764484 0.10925424099 0.210614010692 255 255 0
0.0905751138926 0.106132768095 -0.173681169748 255 255 0
-0.0890449881554 0.108942709863 0.209504619241 255 255 0
0.0122952051461 0.108273394406 0.247636303306 255 255 0
-0.0541733056307 0.107497364283 0.204022750258 255 255 0
-0.00591033650562 0.108183071017 0.246081531048 255 255 0
0.254346162081 0.103998050094 0.160228446126 255 255 0
-0.117099300027 0.108097560704 0.175702825189 255 255 0
0.0343530364335 0.105216853321 0.279982030392 255 255 0
0.0735463052988 0.106824792922 0.247780576348 255 255 0
-0.17980247736 0.105936340988 0.0693962350488 255 255 0
-0.0069352532737 0.108106382191 0.247794866562 255 255 0
-0.0445578508079 0.106618270278 -0.115971408784 255 255 0
-0.259305804968 0.106512472034 0.234839588404 255 255 0
0.057924054563 0.106441088021 -0.139137089252 255 255 0
-0.206445276737 0.115164741874 -0.0699714571238 255 255 0
-0.0132217844948 0.108604088426 -0.159327685833 255 255 0
-0.112197294831 0.108628153801 0.212549552321 255 255 0
-0.031589820981 0.108215123415 0.239878326654 255 255 0
-0.128791719675 0.109790869057 0.228980734944 255 255 0
0.0536874048412 0.106657862663 0.247804895043 255 255 0
-0.174045935273 0.104019649327 -0.0778323560953 255 255 0
-0.154399871826 0.104226209223 0.166904568672 255 255 0
0.0338872149587 0.108542777598 0.245399445295 255 255 0
0.00159605836961 0.108521446586 0.239149302244 255 255 0
0.180734246969 0.105041749775 0.167669400573 255 255 0
-0.175296083093 0.105025731027 -0.0050763473846 255 255 0
-0.173610106111 0.103037267923 -0.00387385161594 255 255 0
-0.174030929804 0.1031267941 0.0921072810888 255 255 0
-0.258431434631 0.106797039509 0.178706258535 255 255 0
-0.217292621732 0.110579840839 -0.104425095022 255 255 0
-0.173483535647 0.104079127312 -0.0792099237442 255 255 0
0.0906957909465 0.106655701995 0.206476897001 255 255 0
-0.00270259869285 0.1085203439 0.238273516297 255 255 0
0.255968779325 0.10175909102 0.167717471719 255 255 0
-0.0627060234547 0.108549430966 -0.168353185058 255 255 0
-0.00660682842135 0.107971251011 0.20210185647 255 255 0
-0.0702744349837 0.10729008913 0.205851525068 255 255 0
-0.118741162121 0.110033191741 0.224998697639 255 255 0
-0.059309668839 0.108039602637 0.238466724753 255 255 0
-0.0681359097362 0.108619831502 -0.171264976263 255 255 0
-0.148536086082 0.108188442886 -0.128153070807 255 255 0
0.108232237399 0.106907181442 0.20383797586 255 255 0
-0.0509102866054 0.104456759989 0.281177908182 255 255 0
-0.174507677555 0.103069543839 -0.00487420801073 255 255 0
0.00565185165033 0.108480148017 0.241040214896 255 255 0
-0.182804644108 0.105366170406 0.27974691987 255 255 0
-0.154236614704 0.104268699884 0.165870204568 255 255 0
0.2162835747 0.0999672561884 -0.336325496435 255 255 0
-0.174569621682 0.10198699683 0.120659351349 255 255 0
-0.0274024773389 0.106764033437 -0.116031676531 255 255 0
-0.217183217406 0.110621057451 -0.105438642204 255 255 0
-0.156417325139 0.103601306677 0.280517458916 255 255 0
0.0185913182795 0.107542604208 -0.175106272101 255 255 0
-0.175307899714 0.103513419628 0.0821154713631 255 255 0
-0.0832189768553 0.104757733643 0.168497249484 255 255 0
-0.00777939846739 0.107060998678 -0.119375914335 255 255 0
-0.0631575062871 0.108706615865 -0.172401249409 255 255 0
0.0088921347633 0.107296846807 -0.170964062214 255 255 0
0.0147181404755 0.106211654842 0.250836580992 255 255 0
0.230590075254 0.100055456161 -0.335536688566 255 255 0
-0.0122285345569 0.106877505779 0.179266914725 255 255 0
-0.243045270443 0.110362589359 -0.104373767972 255 255 0
-0.221176937222 0.111943185329 -0.336171001196 255 255 0
-0.202527597547 0.111879132688 -0.0356771983206 255 255 0
