ply
format ascii 1.0
comment https://github.com/EricCJoyce
element vertex 369
property float x
property float y
property float z
property uchar red
property uchar green
property uchar blue
end_header
0.102300919592 0.0675620362163 0.225254297256 255 255 0
0.100715652108 0.0680033564568 0.218074426055 255 255 0
0.151114791632 0.068644605577 0.2178055197 255 255 0
-0.0218619219959 0.170609116554 0.135863229632 255 255 0
0.0625305473804 0.0675190389156 0.221721425653 255 255 0
0.100899450481 0.0679222196341 0.219344526529 255 255 0
0.0910850539804 0.0676050409675 0.219420105219 255 255 0
0.0446951277554 0.174090653658 0.130221679807 255 255 0
0.0325348563492 0.174027428031 0.125500231981 255 255 0
0.106601752341 0.0679344162345 0.236113458872 255 255 0
0.0346476174891 0.174163579941 0.124492913485 255 255 0
0.0164931379259 0.174523696303 0.0965074598789 255 255 0
0.044239461422 0.17505903542 0.130170240998 255 255 0
0.120605975389 0.0683777406812 0.221840575337 255 255 0
-0.0253656618297 0.172007188201 0.128122761846 255 255 0
-0.0143675301224 0.17410261929 0.116930961609 255 255 0
-0.0129793528467 0.174173370004 0.116542249918 255 255 0
0.137801840901 0.0687647163868 0.224172115326 255 255 0
-0.0287497788668 0.173744171858 0.101188771427 255 255 0
0.0464639700949 0.174609720707 0.123463444412 255 255 0
0.10035957396 0.0681510567665 0.230052620173 255 255 0
-0.0147310094908 0.200034156442 0.0527188330889 255 255 0
-0.00172496866435 0.182493895292 0.0860728994012 255 255 0
0.0668569803238 0.0670567974448 0.216179206967 255 255 0
-0.0116567052901 0.174303978682 0.158149510622 255 255 0
0.0289783552289 0.172817572951 0.12721516192 255 255 0
-0.0115773566067 0.17346803844 0.156092405319 255 255 0
0.0773423910141 0.0670769736171 0.220751747489 255 255 0
0.0226194001734 0.171327993274 0.131713792682 255 255 0
-0.0150423310697 0.174275100231 0.15699967742 255 255 0
0.0570266656578 0.0669705867767 0.227174982429 255 255 0
-0.00824644416571 0.174769490957 0.0957347378135 255 255 0
0.0124973608181 0.171077817678 0.130668446422 255 255 0
-0.0404727160931 0.174186185002 0.103593245149 255 255 0
-0.00797752663493 0.174327775836 0.116609402001 255 255 0
0.108007192612 0.0674375295639 0.215421020985 255 255 0
0.111948102713 0.0683880075812 0.217671751976 255 255 0
0.0345896705985 0.173742592335 0.144913226366 255 255 0
0.013829969801 0.200241148472 0.0629539787769 255 255 0
0.0252515282482 0.174715593457 0.0977709665895 255 255 0
0.0325452163815 0.172820270061 0.143131688237 255 255 0
0.0147970914841 0.173325672746 0.156113773584 255 255 0
0.0224891994148 0.174571037292 0.0985995158553 255 255 0
0.0183246750385 0.174284905195 0.15804477036 255 255 0
0.129101589322 0.0681755170226 0.228736951947 255 255 0
0.00859246402979 0.170956388116 0.130628794432 255 255 0
0.0247673522681 0.200389355421 0.0658668279648 255 255 0
0.0298135858029 0.171818852425 0.142185896635 255 255 0
0.0400803498924 0.175682261586 0.090539239347 255 255 0
0.0193477533758 0.174336373806 0.157768145204 255 255 0
0.0572096928954 0.188459202647 0.097826115787 255 255 0
-0.019136974588 0.186971947551 0.0841036736965 255 255 0
0.044181317091 0.174664691091 0.121601268649 255 255 0
0.0590948015451 0.190453439951 0.0981820076704 255 255 0
0.0342291966081 0.194623962045 0.0686431974173 255 255 0
-0.0383541733027 0.17346277833 0.158039882779 255 255 0
0.0226346626878 0.198843508959 0.0731488093734 255 255 0
-0.0578920133412 0.17723838985 0.122440502048 255 255 0
-0.0142004732043 0.200091645122 0.0664257854223 255 255 0
-0.0625872462988 0.0839504152536 -0.233584240079 255 255 0
-0.0374047569931 0.17445550859 0.158285111189 255 255 0
0.0525387600064 0.185051739216 0.0882123038173 255 255 0
0.0377164185047 0.175159528852 0.0970747023821 255 255 0
-0.0232417210937 0.180818036199 0.172056078911 255 255 0
0.110278561711 0.0676273927093 0.228003099561 255 255 0
0.0331286042929 0.181739598513 0.0846652686596 255 255 0
-0.0195502638817 0.174483537674 0.108963213861 255 255 0
0.0218280516565 0.174888029695 0.107963986695 255 255 0
0.00689984671772 0.176200583577 0.167669549584 255 255 0
0.0431387349963 0.175489455462 0.151974439621 255 255 0
-0.0155030982569 0.195271283388 0.0790063813329 255 255 0
-0.0442323200405 0.17457588017 0.0961578562856 255 255 0
-0.0263706091791 0.17457421124 0.0901732742786 255 255 0
0.0430181697011 0.17483958602 0.11850759387 255 255 0
-0.0503280870616 0.174420386553 0.138499036431 255 255 0
0.119626060128 0.0684085190296 0.235236361623 255 255 0
-0.00773432012647 0.188945457339 0.0462798401713 255 255 0
-0.0552650094032 0.174896344543 0.114957541227 255 255 0
0.0173855349422 0.200079768896 0.0669607892632 255 255 0
0.0600874722004 0.190477147698 0.141196787357 255 255 0
0.0446262210608 0.174814760685 0.148216724396 255 255 0
0.0160573702306 0.192208588123 0.0811765789986 255 255 0
0.0506090037525 0.153792217374 0.114757008851 255 255 0
0.0162832662463 0.172747135162 0.15095102787 255 255 0
0.00646339030936 0.177096128464 0.168690487742 255 255 0
-0.0350930765271 0.174055442214 0.107999302447 255 255 0
-0.0351824350655 0.173978388309 0.109083086252 255 255 0
0.0492044985294 0.174576759338 0.139516949654 255 255 0
0.145791456103 0.0682351887226 0.207012623549 255 255 0
0.0383544825017 0.174571558833 0.105956248939 255 255 0
-0.0546830967069 0.174877151847 0.129807814956 255 255 0
0.117276571691 0.0678174495697 0.228476300836 255 255 0
-0.0356025211513 0.173628509045 0.0996968820691 255 255 0
-0.0403654277325 0.173325046897 0.116217143834 255 255 0
-0.0488874353468 0.174606740475 0.0935464277864 255 255 0
0.147979870439 0.0681888833642 0.208704590797 255 255 0
-0.00771072134376 0.174840196967 0.166451469064 255 255 0
-0.0331247337162 0.191391393542 0.0702793747187 255 255 0
0.141451969743 0.0681148469448 0.206755429506 255 255 0
0.0579372905195 0.19062975049 0.0807701423764 255 255 0
0.148515298963 0.069059021771 0.210547700524 255 255 0
-0.00739508448169 0.0707576274872 -0.258428901434 255 255 0
0.137264296412 0.0680732652545 0.205418720841 255 255 0
-0.0605720542371 0.0763365700841 -0.221574157476 255 255 0
0.0228800177574 0.191426381469 0.0814650505781 255 255 0
0.0318293012679 0.174490496516 0.104110918939 255 255 0
-0.00867001060396 0.193685874343 0.0767277777195 255 255 0
0.0216900184751 0.17219273746 0.147255882621 255 255 0
0.12880396843 0.0686321929097 0.221930474043 255 255 0
-0.0358348563313 0.174113363028 0.106809392571 255 255 0
0.0423575043678 0.175234347582 0.112436577678 255 255 0
0.0233755204827 0.193476170301 0.080364741385 255 255 0
0.001230138354 0.173158034682 0.123663596809 255 255 0
-0.109733045101 0.0673686489463 0.0867548808455 255 255 0
0.0883345603943 0.0681312009692 0.239060804248 255 255 0
0.0208356119692 0.171294927597 0.145668774843 255 255 0
0.0373963825405 0.18773086369 0.185064688325 255 255 0
0.0301647055894 0.175007402897 0.110090702772 255 255 0
-0.017703210935 0.0698873773217 0.249997064471 255 255 0
0.0505075939 0.175496071577 0.140998259187 255 255 0
0.0401398651302 0.185810878873 0.185772955418 255 255 0
0.135907977819 0.0680949687958 0.204472318292 255 255 0
-0.0272088758647 0.174036443233 0.111936531961 255 255 0
0.0362065546215 0.188658341765 0.170969456434 255 255 0
0.0957416594028 0.0671413168311 0.199752613902 255 255 0
0.0193946380168 0.0691324919462 0.249639734626 255 255 0
-0.0529333874583 0.174849390984 0.131025388837 255 255 0
0.00199174159206 0.175202786922 0.165660753846 255 255 0
0.0303627178073 0.174329549074 0.105780296028 255 255 0
0.0285126827657 0.196923181415 0.0610171481967 255 255 0
0.0200491435826 0.190308228135 0.0821777880192 255 255 0
0.00158212217502 0.171614587307 0.146364197135 255 255 0
0.0765115097165 0.067009717226 0.207047984004 255 255 0
0.0155754638836 0.187679827213 0.0469800941646 255 255 0
0.0242728888988 0.182342723012 0.171848595142 255 255 0
0.0442662611604 0.175094559789 0.143963873386 255 255 0
0.0247643180192 0.174459323287 0.0440864041448 255 255 0
0.0960217416286 0.067267075181 0.198046401143 255 255 0
-0.0981731712818 0.067917175591 0.212812274694 255 255 0
0.0767183825374 0.0671269968152 0.205431580544 255 255 0
0.0424002446234 0.174283578992 0.112039141357 255 255 0
0.0389385521412 0.175146356225 0.1550347507 255 255 0
0.05922780931 0.19182549417 0.149709865451 255 255 0
-0.0392384901643 0.175185471773 0.161075294018 255 255 0
0.108372859657 0.0681650862098 0.219267234206 255 255 0
0.0443913564086 0.174973964691 0.145783007145 255 255 0
-0.0211426541209 0.174662977457 0.162804216146 255 255 0
0.11562602222 0.0679774582386 0.21107365191 255 255 0
-0.0248687416315 0.193112254143 0.07758449018 255 255 0
0.0734192058444 0.0673406720161 0.215080186725 255 255 0
0.00616536848247 0.195968732238 0.0645804926753 255 255 0
-0.0443192720413 0.187095746398 0.0849068686366 255 255 0
-0.00315095041879 0.191144198179 0.0735021457076 255 255 0
0.0200975257903 0.175227403641 0.116505466402 255 255 0
0.0594851002097 0.0674655511975 0.221088886261 255 255 0
0.0664523467422 0.192957997322 0.136526718736 255 255 0
0.0578933544457 0.191681459546 0.15119343996 255 255 0
0.14149273932 0.0696237757802 0.241941839457 255 255 0
0.0222879312932 0.17479634285 0.0952162370086 255 255 0
-0.00327007309534 0.0737927481532 0.028070230037 255 255 0
-0.0494442805648 0.0699283182621 -0.222937911749 255 255 0
0.0207623485476 0.172762185335 0.124210327864 255 255 0
-0.11204624176 0.066867262125 -0.235900163651 255 255 0
0.0109128830954 0.188990622759 0.0828762724996 255 255 0
0.127265825868 0.0683732554317 0.196397230029 255 255 0
-0.0339262336493 0.187138184905 0.174911990762 255 255 0
0.139043316245 0.0687147527933 0.22547788918 255 255 0
-0.00475857080892 0.186254575849 0.0440522097051 255 255 0
0.135553598404 0.068568430841 0.22599466145 255 255 0
-0.0180194638669 0.189673513174 0.188175812364 255 255 0
0.0643379092216 0.191855028272 0.123050376773 255 255 0
0.0234635993838 0.0674629360437 0.0185049977154 255 255 0
0.00750809302554 0.175728261471 0.0890481024981 255 255 0
0.062710262835 0.0675795003772 0.235222131014 255 255 0
-0.0689448192716 0.0702057853341 0.250162363052 255 255 0
0.0230562966317 0.193166360259 0.0561402253807 255 255 0
-0.0353050418198 0.173474982381 0.116376660764 255 255 0
0.14723727107 0.0703729838133 0.247968643904 255 255 0
-0.142040938139 0.0688084438443 0.23663584888 255 255 0
-0.00308055360802 0.0695704966784 -0.253392070532 255 255 0
-0.0569443143904 0.0710097253323 -0.242209687829 255 255 0
-0.0421552732587 0.0700842738152 0.250071883202 255 255 0
0.0878533795476 0.0750823542476 0.0944381356239 255 255 0
-0.00584440398961 0.173978328705 0.10840216279 255 255 0
0.0253095962107 0.192338392138 0.0549756623805 255 255 0
-0.000931366346776 0.192513376474 0.0545401535928 255 255 0
0.0826044455171 0.0691896229982 0.249546319246 255 255 0
-0.000437252019765 0.182474285364 0.172757476568 255 255 0
-0.00198068213649 0.173228010535 0.121151588857 255 255 0
0.0753435119987 0.0677123293281 0.210546582937 255 255 0
0.114969424903 0.0680210962892 0.181531444192 255 255 0
0.0927664116025 0.0751793757081 0.123902224004 255 255 0
0.0324007309973 0.194182828069 0.0742357596755 255 255 0
0.135033205152 0.06895095855 0.248767718673 255 255 0
0.0304263904691 0.174308434129 0.091818086803 255 255 0
-0.144594714046 0.066991508007 0.0903796255589 255 255 0
0.00750683480874 0.174414411187 0.108232058585 255 255 0
-0.039680544287 0.173101320863 0.134101882577 255 255 0
-0.0439787060022 0.0683789774776 -0.254978150129 255 255 0
-0.0445758886635 0.174040049314 0.146722599864 255 255 0
-0.0379102826118 0.17339232564 0.144974455237 255 255 0
-0.0581852756441 0.0687589868903 -0.252821296453 255 255 0
0.0242062304169 0.192282453179 0.0552805177867 255 255 0
0.00822387170047 0.17436221242 0.109326891601 255 255 0
0.0641692504287 0.0675859451294 0.2215051651 255 255 0
-0.0392276495695 0.173307061195 0.145608156919 255 255 0
0.0262555796653 0.0733301490545 0.205831438303 255 255 0
0.101660057902 0.067958123982 0.204873234034 255 255 0
-0.0431050099432 0.184121698141 0.0859965011477 255 255 0
0.123639576137 0.0684779286385 0.221785798669 255 255 0
0.0245383363217 0.174823239446 0.095868088305 255 255 0
-0.02846631594 0.068037353456 -0.228489145637 255 255 0
0.0036003771238 0.174489542842 0.105321481824 255 255 0
-0.0381210185587 0.173046350479 0.135628581047 255 255 0
-0.0191678479314 0.174296036363 0.097578369081 255 255 0
0.0181740839034 0.0739784687757 0.206913679838 255 255 0
0.118876464665 0.0678143426776 0.186363995075 255 255 0
0.1357319206 0.0688640549779 0.250360995531 255 255 0
-0.0248919408768 0.196258351207 0.0602353513241 255 255 0
0.07212677598 0.188974380493 0.0972278639674 255 255 0
0.00865810923278 0.174197733402 0.0976300612092 255 255 0
0.105969138443 0.0684963092208 0.24191531539 255 255 0
-0.0531185120344 0.0723167657852 -0.259518951178 255 255 0
0.0644778162241 0.0669281259179 0.231253698468 255 255 0
-0.0230917111039 0.198403149843 0.0583533532917 255 255 0
0.0657148733735 0.187421813607 0.159822016954 255 255 0
0.073042884469 0.188853546977 0.0994175449014 255 255 0
0.0392334908247 0.0741134434938 0.200418129563 255 255 0
0.0385574661195 0.174844369292 0.130667105317 255 255 0
0.118286088109 0.0684251114726 0.220072001219 255 255 0
0.00972517393529 0.191030189395 0.181244656444 255 255 0
0.0928352400661 0.0729945003986 0.0986367166042 255 255 0
0.137911140919 0.068623945117 0.226278349757 255 255 0
0.0904096364975 0.0761750042439 0.108270309865 255 255 0
0.0112507110462 0.174933671951 0.116687752306 255 255 0
-0.0441948734224 0.190610691905 0.0765404999256 255 255 0
-0.0426189415157 0.173995271325 0.105384558439 255 255 0
0.0313144996762 0.0745766535401 0.0326774418354 255 255 0
-0.0414029099047 0.174059152603 0.10501627624 255 255 0
0.0987491831183 0.0714451521635 0.124005131423 255 255 0
-0.0302223693579 0.171306222677 0.136103615165 255 255 0
-0.0405180193484 0.173253804445 0.145786836743 255 255 0
0.00911775883287 0.0690179690719 -0.253962129354 255 255 0
-0.0706341564655 0.0692429244518 0.249137565494 255 255 0
0.0815894752741 0.176585704088 0.125215530396 255 255 0
0.0567586794496 0.0684798285365 0.247913330793 255 255 0
0.0742915943265 0.0675543621182 0.226665019989 255 255 0
0.0981499627233 0.0713574439287 0.125007659197 255 255 0
0.132871866226 0.0699075385928 0.248096749187 255 255 0
0.125707089901 0.068277426064 0.211373120546 255 255 0
-0.034321654588 0.181575298309 0.170155778527 255 255 0
0.0629381909966 0.189853027463 0.123033061624 255 255 0
0.082188770175 0.0676865503192 0.214100450277 255 255 0
0.072050832212 0.191340997815 0.119836255908 255 255 0
0.0722405090928 0.0675845891237 0.239571645856 255 255 0
0.147198796272 0.0674237012863 -0.166587889194 255 255 0
0.0307894591242 0.0681764110923 -0.245914295316 255 255 0
0.0302426591516 0.0677139535546 -0.253715515137 255 255 0
0.0421966910362 0.191923052073 0.0688790977001 255 255 0
0.0831987559795 0.0677760392427 0.227562740445 255 255 0
0.0780320316553 0.0670379847288 0.235941275954 255 255 0
0.148002758622 0.0687502101064 -0.128383606672 255 255 0
-0.0238563790917 0.19090372324 0.181803360581 255 255 0
0.0052848928608 0.193129211664 0.0770336389542 255 255 0
0.0819449424744 0.0676556229591 0.228738948703 255 255 0
0.0067959362641 0.190655127168 0.185361459851 255 255 0
0.147719338536 0.0689624920487 -0.131614863873 255 255 0
0.030683843419 0.197718948126 0.0647056251764 255 255 0
-0.0420908480883 0.190773233771 0.0751437619328 255 255 0
0.0109885446727 0.191908568144 0.0546042732894 255 255 0
-0.0551830865443 0.080349214375 -0.234764024615 255 255 0
0.0474830642343 0.189999520779 0.170920595527 255 255 0
-0.0172943659127 0.196269586682 0.0778981670737 255 255 0
-0.02453773655 0.18965575099 0.185409545898 255 255 0
0.0357927381992 0.19286352396 0.0664742141962 255 255 0
-0.0284551996738 0.188999250531 0.0501760058105 255 255 0
0.0745262131095 0.188735991716 0.130422741175 255 255 0
0.0759166628122 0.0675269961357 0.22781893611 255 255 0
0.00193109491374 0.190852209926 0.0515244975686 255 255 0
0.087398827076 0.0764839351177 0.145262122154 255 255 0
-0.0302719250321 0.0688707903028 -0.255797028542 255 255 0
0.0446439161897 0.0690502598882 0.248260721564 255 255 0
0.0113828619942 0.193781614304 0.0560378096998 255 255 0
0.123199231923 0.0685105025768 0.249705940485 255 255 0
-0.0610277876258 0.183475121856 0.130018308759 255 255 0
0.082628056407 0.17282320559 0.123436182737 255 255 0
0.00454057566822 0.192143723369 0.0767777115107 255 255 0
-0.0742132812738 0.0696089193225 -0.25837174058 255 255 0
0.0923993811011 0.0687941089272 0.1597674191 255 255 0
0.0507521405816 0.17590893805 0.149383455515 255 255 0
-0.130207434297 0.0671981424093 -0.0346602462232 255 255 0
0.0498364940286 0.183427318931 0.182177826762 255 255 0
-0.010762440972 0.174727320671 0.10948266834 255 255 0
0.0962027683854 0.0725606530905 0.120834924281 255 255 0
0.00277989613824 0.174664348364 0.11668844521 255 255 0
0.0142534375191 0.19384779036 0.0564039722085 255 255 0
0.101307846606 0.0683337152004 0.242125704885 255 255 0
0.0156967379153 0.173823922873 0.120655700564 255 255 0
0.00957882683724 0.171132981777 0.142808333039 255 255 0
-0.0102594811469 0.189618468285 0.178281486034 255 255 0
-0.0109015535563 0.174549490213 0.112014763057 255 255 0
-0.0473920665681 0.190889313817 0.0709881260991 255 255 0
-0.0241726506501 0.175197333097 0.167895361781 255 255 0
0.0421854630113 0.174969851971 0.101918786764 255 255 0
0.0729031264782 0.191275492311 0.121188469231 255 255 0
0.0407305173576 0.174510955811 0.107944115996 255 255 0
-0.0458069182932 0.0694959014654 -0.243535667658 255 255 0
0.0661351382732 0.0671032816172 0.229465410113 255 255 0
0.034412920475 0.174920126796 0.113337047398 255 255 0
0.0118160480633 0.170747190714 0.135179817677 255 255 0
0.0806360989809 0.0762924179435 0.159219563007 255 255 0
0.148086443543 0.0690389722586 0.224941417575 255 255 0
-0.0570610277355 0.069440163672 0.252557873726 255 255 0
-0.0532506294549 0.186530649662 0.0890124440193 255 255 0
0.148767992854 0.0673626214266 -0.207867920399 255 255 0
0.139699220657 0.0688421651721 0.238222032785 255 255 0
-0.1426461339 0.0683419927955 0.185965538025 255 255 0
-0.0284495092928 0.0690320879221 -0.257306337357 255 255 0
0.149109393358 0.0690029859543 0.225941717625 255 255 0
-0.0170011855662 0.172631815076 0.122884608805 255 255 0
-0.135994791985 0.0662379190326 -0.252127319574 255 255 0
0.0949895605445 0.0729341804981 0.114817656577 255 255 0
0.124559678137 0.0681590512395 0.226869091392 255 255 0
-0.0652946233749 0.187827423215 0.121687047184 255 255 0
0.0878563970327 0.0753673911095 0.147477939725 255 255 0
0.0647982209921 0.0668073296547 0.2045661062 255 255 0
0.0293280184269 0.174204275012 0.0928292423487 255 255 0
-0.0363214090466 0.184369713068 0.0855239033699 255 255 0
0.0670671761036 0.187623396516 0.157506287098 255 255 0
0.0724531784654 0.0680909156799 -0.253926515579 255 255 0
-0.05693551898 0.0742024108768 -0.260224223137 255 255 0
0.0956272482872 0.0711085498333 0.0988706797361 255 255 0
0.139164611697 0.068445302546 -0.256734877825 255 255 0
-0.1398370713 0.0670570507646 -0.251571506262 255 255 0
0.0755870044231 0.187276810408 0.137921616435 255 255 0
0.0408445745707 0.174318820238 0.110802553594 255 255 0
0.0490694791079 0.175339460373 0.0997172147036 255 255 0
-0.0300062540919 0.190452426672 0.0568373315036 255 255 0
0.0042745009996 0.0671702697873 -0.0433291979134 255 255 0
0.131518661976 0.0682107061148 0.129244312644 255 255 0
0.136497184634 0.0689426362514 0.235268637538 255 255 0
0.0951491221786 0.0711854845285 0.0975253731012 255 255 0
-0.0355683155358 0.068612486124 -0.25448384881 255 255 0
-0.0301485527307 0.068534553051 -0.250830084085 255 255 0
0.0689610913396 0.0679773613811 -0.253889322281 255 255 0
0.0126661555842 0.174462631345 0.109922662377 255 255 0
0.145122647285 0.0684330761433 -0.210890442133 255 255 0
0.00743265356869 0.0695785582066 0.251873910427 255 255 0
-0.0194033142179 0.173877343535 0.10358286649 255 255 0
0.0277338325977 0.171478778124 0.131886124611 255 255 0
-0.144746229053 0.0672866106033 0.114600412548 255 255 0
0.0269458275288 0.174469992518 0.116443738341 255 255 0
0.00671205902472 0.190129011869 0.178704589605 255 255 0
0.00630200328305 0.0695907920599 0.251170456409 255 255 0
0.0708473473787 0.190997630358 0.109991230071 255 255 0
0.126557692885 0.0685335695744 0.236627936363 255 255 0
-0.107701815665 0.0677238106728 0.111111953855 255 255 0
-0.144928127527 0.06740924716 0.127025455236 255 255 0
-0.141113206744 0.0675579532981 0.112324811518 255 255 0
-0.1428527385 0.0673278570175 -0.0138238007203 255 255 0
-0.0749915018678 0.067895822227 -0.248018801212 255 255 0
-0.14031471312 0.0682772323489 0.116492815316 255 255 0
0.0919008105993 0.068494528532 0.249711021781 255 255 0
-0.00691606802866 0.0691187307239 0.251927763224 255 255 0
-0.0335764288902 0.0685587599874 -0.252774685621 255 255 0
0.0454172976315 0.175543248653 0.0950463786721 255 255 0
0.0822315961123 0.0753758698702 0.15904328227 255 255 0
-0.0210903268307 0.17425493896 0.0972862616181 255 255 0
-0.140625089407 0.0681989341974 0.117491982877 255 255 0
