ply
format ascii 1.0
comment https://github.com/EricCJoyce
element vertex 489
property float x
property float y
property float z
property uchar red
property uchar green
property uchar blue
end_header
-0.0443360246718 -0.00134959362913 0.128278195858 0 0 255
-0.338645130396 -0.00318639632314 -0.0588907934725 0 0 255
-0.338270157576 -0.00249333004467 -0.0578529872 0 0 255
-0.0460943356156 -0.000229542143643 0.125984042883 0 0 255
-0.336119949818 -0.00291050318629 -0.0587472505867 0 0 255
-0.100683689117 -0.00882254261523 -0.348252654076 0 0 255
-0.0444759093225 -0.000782155140769 0.129535138607 0 0 255
-0.105072282255 -0.00857555493712 -0.350131928921 0 0 255
-0.014814529568 -0.00185084005352 0.13006657362 0 0 255
-0.0136888027191 -0.00188810599502 0.129972204566 0 0 255
0.158362165093 -0.00497100921348 -0.120365738869 0 0 255
-0.0104241706431 -0.0016474701697 0.126718506217 0 0 255
0.435833841562 -2.45651845034e-05 0.196067005396 0 0 255
-0.0084581496194 -0.00125500455033 0.138137057424 0 0 255
-0.102272428572 -0.00803390145302 -0.347683876753 0 0 255
-0.00952621828765 -0.00107405974995 0.136423006654 0 0 255
-0.106934517622 -0.00863588415086 -0.370332986116 0 0 255
0.243432283401 -0.00470420345664 -0.06903244555 0 0 255
-0.10268111527 -0.00694923615083 -0.347039490938 0 0 255
-0.284481108189 -0.00410204473883 -0.0601011104882 0 0 255
0.276875913143 -0.00445621646941 -0.0625666081905 0 0 255
0.158880785108 -0.00373312132433 -0.0722454413772 0 0 255
0.16091799736 -0.00471565918997 -0.0736874565482 0 0 255
-0.104634732008 -0.0081902584061 -0.346102893353 0 0 255
-0.0453330911696 -0.0020237127319 0.125180765986 0 0 255
-0.0499209426343 -0.000662374484818 0.135237067938 0 0 255
-0.0087753906846 -0.00204023695551 0.136352032423 0 0 255
-0.0100561063737 -0.00131772004534 0.134357914329 0 0 255
0.277469307184 -0.00448170211166 -0.0634516179562 0 0 255
-0.34095877409 -0.00218916335143 -0.0620641075075 0 0 255
0.277521103621 -0.0047676875256 -0.0806986987591 0 0 255
-0.00948188174516 -0.00224133580923 0.124740615487 0 0 255
0.244075447321 -0.00420760316774 -0.0681385248899 0 0 255
0.279390633106 -0.00434900540859 -0.0945013985038 0 0 255
0.275931179523 -0.00315771205351 -0.0628579631448 0 0 255
0.210044369102 -0.00557223893702 -0.122388750315 0 0 255
0.245996683836 -0.00522387586534 -0.127791836858 0 0 255
-0.340861260891 -0.00276236445643 -0.0549425706267 0 0 255
-0.29024335742 -0.00310938223265 -0.0620311126113 0 0 255
0.217093124986 -0.00469610467553 -0.0943453609943 0 0 255
-0.342536449432 -0.00312995561399 -0.062840230763 0 0 255
0.157023504376 -0.00520384777337 -0.120428673923 0 0 255
-0.341260433197 -0.00273314584047 -0.0531279966235 0 0 255
0.158784508705 -0.0055666253902 -0.0695428922772 0 0 255
0.27935808897 -0.00434981286526 -0.0647803172469 0 0 255
0.212070316076 -0.00502186408266 -0.122450992465 0 0 255
-0.0374609604478 -0.0085449423641 -0.370545387268 0 0 255
0.435812979937 -0.000164877521456 0.19874548912 0 0 255
0.278978228569 -0.00356185133569 -0.0808744877577 0 0 255
-0.338893741369 -0.00258442526683 -0.0562419369817 0 0 255
-0.00798323471099 -0.00155787088443 0.126266181469 0 0 255
-0.0492874421179 -0.00112186046317 0.132751196623 0 0 255
-0.104044117033 -0.00802542734891 -0.371841222048 0 0 255
-0.0452069602907 -0.000602648593485 0.125146254897 0 0 255
0.204574376345 -0.00330253294669 -0.0678990036249 0 0 255
-0.10211867094 -0.00792561005801 -0.371303260326 0 0 255
0.280537813902 -0.00506271980703 -0.0633138567209 0 0 255
0.157693237066 -0.00356043572538 -0.0702742785215 0 0 255
0.267379373312 -0.00309785967693 -0.081256352365 0 0 255
0.243652775884 -0.00314224860631 -0.0690740421414 0 0 255
-0.337403565645 -0.00240029557608 -0.0551333539188 0 0 255
0.277912467718 -0.00431048497558 -0.0651198029518 0 0 255
0.268207788467 -0.0041638542898 -0.0809221491218 0 0 255
0.435522705317 0.00180476950482 0.19865013659 0 0 255
0.157399401069 -0.00492764078081 -0.122480869293 0 0 255
-0.045875761658 -0.000979597680271 0.137362316251 0 0 255
0.15925848484 -0.00355763244443 -0.0693659931421 0 0 255
0.205910995603 -0.00447241356596 -0.067850664258 0 0 255
0.249817326665 -0.00480386102572 -0.0717082172632 0 0 255
0.211011245847 -0.00405464321375 -0.122006230056 0 0 255
-0.341587901115 -0.00282217888162 -0.0559397563338 0 0 255
-0.103080682456 -0.00818250421435 -0.344926297665 0 0 255
-0.0360834673047 -0.00893297698349 -0.37273645401 0 0 255
0.172492071986 -0.00408506765962 -0.0696504861116 0 0 255
-0.0474604815245 -0.00122066924814 0.137301146984 0 0 255
0.258107662201 -0.00397334946319 -0.108300685883 0 0 255
0.25692525506 -0.00387369724922 -0.108042903244 0 0 255
0.260663509369 -0.0044166459702 -0.116365641356 0 0 255
0.2621781528 -0.00435428880155 -0.116794519126 0 0 255
-0.0432776734233 -0.0097432108596 -0.372522979975 0 0 255
0.242255583405 -0.00295244157314 -0.0701579377055 0 0 255
-0.291637986898 -0.00389528996311 -0.0631936863065 0 0 255
0.17234185338 -0.00389372813515 -0.0904158875346 0 0 255
0.27804479003 -0.00364552577958 -0.0796181038022 0 0 255
0.176207244396 -0.00364681193605 -0.0740691870451 0 0 255
0.197434306145 -0.00590239977464 -0.124281823635 0 0 255
-0.33965665102 -0.00164217874408 -0.0556975752115 0 0 255
-0.0440467633307 -0.00138280156534 0.12585927546 0 0 255
-0.338603168726 -0.0028845416382 -0.0494813807309 0 0 255
0.208918690681 -0.00527660641819 -0.123680584133 0 0 255
-0.10422000289 -0.00927428994328 -0.345467686653 0 0 255
0.248661845922 -0.00419695675373 -0.128618359566 0 0 255
0.269187897444 -0.00432933820412 -0.0800021439791 0 0 255
0.157845079899 -0.00502905389294 -0.070119522512 0 0 255
0.17272606492 -0.00542052276433 -0.0895470529795 0 0 255
0.203913867474 -0.0043339622207 -0.0675642415881 0 0 255
-0.0391629301012 -0.0081947138533 -0.370522499084 0 0 255
0.250036001205 -0.00372265442275 -0.0711564198136 0 0 255
0.280627131462 -0.00426492514089 -0.0644368901849 0 0 255
0.202115431428 -0.00400671875104 -0.118740722537 0 0 255
-0.288152247667 -0.00276629859582 -0.0637039020658 0 0 255
0.254851907492 -0.0042140847072 -0.124407716095 0 0 255
0.194097205997 -0.0042242272757 -0.0914007723331 0 0 255
-0.106608875096 -0.00784108042717 -0.348233282566 0 0 255
0.163381665945 -0.00443400302902 -0.0969497263432 0 0 255
-0.0349251441658 -0.000741215015296 0.138616040349 0 0 255
0.156351879239 -0.00306427013129 -0.0705340579152 0 0 255
-0.0467497296631 -0.00252793845721 0.133404433727 0 0 255
0.17064319551 -0.00347905769013 -0.0696013718843 0 0 255
0.276888459921 -0.00392130343243 -0.0742876529694 0 0 255
0.245582327247 -0.00428697839379 -0.128552421927 0 0 255
0.173882082105 -0.00357066420838 -0.0748025178909 0 0 255
0.269308269024 -0.00420626113191 -0.0727358385921 0 0 255
0.241459041834 -0.00457858433947 -0.124713093042 0 0 255
-0.0471993163228 -0.00130336696748 0.135792940855 0 0 255
0.26824465394 -0.00393137149513 -0.0794222131371 0 0 255
-0.103675067425 -0.00883328728378 -0.372578412294 0 0 255
0.438988298178 -0.00213868031278 0.184444457293 0 0 255
0.245897620916 -0.00365116260946 -0.0722478106618 0 0 255
0.280029147863 -0.0054316171445 -0.0942939668894 0 0 255
0.244123712182 -0.00399805093184 -0.0726253688335 0 0 255
-0.017111863941 -0.00182567082811 0.126482442021 0 0 255
-0.0359512642026 -0.0083808703348 -0.346172392368 0 0 255
0.278337001801 -0.00516295060515 -0.081603422761 0 0 255
0.26228043437 -0.00345269101672 -0.0936131775379 0 0 255
0.245464980602 -0.00358531274833 -0.0689474642277 0 0 255
0.174481317401 -0.00484399357811 -0.0758742764592 0 0 255
-0.0571553036571 -0.00812830030918 -0.362379938364 0 0 255
0.199184656143 -0.00451286416501 -0.12651053071 0 0 255
0.278882116079 -0.00367106823251 -0.0730469897389 0 0 255
0.157007426023 -0.00566027453169 -0.110430754721 0 0 255
0.273771464825 -0.00399362016469 -0.0751972198486 0 0 255
-0.340830117464 -0.00227731349878 -0.0641755312681 0 0 255
-0.0174952652305 -0.000948933593463 0.125353291631 0 0 255
0.157503217459 -0.0053448388353 -0.117040008307 0 0 255
0.261442482471 -0.00427785050124 -0.0941067710519 0 0 255
0.259459167719 -0.00426336331293 -0.116643168032 0 0 255
-0.102782167494 -0.0085729835555 -0.36534896493 0 0 255
-0.0412434265018 8.24196774829e-07 0.137526854873 0 0 255
-0.33889618516 -0.00336247752421 -0.064026363194 0 0 255
0.172251045704 -0.00511365849525 -0.0700849965215 0 0 255
-0.336200356483 -0.0018514507683 -0.0546215474606 0 0 255
0.204319551587 -0.00539632886648 -0.120063908398 0 0 255
0.173953160644 -0.00360090471804 -0.0729555264115 0 0 255
-0.344339728355 -0.00199903245084 -0.061504971236 0 0 255
0.442296683788 -0.00297252880409 0.185014098883 0 0 255
0.247396543622 -0.00292804092169 -0.0714514106512 0 0 255
0.208829626441 -0.00579490698874 -0.116499476135 0 0 255
-0.337421476841 -0.00281695160083 -0.0467670485377 0 0 255
0.509430289268 -0.00980990659446 0.113127604127 0 0 255
-0.0116010764614 -0.0018804310821 0.124651126564 0 0 255
-0.342131137848 -0.00385010382161 -0.0637362599373 0 0 255
0.175032436848 -0.00486859260127 -0.0737352371216 0 0 255
0.254109084606 -0.00494462391362 -0.124608360231 0 0 255
-0.0432504341006 -0.00056148431031 0.125455826521 0 0 255
-0.280927658081 -0.00432428950444 -0.0498419813812 0 0 255
0.172313258052 -0.00506218755618 -0.0711750388145 0 0 255
0.248636901379 -0.00356546812691 -0.0713189765811 0 0 255
0.50323843956 -0.00997613649815 0.112936280668 0 0 255
0.205532580614 -0.00559809431434 -0.0853628739715 0 0 255
0.274829566479 -0.00397191289812 -0.0744535699487 0 0 255
-0.0439789555967 -0.00116308883298 0.138195604086 0 0 255
0.205331459641 -0.00443160580471 -0.0853612646461 0 0 255
-0.0274370852858 -0.000719565548934 0.138630479574 0 0 255
-0.105787567794 -0.00789645221084 -0.371153324842 0 0 255
0.509617507458 -0.0108486013487 0.11288497597 0 0 255
0.201038599014 -0.00438732653856 -0.0681755319238 0 0 255
0.274076551199 -0.00367791345343 -0.0813664868474 0 0 255
0.260959088802 -0.00437929201871 -0.0906963348389 0 0 255
-0.333395093679 -0.00241659069434 -0.0546725913882 0 0 255
0.170143976808 -0.00345109007321 -0.0779722929001 0 0 255
0.155667304993 -0.00493272952735 -0.0917069390416 0 0 255
0.174304202199 -0.00412923935801 -0.0903979018331 0 0 255
0.198710620403 -0.00492174178362 -0.0698369219899 0 0 255
0.20727366209 -0.00516722630709 -0.0686812698841 0 0 255
-0.331753700972 -0.00407013529912 -0.0621286779642 0 0 255
0.441852599382 -0.00315958424471 0.182762339711 0 0 255
0.280740320683 -0.00483941007406 -0.0698457062244 0 0 255
-0.343735694885 -0.00270928232931 -0.0565040931106 0 0 255
0.278786301613 -0.00403866777197 -0.070538431406 0 0 255
0.265401899815 -0.00507573736832 -0.0768615230918 0 0 255
0.163572743535 -0.00484292441979 -0.0869776457548 0 0 255
0.162355482578 -0.00515517825261 -0.0978963896632 0 0 255
0.158359661698 -0.00522951362655 -0.115266494453 0 0 255
-0.107438735664 -0.00755991600454 -0.347659111023 0 0 255
0.173705905676 -0.00485079316422 -0.0749473646283 0 0 255
0.206750541925 -0.00443173712119 -0.106549821794 0 0 255
0.280414909124 -0.00399883743376 -0.0704027637839 0 0 255
0.242984503508 -0.00487117981538 -0.125620424747 0 0 255
0.169631764293 -0.00481475610286 -0.0782616958022 0 0 255
0.207230657339 -0.00430664094165 -0.116557903588 0 0 255
0.239817067981 -0.00468313181773 -0.123438023031 0 0 255
0.162405997515 -0.0040914923884 -0.0985971391201 0 0 255
-0.0636755824089 -0.00860224291682 -0.354196220636 0 0 255
-0.0910347625613 -0.00891737174243 -0.34800350666 0 0 255
0.168182522058 -0.00465164566413 -0.0781658366323 0 0 255
0.205661177635 -0.00347732240334 -0.0852648615837 0 0 255
0.279786109924 -0.00400883052498 -0.0760151147842 0 0 255
0.195343136787 -0.00410518748686 -0.0778905153275 0 0 255
0.277503669262 -0.00380193535239 -0.0765238255262 0 0 255
0.256021112204 -0.00425131944939 -0.12431538105 0 0 255
0.257237195969 -0.00392235722393 -0.102034494281 0 0 255
-0.0572958551347 -0.00948062073439 -0.373870700598 0 0 255
0.279233545065 -0.00515535846353 -0.0767966881394 0 0 255
-0.1059114784 -0.00902602635324 -0.371071487665 0 0 255
0.279166519642 -0.00372010818683 -0.0772877931595 0 0 255
0.209106788039 -0.0038867352996 -0.117040023208 0 0 255
-0.0380795747042 -0.00844001211226 -0.347750335932 0 0 255
-0.0375546440482 -0.00821236148477 -0.346561640501 0 0 255
0.1603089571 -0.00416291737929 -0.0983302667737 0 0 255
-0.0373458713293 -0.00969822891057 -0.349136173725 0 0 255
0.198379173875 -0.00570584088564 -0.126686528325 0 0 255
0.27397865057 -0.00393773103133 -0.0734073296189 0 0 255
-0.0384322591126 -0.00875759031624 -0.378037303686 0 0 255
0.430544316769 -0.000241317786276 0.197542503476 0 0 255
-0.107360899448 -0.00893037766218 -0.362493485212 0 0 255
0.203448534012 -0.0039348914288 -0.069425933063 0 0 255
0.198414608836 -0.00582590326667 -0.124032013118 0 0 255
-0.0486405342817 -0.00898886937648 -0.374016076326 0 0 255
0.282175481319 -0.000878674152773 0.0989082232118 0 0 255
0.430535554886 -0.000182646588655 0.196250617504 0 0 255
0.440447032452 -0.00322382664308 0.183300122619 0 0 255
-0.0960707068443 -0.00933621637523 -0.35817322135 0 0 255
-0.0646376535296 -0.00804663170129 -0.353548377752 0 0 255
-0.0212366413325 -0.00145052687731 0.137632012367 0 0 255
0.265974730253 -0.00403841398656 -0.0784814581275 0 0 255
0.20269343257 -0.00431518582627 -0.0715433955193 0 0 255
0.42989718914 0.0008809195715 0.198448747396 0 0 255
0.432749956846 -0.000617277051788 0.19651889801 0 0 255
-0.0354652106762 -0.00821028929204 -0.345312535763 0 0 255
-0.342171281576 -0.00328662106767 -0.0533182322979 0 0 255
0.163888931274 -0.0042507913895 -0.0941855087876 0 0 255
0.239593595266 -0.00468840962276 -0.125030383468 0 0 255
0.157804355025 -0.00479879416525 -0.128826335073 0 0 255
0.461996227503 -0.00155735213775 0.340695023537 0 0 255
-0.196272358298 0.00903971400112 -0.265644729137 0 0 255
0.442606836557 -0.00307056377642 0.183645784855 0 0 255
-0.0102964835241 -0.00107234390453 0.124540820718 0 0 255
0.266561120749 -0.0038603534922 -0.0748085826635 0 0 255
-0.0389423966408 -0.00889105629176 -0.34975835681 0 0 255
-0.288213908672 -0.00283265323378 -0.0622871741652 0 0 255
0.206863194704 -0.00533104874194 -0.104727700353 0 0 255
-0.0376407764852 -0.0082617783919 -0.345452874899 0 0 255
-0.0478607602417 -0.00159660493955 0.126922667027 0 0 255
0.506124436855 -0.0170963797718 -0.415343910456 0 0 255
-0.27796241641 -0.00388439884409 -0.046332295984 0 0 255
-0.344196766615 -0.00214802660048 -0.0555898211896 0 0 255
0.266437619925 -0.00477084703743 -0.0938388258219 0 0 255
0.159634649754 -0.00461135851219 -0.0960155501962 0 0 255
-0.0194378271699 -0.000382002675906 0.138620004058 0 0 255
0.174027368426 -0.005168965552 -0.0899605825543 0 0 255
0.167029738426 -0.00436894735321 -0.0933328270912 0 0 255
0.275207519531 -0.00348270125687 -0.0813550874591 0 0 255
0.208200648427 -0.00532499700785 -0.0754254758358 0 0 255
0.171939864755 -0.00486554391682 -0.0757181048393 0 0 255
0.163901850581 -0.00418589496985 -0.09560046345 0 0 255
-0.273937255144 -0.00227436563 -0.060649305582 0 0 255
-0.0381792187691 -0.00990208610892 -0.379908055067 0 0 255
0.155922427773 -0.00516898650676 -0.0905826464295 0 0 255
0.432201355696 4.71033454232e-05 0.19739921391 0 0 255
-0.0485886633396 -0.000816910178401 0.127749115229 0 0 255
0.527725815773 -0.00372047582641 0.121594533324 0 0 255
0.464047014713 -0.00257336930372 0.338862746954 0 0 255
0.157168284059 -0.00618739845231 -0.127441555262 0 0 255
0.264957994223 -0.00336911110207 -0.0937869176269 0 0 255
0.195657908916 -0.00589369423687 -0.124253518879 0 0 255
-0.0500522665679 -0.000513674458489 0.129508346319 0 0 255
-0.0490741431713 -0.000910116941668 0.129492044449 0 0 255
0.170749485493 -0.00536973308772 -0.0695619657636 0 0 255
0.171008884907 -0.00505330273882 -0.0785248577595 0 0 255
0.439045488834 -0.0033798024524 0.183899715543 0 0 255
0.509164452553 -0.00910537783056 0.11969588697 0 0 255
0.258963614702 -0.00476079620421 -0.10193464905 0 0 255
0.436711460352 -0.00142646231689 0.184462621808 0 0 255
0.280203610659 -0.00507995951921 -0.103046230972 0 0 255
0.15687957406 -0.00500081898645 -0.082082644105 0 0 255
0.209287911654 -0.003729341086 -0.0774920061231 0 0 255
-0.0244011431932 -0.000562519999221 0.12410569936 0 0 255
-0.0483227334917 -0.0092896707356 -0.372498273849 0 0 255
0.161510497332 -0.00524216797203 -0.104846611619 0 0 255
0.506675004959 -0.0183643382043 -0.414430677891 0 0 255
0.205028563738 -0.00466777011752 -0.102441288531 0 0 255
0.460866838694 -0.00206604646519 0.342112839222 0 0 255
-0.329902648926 -0.00399640807882 -0.0598180294037 0 0 255
0.2789965868 -0.00416285963729 -0.105202481151 0 0 255
0.157256126404 -0.00555311376229 -0.109077006578 0 0 255
0.160526663065 -0.00585502991453 -0.0823768004775 0 0 255
0.159505918622 -0.0043180915527 -0.105311453342 0 0 255
-0.202892884612 0.0230705812573 -0.194451406598 0 0 255
-0.332557588816 -0.0021673804149 -0.0614606961608 0 0 255
0.265683025122 -0.0051180771552 -0.0790149569511 0 0 255
0.279882758856 -0.0057290000841 -0.118569768965 0 0 255
-0.103865429759 -0.00864068232477 -0.380310148001 0 0 255
-0.277265697718 -0.00419916305691 -0.0475514009595 0 0 255
0.166967839003 -0.00468931300566 -0.0826626718044 0 0 255
0.520778179169 0.0112369786948 0.134265586734 0 0 255
0.463937491179 -0.00224722921848 0.341553449631 0 0 255
0.462480455637 -0.00190252321772 0.33952704072 0 0 255
0.209243535995 -0.00399184180424 -0.114650674164 0 0 255
0.43178331852 -0.000164973374922 0.196265459061 0 0 255
0.199677318335 -0.00401709834114 -0.0680698677897 0 0 255
0.432670891285 -0.000694224203471 0.198868334293 0 0 255
0.238776564598 -0.0036705606617 -0.105714581907 0 0 255
0.27818363905 -0.00201387587003 0.0991260409355 0 0 255
0.229654327035 -0.00347360945307 -0.0777798593044 0 0 255
0.280700623989 -0.00454311445355 -0.118856735528 0 0 255
-0.00627070758492 -0.00220675161108 0.13359311223 0 0 255
-0.0414509251714 -0.00810401700437 -0.351351201534 0 0 255
-0.315276503563 -0.00256816972978 -0.0587502121925 0 0 255
0.284493088722 -0.00223380769603 0.10089828819 0 0 255
-0.287807315588 -0.00287711713463 -0.0610603094101 0 0 255
0.248403459787 -0.00563640054315 -0.103509761393 0 0 255
0.206329882145 -0.00409678230062 -0.114154860377 0 0 255
0.2806224823 -0.00437840959057 -0.104838386178 0 0 255
0.19856120646 -0.00398878986016 -0.0784489512444 0 0 255
-0.123502194881 0.0382643342018 -0.191623464227 0 0 255
0.263623744249 -0.00339900911786 -0.0908884257078 0 0 255
0.208141684532 -0.00558098033071 -0.113394655287 0 0 255
0.459524780512 -0.000394798698835 0.342048823833 0 0 255
0.202503234148 -0.00543977785856 -0.099930793047 0 0 255
-0.0676438212395 -0.00809492170811 -0.352615714073 0 0 255
0.518121778965 -0.00900606904179 -0.375076323748 0 0 255
0.528938829899 -0.00215333281085 0.121584236622 0 0 255
0.435953378677 0.00195794831961 0.207392439246 0 0 255
0.156521454453 -0.00518433330581 -0.129570841789 0 0 255
-0.037324372679 -0.00988368876278 -0.345725119114 0 0 255
-0.0803340747952 -0.00872238725424 -0.348141044378 0 0 255
0.279582321644 -0.00606210390106 -0.120797134936 0 0 255
-0.314604222775 -0.00374736753292 -0.0585808418691 0 0 255
0.438205242157 -0.00296656577848 0.184710398316 0 0 255
0.435232311487 0.00137846334837 0.207817643881 0 0 255
0.280087649822 -0.00559035642073 -0.110085099936 0 0 255
-0.0245014745742 -0.00190200831275 0.123577997088 0 0 255
0.256670713425 -0.0047948108986 -0.110547535121 0 0 255
0.252008616924 -0.00427859136835 -0.0811867266893 0 0 255
-0.0914671868086 -0.00774419587106 -0.34734171629 0 0 255
0.240202128887 -0.00495967455208 -0.116967312992 0 0 255
0.246778011322 -0.00423335237429 -0.128987461329 0 0 255
0.280210733414 -0.00192292360589 0.098387658596 0 0 255
0.263901442289 -0.00309528713115 -0.0775077342987 0 0 255
0.272657364607 -0.00477909808978 -0.0724636614323 0 0 255
0.438412874937 -0.00135637365747 0.183979928493 0 0 255
0.279677897692 -0.00407630903646 -0.112047642469 0 0 255
-0.31422907114 -0.00373061210848 -0.0569380372763 0 0 255
0.517955362797 -0.00872259307653 -0.377187848091 0 0 255
-0.0266606155783 -0.00191303435713 0.123073093593 0 0 255
0.501709520817 -0.0111054303125 0.112283423543 0 0 255
0.206239312887 -0.00510280672461 -0.102583952248 0 0 255
-0.273949712515 -0.00287155131809 -0.0651845782995 0 0 255
0.196682080626 -0.00335521018133 -0.0733528062701 0 0 255
0.239631816745 -0.00477972626686 -0.122164405882 0 0 255
0.259215444326 -0.00505125848576 -0.0989082753658 0 0 255
-0.333532482386 -0.00415511988103 -0.0617905706167 0 0 255
0.273697853088 -0.00404867483303 -0.132225498557 0 0 255
0.163979709148 -0.00465046847239 -0.0855242088437 0 0 255
-0.221093326807 0.0109502794221 -0.265622496605 0 0 255
0.289020329714 -0.00172533141449 0.0995131731033 0 0 255
-0.0722753256559 -0.00889041274786 -0.353205621243 0 0 255
-0.295147955418 -0.00309980567545 -0.0607254467905 0 0 255
0.530904114246 0.0116309281439 0.135562136769 0 0 255
0.288311362267 -0.00171057810076 0.0987504273653 0 0 255
0.278261899948 -0.00498040346429 -0.135988131166 0 0 255
0.519433140755 -0.00951267313212 -0.374610394239 0 0 255
0.209653988481 -0.00515733240172 -0.0888411700726 0 0 255
-0.195891991258 0.00962401181459 -0.266615003347 0 0 255
0.247385144234 -0.00339528196491 -0.104100398719 0 0 255
-0.0373472757638 -0.000554677564651 0.128963902593 0 0 255
0.258693158627 -0.00330048659816 -0.0991730093956 0 0 255
0.162255376577 -0.00440909154713 -0.0854828432202 0 0 255
0.289673686028 -0.00271746795624 0.0990145727992 0 0 255
0.43728441 -0.00243367510848 0.18402813375 0 0 255
0.529899179935 0.0112497322261 0.135799646378 0 0 255
0.510259151459 -0.00758947292343 0.327780634165 0 0 255
0.198136016726 -0.00539642572403 -0.0980410501361 0 0 255
0.282083749771 -0.00141476397403 0.102762572467 0 0 255
0.255074441433 -0.00346823129803 -0.0893372967839 0 0 255
0.522243499756 0.00970287341624 0.134474858642 0 0 255
0.290738135576 0.000457958871266 0.131788283587 0 0 255
0.260860025883 -0.00375852524303 -0.098114669323 0 0 255
-0.0164118576795 -0.00197199871764 0.130124598742 0 0 255
-0.206531852484 0.0579679831862 -0.184076681733 0 0 255
-0.0362120755017 -0.00133591087069 0.129009202123 0 0 255
0.257449567318 -0.00397976255044 -0.0973375663161 0 0 255
0.436869263649 -0.00122137239669 0.18625664711 0 0 255
0.161513566971 -0.00468027824536 -0.0862399935722 0 0 255
0.197477936745 -0.00415439764038 -0.0718093812466 0 0 255
0.247882440686 -0.004504497163 -0.12019032985 0 0 255
-0.0203035157174 -0.0022433695849 0.133663743734 0 0 255
0.258792549372 -0.00303185032681 -0.100346632302 0 0 255
0.16709163785 -0.00450660148636 -0.0912887379527 0 0 255
-0.0623496882617 -0.00921422336251 -0.354923844337 0 0 255
-0.0866989716887 -0.00757374381647 -0.348124980927 0 0 255
0.239573150873 -0.00446472596377 -0.120002910495 0 0 255
0.209458321333 -0.00415501138195 -0.0861008539796 0 0 255
-0.124462366104 0.0420458726585 -0.186194181442 0 0 255
0.249639287591 -0.00384587957524 -0.108145385981 0 0 255
0.19567540288 -0.00445761578158 -0.0903434306383 0 0 255
0.202531561255 -0.00384762720205 -0.0790843144059 0 0 255
0.507127165794 -0.0101159457117 0.118411116302 0 0 255
0.206482619047 -0.00359829282388 -0.08845923841 0 0 255
0.290853559971 -0.000562656845432 0.131442457438 0 0 255
0.276824772358 -0.00526814023033 -0.130569443107 0 0 255
0.259901046753 -0.00332282320596 -0.0979349017143 0 0 255
0.209264785051 -0.00408961717039 -0.0907072126865 0 0 255
0.429746836424 0.000679218035657 0.201170504093 0 0 255
0.209638878703 -0.00395787740126 -0.0882443264127 0 0 255
0.208158642054 -0.0040460685268 -0.114133819938 0 0 255
0.207496926188 -0.00521313911304 -0.0889539271593 0 0 255
0.527440309525 -0.00187959021423 0.121948823333 0 0 255
0.44576099515 -0.00394317647442 0.210905238986 0 0 255
0.27779841423 -0.00447456166148 -0.133012861013 0 0 255
0.163860201836 -0.00531343836337 -0.0847722068429 0 0 255
-0.0377566367388 -0.00207384978421 0.128345072269 0 0 255
0.519816994667 0.00868383981287 0.125924855471 0 0 255
0.209514886141 -0.00529324635863 -0.0859472155571 0 0 255
0.164230242372 -0.00566039374098 -0.081892028451 0 0 255
0.276457369328 -0.00450329948217 -0.135737478733 0 0 255
0.511021077633 -0.00943748001009 0.323866277933 0 0 255
0.157612547278 -0.00546505814418 -0.105795718729 0 0 255
-0.0206339005381 -0.000755729037337 0.129560559988 0 0 255
0.167475163937 -0.0051979329437 -0.0817940086126 0 0 255
-0.0488315038383 -0.00155194383115 0.136350870132 0 0 255
-0.0483763851225 -0.00940100476146 -0.368732750416 0 0 255
0.249913543463 -0.00523849995807 -0.124493323267 0 0 255
-0.0488217249513 -8.14395025373e-05 0.137637704611 0 0 255
0.21206048131 -0.00469211814925 -0.0851990133524 0 0 255
0.156925678253 -0.0037333406508 -0.102291017771 0 0 255
0.279901027679 -0.00414729211479 -0.11035297811 0 0 255
-0.0265933293849 -0.0020146407187 0.127459898591 0 0 255
-0.00307255703956 0.0153488451615 -0.174148350954 0 0 255
0.201412662864 -0.00394080672413 -0.100570783019 0 0 255
0.258086442947 -0.00455472292379 -0.11493472755 0 0 255
0.203981205821 -0.00495465612039 -0.0815209671855 0 0 255
0.273016273975 -0.00421519111842 -0.0702427327633 0 0 255
-0.00926640536636 -0.00102703156881 0.139243066311 0 0 255
-0.12443690747 0.0440364293754 -0.178198829293 0 0 255
0.518096745014 -0.00916077941656 -0.371601074934 0 0 255
-0.27482676506 -0.00286506023258 -0.0595827884972 0 0 255
0.241163536906 -0.00462028337643 -0.0902142450213 0 0 255
-0.0225069280714 -0.00191392726265 0.129669353366 0 0 255
-0.223878622055 0.010213477537 -0.265597999096 0 0 255
0.460878700018 -0.00172209599987 0.338706105947 0 0 255
-0.124526873231 0.0417809858918 -0.180576473475 0 0 255
0.515594542027 -0.00814288854599 0.119059152901 0 0 255
0.2878485322 0.000672108551953 0.131993368268 0 0 255
0.206799030304 -0.00469620293006 -0.113472312689 0 0 255
0.276700884104 -0.00596739258617 -0.135686948895 0 0 255
0.529768407345 -0.00112547131721 0.122742585838 0 0 255
0.521749377251 0.011073560454 0.134613245726 0 0 255
0.261375963688 -0.00393496220931 -0.100129120052 0 0 255
-0.221527993679 0.010139554739 -0.266310691833 0 0 255
0.430831104517 0.0015618869802 0.201069012284 0 0 255
0.201175734401 -0.00455529382452 -0.107294544578 0 0 255
0.507830202579 -0.0112374443561 0.131348595023 0 0 255
-0.326420664787 -0.00264041614719 -0.0564278811216 0 0 255
0.511684298515 -0.00777408247814 0.327206969261 0 0 255
-0.0592441782355 -0.0082433084026 -0.359320908785 0 0 255
-0.0957096815109 -0.0086410343647 -0.360996007919 0 0 255
0.210955172777 -0.00388463400304 -0.0893111005425 0 0 255
0.444751411676 -0.00437908479944 0.168410852551 0 0 255
-0.132276728749 0.0205090492964 -0.169832646847 0 0 255
0.509235918522 -0.0105367731303 0.128944888711 0 0 255
0.525368630886 -0.00464727310464 0.121184401214 0 0 255
0.249327376485 -0.0051119858399 -0.108142577112 0 0 255
0.518495798111 0.0122767314315 0.130511745811 0 0 255
-0.024434575811 -0.00107287743594 0.129682436585 0 0 255
0.256082057953 -0.00432144058868 -0.12129162997 0 0 255
0.507176876068 -0.017141468823 -0.413703233004 0 0 255
0.198848262429 -0.00376041419804 -0.0832786038518 0 0 255
-0.12315928936 0.0473202764988 -0.18322609365 0 0 255
0.280814915895 0.00103936134838 0.136567801237 0 0 255
0.203121066093 -0.0053905621171 -0.107454814017 0 0 255
0.202830210328 -0.00455296458676 -0.106320567429 0 0 255
-0.087001465261 -0.00954047031701 -0.348548978567 0 0 255
0.21020527184 -0.00499072577804 -0.0921527221799 0 0 255
0.156969457865 -0.00434002187103 -0.0965159758925 0 0 255
0.526440143585 -0.00512322876602 0.171333312988 0 0 255
0.25337216258 -0.0051732393913 -0.12172357738 0 0 255
0.170451104641 -0.00500518130139 -0.0735786929727 0 0 255
0.435518205166 0.00177174888086 0.205349460244 0 0 255
0.439577043056 -0.00435343151912 0.164642572403 0 0 255
0.203686758876 -0.00325559545308 -0.0827133879066 0 0 255
0.513300418854 -0.00799720175564 0.118665888906 0 0 255
0.445349603891 -0.00343923456967 0.205383375287 0 0 255
0.462473750114 -0.00327977561392 0.326834410429 0 0 255
0.287532687187 0.000683712714817 0.13415646553 0 0 255
0.288317650557 0.000723314005882 0.133126989007 0 0 255
0.287265568972 0.000715950620361 0.130670890212 0 0 255
0.446762979031 -0.00412702094764 0.207017153502 0 0 255
