ply
format ascii 1.0
comment https://github.com/EricCJoyce
element vertex 146
property float x
property float y
property float z
property uchar red
property uchar green
property uchar blue
end_header
0.0610877424479 0.0369168408215 0.229566738009 0 0 255
-0.0433878898621 0.0418202616274 -0.213939443231 0 0 255
0.105869948864 0.0385826788843 0.234119042754 0 0 255
-0.0427431948483 0.0407054871321 -0.212181314826 0 0 255
-0.0547052137554 0.0436860509217 -0.204505115747 0 0 255
0.11066237092 0.0377855114639 0.221814274788 0 0 255
0.104537822306 0.0382800064981 0.225792750716 0 0 255
0.0605819672346 0.037482406944 0.234291553497 0 0 255
0.0967580527067 0.0374436154962 0.221915230155 0 0 255
0.097753405571 0.0373551174998 0.24623939395 0 0 255
-0.0539771541953 0.0427376143634 -0.204675167799 0 0 255
0.101630032063 0.0383176468313 0.247539147735 0 0 255
0.118146650493 0.0378435216844 0.246244415641 0 0 255
0.099926404655 0.0383566655219 0.24660217762 0 0 255
0.097734875977 0.037440314889 0.245234549046 0 0 255
0.104154072702 0.0381303206086 0.238944038749 0 0 255
0.110174313188 0.0387313067913 0.233585759997 0 0 255
-0.0843031778932 0.0432644337416 0.160210862756 0 0 255
-0.0602872297168 0.197084501386 0.145132467151 0 0 255
0.0845270454884 0.0379559546709 0.223966926336 0 0 255
-0.0444672517478 0.0417474210262 -0.213388368487 0 0 255
0.0582567900419 0.0375813618302 0.22097364068 0 0 255
0.136292532086 0.0389975309372 0.237807780504 0 0 255
0.105336017907 0.0384387820959 0.235657244921 0 0 255
-0.0450508072972 0.0415890775621 -0.211694642901 0 0 255
0.111249558628 0.0387159138918 0.234068781137 0 0 255
0.116377353668 0.0379873849452 0.221053004265 0 0 255
0.0987673699856 0.0375803597271 0.243881762028 0 0 255
0.110619463027 0.0382385402918 0.2394926548 0 0 255
0.0831758901477 0.0379303880036 0.223886907101 0 0 255
0.110534973443 0.0383929647505 0.226154059172 0 0 255
0.0568696297705 0.0370650179684 0.238144755363 0 0 255
0.0961414650083 0.0379544645548 0.238753840327 0 0 255
0.0934181958437 0.0439227931201 0.156458064914 0 0 255
0.115802876651 0.0386184379458 0.236493051052 0 0 255
0.116422340274 0.0387608632445 0.24649913609 0 0 255
0.0816101357341 0.193032562733 0.140559077263 0 0 255
0.0994730070233 0.0384415015578 0.245479285717 0 0 255
-0.0657608062029 0.198489144444 0.150118067861 0 0 255
0.0989364162087 0.0382648296654 0.247401311994 0 0 255
-0.069131501019 0.197476923466 0.1495436728 0 0 255
0.11449316144 0.0378447733819 0.233699277043 0 0 255
0.0829702094197 0.0373619906604 0.230498120189 0 0 255
0.0947538539767 0.0381160154939 0.236468091607 0 0 255
-0.0835583284497 0.0455895774066 0.144642144442 0 0 255
-0.0678065046668 0.198422119021 0.138826265931 0 0 255
-0.065709836781 0.198135659099 0.142777100205 0 0 255
0.113234631717 0.0383955612779 0.238385781646 0 0 255
0.144584700465 0.039193674922 0.2378385216 0 0 255
-0.070979014039 0.196328312159 0.13949495554 0 0 255
-0.0646393671632 0.19889780879 0.145638659596 0 0 255
-0.0713155865669 0.196375101805 0.150354340672 0 0 255
0.0897543430328 0.0400585569441 0.177761226892 0 0 255
0.0735380649567 0.196406707168 0.167717143893 0 0 255
0.0750250816345 0.0376166962087 0.236778020859 0 0 255
0.0262103956193 0.202751353383 0.102969922125 0 0 255
0.116828948259 0.0378187373281 0.234661668539 0 0 255
0.11182180047 0.0382618419826 0.228054448962 0 0 255
0.117392599583 0.0385961532593 0.225698709488 0 0 255
-0.0568881705403 0.17351526022 0.135055571795 0 0 255
0.10034301132 0.0409741178155 0.123985178769 0 0 255
-0.0699687823653 0.04103910923 0.190352320671 0 0 255
0.099429666996 0.041201710701 0.12105794251 0 0 255
-0.0829757675529 0.0431404747069 0.162038609385 0 0 255
0.098925717175 0.0384140685201 0.165126815438 0 0 255
0.105786703527 0.0385419540107 0.246076375246 0 0 255
0.00972238741815 0.200016796589 0.0959088131785 0 0 255
0.0579809397459 0.0370152406394 0.239041343331 0 0 255
0.0593318678439 0.0376546382904 0.220416247845 0 0 255
0.0779409706593 0.194390639663 0.158101469278 0 0 255
0.0810740590096 0.194822117686 0.142416998744 0 0 255
-0.0666963383555 0.19759221375 0.148875936866 0 0 255
0.117049299181 0.0380382053554 0.232148647308 0 0 255
-0.0674056485295 0.197802886367 0.146204605699 0 0 255
0.113483339548 0.0380924493074 0.230509266257 0 0 255
0.0735208541155 0.0370077081025 0.220494404435 0 0 255
-0.08297855407 0.0419182814658 0.164875000715 0 0 255
0.103876568377 0.038613025099 0.244705274701 0 0 255
0.0569240786135 0.0373244285583 0.223613470793 0 0 255
-0.0578988343477 0.194409370422 0.13118006289 0 0 255
0.0900867506862 0.0401617996395 0.176643326879 0 0 255
0.0352875478566 0.21534319222 0.107319518924 0 0 255
0.0783574432135 0.0378274284303 0.235242694616 0 0 255
0.140004098415 0.0390065163374 0.227243304253 0 0 255
0.0771948248148 0.194221496582 0.159876123071 0 0 255
0.0450155064464 0.201527699828 0.0996102243662 0 0 255
-0.035402122885 0.19515915215 0.186224594712 0 0 255
0.0592024512589 0.0373928770423 0.234954044223 0 0 255
0.0984606146812 0.0399889610708 0.158020541072 0 0 255
-0.0722978934646 0.195344269276 0.150669932365 0 0 255
0.0934829413891 0.0379778966308 0.237731218338 0 0 255
0.0782735496759 0.0377840958536 0.224224582314 0 0 255
-0.0756891816854 0.0428411215544 0.179103210568 0 0 255
-0.0582026541233 0.17376871407 0.131712138653 0 0 255
0.120198257267 0.0383268967271 0.241149932146 0 0 255
0.0644375756383 0.0378462560475 0.219603925943 0 0 255
0.0768782123923 0.0376456640661 0.236959308386 0 0 255
-0.082863651216 0.0429873466492 0.163866832852 0 0 255
0.0816656127572 0.193124502897 0.139495909214 0 0 255
0.139994055033 0.0388192124665 0.229438111186 0 0 255
-0.0645506307483 0.198481798172 0.150544598699 0 0 255
0.0351588241756 0.217525109649 0.104688495398 0 0 255
-0.0579788088799 0.17362010479 0.133518770337 0 0 255
0.0798432677984 0.192880138755 0.153353393078 0 0 255
-0.0884565189481 0.0429760999978 0.139419943094 0 0 255
0.141923502088 0.0384115837514 0.234763532877 0 0 255
-0.0598421692848 0.196876898408 0.147693440318 0 0 255
0.117910884321 0.038230791688 0.241634219885 0 0 255
0.0950360894203 0.0380199477077 0.226171717048 0 0 255
0.118609413505 0.0380823388696 0.232069581747 0 0 255
0.11802624166 0.0378998033702 0.222544372082 0 0 255
0.118929743767 0.0382168143988 0.242084801197 0 0 255
0.115469612181 0.0384663082659 0.238184288144 0 0 255
-0.0888921618462 0.0369388014078 0.175624892116 0 0 255
0.1198611781 0.0377380140126 0.236461609602 0 0 255
-0.0331463739276 0.197139009833 0.186635002494 0 0 255
-0.0459276549518 0.195102259517 0.172428846359 0 0 255
-0.0119294244796 0.201658114791 0.105070360005 0 0 255
0.0743777751923 0.196599379182 0.165692687035 0 0 255
-0.0482662729919 0.171608045697 0.171361014247 0 0 255
-0.0401035957038 0.20364934206 0.108292013407 0 0 255
0.0692935436964 0.0371215343475 0.229472875595 0 0 255
0.141394764185 0.0386048704386 0.232346966863 0 0 255
-0.0510457009077 0.0438995435834 -0.205980837345 0 0 255
0.0506363585591 0.172950074077 0.171927914023 0 0 255
-0.0653296560049 0.199066743255 0.14346241951 0 0 255
0.0370261259377 0.218871533871 0.10091894865 0 0 255
0.0676347613335 0.0374482795596 0.236675545573 0 0 255
0.103729523718 0.0377338901162 0.243475958705 0 0 255
0.0463618114591 0.199487566948 0.0779142007232 0 0 255
-0.035829950124 0.194229826331 0.185505226254 0 0 255
-0.015845598653 0.198680385947 0.196421533823 0 0 255
-0.0531870611012 0.0510098934174 -0.209489062428 0 0 255
-0.014937675558 0.197682872415 0.196877866983 0 0 255
-0.00929121300578 0.198659777641 0.117986187339 0 0 255
-0.0584004037082 0.0527108535171 -0.207906961441 0 0 255
0.0967250913382 0.0382376015186 0.22409299016 0 0 255
0.149346187711 0.0387839898467 0.220978707075 0 0 255
0.0315678864717 0.20545783639 0.107230052352 0 0 255
-0.0271201413125 0.171810016036 0.151932567358 0 0 255
-0.138665795326 0.038289129734 -0.0267610866576 0 0 255
0.0469221435487 0.200355783105 0.102393768728 0 0 255
0.091593451798 0.0406173802912 0.171721726656 0 0 255
-0.069039709866 0.0409980751574 0.191095039248 0 0 255
-0.0543887093663 0.198105737567 0.100300356746 0 0 255
-0.0402226410806 0.171420320868 0.175825789571 0 0 255
